<svg width="24" height="24" viewBox="0 0 24 24" fill="none" xmlns="http://www.w3.org/2000/svg">
<circle cx="12" cy="12" r="12" fill="#C8E4FB"/>
<path d="M6.54596 16.0833C6.28346 16.0833 6.08901 15.9958 5.96262 15.8208C5.83624 15.6458 5.82165 15.4319 5.91887 15.1791L8.39804 8.58746C8.47582 8.40274 8.6096 8.24485 8.79937 8.11379C8.98876 7.98235 9.18554 7.91663 9.38971 7.91663C9.58415 7.91663 9.77374 7.98235 9.95846 8.11379C10.1432 8.24485 10.2744 8.40274 10.3522 8.58746L12.8168 15.1645C12.914 15.4173 12.902 15.6337 12.7806 15.8138C12.6589 15.9935 12.4571 16.0833 12.1751 16.0833C12.0682 16.0833 11.9612 16.0467 11.8543 15.9736C11.7473 15.9009 11.6744 15.8111 11.6355 15.7041L11.023 13.9979H7.72721L7.12929 15.6895C7.0904 15.7965 7.01515 15.8888 6.90354 15.9666C6.79154 16.0444 6.67235 16.0833 6.54596 16.0833ZM8.15012 12.8166H10.6001L9.40429 9.43329H9.34596L8.15012 12.8166ZM16.0835 14.3333C15.9182 14.3333 15.7797 14.2773 15.6681 14.1653C15.5561 14.0537 15.5001 13.9152 15.5001 13.75V12.5833H14.3335C14.1682 12.5833 14.0297 12.5273 13.9181 12.4153C13.8061 12.3037 13.7501 12.1652 13.7501 12C13.7501 11.8347 13.8061 11.696 13.9181 11.584C14.0297 11.4724 14.1682 11.4166 14.3335 11.4166H15.5001V10.25C15.5001 10.0847 15.5561 9.94604 15.6681 9.83404C15.7797 9.72243 15.9182 9.66663 16.0835 9.66663C16.2487 9.66663 16.3872 9.72243 16.4988 9.83404C16.6108 9.94604 16.6668 10.0847 16.6668 10.25V11.4166H17.8335C17.9987 11.4166 18.1372 11.4724 18.2488 11.584C18.3608 11.696 18.4168 11.8347 18.4168 12C18.4168 12.1652 18.3608 12.3037 18.2488 12.4153C18.1372 12.5273 17.9987 12.5833 17.8335 12.5833H16.6668V13.75C16.6668 13.9152 16.6108 14.0537 16.4988 14.1653C16.3872 14.2773 16.2487 14.3333 16.0835 14.3333Z" fill="black"/>
</svg>
