<svg width="200" height="200" viewBox="0 0 200 200" fill="none" xmlns="http://www.w3.org/2000/svg">
<path d="M145.483 147.572H196.891C196.891 147.572 194.334 144.352 191.518 143.949C191.518 143.949 186.056 128.159 176.859 128.048C168.332 127.943 164.91 137.755 164.91 137.755C164.91 137.755 160.938 133.353 157.183 135.352C153.429 137.351 151.269 143.127 151.269 143.127C151.269 143.127 147.023 145.356 145.483 147.572Z" fill="#EBEBEB"/>
<path d="M68.1184 86.2056H3.1087C3.1087 86.2056 3.1087 82.1885 12.0475 81.4005C12.0475 81.4005 20.2215 63.833 32.706 66.1971C40.4827 67.6387 44.4555 77.9936 44.4555 77.9936C44.4555 77.9936 50.3302 69.8634 55.0281 71.4395C59.7259 73.0156 62.5168 81.6647 62.5168 81.6647C62.5168 81.6647 67.3834 83.9376 68.1184 86.2056Z" fill="#EBEBEB"/>
<path d="M194.076 72.6359H149.878C149.878 72.6359 154.05 68.8783 155.902 68.8783C157.754 68.8783 163.167 56.265 170.08 56.8031C176.993 57.3413 180.662 66.7305 180.662 66.7305C180.662 66.7305 189.065 64.1837 194.076 72.6359Z" fill="#EBEBEB"/>
<path d="M90.3312 138.24H52.5302C52.5302 138.24 54.4123 135.871 56.503 135.578C56.503 135.578 60.5304 123.969 67.2792 123.882C73.5512 123.806 76.0689 131.023 76.0689 131.023C76.0689 131.023 78.974 127.789 81.75 129.269C84.526 130.749 86.0953 134.982 86.0953 134.982C86.0953 134.982 89.199 136.611 90.3312 138.24Z" fill="#EBEBEB"/>
<path d="M39.8272 28.9048H91.2351C91.2351 28.9048 88.6776 25.6854 85.8619 25.2818C85.8619 25.2818 80.3993 9.49222 71.2073 9.38171C62.6757 9.27599 59.279 19.0928 59.279 19.0928C59.279 19.0928 55.3062 14.6913 51.5519 16.6903C47.7976 18.6892 45.6374 24.4649 45.6374 24.4649C45.6374 24.4649 41.3667 26.6897 39.8272 28.9048Z" fill="#EBEBEB"/>
<path d="M100 200C137.665 200 168.198 195.332 168.198 189.573C168.198 183.814 137.665 179.146 100 179.146C62.3354 179.146 31.8022 183.814 31.8022 189.573C31.8022 195.332 62.3354 200 100 200Z" fill="#EBEBEB"/>
<path d="M0 177.728L25.0037 177.613L50.0025 177.57L100 177.488L149.998 177.57L174.996 177.613L200 177.728L174.996 177.848L149.998 177.887L100 177.969L50.0025 177.887L25.0037 177.844L0 177.728Z" fill="#263238"/>
<path d="M75.5177 177.728H35.5862C35.5862 177.728 35.6756 171.962 39.6037 170.453C40.667 170.004 41.8527 169.901 42.9815 170.161C44.1104 170.421 45.1211 171.03 45.8608 171.895C45.8608 171.895 47.4599 161.324 54.7996 161.324C62.1393 161.324 65.6155 170.453 65.6155 170.453C65.6155 170.453 67.2245 167.71 71.2916 168.19C75.3588 168.671 75.5177 177.728 75.5177 177.728Z" fill="#37474F"/>
<path d="M194.081 177.728C194.081 177.728 192.854 172.203 190.411 171.352C187.967 170.502 186.478 172.981 186.478 172.981C186.478 172.981 185.912 167.71 182.435 166.119C178.959 164.529 176.367 167.772 176.367 167.772C176.367 167.772 173.71 161.074 168.958 161.074C164.205 161.074 161.807 170.876 161.807 170.876C161.807 170.876 159.001 167.955 156.116 169.632C153.23 171.309 153.24 177.752 153.24 177.752L194.081 177.728Z" fill="#37474F"/>
<path d="M42.7422 177.728H5.91946C5.91946 177.728 7.13613 172.707 9.57443 172.351C12.0127 171.996 13.1499 174.322 13.1499 174.322C13.1499 174.322 13.0407 167.316 17.6193 166.124C22.198 164.932 26.0069 171.121 26.0069 171.121C26.0069 171.121 28.8673 167.59 32.7606 167.815C36.6539 168.041 37.6471 173.875 37.6471 173.875C37.6471 173.875 41.173 171.852 42.7422 177.728Z" fill="#455A64"/>
<path d="M155.892 177.728H133.272C133.272 177.728 133.327 174.471 135.552 173.606C136.155 173.352 136.827 173.294 137.466 173.443C138.106 173.591 138.679 173.936 139.097 174.427C139.097 174.427 140.001 168.44 144.148 168.44C148.294 168.44 150.276 173.606 150.276 173.606C150.627 173.112 151.12 172.729 151.693 172.503C152.267 172.276 152.896 172.217 153.504 172.332C155.798 172.625 155.892 177.728 155.892 177.728Z" fill="#455A64"/>
<path d="M115.772 5.02361C121.552 14.6338 119.596 27.9776 107.588 36.9871C96.6629 45.1846 80.2751 43.9833 74.1868 37.1985C67.731 29.9909 70.214 20.0107 76.8883 16.8009C83.3193 13.7064 90.0233 15.3594 94.2394 11.6402C96.2556 9.85753 97.6511 5.59541 100.511 2.83248C103.705 -0.242782 112.052 -1.14133 115.772 5.02361Z" fill="#263238"/>
<path d="M81.9337 42.3831C86.4296 43.7637 91.2145 44.015 95.8385 43.1135C100.48 42.1935 104.84 40.2518 108.581 37.4387C112.387 34.6871 115.357 30.9961 117.182 26.7522C118.919 22.4952 119.434 17.8629 118.672 13.3459C119.216 17.8461 118.563 22.406 116.775 26.5936C115.862 28.6619 114.664 30.6015 113.214 32.3597C111.757 34.1079 110.081 35.6736 108.224 37.0207C106.384 38.3908 104.402 39.5713 102.309 40.5428C98.0946 42.4746 93.4742 43.4336 88.8116 43.3442C86.4857 43.3127 84.1738 42.9897 81.9337 42.3831Z" fill="#263238"/>
<path d="M74.9565 17.3102C76.1007 16.4532 77.3779 15.777 78.7406 15.3065C80.0908 14.8292 81.4942 14.5067 82.922 14.3455C84.3621 14.1821 85.8022 13.9851 87.2374 13.7352C88.6926 13.4865 90.1126 13.0736 91.4684 12.5051C92.1524 12.2222 92.8074 11.8779 93.425 11.4768C94.0315 11.0514 94.5775 10.5506 95.0489 9.98726C95.943 8.86991 96.7672 7.70179 97.517 6.48915C98.2643 5.30033 99.1654 4.20874 100.199 3.24091C101.245 2.27835 102.466 1.50964 103.799 0.9729C102.406 1.4191 101.116 2.12242 100 3.0439C98.9088 3.99305 97.9475 5.07335 97.1396 6.25851C96.3003 7.41173 95.5703 8.62742 94.6566 9.67974C94.209 10.2049 93.6913 10.6703 93.1171 11.0636C92.5237 11.4399 91.8953 11.7616 91.24 12.0246C88.6279 13.149 85.7129 13.4662 82.8624 13.9082C81.4154 14.1201 79.9999 14.4992 78.6463 15.0374C77.2917 15.5865 76.0439 16.3551 74.9565 17.3102Z" fill="#263238"/>
<path d="M34.3795 105.907C33.0586 103.389 54.9486 75.9516 74.1074 53.0746C74.1095 53.0709 74.1107 53.0668 74.1107 53.0626C74.1107 53.0584 74.1095 53.0542 74.1074 53.0506C82.7581 42.7292 90.2269 32.1388 95.8782 26.2237C99.4686 22.4613 102.756 21.5483 103.72 21.5483C106.908 21.5483 115.34 23.6289 113.974 40.2402C112.941 52.8007 110.29 66.0435 113.334 79.911C116.378 93.7786 124.234 106.517 132.229 112.139C140.224 117.761 152.048 118.265 150.807 118.164C150.425 118.131 148.821 120.207 144.808 121.643C139.842 123.402 132.155 123.878 128.599 125.531C121.319 128.894 115.414 136.635 104.425 137.543C92.849 138.504 80.3695 130.956 69.0073 126.713C55.2267 121.547 45.7516 127.621 34.3795 105.907Z" fill="#88BCA1"/>
<g opacity="0.1">
<path opacity="0.1" d="M34.3795 105.907C33.0586 103.389 54.9486 75.9516 74.1074 53.0746C74.1095 53.0709 74.1107 53.0668 74.1107 53.0626C74.1107 53.0584 74.1095 53.0542 74.1074 53.0506C82.7581 42.7292 90.2269 32.1388 95.8782 26.2237C99.4686 22.4613 102.756 21.5483 103.72 21.5483C106.908 21.5483 115.34 23.6289 113.974 40.2402C112.941 52.8007 110.29 66.0435 113.334 79.911C116.378 93.7786 124.234 106.517 132.229 112.139C140.224 117.761 152.048 118.265 150.807 118.164C150.425 118.131 148.821 120.207 144.808 121.643C139.842 123.402 132.155 123.878 128.599 125.531C121.319 128.894 115.414 136.635 104.425 137.543C92.849 138.504 80.3695 130.956 69.0073 126.713C55.2267 121.547 45.7516 127.621 34.3795 105.907Z" fill="black"/>
</g>
<path opacity="0.1" d="M74.0776 128.736C72.3742 128.015 70.6908 127.323 69.0272 126.703C65.7866 125.558 62.4313 124.743 59.0157 124.272C59.0157 124.272 73.4171 95.4412 82.3807 90.91C87.2871 88.4257 78.7108 100.438 74.0776 128.736Z" fill="black"/>
<path opacity="0.1" d="M135.338 123.786C132.676 124.267 130.223 124.786 128.619 125.531C126.787 126.426 125.038 127.471 123.39 128.654C114.451 118.871 108.874 111.442 107.861 103.384C107.211 98.2137 118.548 119.034 135.338 123.786Z" fill="black"/>
<path opacity="0.1" d="M83.5229 132.81C81.9785 132.171 80.439 131.503 78.9045 130.835C82.3112 120.552 83.2746 110.298 84.4217 111.096C85.6731 111.97 84.4217 124.997 83.5229 132.81Z" fill="black"/>
<path d="M50.7424 131.061C50.7424 131.061 38.7446 125.127 32.3385 108.622C31.7128 107.012 36.4652 91.6211 42.335 83.5005C48.2048 75.3799 55.4949 71.4878 64.6124 63.5498C73.73 55.6117 91.3393 29.2269 97.6064 24.4555C101.912 21.1784 103.739 21.5724 103.739 21.5724C103.739 21.5724 98.2172 24.9985 95.8534 27.8335C86.5174 39.0582 75.6716 63.6074 71.1576 68.6768C65.6404 74.9234 59.0306 81.4343 55.9021 87.5656C52.3961 94.4561 49.9181 124.738 50.7424 131.061Z" fill="#88BCA1"/>
<path d="M151.338 189.876C150.087 190.27 113.344 189.948 111.993 189.097C111.496 188.785 114.183 155.082 114.183 155.082L137.563 155.226L135.129 177.801C135.129 177.801 148.761 183.826 150.156 184.912C151.552 185.998 152.595 189.482 151.338 189.876Z" fill="#EB9481"/>
<path d="M151.338 189.876C150.087 190.27 113.344 189.948 111.993 189.097C111.829 189.001 111.74 185.58 112.266 181.125C118.94 182.125 142.757 185.368 144.595 184.292C145.876 183.542 144.719 182.408 143.651 181.649C146.705 183.091 149.556 184.451 150.146 184.917C151.522 185.998 152.59 189.486 151.338 189.876Z" fill="#263238"/>
<path d="M136.952 172.356H111.193C111.193 172.356 116.045 119.294 115.841 118.275C115.583 116.973 114.064 111.067 112.038 103.379C111.402 100.977 110.722 98.3866 110.006 95.691C108.09 88.4497 105.969 80.5357 104.127 73.6452C101.361 63.3286 99.2005 55.3137 99.2005 55.3137H121.026C121.026 55.3137 123.574 63.1172 126.777 73.2704C132.001 89.7711 138.983 112.48 139.688 118.001C140.791 126.943 136.952 172.356 136.952 172.356Z" fill="#37474F"/>
<path d="M135.81 168.104C131.877 168.027 133.009 167.993 129.071 167.96C127.149 167.96 114.496 167.835 112.683 168.123C112.673 168.123 112.663 168.127 112.655 168.134C112.648 168.141 112.643 168.151 112.643 168.161C112.643 168.172 112.648 168.181 112.655 168.189C112.663 168.196 112.673 168.2 112.683 168.2C114.481 168.488 127.134 168.382 129.071 168.363C133.009 168.325 131.877 168.296 135.81 168.214C135.822 168.211 135.833 168.203 135.841 168.193C135.848 168.183 135.852 168.171 135.852 168.159C135.852 168.147 135.848 168.134 135.841 168.125C135.833 168.115 135.822 168.107 135.81 168.104Z" fill="#263238"/>
<path d="M120.688 114.719C119.844 111.115 118.583 107.584 117.48 104.047C115.249 96.8651 113.004 89.6847 110.746 82.5059C109.621 78.9181 108.487 75.3287 107.345 71.7377C106.769 69.9309 106.198 68.1194 105.612 66.3127C105.026 64.506 104.385 62.7906 103.868 61.0271C103.655 60.3015 103.541 60.7003 103.809 61.6229C104.355 63.4825 104.891 65.3421 105.453 67.1968C106.558 70.8679 107.674 74.5374 108.8 78.2053C111.034 85.5091 113.287 92.8064 115.558 100.097C116.691 103.756 117.826 107.411 118.965 111.063C119.54 112.796 120.006 114.561 120.361 116.348C120.662 118.227 120.739 120.132 120.589 122.028C120.341 125.838 119.884 129.644 119.521 133.45C119.159 137.255 118.791 141.075 118.424 144.886C117.699 152.473 117.311 154.914 116.606 162.506C116.517 163.467 116.427 164.428 116.353 165.389C116.328 165.711 116.85 165.687 116.85 165.389C117.699 157.888 118.012 155.505 118.742 147.99C119.472 140.475 120.187 133.036 120.912 125.56C121.091 123.686 121.299 121.802 121.299 119.918C121.296 118.169 121.091 116.425 120.688 114.719Z" fill="#263238"/>
<path d="M118.548 55.3376C117.033 66.6825 114.143 87.9547 112.038 103.389C107.116 84.692 99.2005 55.3376 99.2005 55.3376H118.548Z" fill="#263238"/>
<path d="M123.911 190.294C122.66 190.688 85.9165 190.366 84.5657 189.515C84.0691 189.203 85.1418 155.5 85.1418 155.5L108.522 155.649L107.697 178.199C107.697 178.199 121.334 184.249 122.719 185.335C124.105 186.421 125.163 189.9 123.911 190.294Z" fill="#EB9481"/>
<path d="M123.911 190.294C122.66 190.688 85.9165 190.366 84.5657 189.515C84.4018 189.419 84.3969 186.089 84.4664 181.544C91.1407 182.543 115.33 185.787 117.167 184.71C118.449 183.961 117.292 182.827 116.224 182.067C119.278 183.509 122.128 184.869 122.719 185.335C124.095 186.411 125.163 189.9 123.911 190.294Z" fill="#263238"/>
<path d="M120.321 55.3376C120.321 55.3376 119.824 65.4284 117.426 73.4481C117.237 74.1112 117.028 74.7599 116.805 75.3701C114.614 76.2264 112.508 77.2734 110.513 78.4982C110.513 78.4982 110.26 86.6332 110.016 95.7005C109.738 105.834 109.45 117.146 109.52 119.543C109.738 128.514 108.611 172.241 108.611 172.241L82.8574 172.342C82.8574 172.342 87.2622 122.849 87.2325 119.567C87.1828 114.282 88.4789 90.9338 89.482 73.919C90.068 63.439 90.5646 55.3376 90.5646 55.3376H120.321Z" fill="#37474F"/>
<path d="M107.707 167.825C103.774 167.763 104.906 167.724 100.968 167.705C99.0465 167.705 86.3932 167.643 84.5806 167.936C84.5409 167.936 84.5409 168.008 84.5806 168.013C86.3783 168.296 99.0316 168.137 100.968 168.109C104.901 168.056 103.769 168.032 107.702 167.936C107.715 167.933 107.726 167.926 107.734 167.916C107.742 167.907 107.747 167.895 107.747 167.882C107.748 167.87 107.744 167.858 107.737 167.847C107.73 167.837 107.719 167.829 107.707 167.825Z" fill="#263238"/>
<path d="M92.7397 58.9513C92.268 72.8524 91.7465 86.7536 91.1208 100.65C90.4951 114.546 89.6062 128.519 88.3995 142.454C87.7291 150.224 87.3417 155.548 86.4776 163.299C86.4776 163.352 86.5521 163.371 86.5621 163.299C88.4342 149.508 89.2288 138.067 90.1525 124.19C91.0761 110.313 91.6969 96.4166 92.1885 82.5203C92.4666 74.6592 92.6851 66.798 92.9185 58.9369C92.9235 58.8264 92.7447 58.8408 92.7397 58.9513Z" fill="#263238"/>
<path d="M117.878 74.784C115.318 75.819 112.855 77.0666 110.518 78.5128C110.424 78.5705 110.493 78.7098 110.592 78.6617C113.075 77.4941 115.613 76.3697 118.041 75.0723C118.081 75.0513 118.11 75.016 118.123 74.9741C118.135 74.9322 118.13 74.8871 118.108 74.8489C118.087 74.8107 118.05 74.7824 118.007 74.7702C117.964 74.758 117.917 74.763 117.878 74.784Z" fill="#263238"/>
<path d="M118.017 66.2118C117.848 67.0959 117.624 67.9705 117.431 68.8546C117.237 69.7387 117.108 70.522 116.879 71.3388C116.697 72.1286 116.283 72.8509 115.688 73.4194C115.35 73.7222 114.982 73.9864 114.625 74.2651C114.431 74.4141 114.223 74.5582 114.024 74.7072C114.049 74.5919 114.069 74.4717 114.093 74.3516L114.272 73.3425C114.401 72.5978 114.526 71.8482 114.64 71.1034C114.873 69.633 115.087 68.1482 115.404 66.6923C115.405 66.6811 115.402 66.6701 115.395 66.661C115.389 66.6519 115.379 66.6454 115.368 66.6425C115.356 66.6397 115.345 66.6407 115.334 66.6454C115.324 66.6501 115.315 66.6582 115.31 66.6683C114.933 68.1098 114.516 69.5513 114.183 70.9929C114.024 71.704 113.448 75.2261 113.418 75.476C113.388 75.7259 113.373 75.9902 113.363 76.2496C113.326 76.5111 113.326 76.7762 113.363 77.0377C113.363 77.1001 113.458 77.0905 113.488 77.0377C113.6 76.794 113.678 76.5371 113.721 76.2737C113.786 76.019 113.845 75.7643 113.895 75.5096C113.895 75.4183 113.925 75.3222 113.935 75.2309C114.292 75.0195 114.63 74.7504 114.963 74.5054C115.295 74.2603 115.693 74.0249 116.035 73.727C116.665 73.21 117.12 72.522 117.341 71.7521C117.56 70.9218 117.703 70.0744 117.768 69.2198C117.883 68.2203 117.967 67.216 118.116 66.2166C118.121 66.1733 118.031 66.1493 118.017 66.2118Z" fill="#263238"/>
<path d="M108.119 29.8852C115.335 41.0666 133.386 57.4616 138.238 54.3911C144.197 50.6432 142.429 32.6961 142.365 29.6209C142.325 27.4682 125.977 30.1494 126.821 32.3069C127.318 33.6139 127.735 35.3197 127.402 35.1611C126.359 34.6806 124.155 31.9273 114.247 25.4068C108.73 21.7886 103.342 22.4805 108.119 29.8852Z" fill="#EB9481"/>
<path d="M137.384 11.0252C136.904 10.9731 136.418 11.065 135.994 11.2884C135.569 11.5118 135.226 11.8561 135.01 12.2745C134.385 11.7634 133.594 11.4796 132.775 11.4721C131.325 11.5249 130.789 13.7449 130.789 13.7449C130.03 13.3472 129.165 13.1798 128.306 13.2644C126.926 13.447 126.047 15.6093 126.047 15.6093C125.132 15.6176 124.251 15.9433 123.564 16.5271C121.796 18.156 122.546 21.6877 122.997 23.9365C123.449 26.1853 126.911 32.158 127.467 33.3641L142.419 30.6781C142.419 30.6781 143.358 20.03 142.419 17.4544C141.615 15.2825 139.231 11.2847 137.384 11.0252Z" fill="#EB9481"/>
<path d="M135.258 12.3322C136.654 14.4465 137.329 16.8442 138.139 19.1987C138.143 19.2095 138.142 19.2215 138.137 19.2318C138.132 19.2422 138.123 19.2501 138.111 19.254C138.1 19.2578 138.088 19.2572 138.077 19.2522C138.067 19.2472 138.058 19.2384 138.054 19.2275C137.275 16.873 136.023 14.7011 135.149 12.3851C135.142 12.3711 135.141 12.3548 135.146 12.34C135.151 12.3251 135.162 12.3128 135.177 12.3058C135.191 12.2988 135.208 12.2976 135.223 12.3026C135.239 12.3076 135.251 12.3182 135.258 12.3322Z" fill="#263238"/>
<path d="M130.978 13.7544C131.252 14.27 131.45 14.8198 131.569 15.3881C131.738 15.9743 131.903 16.5605 132.065 17.1468C132.363 18.3224 132.63 19.5077 132.865 20.7025C132.865 20.7554 132.795 20.7842 132.78 20.7025C132.483 19.5301 132.165 18.3624 131.817 17.1996C131.643 16.6182 131.46 16.0416 131.276 15.4602C131.067 14.9263 130.919 14.372 130.834 13.8072C130.836 13.7924 130.843 13.7785 130.853 13.7668C130.863 13.7552 130.876 13.7463 130.89 13.741C130.905 13.7356 130.92 13.7341 130.936 13.7364C130.951 13.7388 130.966 13.7449 130.978 13.7544Z" fill="#263238"/>
<path d="M126.027 15.6572C126.263 16.1205 126.416 16.6194 126.479 17.1323C126.603 17.6705 126.727 18.2135 126.856 18.7516C127.119 19.828 127.377 20.9043 127.68 21.971C127.68 21.9825 127.676 21.9935 127.667 22.0016C127.659 22.0097 127.648 22.0143 127.636 22.0143C127.624 22.0143 127.613 22.0097 127.604 22.0016C127.596 21.9935 127.591 21.9825 127.591 21.971C127.283 20.8899 126.96 19.8088 126.662 18.7276C126.513 18.1942 126.369 17.6609 126.23 17.1227C126.052 16.6484 125.963 16.1473 125.967 15.6427C125.971 15.6382 125.977 15.6348 125.983 15.6331C125.989 15.6313 125.995 15.6311 126.001 15.6326C126.008 15.6341 126.013 15.6371 126.018 15.6415C126.022 15.6458 126.025 15.6512 126.027 15.6572Z" fill="#263238"/>
<path d="M126.717 33.3304L143.264 30.4137C143.264 30.4137 144.833 55.3522 136.907 55.3522C130.546 55.3522 114.004 39.7885 108.467 31.1105C102.93 22.4325 107.886 21.2504 114.228 24.9503C119.397 27.9679 125.207 33.1767 126.955 34.5605L126.717 33.3304Z" fill="#EBEBEB"/>
<path d="M126.896 34.5556L144.505 33.0372L143.989 29.6448L126.345 32.8594L126.896 34.5556Z" fill="#EBEBEB"/>
<path d="M138.526 54.9535C138.03 55.2176 137.473 55.3549 136.907 55.3523C130.546 55.3523 114.004 39.7886 108.467 31.1106C104.613 25.0754 105.84 22.668 109.078 23.0044L138.526 54.9535Z" fill="#DBDBDB"/>
<path d="M126.955 34.5557L127.358 36.0885L127.745 37.6165L128.52 40.6726C128.783 41.6864 129.051 42.7003 129.334 43.7094C129.478 44.2139 129.622 44.7184 129.791 45.2182C129.96 45.7179 130.119 46.2128 130.287 46.7222C129.771 45.7973 129.335 44.8331 128.981 43.8391C128.609 42.8445 128.321 41.8258 128.048 40.8071C127.775 39.7884 127.551 38.7505 127.382 37.7126C127.184 36.668 127.042 35.6143 126.955 34.5557Z" fill="#263238"/>
<path d="M142.941 33.0325C140.378 33.191 137.821 33.513 135.268 33.7965C134.002 33.9406 132.731 34.0896 131.464 34.2481C130.198 34.4067 128.892 34.6133 127.596 34.7287C127.551 34.7287 127.551 34.8103 127.596 34.8055C128.902 34.671 130.218 34.6085 131.529 34.4932C132.84 34.3779 134.067 34.2578 135.338 34.1184C137.876 33.8397 140.433 33.561 142.946 33.0949C142.995 33.0997 142.981 33.0277 142.941 33.0325Z" fill="#263238"/>
<path d="M125.495 67.2401L123.29 60.3592L121.741 50.2012C121.741 50.2012 125.014 44.5072 123.017 40.4757C122.024 38.4335 113.249 25.7577 109.609 23.259C106.183 20.9141 101.286 23.5281 99.4736 25.4165C92.5212 32.701 90.9917 50.6192 88.7024 70.1039L113.21 68.1819L115.613 63.0837L117.858 67.8215L125.495 67.2401Z" fill="#EBEBEB"/>
<path d="M123.623 41.6431C123.341 40.7907 122.935 39.9817 122.416 39.2406C122.243 38.9667 121.855 38.3949 121.393 37.7222C121.259 37.4002 121.11 37.0783 120.947 36.7611C120.674 36.3081 120.427 35.8413 120.207 35.3629C120.203 35.3533 120.195 35.3457 120.185 35.3416C120.175 35.3375 120.164 35.3374 120.154 35.3412C120.145 35.3451 120.137 35.3525 120.132 35.362C120.128 35.3714 120.128 35.3821 120.132 35.3917C120.367 35.8504 120.577 36.3203 120.763 36.7996C119.983 35.6848 119.159 34.5364 118.806 34.0655C118.776 34.027 118.712 34.0655 118.742 34.1039C119.491 35.0265 121.95 39.082 122.546 40.1103C123.124 41.1277 123.43 42.2693 123.434 43.4306C123.437 44.6317 123.29 45.8287 122.997 46.996C122.968 47.0969 123.072 47.145 123.112 47.0489C123.456 46.1973 123.674 45.3026 123.757 44.3916C123.882 43.475 123.837 42.5443 123.623 41.6431Z" fill="#263238"/>
<path d="M102.135 28.7128C99.9205 32.0235 89.0301 45.2615 88.6477 46.4916C88.2654 47.7218 91.5826 50.4943 91.5628 51.0036C91.4883 53.065 87.6744 66.9902 85.7625 65.6976C83.2398 63.9966 71.2817 51.7628 72.409 45.9967C73.5362 40.2306 96.6877 25.3348 100.412 23.9702C104.137 22.6055 104.32 25.4501 102.135 28.7128Z" fill="#EB9481"/>
<path d="M80.3893 61.1472L90.7434 49.9224C90.7434 49.9224 88.8216 47.2268 88.8315 46.828C88.8414 46.4291 98.3711 35.5024 102.041 29.5296C105.711 23.5569 104.211 21.7117 97.1992 25.1137C90.1872 28.5157 73.1886 41.2685 72.3345 45.4393C71.0334 51.8012 80.3893 61.1472 80.3893 61.1472Z" fill="#EBEBEB"/>
<path d="M78.7108 60.8492L81.4868 63.5401L91.3592 50.3885L90.222 48.8701L78.7108 60.8492Z" fill="#EBEBEB"/>
<path d="M89.6509 49.2402C88.7384 50.0534 87.873 50.9148 87.0587 51.8205C86.2045 52.6902 85.3752 53.584 84.5409 54.4681C82.8674 56.2508 81.2385 58.0479 79.6643 59.9123C79.6571 59.9199 79.6533 59.93 79.6537 59.9404C79.6542 59.9508 79.6589 59.9605 79.6668 59.9675C79.6747 59.9745 79.6852 59.9782 79.6959 59.9778C79.7066 59.9773 79.7167 59.9728 79.7239 59.9651C81.4968 58.2545 83.2001 56.491 84.8687 54.6795C85.7029 53.7906 86.5323 52.9016 87.3517 51.9935C88.1903 51.1294 88.9794 50.2214 89.7155 49.2738C89.7353 49.245 89.6807 49.2161 89.6509 49.2402Z" fill="#263238"/>
<path d="M97.81 36.3767C97.3978 36.7323 96.9856 37.0831 96.5685 37.4194L96.4195 37.5444C97.1445 36.5833 97.8563 35.6223 98.5549 34.6613C98.5549 34.6613 98.5301 34.6132 98.5152 34.6325C96.3696 37.0352 94.3667 39.554 92.5163 42.1765C92.5139 42.184 92.5141 42.192 92.5166 42.1995C92.5192 42.2069 92.524 42.2134 92.5305 42.2181C92.537 42.2229 92.5448 42.2255 92.5529 42.2258C92.561 42.2261 92.569 42.224 92.5759 42.2197C93.7429 40.9416 94.8403 39.6009 95.8981 38.2315C96.1613 38.0104 96.3947 37.7798 96.6629 37.5444C97.0552 37.1648 97.4574 36.7948 97.8646 36.4296C97.9043 36.3959 97.8448 36.3479 97.81 36.3767Z" fill="#263238"/>
<path d="M95.034 70.1133C96.4344 68.7535 93.9713 67.9366 93.9713 67.9366C93.9713 67.9366 97.805 68.2826 98.684 66.3413C99.563 64.4001 96.5188 63.5832 96.3053 63.5159C96.5089 63.5159 100.04 63.761 100.715 61.7188C101.415 59.595 98.2321 59.2106 98.0335 59.1866C98.2321 59.1433 100.819 58.5379 100.968 56.8753C101.222 53.9922 93.6584 55.1359 91.6969 53.7856C91.6969 53.7856 91.6969 50.0761 91.7366 49.9656C91.7366 49.9656 91.1953 51.5176 89.9588 52.1231C88.4243 52.8775 87.0139 53.4156 86.5124 54.295C86.2716 54.6825 86.1662 55.1348 86.2118 55.5848C86.2574 56.0349 86.4516 56.4587 86.7656 56.7936C86.7656 56.7936 84.67 56.9522 84.084 58.5427C83.7861 59.3643 84.8736 60.5512 84.8736 60.5512C84.8736 60.5512 83.2001 60.7482 82.773 62.1945C82.4254 63.3478 83.5676 64.3616 83.5676 64.3616C83.5676 64.3616 82.0529 65.2698 82.0778 66.5624C82.1572 69.1619 92.0197 73.0493 95.034 70.1133Z" fill="#EB9481"/>
<path d="M83.7066 64.5491C83.6718 64.5491 83.647 64.5731 83.6768 64.5923C86.7142 66.7268 90.3524 67.9136 94.1054 67.9943C94.2246 67.9943 94.2792 67.8069 94.1451 67.7829C90.5219 67.2005 87.0056 66.1112 83.7066 64.5491Z" fill="#263238"/>
<path d="M84.7991 60.5562C84.7594 60.5562 84.7296 60.5994 84.7644 60.6234C87.7887 62.7088 92.1786 64.136 96.355 63.6506C96.499 63.6506 96.6132 63.4825 96.4444 63.4873C93.6435 63.6026 87.8631 62.0601 84.7991 60.5562Z" fill="#263238"/>
<path d="M98.2917 59.0569C94.2692 59.3741 90.5447 58.4082 86.8699 56.885C86.8252 56.885 86.8004 56.9331 86.8352 56.9619C88.4243 58.1824 90.8725 58.9128 92.8291 59.3308C94.6317 59.7432 96.5141 59.6952 98.2917 59.1915C98.3761 59.1722 98.3811 59.0521 98.2917 59.0569Z" fill="#263238"/>
<path d="M83.4434 64.3712C82.7184 63.7754 82.1225 62.9585 82.3559 61.9975C82.4572 61.5615 82.7183 61.1758 83.0908 60.9116C83.5444 60.654 84.0554 60.5057 84.5806 60.4791C83.9052 59.7535 83.508 58.7204 83.9897 57.7931C84.2234 57.3927 84.6047 57.0924 85.0574 56.9522C85.5815 56.8007 86.1244 56.7183 86.6713 56.7071C86.4005 56.4988 86.1836 56.2322 86.0379 55.9286C85.8923 55.625 85.8218 55.2927 85.832 54.958C85.8589 54.5903 85.9761 54.2341 86.1739 53.919C86.3717 53.6039 86.6444 53.3391 86.9693 53.1465C87.7314 52.7033 88.5448 52.3485 89.3927 52.0894C89.8249 51.9395 90.2368 51.7395 90.6193 51.4936C91.0255 51.2075 91.3349 50.8112 91.5082 50.3548C91.5429 50.2731 91.5529 50.3548 91.5082 50.422C91.3915 50.7312 91.2238 51.0201 91.0116 51.2773C90.7883 51.5471 90.5314 51.7892 90.2468 51.9981C89.5167 52.4323 88.7549 52.8145 87.9674 53.1417C87.2848 53.4642 86.7301 53.9941 86.3882 54.6505C86.2432 54.9927 86.1994 55.3671 86.2617 55.732C86.3239 56.0969 86.4898 56.4378 86.7408 56.7167C86.7408 56.7167 86.7408 56.7936 86.6961 56.7984C86.2141 56.8852 85.7452 57.0305 85.3007 57.2309C84.9319 57.4036 84.6256 57.6799 84.4217 58.0237C84.2507 58.4396 84.196 58.8918 84.2631 59.3347C84.3303 59.7776 84.5168 60.1955 84.8041 60.5464C84.292 60.6837 83.8094 60.9082 83.3788 61.2095C83.1093 61.4501 82.9164 61.7602 82.8227 62.1032C82.715 62.4985 82.723 62.915 82.8458 63.3062C82.9685 63.6973 83.2012 64.0478 83.5179 64.3184C83.5213 64.3277 83.5213 64.3379 83.5179 64.3472C83.5213 64.3565 83.5213 64.3667 83.5179 64.376C83.5179 64.376 83.0213 64.6836 83.0213 64.6932C83.0213 64.7028 83.0213 64.6932 83.0213 64.6643C83.1554 64.5581 83.2964 64.4602 83.4434 64.3712Z" fill="#263238"/>
<path d="M102.24 23.2108C102.384 23.773 106.669 27.2903 109.326 27.1414C110.19 27.0885 108.646 22.615 108.646 22.615L108.72 22.2786L109.758 17.5312L103.973 14.0235L103.134 13.543C103.134 13.543 102.94 14.8596 102.711 16.5029C102.711 16.5798 102.687 16.6567 102.677 16.7384C102.667 16.82 102.647 16.9161 102.637 17.0026C102.602 17.2477 102.562 17.4831 102.533 17.7474C102.503 18.0117 102.483 18.1222 102.463 18.324C102.443 18.5259 102.418 18.7229 102.399 18.9199C102.241 20.3448 102.188 21.7787 102.24 23.2108Z" fill="#EB9481"/>
<path d="M102.711 16.5173C103.221 17.8426 104.022 19.0447 105.06 20.0404C106.097 21.0361 107.346 21.8014 108.72 22.2834L109.758 17.536L103.973 14.0235L103.134 13.543C103.134 13.543 102.94 14.874 102.711 16.5173Z" fill="#263238"/>
<path d="M116.661 10.5397C117.868 18.9775 112.782 20.6304 110.9 20.8755C109.197 21.1061 103.352 21.6635 101.251 13.394C99.1508 5.12438 102.826 1.91458 106.714 1.19862C110.602 0.482659 115.454 2.10198 116.661 10.5397Z" fill="#EB9481"/>
<path d="M113.716 9.21845C113.514 9.20336 113.314 9.17607 113.115 9.13676C112.9 9.13538 112.691 9.06623 112.519 8.93976C112.476 8.88711 112.453 8.82192 112.453 8.75476C112.453 8.6876 112.476 8.6224 112.519 8.56976C112.612 8.4713 112.731 8.39885 112.863 8.35996C112.995 8.32108 113.135 8.3172 113.269 8.34873C113.552 8.36717 113.816 8.48918 114.009 8.68989C114.053 8.73919 114.08 8.80003 114.087 8.86445C114.094 8.92888 114.081 8.99389 114.049 9.051C114.018 9.1081 113.969 9.15463 113.909 9.18451C113.85 9.21438 113.783 9.22622 113.716 9.21845Z" fill="#263238"/>
<path d="M107.886 10.3813C108.09 10.4149 108.288 10.4101 108.492 10.4245C108.702 10.4683 108.922 10.4447 109.118 10.3572C109.174 10.3181 109.215 10.2619 109.235 10.1975C109.255 10.1332 109.252 10.0643 109.227 10.0017C109.157 9.88543 109.057 9.78906 108.937 9.72237C108.817 9.65569 108.68 9.62108 108.542 9.62207C108.261 9.58254 107.976 9.64597 107.742 9.79986C107.69 9.83824 107.65 9.89044 107.628 9.95012C107.606 10.0098 107.603 10.0744 107.618 10.136C107.633 10.1976 107.667 10.2536 107.714 10.2971C107.762 10.3407 107.822 10.3699 107.886 10.3813Z" fill="#263238"/>
<path d="M109.162 11.866C109.162 11.866 109.118 11.8948 109.118 11.9188C109.192 12.4954 109.177 13.1681 108.656 13.4084C108.656 13.4084 108.656 13.442 108.656 13.4372C109.311 13.2931 109.326 12.3993 109.162 11.866Z" fill="#263238"/>
<path d="M108.571 11.3086C107.603 11.3086 107.702 13.1922 108.601 13.1778C109.5 13.1634 109.381 11.299 108.571 11.3086Z" fill="#263238"/>
<path d="M108.199 11.4287C108.035 11.5392 107.876 11.7362 107.677 11.765C107.479 11.7938 107.255 11.6161 107.091 11.4335H107.057C107.057 11.789 107.235 12.1494 107.633 12.1831C108.03 12.2167 108.239 11.8851 108.313 11.52C108.328 11.4767 108.263 11.3806 108.199 11.4287Z" fill="#263238"/>
<path d="M112.708 11.4143C112.708 11.4143 112.753 11.4143 112.758 11.4624C112.758 12.0438 112.872 12.7069 113.423 12.8751V12.9087C112.753 12.8462 112.619 11.9669 112.708 11.4143Z" fill="#263238"/>
<path d="M113.214 10.7848C114.173 10.6742 114.337 12.5386 113.443 12.6443C112.549 12.75 112.415 10.8809 113.214 10.7848Z" fill="#263238"/>
<path d="M113.627 10.8761C113.786 10.9626 113.954 11.1308 114.123 11.126C114.292 11.1212 114.471 10.9097 114.59 10.7031H114.62C114.665 11.0587 114.575 11.4383 114.223 11.5392C113.87 11.6401 113.642 11.3374 113.527 10.9914C113.517 10.9482 113.562 10.8425 113.627 10.8761Z" fill="#263238"/>
<path d="M112.057 14.0476C112.057 14.0476 112.236 14.9029 112.266 15.3114C112.266 15.3498 112.167 15.3738 112.023 15.3931C111.666 15.4799 111.292 15.4693 110.941 15.3624C110.59 15.2555 110.277 15.0565 110.036 14.7876C110.032 14.7795 110.031 14.7705 110.033 14.7617C110.034 14.7528 110.038 14.7447 110.045 14.7384C110.051 14.7321 110.06 14.7279 110.069 14.7264C110.078 14.7248 110.087 14.7261 110.096 14.73C110.657 15.0518 111.31 15.19 111.958 15.124C111.983 15.0086 111.601 13.6824 111.665 13.6824C112.002 13.6868 112.336 13.7369 112.658 13.8314C112.335 12.0343 111.72 10.3045 111.427 8.51216C111.427 8.44969 111.511 8.42567 111.531 8.47852C112.251 10.3148 112.78 12.2157 113.11 14.1533C113.115 14.36 112.231 14.1053 112.057 14.0476Z" fill="#263238"/>
<path d="M111.968 15.0807C111.775 15.4437 111.487 15.7517 111.134 15.9744C110.938 16.0894 110.711 16.1431 110.483 16.1282C109.987 16.0898 109.892 15.6477 109.912 15.2921C109.924 15.0901 109.961 14.8901 110.021 14.6963C110.611 15.0237 111.293 15.1585 111.968 15.0807Z" fill="#263238"/>
<path d="M111.134 15.9745C110.938 16.0895 110.711 16.1432 110.483 16.1282C109.987 16.0898 109.892 15.6477 109.912 15.2922C110.165 15.2554 110.424 15.3028 110.646 15.4268C110.868 15.5507 111.04 15.7438 111.134 15.9745Z" fill="#E587B4"/>
<path d="M101.356 12.7934C103.451 12.7069 103.263 9.51152 103.263 9.51152C103.263 9.51152 105.631 9.18477 105.607 5.46563C106.108 6.18745 106.776 6.78697 107.558 7.21715C108.339 7.64733 109.213 7.89648 110.111 7.94506C110.801 8.00753 108.422 6.41223 108.422 6.41223C108.422 6.41223 111.288 8.67543 116.323 7.5126C116.681 7.42611 115.638 2.27985 111.556 0.708583C107.474 -0.862684 103.938 0.319369 101.624 2.87568C101.624 2.87568 98.7734 4.31721 98.5847 7.01768C98.396 9.71814 100.541 12.8222 101.356 12.7934Z" fill="#263238"/>
<path d="M102.741 13.2739C102.741 13.2739 100.68 10.7128 99.4736 11.4335C98.2669 12.1543 99.9056 15.9359 101.395 16.3876C101.582 16.4585 101.782 16.4922 101.983 16.4866C102.183 16.481 102.38 16.4362 102.563 16.355C102.745 16.2737 102.908 16.1577 103.043 16.0139C103.178 15.87 103.281 15.7013 103.347 15.5179L102.741 13.2739Z" fill="#EB9481"/>
<path d="M99.9702 12.5051C99.9702 12.5051 99.9454 12.5388 99.9702 12.5436C101.018 12.8943 101.604 13.7881 102.031 14.7251C101.967 14.6287 101.881 14.547 101.781 14.4856C101.681 14.4243 101.568 14.3847 101.451 14.3696C101.333 14.3545 101.214 14.3643 101.1 14.3983C100.987 14.4323 100.883 14.4897 100.795 14.5665C100.77 14.5665 100.795 14.6242 100.824 14.6194C101.002 14.5539 101.195 14.5438 101.379 14.5903C101.562 14.6368 101.726 14.7377 101.847 14.8788C102.04 15.1159 102.207 15.372 102.344 15.6429C102.399 15.7293 102.562 15.6717 102.523 15.5708C102.483 14.283 101.381 12.5628 99.9702 12.5051Z" fill="#263238"/>
<path d="M108.333 27.4009C109.038 30.356 109.694 33.3256 110.319 36.2903C110.945 39.2551 111.566 42.239 112.192 45.2086C112.817 48.1781 113.388 51.1669 113.954 54.1509L114.794 58.6244C115.057 60.1236 115.335 61.6132 115.583 63.1124C115.226 61.6372 114.898 60.1524 114.555 58.6725L113.562 54.2229C112.922 51.2534 112.316 48.2742 111.69 45.3047C111.064 42.3351 110.493 39.3463 109.927 36.3624C109.361 33.3784 108.839 30.3848 108.333 27.4009Z" fill="#263238"/>
<path d="M112.47 36.0885C112.496 36.1991 112.487 36.3146 112.445 36.4204C112.403 36.5262 112.329 36.6176 112.233 36.6828C112.137 36.748 112.024 36.7842 111.907 36.7868C111.789 36.7893 111.674 36.7581 111.575 36.6971C111.477 36.6361 111.399 36.5481 111.352 36.4442C111.305 36.3403 111.291 36.2252 111.312 36.1136C111.333 36.0021 111.387 35.899 111.469 35.8175C111.55 35.736 111.655 35.6798 111.769 35.656C111.921 35.6245 112.08 35.6522 112.211 35.7331C112.342 35.8141 112.435 35.9418 112.47 36.0885Z" fill="#263238"/>
<path d="M113.517 41.8594C113.542 41.969 113.533 42.0834 113.491 42.1879C113.449 42.2925 113.375 42.3825 113.28 42.4467C113.185 42.5108 113.072 42.5462 112.956 42.5482C112.84 42.5503 112.726 42.519 112.628 42.4583C112.531 42.3975 112.454 42.3102 112.408 42.2072C112.361 42.1042 112.348 41.9903 112.369 41.8798C112.389 41.7694 112.444 41.6674 112.524 41.5867C112.605 41.5061 112.709 41.4505 112.822 41.4269C112.974 41.3955 113.132 41.4233 113.262 41.5044C113.392 41.5854 113.484 41.713 113.517 41.8594Z" fill="#263238"/>
<path d="M114.57 47.6352C114.594 47.7447 114.584 47.8586 114.541 47.9624C114.498 48.0663 114.424 48.1555 114.329 48.2188C114.233 48.2822 114.121 48.3169 114.005 48.3185C113.89 48.3201 113.776 48.2886 113.679 48.228C113.582 48.1673 113.505 48.0802 113.459 47.9776C113.413 47.875 113.399 47.7615 113.42 47.6514C113.44 47.5413 113.494 47.4395 113.574 47.3588C113.654 47.2781 113.757 47.2222 113.87 47.198C113.946 47.1818 114.024 47.1802 114.1 47.1935C114.177 47.2067 114.249 47.2345 114.314 47.2752C114.38 47.3158 114.436 47.3686 114.48 47.4304C114.524 47.4922 114.554 47.5618 114.57 47.6352Z" fill="#263238"/>
<path d="M115.623 53.4061C115.648 53.5167 115.638 53.632 115.596 53.7374C115.553 53.8427 115.479 53.9334 115.382 53.998C115.286 54.0625 115.172 54.0979 115.055 54.0998C114.938 54.1017 114.824 54.0699 114.725 54.0085C114.627 53.9471 114.55 53.8589 114.503 53.7549C114.457 53.651 114.443 53.5361 114.464 53.4247C114.486 53.3133 114.54 53.2106 114.622 53.1294C114.704 53.0482 114.808 52.9923 114.923 52.9688C115.075 52.9374 115.235 52.9657 115.366 53.0477C115.497 53.1296 115.59 53.2584 115.623 53.4061Z" fill="#263238"/>
<path d="M116.676 59.1771C116.701 59.2877 116.691 59.403 116.648 59.5084C116.606 59.6137 116.531 59.7044 116.435 59.769C116.339 59.8335 116.225 59.8689 116.108 59.8708C115.991 59.8727 115.876 59.8409 115.778 59.7795C115.68 59.7181 115.602 59.6299 115.556 59.5259C115.51 59.422 115.496 59.3071 115.517 59.1957C115.538 59.0843 115.593 58.9816 115.675 58.9004C115.756 58.8192 115.861 58.7633 115.976 58.7398C116.128 58.7084 116.288 58.7367 116.419 58.8187C116.55 58.9006 116.642 59.0294 116.676 59.1771Z" fill="#263238"/>
<path d="M108.695 22.7446L107.881 26.7232L102.22 22.908L101.162 24.6571C101.162 24.6571 107.26 31.2448 107.226 30.9037L108.179 27.4296L110.885 29.2315L109.619 23.696L108.695 22.7446Z" fill="#EBEBEB"/>
<path d="M110.429 26.4399C110.19 25.5365 109.972 24.6139 109.689 23.7202C109.689 23.6865 109.624 23.6817 109.619 23.7202C109.619 24.6428 110.548 28.1072 110.707 28.9529C110.592 28.876 108.224 27.3865 108.224 27.4201C107.98 27.9871 107.275 30.5194 107.23 30.7452C106.262 29.6977 102.612 25.9401 101.525 24.9791C101.519 24.9721 101.51 24.9677 101.501 24.9668C101.491 24.9659 101.482 24.9686 101.475 24.9743C101.468 24.98 101.463 24.9883 101.462 24.9973C101.461 25.0063 101.464 25.0153 101.47 25.0224C102.364 26.1516 107.221 31.269 107.275 31.2257C107.673 30.0198 108.004 28.7944 108.268 27.5546C108.69 27.8958 111.129 29.6208 111.109 29.4767C110.94 28.4531 110.713 27.4393 110.429 26.4399Z" fill="#263238"/>
<path d="M102.21 21.7309C101.589 21.0342 100.904 22.8217 102.046 23.6097C103.739 24.7774 106.987 26.0123 107.538 25.945C108.09 25.8777 109.103 23.8452 109.212 23.4416C109.321 23.0379 108.844 22.2835 108.715 22.3892C108.586 22.495 107.598 24.5804 107.404 24.7005C107.211 24.8206 103.551 23.2205 102.21 21.7309Z" fill="#88BCA1"/>
<path d="M107.752 157.345L110.523 157.999L107.742 158.479L107.116 161.319L106.496 158.479L103.715 157.999L106.486 157.345L107.116 154.664L107.752 157.345ZM44.7832 138.298L44.1476 140.979L41.4014 141.633L44.1824 142.113L44.8081 144.948L45.4288 142.113L48.2098 141.633L45.4388 140.979L44.7832 138.298ZM162.77 110.356L162.139 107.68L161.504 110.356L158.733 111.01L161.514 111.49L162.139 114.325L162.76 111.49L165.541 111.01L162.77 110.356ZM56.7016 55.2417L56.066 57.9181L53.3198 58.5764L56.1007 59.0569L56.7215 61.892L57.3422 59.0569L60.1232 58.5764L57.3522 57.9181L56.7016 55.2417ZM166.296 127.14L165.943 128.64L164.394 129.005L165.948 129.283L166.296 130.874L166.644 129.283L168.198 129.01L166.648 128.64L166.296 127.14ZM80.6327 135.463L80.2801 136.957L78.7307 137.322L80.2851 137.606L80.6327 139.192L80.9803 137.606L82.5347 137.327L80.9902 136.957L80.6327 135.463ZM130.988 146.164L130.63 147.663L129.086 148.028L130.64 148.307L130.988 149.893L131.335 148.307L132.89 148.028L131.34 147.663L130.988 146.164ZM91.7217 166.134L91.3691 167.633L89.8198 167.998L91.3741 168.277L91.7217 169.862L92.0693 168.277L93.6237 167.998L92.0793 167.633L91.7217 166.134ZM36.058 131.729L35.7054 133.228L34.156 133.594L35.7104 133.872L36.058 135.463L36.4056 133.872L37.96 133.598L36.4106 133.228L36.058 131.729ZM30.8189 91.8469L30.4663 93.3461L28.9169 93.7113L30.4763 93.99L30.8189 95.5805L31.1665 93.99L32.7258 93.7161L31.1765 93.3461L30.8189 91.8469ZM142.34 148.691C142.229 148.703 142.126 148.753 142.051 148.834C141.977 148.914 141.935 149.018 141.935 149.126C141.935 149.234 141.977 149.338 142.051 149.419C142.126 149.499 142.229 149.55 142.34 149.561C142.451 149.55 142.554 149.499 142.629 149.419C142.703 149.338 142.745 149.234 142.745 149.126C142.745 149.018 142.703 148.914 142.629 148.834C142.554 148.753 142.451 148.703 142.34 148.691ZM172.742 98.1656C172.622 98.1656 172.507 98.2117 172.422 98.2937C172.337 98.3757 172.29 98.4869 172.29 98.6029C172.29 98.7189 172.337 98.8301 172.422 98.9121C172.507 98.9941 172.622 99.0402 172.742 99.0402C172.862 99.0402 172.977 98.9941 173.061 98.9121C173.146 98.8301 173.194 98.7189 173.194 98.6029C173.194 98.4869 173.146 98.3757 173.061 98.2937C172.977 98.2117 172.862 98.1656 172.742 98.1656ZM49.347 68.5903C49.2271 68.5903 49.1122 68.6363 49.0274 68.7183C48.9427 68.8003 48.8951 68.9116 48.8951 69.0275C48.8951 69.1435 48.9427 69.2547 49.0274 69.3367C49.1122 69.4187 49.2271 69.4648 49.347 69.4648C49.4668 69.4648 49.5818 69.4187 49.6665 69.3367C49.7513 69.2547 49.7989 69.1435 49.7989 69.0275C49.7989 68.9116 49.7513 68.8003 49.6665 68.7183C49.5818 68.6363 49.4668 68.5903 49.347 68.5903ZM157.983 133.377C157.872 133.389 157.769 133.439 157.694 133.52C157.62 133.6 157.578 133.704 157.578 133.812C157.578 133.92 157.62 134.025 157.694 134.105C157.769 134.185 157.872 134.236 157.983 134.247C158.094 134.236 158.197 134.185 158.271 134.105C158.346 134.025 158.387 133.92 158.387 133.812C158.387 133.704 158.346 133.6 158.271 133.52C158.197 133.439 158.094 133.389 157.983 133.377ZM27.2583 124.815C27.1472 124.826 27.0445 124.877 26.9697 124.957C26.895 125.037 26.8537 125.142 26.8537 125.25C26.8537 125.358 26.895 125.462 26.9697 125.542C27.0445 125.622 27.1472 125.673 27.2583 125.684C27.3693 125.673 27.4721 125.622 27.5468 125.542C27.6216 125.462 27.6629 125.358 27.6629 125.25C27.6629 125.142 27.6216 125.037 27.5468 124.957C27.4721 124.877 27.3693 124.826 27.2583 124.815ZM36.3808 85.5426C36.4651 85.5426 36.5459 85.5102 36.6055 85.4526C36.6651 85.3949 36.6986 85.3167 36.6986 85.2351C36.6986 85.1536 36.6651 85.0753 36.6055 85.0177C36.5459 84.96 36.4651 84.9276 36.3808 84.9276C36.2965 84.9276 36.2157 84.96 36.1561 85.0177C36.0965 85.0753 36.063 85.1536 36.063 85.2351C36.063 85.3167 36.0965 85.3949 36.1561 85.4526C36.2157 85.5102 36.2965 85.5426 36.3808 85.5426ZM88.464 149.124C88.386 149.133 88.3141 149.17 88.262 149.227C88.21 149.284 88.1812 149.357 88.1812 149.434C88.1812 149.51 88.21 149.583 88.262 149.64C88.3141 149.697 88.386 149.734 88.464 149.744C88.5421 149.734 88.614 149.697 88.666 149.64C88.7181 149.583 88.7469 149.51 88.7469 149.434C88.7469 149.357 88.7181 149.284 88.666 149.227C88.614 149.17 88.5421 149.133 88.464 149.124ZM166.43 86.7151C166.514 86.7151 166.595 86.6827 166.655 86.625C166.714 86.5673 166.748 86.4891 166.748 86.4076C166.748 86.326 166.714 86.2478 166.655 86.1901C166.595 86.1324 166.514 86.1 166.43 86.1C166.346 86.1032 166.266 86.1387 166.209 86.1986C166.152 86.2585 166.121 86.338 166.125 86.4196C166.128 86.5011 166.165 86.5781 166.226 86.6335C166.288 86.6889 166.371 86.7183 166.455 86.7151H166.43ZM57.0095 148.009C56.9314 148.018 56.8596 148.055 56.8075 148.112C56.7554 148.169 56.7267 148.243 56.7267 148.319C56.7267 148.395 56.7554 148.468 56.8075 148.526C56.8596 148.583 56.9314 148.619 57.0095 148.629C57.0876 148.619 57.1594 148.583 57.2115 148.526C57.2636 148.468 57.2923 148.395 57.2923 148.319C57.2923 148.243 57.2636 148.169 57.2115 148.112C57.1594 148.055 57.0876 148.018 57.0095 148.009ZM112.172 145.472C111.942 145.472 111.723 145.56 111.561 145.717C111.399 145.873 111.308 146.086 111.308 146.308C111.308 146.53 111.399 146.742 111.561 146.899C111.723 147.056 111.942 147.144 112.172 147.144C112.376 147.114 112.562 147.014 112.697 146.862C112.831 146.711 112.905 146.517 112.905 146.318C112.905 146.118 112.831 145.924 112.697 145.773C112.562 145.621 112.376 145.521 112.172 145.491V145.472ZM61.0915 145.174C60.8624 145.174 60.6426 145.262 60.4805 145.419C60.3185 145.576 60.2275 145.788 60.2275 146.01C60.2275 146.232 60.3185 146.444 60.4805 146.601C60.6426 146.758 60.8624 146.846 61.0915 146.846C61.2957 146.816 61.4819 146.716 61.6165 146.564C61.751 146.413 61.825 146.219 61.825 146.02C61.825 145.82 61.751 145.627 61.6165 145.475C61.4819 145.323 61.2957 145.223 61.0915 145.193V145.174ZM44.7832 67.6677C45.0124 67.6677 45.2322 67.5796 45.3942 67.4228C45.5563 67.266 45.6473 67.0533 45.6473 66.8316C45.6473 66.6098 45.5563 66.3972 45.3942 66.2404C45.2322 66.0836 45.0124 65.9955 44.7832 65.9955C44.5514 65.9955 44.3291 66.0846 44.1652 66.2432C44.0013 66.4018 43.9092 66.6169 43.9092 66.8412C43.9092 67.0655 44.0013 67.2806 44.1652 67.4392C44.3291 67.5978 44.5514 67.6869 44.7832 67.6869V67.6677ZM168.198 112.283C167.969 112.283 167.749 112.371 167.587 112.528C167.425 112.685 167.334 112.897 167.334 113.119C167.334 113.341 167.425 113.553 167.587 113.71C167.749 113.867 167.969 113.955 168.198 113.955C168.402 113.925 168.588 113.825 168.723 113.673C168.857 113.522 168.931 113.329 168.931 113.129C168.931 112.929 168.857 112.736 168.723 112.584C168.588 112.432 168.402 112.332 168.198 112.302V112.283Z" fill="#88BCA1"/>
</svg>
