<svg width="208" height="208" viewBox="0 0 208 208" fill="none" xmlns="http://www.w3.org/2000/svg">
<g filter="url(#filter0_d_709_5019)">
<path d="M104 200C159.228 200 204 173.765 204 141.402C204 109.04 159.228 82.8047 104 82.8047C48.7715 82.8047 4 109.04 4 141.402C4 173.765 48.7715 200 104 200Z" fill="#F5F5F5"/>
<path d="M28.6429 132.273L127.163 190.025C127.756 190.329 128.412 190.488 129.077 190.488C129.742 190.488 130.397 190.329 130.991 190.025L184.626 158.585C185.685 157.968 185.685 156.964 184.626 156.343L86.1056 98.5908C85.5121 98.2868 84.8565 98.1284 84.1917 98.1284C83.5268 98.1284 82.8713 98.2868 82.2777 98.5908L28.6429 130.031C27.5839 130.639 27.5839 131.652 28.6429 132.273Z" fill="#E0E0E0"/>
<path d="M175.407 62.0224L172.148 60.119C172.164 59.9845 172.172 59.8492 172.174 59.7137V58.7576C172.124 57.8316 171.86 56.9306 171.403 56.1276C170.946 55.3245 170.309 54.6422 169.544 54.1359C169.316 53.981 169.06 53.8742 168.791 53.822C168.522 53.7698 168.245 53.7731 167.977 53.8319C167.739 51.4131 166.085 48.6771 164.071 47.5007C161.901 46.2274 160.143 47.2584 160.143 49.805V51.2369C160.152 51.9312 160.263 52.6203 160.473 53.2812L157.774 51.6995C156.971 51.2281 156.315 51.6114 156.315 52.5542C156.343 53.0678 156.49 53.5675 156.743 54.013C156.996 54.4584 157.35 54.8371 157.774 55.1184L175.407 65.4325C176.21 65.9039 176.861 65.5206 176.861 64.5777C176.833 64.066 176.687 63.5681 176.434 63.1243C176.182 62.6805 175.83 62.303 175.407 62.0224Z" fill="#F0F0F0"/>
<path d="M132.284 22.1802L134.077 22.8808V18.8715C134.077 15.6904 136.577 14.9282 139.285 16.5187C141.997 18.1092 144.198 21.9732 144.198 25.1498V25.7358C144.814 25.4846 145.608 25.5815 146.476 26.0926C148.425 27.2337 150.009 30.0138 150.009 32.3049V32.5692L152.509 34.0319C153.186 34.4807 153.75 35.0851 154.154 35.7963C154.558 36.5074 154.792 37.3052 154.835 38.125C154.835 39.6318 153.794 40.2398 152.509 39.4864L132.284 27.6347C131.607 27.1859 131.044 26.5815 130.639 25.8704C130.235 25.1592 130.002 24.3614 129.958 23.5416C129.958 22.0392 131 21.4268 132.284 22.1802Z" fill="#F0F0F0"/>
<path d="M171.714 147.976L168.298 145.619C168.298 145.619 166.788 136.503 168.19 128.498C170.16 117.245 177.807 113.518 180.537 114.677C183.267 115.835 183.849 119.206 178.758 125.634C175.755 129.432 171.831 137.494 171.714 147.976Z" fill="#88BCA1"/>
<g opacity="0.15">
<path opacity="0.15" d="M171.714 147.976L168.298 145.619C168.298 145.619 166.788 136.503 168.19 128.498C170.16 117.245 177.807 113.518 180.537 114.677C183.267 115.835 183.849 119.206 178.758 125.634C175.755 129.432 171.831 137.494 171.714 147.976Z" fill="black"/>
</g>
<path d="M170.547 143.464H170.581C170.614 143.46 170.645 143.45 170.674 143.434C170.703 143.417 170.728 143.396 170.748 143.369C170.768 143.343 170.783 143.313 170.792 143.281C170.8 143.249 170.803 143.215 170.798 143.182C169.561 132.586 173.971 121.091 178.762 116.514C178.807 116.467 178.832 116.405 178.833 116.341C178.834 116.276 178.81 116.213 178.766 116.166C178.722 116.119 178.662 116.091 178.599 116.087C178.535 116.084 178.472 116.106 178.424 116.148C173.541 120.805 169.049 132.489 170.308 143.244C170.313 143.304 170.341 143.36 170.385 143.401C170.429 143.442 170.487 143.464 170.547 143.464Z" fill="white"/>
<path d="M180.698 154.122C181.245 154.452 182.834 153.241 183.272 152.968C184.027 152.467 184.642 151.778 185.06 150.967C185.526 150.046 185.699 149.001 185.555 147.976C185.474 147.434 185.358 146.898 185.208 146.372C185.073 145.857 184.939 145.337 184.8 144.817C184.631 144.314 184.566 143.782 184.609 143.253C184.761 142.195 185.698 141.49 186.553 140.847C187.499 140.16 188.484 139.243 188.502 137.97C188.454 136.979 188.083 136.032 187.447 135.278C186.514 134.031 185.564 133.049 185.828 131.348C186.06 130.323 186.405 129.329 186.857 128.383C187.039 127.974 187.163 127.541 187.226 127.096C187.266 126.698 187.22 126.295 187.091 125.916C186.962 125.537 186.753 125.191 186.479 124.902C186.206 124.614 185.873 124.389 185.505 124.243C185.137 124.098 184.742 124.036 184.348 124.061C183.634 124.136 182.944 124.368 182.326 124.739C180.382 125.788 179.201 128.52 176.944 128.806C176.211 128.898 175.464 128.863 174.731 128.96C173.988 129.014 173.286 129.325 172.743 129.841C171.029 131.709 173.021 134.155 172.309 136.212C171.797 137.679 170.369 138.217 169.549 139.534C169.215 140.117 169.072 140.793 169.141 141.464C169.189 142.596 169.441 143.71 169.883 144.751C170.387 145.823 170.956 146.863 171.584 147.866L180.698 154.122Z" fill="#88BCA1"/>
<path opacity="0.2" d="M180.698 154.122C181.245 154.452 182.834 153.241 183.272 152.968C184.027 152.467 184.642 151.778 185.06 150.967C185.526 150.046 185.699 149.001 185.555 147.976C185.474 147.434 185.358 146.898 185.208 146.372C185.073 145.857 184.939 145.337 184.8 144.817C184.631 144.314 184.566 143.782 184.609 143.253C184.761 142.195 185.698 141.49 186.553 140.847C187.499 140.16 188.484 139.243 188.502 137.97C188.454 136.979 188.083 136.032 187.447 135.278C186.514 134.031 185.564 133.049 185.828 131.348C186.06 130.323 186.405 129.329 186.857 128.383C187.039 127.974 187.163 127.541 187.226 127.096C187.266 126.698 187.22 126.295 187.091 125.916C186.962 125.537 186.753 125.191 186.479 124.902C186.206 124.614 185.873 124.389 185.505 124.243C185.137 124.098 184.742 124.036 184.348 124.061C183.634 124.136 182.944 124.368 182.326 124.739C180.382 125.788 179.201 128.52 176.944 128.806C176.211 128.898 175.464 128.863 174.731 128.96C173.988 129.014 173.286 129.325 172.743 129.841C171.029 131.709 173.021 134.155 172.309 136.212C171.797 137.679 170.369 138.217 169.549 139.534C169.215 140.117 169.072 140.793 169.141 141.464C169.189 142.596 169.441 143.71 169.883 144.751C170.387 145.823 170.956 146.863 171.584 147.866L180.698 154.122Z" fill="white"/>
<path d="M175.433 150.84C175.466 150.84 175.498 150.833 175.528 150.82C175.558 150.807 175.585 150.788 175.608 150.764C175.631 150.74 175.648 150.712 175.66 150.681C175.672 150.65 175.677 150.617 175.676 150.584C175.459 140.574 180.311 129.621 183.749 126.475C183.798 126.431 183.827 126.369 183.831 126.302C183.834 126.236 183.812 126.17 183.768 126.121C183.724 126.071 183.663 126.041 183.598 126.037C183.532 126.034 183.468 126.056 183.419 126.101C179.912 129.308 174.96 140.442 175.173 150.593C175.173 150.627 175.18 150.66 175.194 150.691C175.207 150.722 175.227 150.749 175.251 150.772C175.276 150.795 175.304 150.813 175.335 150.825C175.367 150.836 175.4 150.841 175.433 150.84Z" fill="white"/>
<path d="M177.252 138.644H177.326C179.673 138.035 182.079 137.69 184.5 137.613C184.566 137.611 184.627 137.583 184.673 137.535C184.718 137.488 184.743 137.424 184.743 137.358C184.743 137.324 184.737 137.291 184.724 137.26C184.711 137.229 184.692 137.201 184.668 137.178C184.644 137.155 184.615 137.137 184.584 137.126C184.553 137.114 184.52 137.109 184.487 137.111C182.024 137.188 179.576 137.54 177.187 138.16C177.129 138.176 177.079 138.212 177.046 138.263C177.013 138.314 176.999 138.375 177.007 138.435C177.015 138.496 177.044 138.551 177.089 138.591C177.135 138.631 177.192 138.653 177.252 138.653V138.644Z" fill="white"/>
<path d="M36.0424 126.03L40.0093 124.215C40.0093 124.215 41.7453 116.161 41.7453 109.79C41.7713 100.833 37.1882 89.5853 30.2093 91.4005C23.2305 93.2157 32.1494 103.252 33.5816 110.998C35.0138 118.743 36.0424 126.03 36.0424 126.03Z" fill="#88BCA1"/>
<path opacity="0.15" d="M36.0424 126.03L40.0093 124.215C40.0093 124.215 41.7453 116.161 41.7453 109.79C41.7713 100.833 37.1882 89.5853 30.2093 91.4005C23.2305 93.2157 32.1494 103.252 33.5816 110.998C35.0138 118.743 36.0424 126.03 36.0424 126.03Z" fill="black"/>
<path d="M38.1083 125.308C38.0784 125.303 38.0496 125.293 38.0236 125.278C37.9976 125.262 37.9748 125.241 37.9567 125.217C37.9385 125.192 37.9254 125.164 37.9179 125.135C37.9104 125.105 37.9087 125.074 37.913 125.043C40.5171 105.407 31.8369 94.5066 31.7675 94.3964C31.7435 94.3738 31.7247 94.3462 31.7121 94.3156C31.6995 94.2849 31.6935 94.2519 31.6944 94.2187C31.6954 94.1855 31.7033 94.153 31.7177 94.1231C31.7321 94.0933 31.7525 94.0669 31.7777 94.0458C31.803 94.0246 31.8323 94.0091 31.8639 94.0004C31.8954 93.9917 31.9284 93.9899 31.9607 93.9951C31.993 94.0004 32.0239 94.0126 32.0511 94.0309C32.0784 94.0492 32.1016 94.0732 32.119 94.1013C32.2101 94.2114 41.0118 105.27 38.3644 125.11C38.3607 125.14 38.351 125.169 38.3361 125.195C38.3211 125.222 38.3012 125.245 38.2773 125.263C38.2535 125.282 38.2263 125.295 38.1972 125.303C38.1682 125.31 38.138 125.312 38.1083 125.308Z" fill="white"/>
<path d="M33.5517 127.158L36.3727 125.867C36.3727 125.867 37.384 120.325 35.3615 113.253C33.5994 107.085 28.2524 101.591 25.2144 102.322C22.1763 103.054 22.0417 105.173 23.2526 107.535C24.4635 109.896 32.6402 116.069 33.5517 127.158Z" fill="#88BCA1"/>
<path opacity="0.2" d="M33.5517 127.158L36.3727 125.867C36.3727 125.867 37.384 120.325 35.3615 113.253C33.5994 107.085 28.2524 101.591 25.2144 102.322C22.1763 103.054 22.0417 105.173 23.2526 107.535C24.4635 109.896 32.6402 116.069 33.5517 127.158Z" fill="white"/>
<path d="M35.0011 126.709C34.9407 126.702 34.8855 126.672 34.8472 126.624C34.809 126.576 34.791 126.515 34.7971 126.453C36.0991 113.998 25.4051 104.398 25.2966 104.301C25.2512 104.261 25.2233 104.204 25.2193 104.142C25.2152 104.081 25.2352 104.021 25.2749 103.975C25.3146 103.929 25.3708 103.9 25.431 103.896C25.4913 103.892 25.5506 103.912 25.5961 103.953C25.7046 104.05 36.5678 113.813 35.2485 126.502C35.2457 126.532 35.2372 126.561 35.2232 126.588C35.2093 126.615 35.1903 126.639 35.1673 126.658C35.1443 126.677 35.1178 126.691 35.0892 126.7C35.0607 126.709 35.0307 126.712 35.0011 126.709Z" fill="white"/>
<path d="M178.749 158.052L132.944 184.897C132.22 185.319 131.403 185.549 130.568 185.565C129.733 185.58 128.908 185.381 128.17 184.985L35.9387 130.93C34.4891 130.079 33.3086 128.176 33.3086 126.678C33.3086 125.18 34.4848 123.277 35.9387 122.422L81.5791 95.6741C82.3949 95.2569 83.2957 95.0396 84.2092 95.0396C85.1227 95.0396 86.0234 95.2569 86.8393 95.6741L178.749 149.544C180.203 150.395 181.379 152.302 181.379 153.8C181.379 155.298 180.203 157.202 178.749 158.052Z" fill="#88BCA1"/>
<path opacity="0.5" d="M81.5791 95.6741L35.9387 122.422C34.4848 123.277 33.3086 125.18 33.3086 126.678C33.3086 128.176 34.4891 130.079 35.9387 130.93L128.161 184.985C128.87 185.354 129.652 185.551 130.448 185.562V121.237L86.8393 95.6829C86.0241 95.2643 85.1237 95.0455 84.2102 95.044C83.2967 95.0424 82.3956 95.2582 81.5791 95.6741Z" fill="black"/>
<path opacity="0.4" d="M132.944 184.897L178.749 158.052C180.203 157.202 181.379 155.298 181.379 153.8C181.379 152.302 180.203 150.395 178.749 149.544L130.448 121.237V185.562C131.324 185.573 132.186 185.343 132.944 184.897Z" fill="black"/>
<path d="M131.854 180.112C131.135 180.481 130.34 180.674 129.535 180.674C128.729 180.674 127.934 180.481 127.215 180.112L35.9296 126.612C33.9636 125.462 33.9636 123.576 35.9296 122.426L81.5743 95.6741C82.3902 95.2569 83.2909 95.0396 84.2044 95.0396C85.1179 95.0396 86.0187 95.2569 86.8345 95.6741L178.745 149.544C180.194 150.395 180.194 151.778 178.745 152.628L131.854 180.112Z" fill="#88BCA1"/>
<path opacity="0.3" d="M131.854 180.112C131.135 180.481 130.34 180.674 129.535 180.674C128.729 180.674 127.934 180.481 127.215 180.112L35.9296 126.612C33.9636 125.462 33.9636 123.576 35.9296 122.426L81.5743 95.6741C82.3902 95.2569 83.2909 95.0396 84.2044 95.0396C85.1179 95.0396 86.0187 95.2569 86.8345 95.6741L178.745 149.544C180.194 150.395 180.194 151.778 178.745 152.628L131.854 180.112Z" fill="black"/>
<path d="M127.419 174.724C126.644 175.123 125.788 175.332 124.919 175.332C124.05 175.332 123.193 175.123 122.419 174.724L43.8632 128.687C42.4831 127.876 42.4831 126.568 43.8632 125.757L86.8041 100.595C87.5792 100.198 88.4355 99.9905 89.304 99.9905C90.1724 99.9905 91.0288 100.198 91.8039 100.595L170.359 146.632C171.735 147.438 171.735 148.756 170.359 149.562L127.419 174.724Z" fill="#37474F"/>
<path d="M89.1565 99.9961C88.3388 99.9983 87.5341 100.204 86.8129 100.595L43.872 125.757C42.4919 126.568 42.4919 127.876 43.872 128.687L52.3829 133.674L89.1565 109.834V99.9961Z" fill="#263238"/>
<path d="M91.8563 102.499C91.0812 102.101 90.2249 101.894 89.3564 101.894C88.4879 101.894 87.6316 102.101 86.8565 102.499L43.92 127.66C43.6753 127.802 43.4541 127.982 43.2646 128.194C43.4474 128.389 43.6581 128.555 43.8896 128.687L122.445 174.724C123.22 175.123 124.076 175.332 124.945 175.332C125.814 175.332 126.671 175.123 127.445 174.724L170.36 149.584C170.603 149.447 170.821 149.27 171.006 149.06C170.829 148.86 170.621 148.691 170.39 148.557L91.8563 102.499Z" fill="#455A64"/>
<path d="M59.5657 113.989L67.1782 109.526C67.6122 109.262 67.6556 108.843 67.226 108.592C66.9765 108.471 66.7025 108.411 66.426 108.416C66.1494 108.421 65.8779 108.492 65.6332 108.623L58.025 113.082C57.5693 113.35 57.5476 113.769 57.9729 114.016C58.2218 114.138 58.4957 114.2 58.7724 114.196C59.0491 114.191 59.3209 114.12 59.5657 113.989Z" fill="#37474F"/>
<path d="M72.6343 106.341C72.7277 106.309 72.809 106.248 72.8667 106.167C72.9243 106.086 72.9553 105.989 72.9553 105.889C72.9553 105.789 72.9243 105.692 72.8667 105.61C72.809 105.529 72.7277 105.469 72.6343 105.437C72.3958 105.314 72.1317 105.249 71.8639 105.249C71.596 105.249 71.332 105.314 71.0935 105.437C71.0001 105.469 70.9187 105.529 70.8611 105.61C70.8035 105.692 70.7725 105.789 70.7725 105.889C70.7725 105.989 70.8035 106.086 70.8611 106.167C70.9187 106.248 71.0001 106.309 71.0935 106.341C71.333 106.461 71.5966 106.524 71.8639 106.524C72.1311 106.524 72.3948 106.461 72.6343 106.341Z" fill="#37474F"/>
<path d="M75.7198 104.53C75.8132 104.498 75.8945 104.438 75.9522 104.357C76.0098 104.276 76.0408 104.178 76.0408 104.078C76.0408 103.978 76.0098 103.881 75.9522 103.8C75.8945 103.719 75.8132 103.658 75.7198 103.627C75.4813 103.503 75.2172 103.438 74.9494 103.438C74.6815 103.438 74.4175 103.503 74.179 103.627C73.745 103.873 73.745 104.279 74.179 104.53C74.4175 104.653 74.6815 104.718 74.9494 104.718C75.2172 104.718 75.4813 104.653 75.7198 104.53Z" fill="#37474F"/>
<path d="M51.0595 118.994C51.1529 118.963 51.2343 118.902 51.2919 118.821C51.3495 118.74 51.3805 118.642 51.3805 118.543C51.3805 118.443 51.3495 118.345 51.2919 118.264C51.2343 118.183 51.1529 118.122 51.0595 118.091C50.8202 117.967 50.5555 117.903 50.287 117.903C50.0184 117.903 49.7537 117.967 49.5144 118.091C49.421 118.122 49.3396 118.183 49.282 118.264C49.2244 118.345 49.1934 118.443 49.1934 118.543C49.1934 118.642 49.2244 118.74 49.282 118.821C49.3396 118.902 49.421 118.963 49.5144 118.994C49.7537 119.118 50.0184 119.182 50.287 119.182C50.5555 119.182 50.8202 119.118 51.0595 118.994Z" fill="#37474F"/>
<path d="M54.1234 117.183C54.2097 117.148 54.2835 117.087 54.3354 117.008C54.3874 116.93 54.4151 116.837 54.4151 116.743C54.4151 116.648 54.3874 116.556 54.3354 116.477C54.2835 116.399 54.2097 116.338 54.1234 116.302C53.8849 116.179 53.6209 116.114 53.3531 116.114C53.0852 116.114 52.8212 116.179 52.5827 116.302C52.4965 116.338 52.4227 116.399 52.3707 116.477C52.3188 116.556 52.291 116.648 52.291 116.743C52.291 116.837 52.3188 116.93 52.3707 117.008C52.4227 117.087 52.4965 117.148 52.5827 117.183C52.8212 117.307 53.0852 117.372 53.3531 117.372C53.6209 117.372 53.8849 117.307 54.1234 117.183Z" fill="#37474F"/>
<path d="M64.8693 144.821C65.1029 144.972 65.2987 145.176 65.4411 145.417C65.5835 145.657 65.6686 145.929 65.6896 146.209C65.6999 146.303 65.6842 146.398 65.6444 146.484C65.6045 146.569 65.542 146.642 65.4639 146.694C65.3641 146.751 64.9908 146.98 64.8867 147.037C64.7907 147.078 64.6858 147.093 64.5824 147.081C64.479 147.069 64.3804 147.029 64.2964 146.967L53.6024 140.697C53.3662 140.55 53.1681 140.348 53.0246 140.107C52.8811 139.867 52.7965 139.595 52.7778 139.314C52.7691 139.223 52.7838 139.131 52.8203 139.048C52.8568 138.965 52.9139 138.892 52.9861 138.838C53.086 138.772 53.4766 138.543 53.5807 138.486C53.6775 138.445 53.783 138.43 53.8871 138.442C53.9912 138.454 54.0905 138.494 54.1753 138.556L64.8693 144.821Z" fill="#88BCA1"/>
<path opacity="0.4" d="M64.8693 144.821C65.1029 144.972 65.2987 145.176 65.4411 145.417C65.5835 145.657 65.6686 145.929 65.6896 146.209C65.6999 146.303 65.6842 146.398 65.6444 146.484C65.6045 146.569 65.542 146.642 65.4639 146.694C65.3641 146.751 64.9908 146.98 64.8867 147.037C64.7907 147.078 64.6858 147.093 64.5824 147.081C64.479 147.069 64.3804 147.029 64.2964 146.967L53.6024 140.697C53.3662 140.55 53.1681 140.348 53.0246 140.107C52.8811 139.867 52.7965 139.595 52.7778 139.314C52.7691 139.223 52.7838 139.131 52.8203 139.048C52.8568 138.965 52.9139 138.892 52.9861 138.838C53.086 138.772 53.4766 138.543 53.5807 138.486C53.6775 138.445 53.783 138.43 53.8871 138.442C53.9912 138.454 54.0905 138.494 54.1753 138.556L64.8693 144.821Z" fill="black"/>
<path d="M64.2969 145.178L53.6029 138.909C53.1472 138.644 52.7783 138.834 52.7783 139.349C52.797 139.63 52.8816 139.902 53.0251 140.143C53.1686 140.383 53.3667 140.586 53.6029 140.733L64.2969 147.002C64.7309 147.271 65.1172 147.082 65.1172 146.562C65.0969 146.282 65.0121 146.011 64.8696 145.771C64.7271 145.53 64.5309 145.327 64.2969 145.178Z" fill="#88BCA1"/>
<path opacity="0.3" d="M64.2969 145.178L53.6029 138.909C53.1472 138.644 52.7783 138.834 52.7783 139.349C52.797 139.63 52.8816 139.902 53.0251 140.143C53.1686 140.383 53.3667 140.586 53.6029 140.733L64.2969 147.002C64.7309 147.271 65.1172 147.082 65.1172 146.562C65.0969 146.282 65.0121 146.011 64.8696 145.771C64.7271 145.53 64.5309 145.327 64.2969 145.178Z" fill="black"/>
<path d="M50.5514 136.433C50.7882 136.58 50.9867 136.783 51.1302 137.025C51.2737 137.266 51.3579 137.539 51.376 137.82C51.3853 137.914 51.3692 138.009 51.3294 138.095C51.2897 138.18 51.2277 138.253 51.1503 138.305L50.5731 138.644C50.4768 138.686 50.3714 138.702 50.2672 138.691C50.163 138.679 50.0635 138.64 49.9785 138.578L44.9396 135.622C44.7028 135.474 44.5043 135.271 44.3608 135.03C44.2173 134.788 44.133 134.515 44.115 134.234C44.1058 134.144 44.1202 134.053 44.1568 133.97C44.1934 133.887 44.2508 133.816 44.3233 133.763C44.4232 133.697 44.8138 133.467 44.9179 133.41C45.0142 133.368 45.1196 133.352 45.2238 133.364C45.328 133.375 45.4274 133.414 45.5125 133.476L50.5514 136.433Z" fill="#88BCA1"/>
<path opacity="0.4" d="M50.5514 136.433C50.7882 136.58 50.9867 136.783 51.1302 137.025C51.2737 137.266 51.3579 137.539 51.376 137.82C51.3853 137.914 51.3692 138.009 51.3294 138.095C51.2897 138.18 51.2277 138.253 51.1503 138.305L50.5731 138.644C50.4768 138.686 50.3714 138.702 50.2672 138.691C50.163 138.679 50.0635 138.64 49.9785 138.578L44.9396 135.622C44.7028 135.474 44.5043 135.271 44.3608 135.03C44.2173 134.788 44.133 134.515 44.115 134.234C44.1058 134.144 44.1202 134.053 44.1568 133.97C44.1934 133.887 44.2508 133.816 44.3233 133.763C44.4232 133.697 44.8138 133.467 44.9179 133.41C45.0142 133.368 45.1196 133.352 45.2238 133.364C45.328 133.375 45.4274 133.414 45.5125 133.476L50.5514 136.433Z" fill="black"/>
<path d="M49.9787 136.767L44.9399 133.816C44.4841 133.547 44.1152 133.736 44.1152 134.256C44.1333 134.538 44.2176 134.81 44.3611 135.052C44.5045 135.293 44.703 135.496 44.9399 135.644L49.9787 138.569C50.4127 138.834 50.8033 138.644 50.8033 138.129C50.7786 137.853 50.6913 137.586 50.5482 137.35C50.4052 137.114 50.2103 136.914 49.9787 136.767Z" fill="#88BCA1"/>
<path opacity="0.3" d="M49.9787 136.767L44.9399 133.816C44.4841 133.547 44.1152 133.736 44.1152 134.256C44.1333 134.538 44.2176 134.81 44.3611 135.052C44.5045 135.293 44.703 135.496 44.9399 135.644L49.9787 138.569C50.4127 138.834 50.8033 138.644 50.8033 138.129C50.7786 137.853 50.6913 137.586 50.5482 137.35C50.4052 137.114 50.2103 136.914 49.9787 136.767Z" fill="black"/>
<path d="M85.4023 142.75C93.2145 147.315 105.822 147.315 113.613 142.75C117.519 140.464 119.463 137.463 119.455 134.472V132.401C119.455 132.401 117.445 128.436 113.613 126.202C105.827 121.638 93.2145 121.638 85.4023 126.202C81.5527 128.458 79.5605 132.401 79.5605 132.401V134.468C79.5605 137.477 81.5092 140.468 85.4023 142.75Z" fill="#E0E0E0"/>
<path d="M99.5076 144.108C110.524 144.108 119.455 138.874 119.455 132.419C119.455 125.963 110.524 120.73 99.5076 120.73C88.4911 120.73 79.5605 125.963 79.5605 132.419C79.5605 138.874 88.4911 144.108 99.5076 144.108Z" fill="#F0F0F0"/>
<path d="M87.8716 139.058C94.295 142.821 104.716 142.821 111.143 139.058C114.359 137.173 115.965 134.701 115.961 132.229V125.18C114.81 123.086 113.152 121.325 111.143 120.065C104.716 116.302 94.295 116.302 87.8716 120.065C85.8591 121.322 84.1987 123.084 83.0498 125.18V132.229C83.0498 134.705 84.6556 137.173 87.8716 139.058Z" fill="#88BCA1"/>
<path d="M87.8716 139.058C94.295 142.821 104.716 142.821 111.143 139.058C114.359 137.173 115.965 134.701 115.961 132.229V125.18C114.81 123.086 113.152 121.325 111.143 120.065C104.716 116.302 94.295 116.302 87.8716 120.065C85.8591 121.322 84.1987 123.084 83.0498 125.18V132.229C83.0498 134.705 84.6556 137.173 87.8716 139.058Z" fill="#E44C1D"/>
<path d="M90.4805 140.301C93.3371 141.356 96.3551 141.89 99.395 141.878V117.249C96.3551 117.237 93.3371 117.771 90.4805 118.827V140.301Z" fill="#E44C1D"/>
<path d="M111.143 120.065C107.901 118.166 103.643 117.227 99.3945 117.245V141.874C103.643 141.874 107.901 140.953 111.143 139.054C114.385 137.155 115.965 134.697 115.961 132.225V125.176C114.81 123.083 113.151 121.324 111.143 120.065Z" fill="#E44C1D"/>
<path d="M99.508 134.829C108.595 134.829 115.961 130.511 115.961 125.184C115.961 119.858 108.595 115.54 99.508 115.54C90.4211 115.54 83.0547 119.858 83.0547 125.184C83.0547 130.511 90.4211 134.829 99.508 134.829Z" fill="#FF5722"/>
<path d="M106.95 130C104.8 130 102.704 129.734 100.663 129.201C98.621 128.669 96.8127 127.965 95.238 127.09C93.6627 126.215 92.396 125.211 91.438 124.076C90.4793 122.942 90 121.778 90 120.583C90 120.417 90.1 120.278 90.3 120.167C90.5 120.056 90.75 120 91.05 120H95.1C95.3333 120 95.5417 120.042 95.725 120.125C95.9083 120.208 96.0167 120.315 96.05 120.444L96.7 122.389C96.7333 122.519 96.7293 122.636 96.688 122.743C96.646 122.849 96.55 122.944 96.4 123.028L94 124.389C94.7 125.056 95.575 125.681 96.625 126.264C97.675 126.847 98.8333 127.352 100.1 127.778L102.45 126.472C102.6 126.389 102.796 126.326 103.038 126.284C103.279 126.243 103.517 126.231 103.75 126.25L107.2 126.639C107.433 126.667 107.625 126.729 107.775 126.826C107.925 126.924 108 127.037 108 127.167V129.417C108 129.583 107.9 129.722 107.7 129.833C107.5 129.944 107.25 130 106.95 130Z" fill="white"/>
<path d="M27.1631 26.2205C27.1631 17.2722 33.3521 6.3942 40.9863 1.91786C44.8055 -0.320304 48.2603 -0.531784 50.7602 0.930954L71.0197 12.8267C71.0197 21.775 59.1105 42.7292 51.4893 47.1923L31.2254 35.2965C28.7125 33.8426 27.1631 30.6968 27.1631 26.2205Z" fill="#88BCA1"/>
<path d="M47.4404 38.1162C47.4404 29.1679 53.6251 18.2899 61.2593 13.8092C65.0699 11.5798 68.5202 11.364 71.0201 12.8179C73.52 14.2718 75.0825 17.4088 75.0825 21.9027C75.0825 30.851 68.8935 41.729 61.2593 46.2097C57.44 48.4479 53.9809 48.655 51.4767 47.1834C48.9725 45.7119 47.4404 42.5749 47.4404 38.1162Z" fill="#88BCA1"/>
<path opacity="0.15" d="M47.4404 38.1162C47.4404 29.1679 53.6251 18.2899 61.2593 13.8092C65.0699 11.5798 68.5202 11.364 71.0201 12.8179C73.52 14.2718 75.0825 17.4088 75.0825 21.9027C75.0825 30.851 68.8935 41.729 61.2593 46.2097C57.44 48.4479 53.9809 48.655 51.4767 47.1834C48.9725 45.7119 47.4404 42.5749 47.4404 38.1162Z" fill="black"/>
<path opacity="0.15" d="M48.022 33.0671C47.642 34.7227 47.4469 36.4164 47.4404 38.1162C47.4404 42.5838 48.9812 45.7251 51.4767 47.1923C53.9723 48.6594 57.44 48.4567 61.2593 46.2186C62.7016 45.3576 64.0452 44.3366 65.2652 43.1741L48.022 33.0671Z" fill="black"/>
<path d="M106.613 58.4843C106.027 61.9033 105.68 63.811 104.035 65.0931C103.722 69.1817 102.19 72.0896 101.17 72.9928C100.997 79.3284 97.8804 81.3639 97.8804 81.3639C97.8804 81.3639 98.4056 99.4278 99.0913 103.917C100.263 111.645 101.322 113.61 100.797 116.047C100.285 118.421 96.3874 119.417 93.2278 117.677C89.8426 115.818 88.5883 109.645 87.3166 103.917C85.8931 97.5113 84.7126 91.0964 84.7126 91.0964C81.7266 90.2725 76.9785 90.4355 74.3788 89.7306C71.7791 89.0256 71.0239 88.237 68.9016 85.263C66.7793 82.2891 60.9072 76.0724 59.1798 73.2219C57.4525 70.3713 57.0098 66.9435 56.9317 60.4449C56.8752 55.9422 56.3848 52.5717 56.2546 48.0777C56.2546 47.7473 56.2329 47.4125 56.2286 47.0644C56.2286 46.1083 56.2286 45.1038 56.2286 44.0244L47.4355 38.8651C47.4355 38.6272 47.4355 38.3805 47.4355 38.1338C47.4355 33.4371 49.1455 28.2074 51.8711 23.6474C54.3363 19.5279 57.6391 15.9592 61.2587 13.8312C61.9646 13.4148 62.7002 13.0526 63.4592 12.7473C66.584 14.6639 70.6203 17.0518 73.654 18.5983C73.9578 18.7525 74.4049 18.9684 74.8649 19.1931C75.5854 19.5455 76.3536 19.92 76.7051 20.1095C80.29 22.0392 81.1103 24.859 83.6059 27.2557C85.5936 29.1635 102.898 44.6941 105.68 46.9234C108.462 49.1528 107.524 53.1753 106.613 58.4843Z" fill="#EB9481"/>
<path opacity="0.3" d="M101.17 72.9709C102.19 72.0677 103.722 69.1599 104.035 65.0712C105.684 63.8112 106.027 61.9034 106.613 58.4625C106.912 56.7222 107.212 55.1229 107.385 53.6733C107.311 54.1139 106.643 58.0792 106.027 58.4625C105.41 58.8458 104.942 57.621 104.942 57.621C104.942 57.621 104.152 63.1283 103.206 63.7892C102.26 64.45 101.904 63.3089 101.904 63.3089C101.435 67.1728 101.001 69.085 99.8725 69.5255C98.744 69.9661 97.7675 68.3404 97.2988 66.2829C97.1295 68.8779 97.863 81.3244 97.863 81.3244C97.863 81.3244 100.997 79.3065 101.17 72.9709Z" fill="#784C43"/>
<path opacity="0.05" d="M60.2472 31.243C59.2672 32.5797 58.4741 34.0475 57.8905 35.6048C55.7769 41.2751 56.2413 43.9759 56.2413 43.9759L47.4482 38.8167C47.4482 38.5787 47.4482 38.332 47.4482 38.0853C47.4482 34.3712 48.5159 30.3266 50.3127 26.542L60.2472 31.243Z" fill="black"/>
<path d="M99.3951 107.913C97.2815 107.059 93.8485 108.385 93.319 109.235C92.7895 110.086 94.3563 115.157 95.489 116.456C96.9386 118.078 100.814 117.919 100.927 115.201C101.04 112.482 99.3951 107.913 99.3951 107.913Z" fill="#EB9481"/>
<path opacity="0.4" d="M99.3951 107.913C97.2815 107.059 93.8485 108.385 93.319 109.235C92.7895 110.086 94.3563 115.157 95.489 116.456C96.9386 118.078 100.814 117.919 100.927 115.201C101.04 112.482 99.3951 107.913 99.3951 107.913Z" fill="white"/>
<path d="M97.169 109.218C99.2002 108.733 99.3955 107.896 99.3955 107.896C97.2818 107.041 93.8488 108.367 93.3193 109.218C94.5878 109.497 95.9006 109.497 97.169 109.218Z" fill="#784C43"/>
<path d="M56.2414 43.9937C56.2414 39.8345 57.8906 35.6226 57.8906 35.6226C57.8906 35.6226 55.6251 37.2263 54.8525 43.183L56.2414 43.9937Z" fill="#784C43"/>
<path d="M97.8804 81.3288C97.3726 76.923 96.9169 72.7859 96.726 69.2745C96.535 65.763 96.6001 65.3444 96.6739 64.7585C96.7477 64.1725 98.1322 62.5996 98.0323 64.7585C97.9325 66.9173 97.5983 68.9881 97.7719 72.3453C97.9455 75.7026 97.8804 81.3288 97.8804 81.3288Z" fill="#EB9481"/>
<path opacity="0.8" d="M97.8804 81.3288C97.3726 76.923 96.9169 72.7859 96.726 69.2745C96.535 65.763 96.6001 65.3444 96.6739 64.7585C96.7477 64.1725 98.1322 62.5996 98.0323 64.7585C97.9325 66.9173 97.5983 68.9881 97.7719 72.3453C97.9455 75.7026 97.8804 81.3288 97.8804 81.3288Z" fill="#784C43"/>
<g opacity="0.4">
<path opacity="0.4" d="M97.1037 83.4259C97.1024 83.376 97.0921 83.3267 97.0734 83.2805C97.029 83.1996 96.9701 83.1279 96.8998 83.0691C96.218 82.4596 95.3546 82.0997 94.4476 82.0469C93.7514 81.9813 93.0495 82.0199 92.3644 82.1615C91.2707 82.3862 90.0511 82.7783 89.5476 83.8841C89.5257 83.92 89.512 83.9604 89.5075 84.0023C89.503 84.0442 89.5078 84.0867 89.5216 84.1265C89.5867 84.2498 89.769 84.2146 89.8992 84.1617C90.9852 83.7342 92.1336 83.493 93.2975 83.448C93.8683 83.4348 94.4393 83.4568 95.0075 83.514C95.6044 83.6239 96.2107 83.6726 96.8173 83.6594C96.9092 83.6556 96.9962 83.6162 97.0603 83.5493C97.0855 83.5129 97.1005 83.4703 97.1037 83.4259Z" fill="#784C43"/>
<path opacity="0.4" d="M95.7623 86.4439C95.3283 86.5937 94.8943 86.8008 94.4125 86.9285C94.0452 87.0237 93.6706 87.0871 93.2928 87.118C92.9242 87.14 92.5546 87.14 92.186 87.118C91.969 87.118 91.752 87.118 91.5394 87.118C91.4129 87.0965 91.2854 87.0818 91.1574 87.0739C91.088 87.0739 91.0186 87.0739 90.9448 87.0739C90.871 87.0739 90.7972 87.2854 90.8667 87.3515C91.3664 87.8474 92.0162 88.1578 92.7112 88.2327C93.1312 88.2745 93.5542 88.2745 93.9742 88.2327C94.7901 88.1534 95.8534 87.9242 96.435 87.2898C96.7605 86.8889 96.1225 86.3249 95.7623 86.4439Z" fill="#784C43"/>
<path opacity="0.4" d="M98.4062 103.186C98.099 102.837 97.6754 102.616 97.217 102.565C97.1085 102.565 96.9957 102.538 96.8872 102.53C96.6197 102.514 96.3517 102.514 96.0843 102.53C95.541 102.559 95.0032 102.655 94.4828 102.816C93.6755 103.058 92.7467 103.521 92.4212 104.371C92.4212 104.415 92.3865 104.468 92.3691 104.517C92.3432 104.59 92.33 104.668 92.3301 104.746C92.3311 104.784 92.341 104.822 92.3591 104.855C92.3773 104.889 92.403 104.918 92.4342 104.94C92.49 104.961 92.5499 104.967 92.6088 104.96C92.6678 104.952 92.724 104.93 92.7728 104.896L94.1356 104.208C94.4016 104.087 94.6775 103.99 94.9602 103.917C95.2439 103.821 95.534 103.744 95.8282 103.688C96.1154 103.645 96.406 103.629 96.6962 103.64C97.2454 103.7 97.7974 103.729 98.3498 103.728C98.5798 103.706 98.4887 103.323 98.4062 103.186Z" fill="#784C43"/>
</g>
<g opacity="0.4">
<path opacity="0.4" d="M74.1224 84.2586C74.0613 84.2128 73.9853 84.1923 73.9098 84.2013C73.5433 84.2227 73.1813 84.2938 72.8334 84.4128C72.2418 84.6414 71.7115 85.0082 71.2855 85.4835C70.8595 85.9589 70.5498 86.5293 70.3813 87.1488C70.3794 87.159 70.3794 87.1694 70.3813 87.1796C70.6946 87.5661 71.0402 87.9243 71.4142 88.2503C71.4313 88.203 71.4444 88.1544 71.4533 88.1049C71.5999 87.2527 72.0032 86.4676 72.6078 85.8579C73.0485 85.4298 73.5121 85.0268 73.9966 84.6507C74.0579 84.6077 74.1096 84.5522 74.1485 84.4877C74.1696 84.4557 74.1808 84.4182 74.1808 84.3797C74.1808 84.3413 74.1696 84.3037 74.1485 84.2718L74.1224 84.2586Z" fill="#784C43"/>
<path opacity="0.4" d="M73.9014 89.5589L74.3701 89.6955C74.6045 89.7572 74.8562 89.81 75.1209 89.8629C75.242 89.6492 75.3284 89.4171 75.377 89.1756C75.4939 88.5782 75.542 87.9691 75.5202 87.3604C75.5254 87.0219 75.4184 86.6914 75.2164 86.4219C75.1817 86.3823 75.1383 86.3426 75.0862 86.3559C75.0341 86.3691 75.0124 86.4484 75.0081 86.5101C74.942 87.505 74.6137 88.4637 74.0576 89.2857C73.9973 89.3717 73.945 89.4631 73.9014 89.5589Z" fill="#784C43"/>
</g>
<path opacity="0.4" d="M94.196 53.3165C95.689 52.7613 97.3122 54.4311 97.5986 55.396C97.8224 56.0906 97.8836 56.8285 97.7774 57.5512C97.6712 58.2739 97.4004 58.9616 96.9867 59.5595C96.6568 59.9649 96.2489 59.3084 96.1707 58.0351C96.1734 56.7923 95.7272 55.5916 94.9165 54.6603C93.9747 53.6733 93.7794 53.4707 94.196 53.3165Z" fill="#784C43"/>
<path opacity="0.35" d="M83.7103 56.1274C82.1479 56.4269 81.601 58.7048 81.8398 59.6829C81.998 60.396 82.3182 61.0618 82.7748 61.6271C83.2315 62.1924 83.8119 62.6416 84.4698 62.9388C84.9559 63.115 84.9776 62.3396 84.4004 61.2073C83.7764 60.1488 83.5527 58.8961 83.7711 57.6826C84.0836 56.3212 84.1487 56.0436 83.7103 56.1274Z" fill="#784C43"/>
<path opacity="0.4" d="M100.697 50.5759C101.951 50.0472 103.392 51.4131 103.67 52.2237C103.889 52.8065 103.969 53.4333 103.904 54.0534C103.839 54.6735 103.631 55.2693 103.297 55.7925C103.028 56.1493 102.659 55.6074 102.546 54.528C102.508 53.4679 102.086 52.4593 101.361 51.695C100.537 50.8932 100.35 50.7257 100.697 50.5759Z" fill="#784C43"/>
<path d="M101.17 72.9709C100.897 70.5212 101.044 66.1198 101.17 63.6525C101.296 61.1853 102.806 60.4671 102.885 61.0927C102.963 61.7184 102.255 62.8242 101.921 65.2475C101.609 67.5032 101.318 69.997 101.17 72.9709Z" fill="#EB9481"/>
<path opacity="0.8" d="M101.17 72.9709C100.897 70.5212 101.044 66.1198 101.17 63.6525C101.296 61.1853 102.806 60.4671 102.885 61.0927C102.963 61.7184 102.255 62.8242 101.921 65.2475C101.609 67.5032 101.318 69.997 101.17 72.9709Z" fill="#784C43"/>
<path d="M78.1899 87.3296C77.8355 88.2405 77.6359 89.2059 77.5996 90.1845C79.991 90.5194 82.6124 90.8498 84.713 91.0657C84.713 90.5326 84.4136 88.1094 84.4136 88.1094C82.7773 86.77 78.1899 87.3296 78.1899 87.3296Z" fill="#EB9481"/>
<path opacity="0.3" d="M78.1899 87.3296C77.8355 88.2405 77.6359 89.2059 77.5996 90.1845C79.991 90.5194 82.6124 90.8498 84.713 91.0657C84.713 90.5326 84.4136 88.1094 84.4136 88.1094C82.7773 86.77 78.1899 87.3296 78.1899 87.3296Z" fill="white"/>
<path opacity="0.8" d="M77.5996 90.1846L78.6673 90.33C78.6615 89.3108 78.5005 88.2987 78.1899 87.3296C77.8355 88.2405 77.6359 89.2059 77.5996 90.1846Z" fill="#784C43"/>
<path opacity="0.4" d="M73.6537 69.0451C73.4541 68.8028 73.2674 68.5517 73.0852 68.2961C72.6511 67.7102 72.4255 67.0625 72.0132 66.4897C71.5357 65.823 71.0887 65.1357 70.6721 64.4278C70.5332 64.1899 69.4525 61.8768 69.4785 63.062C69.5393 65.5645 70.9238 67.8071 72.2605 69.9087C72.6555 70.5343 73.224 71.2304 73.0114 72.0499C72.8204 72.7593 72.0652 73.1293 71.3665 73.3276C70.6677 73.5259 69.9039 73.6845 69.4395 74.244C69.3535 74.3255 69.2956 74.4329 69.2745 74.5504C69.2534 74.6678 69.2702 74.7891 69.3223 74.8961C69.4568 75.0811 69.7303 75.0679 69.9516 75.0371C71.0414 74.8595 72.1506 74.8402 73.2457 74.9798C74.3457 75.1237 75.3727 75.6172 76.1796 76.3897C76.9565 77.1827 77.5424 78.4031 77.3167 79.5002C77.1719 80.0469 76.8995 80.5501 76.5225 80.9673C76.3359 81.2008 75.8194 81.7163 76.0104 81.9454C76.2013 82.1745 77.0563 82.1481 77.3124 82.1657C78.6622 82.2803 79.1049 82.3508 79.9989 82.8266C80.7494 83.1549 81.388 83.7005 81.8348 84.3951C82.4815 85.3203 82.846 86.4262 83.3147 88.1048C83.5684 89.0494 83.7655 90.0087 83.905 90.9774L84.7079 91.0611C84.6602 90.1094 84.5169 89.03 84.4084 88.1048C84.2652 86.8315 83.8356 85.9019 83.714 84.6859C83.5925 83.4698 83.3712 82.4829 83.2236 81.3286C83.0413 79.9011 82.9068 78.9362 82.6811 77.8039C82.1169 74.9842 81.8131 72.138 81.2532 69.3183C81.1534 68.7984 80.8192 67.2564 80.038 67.3885C79.9151 67.4186 79.8001 67.4756 79.7011 67.5555C79.6022 67.6354 79.5216 67.7363 79.4651 67.8512C79.3597 68.0847 79.2881 68.3326 79.2524 68.5869L78.8184 70.7898C78.7872 71.1252 78.6656 71.4453 78.4669 71.7151C78.3223 71.8591 78.1444 71.964 77.9496 72.0202C77.7547 72.0764 77.549 72.0821 77.3515 72.0367C76.9578 71.9404 76.5883 71.7618 76.2664 71.5124C75.2833 70.8217 74.4033 69.9907 73.6537 69.0451Z" fill="#784C43"/>
<path d="M84.7124 91.0611C84.682 90.3562 84.5562 89.2151 84.413 88.1048C83.9225 84.2541 83.1109 79.2183 82.4729 75.1825C81.5745 69.5871 81.6049 65.0491 80.611 65.0491C79.5434 65.0491 79.4956 67.4987 79.9904 70.3581C80.2942 72.1204 80.6371 74.4335 81.2143 77.2621C81.3011 77.7852 81.3533 78.3136 81.3705 78.8438C81.4072 79.0808 81.3685 79.3234 81.26 79.5366C81.1515 79.7497 80.9789 79.9222 80.7673 80.0289C80.4677 80.1464 80.1508 80.212 79.8298 80.2228C78.4453 80.3506 77.0088 80.562 75.8456 81.3375C75.7284 81.4067 75.6265 81.4997 75.5461 81.6106C75.507 81.6661 75.4822 81.7306 75.4738 81.7983C75.4655 81.866 75.4739 81.9348 75.4984 81.9983C75.6546 82.3288 76.5444 82.2318 76.8352 82.2142C77.4992 82.1702 78.1372 82.0688 78.8099 82.0027C80.3072 81.8485 82.0389 82.3596 83.0502 84.8445C83.8921 88.0608 84.7124 91.0611 84.7124 91.0611Z" fill="#EB9481"/>
<path opacity="0.9" d="M84.7124 91.0611C84.682 90.3562 84.5562 89.2151 84.413 88.1048C83.9225 84.2541 83.1109 79.2183 82.4729 75.1825C81.5745 69.5871 81.6049 65.0491 80.611 65.0491C79.5434 65.0491 79.4956 67.4987 79.9904 70.3581C80.2942 72.1204 80.6371 74.4335 81.2143 77.2621C81.3011 77.7852 81.3533 78.3136 81.3705 78.8438C81.4072 79.0808 81.3685 79.3234 81.26 79.5366C81.1515 79.7497 80.9789 79.9222 80.7673 80.0289C80.4677 80.1464 80.1508 80.212 79.8298 80.2228C78.4453 80.3506 77.0088 80.562 75.8456 81.3375C75.7284 81.4067 75.6265 81.4997 75.5461 81.6106C75.507 81.6661 75.4822 81.7306 75.4738 81.7983C75.4655 81.866 75.4739 81.9348 75.4984 81.9983C75.6546 82.3288 76.5444 82.2318 76.8352 82.2142C77.4992 82.1702 78.1372 82.0688 78.8099 82.0027C80.3072 81.8485 82.0389 82.3596 83.0502 84.8445C83.8921 88.0608 84.7124 91.0611 84.7124 91.0611Z" fill="#784C43"/>
</g>
<defs>
<filter id="filter0_d_709_5019" x="0" y="0" width="208" height="208" filterUnits="userSpaceOnUse" color-interpolation-filters="sRGB">
<feFlood flood-opacity="0" result="BackgroundImageFix"/>
<feColorMatrix in="SourceAlpha" type="matrix" values="0 0 0 0 0 0 0 0 0 0 0 0 0 0 0 0 0 0 127 0" result="hardAlpha"/>
<feOffset dy="4"/>
<feGaussianBlur stdDeviation="2"/>
<feComposite in2="hardAlpha" operator="out"/>
<feColorMatrix type="matrix" values="0 0 0 0 0 0 0 0 0 0 0 0 0 0 0 0 0 0 0.25 0"/>
<feBlend mode="normal" in2="BackgroundImageFix" result="effect1_dropShadow_709_5019"/>
<feBlend mode="normal" in="SourceGraphic" in2="effect1_dropShadow_709_5019" result="shape"/>
</filter>
</defs>
</svg>
