<svg width="40" height="40" viewBox="0 0 40 40" fill="none" xmlns="http://www.w3.org/2000/svg">
<path d="M13.3333 30C12.8611 30 12.4653 29.8403 12.1458 29.5208C11.8264 29.2014 11.6667 28.8056 11.6667 28.3333C11.6667 27.8611 11.8264 27.4653 12.1458 27.1458C12.4653 26.8264 12.8611 26.6667 13.3333 26.6667C13.8056 26.6667 14.2014 26.8264 14.5208 27.1458C14.8403 27.4653 15 27.8611 15 28.3333C15 28.8056 14.8403 29.2014 14.5208 29.5208C14.2014 29.8403 13.8056 30 13.3333 30ZM13.3333 23.3333C12.8611 23.3333 12.4653 23.1736 12.1458 22.8542C11.8264 22.5347 11.6667 22.1389 11.6667 21.6667C11.6667 21.1945 11.8264 20.7986 12.1458 20.4792C12.4653 20.1597 12.8611 20 13.3333 20C13.8056 20 14.2014 20.1597 14.5208 20.4792C14.8403 20.7986 15 21.1945 15 21.6667C15 22.1389 14.8403 22.5347 14.5208 22.8542C14.2014 23.1736 13.8056 23.3333 13.3333 23.3333ZM20 30C19.5278 30 19.1319 29.8403 18.8125 29.5208C18.4931 29.2014 18.3333 28.8056 18.3333 28.3333C18.3333 27.8611 18.4931 27.4653 18.8125 27.1458C19.1319 26.8264 19.5278 26.6667 20 26.6667C20.4722 26.6667 20.8681 26.8264 21.1875 27.1458C21.5069 27.4653 21.6667 27.8611 21.6667 28.3333C21.6667 28.8056 21.5069 29.2014 21.1875 29.5208C20.8681 29.8403 20.4722 30 20 30ZM20 23.3333C19.5278 23.3333 19.1319 23.1736 18.8125 22.8542C18.4931 22.5347 18.3333 22.1389 18.3333 21.6667C18.3333 21.1945 18.4931 20.7986 18.8125 20.4792C19.1319 20.1597 19.5278 20 20 20C20.4722 20 20.8681 20.1597 21.1875 20.4792C21.5069 20.7986 21.6667 21.1945 21.6667 21.6667C21.6667 22.1389 21.5069 22.5347 21.1875 22.8542C20.8681 23.1736 20.4722 23.3333 20 23.3333ZM26.6667 30C26.1944 30 25.7986 29.8403 25.4792 29.5208C25.1597 29.2014 25 28.8056 25 28.3333C25 27.8611 25.1597 27.4653 25.4792 27.1458C25.7986 26.8264 26.1944 26.6667 26.6667 26.6667C27.1389 26.6667 27.5347 26.8264 27.8542 27.1458C28.1736 27.4653 28.3333 27.8611 28.3333 28.3333C28.3333 28.8056 28.1736 29.2014 27.8542 29.5208C27.5347 29.8403 27.1389 30 26.6667 30ZM26.6667 23.3333C26.1944 23.3333 25.7986 23.1736 25.4792 22.8542C25.1597 22.5347 25 22.1389 25 21.6667C25 21.1945 25.1597 20.7986 25.4792 20.4792C25.7986 20.1597 26.1944 20 26.6667 20C27.1389 20 27.5347 20.1597 27.8542 20.4792C28.1736 20.7986 28.3333 21.1945 28.3333 21.6667C28.3333 22.1389 28.1736 22.5347 27.8542 22.8542C27.5347 23.1736 27.1389 23.3333 26.6667 23.3333ZM7.5 36.6667C6.83333 36.6667 6.25 36.4167 5.75 35.9167C5.25 35.4167 5 34.8333 5 34.1667V8.33334C5 7.66668 5.25 7.08334 5.75 6.58334C6.25 6.08334 6.83333 5.83334 7.5 5.83334H10.2083V3.33334H12.9167V5.83334H27.0833V3.33334H29.7917V5.83334H32.5C33.1667 5.83334 33.75 6.08334 34.25 6.58334C34.75 7.08334 35 7.66668 35 8.33334V34.1667C35 34.8333 34.75 35.4167 34.25 35.9167C33.75 36.4167 33.1667 36.6667 32.5 36.6667H7.5ZM7.5 34.1667H32.5V16.25H7.5V34.1667ZM7.5 13.75H32.5V8.33334H7.5V13.75ZM7.5 13.75V8.33334V13.75Z" fill="#337066"/>
</svg>
