<svg width="40" height="40" viewBox="0 0 40 40" fill="none" xmlns="http://www.w3.org/2000/svg">
<path d="M20 27.5833C22.8889 25.25 25.0694 23.0069 26.5417 20.8542C28.0139 18.7014 28.75 16.6944 28.75 14.8333C28.75 13.1944 28.4514 11.8056 27.8542 10.6667C27.2569 9.52777 26.5208 8.59722 25.6458 7.87499C24.7708 7.15277 23.8194 6.63194 22.7917 6.31249C21.7639 5.99305 20.8333 5.83333 20 5.83333C19.1667 5.83333 18.2361 5.99305 17.2083 6.31249C16.1806 6.63194 15.2292 7.15277 14.3542 7.87499C13.4792 8.59722 12.7431 9.52777 12.1458 10.6667C11.5486 11.8056 11.25 13.1944 11.25 14.8333C11.25 16.6944 11.9861 18.7014 13.4583 20.8542C14.9306 23.0069 17.1111 25.25 20 27.5833ZM20 30.75C16.1944 27.8889 13.3681 25.1528 11.5208 22.5417C9.67361 19.9305 8.75 17.3611 8.75 14.8333C8.75 12.9444 9.09028 11.2847 9.77083 9.85416C10.4514 8.42361 11.3333 7.22222 12.4167 6.24999C13.5 5.27777 14.7083 4.54861 16.0417 4.06249C17.375 3.57638 18.6944 3.33333 20 3.33333C21.3056 3.33333 22.625 3.57638 23.9583 4.06249C25.2917 4.54861 26.5 5.27777 27.5833 6.24999C28.6667 7.22222 29.5486 8.42361 30.2292 9.85416C30.9097 11.2847 31.25 12.9444 31.25 14.8333C31.25 17.3611 30.3264 19.9305 28.4792 22.5417C26.6319 25.1528 23.8056 27.8889 20 30.75ZM20 17.5C20.8056 17.5 21.4931 17.2153 22.0625 16.6458C22.6319 16.0764 22.9167 15.3889 22.9167 14.5833C22.9167 13.7778 22.6319 13.0903 22.0625 12.5208C21.4931 11.9514 20.8056 11.6667 20 11.6667C19.1944 11.6667 18.5069 11.9514 17.9375 12.5208C17.3681 13.0903 17.0833 13.7778 17.0833 14.5833C17.0833 15.3889 17.3681 16.0764 17.9375 16.6458C18.5069 17.2153 19.1944 17.5 20 17.5ZM8.75 36.6667V34.1667H31.25V36.6667H8.75Z" fill="#337066"/>
</svg>
