<svg width="40" height="40" viewBox="0 0 40 40" fill="none" xmlns="http://www.w3.org/2000/svg">
<path d="M18.4167 29.9167C15.2222 29.9167 12.4653 28.7847 10.1458 26.5208C7.82639 24.2569 6.66667 21.5694 6.66667 18.4583V7.5C6.66667 6.83333 6.91667 6.25 7.41667 5.75C7.91667 5.25 8.5 5 9.16667 5H31.2083C32.7083 5 33.9931 5.51389 35.0625 6.54167C36.1319 7.56944 36.6667 8.83333 36.6667 10.3333C36.6667 11.8333 36.1319 13.0972 35.0625 14.125C33.9931 15.1528 32.7083 15.6667 31.2083 15.6667H30.1667V18.4583C30.1667 21.5694 29.0069 24.2569 26.6875 26.5208C24.3681 28.7847 21.6111 29.9167 18.4167 29.9167ZM9.16667 13.1667H27.6667V7.5H9.16667V13.1667ZM18.4167 27.4167C20.9444 27.4167 23.1181 26.5347 24.9375 24.7708C26.7569 23.0069 27.6667 20.9028 27.6667 18.4583V15.6667H9.16667V18.4583C9.16667 20.9028 10.0764 23.0069 11.8958 24.7708C13.7153 26.5347 15.8889 27.4167 18.4167 27.4167V27.4167ZM30.1667 13.1667H31.2083C32.0139 13.1667 32.7083 12.8958 33.2917 12.3542C33.875 11.8125 34.1667 11.1389 34.1667 10.3333C34.1667 9.52778 33.875 8.85417 33.2917 8.3125C32.7083 7.77083 32.0139 7.5 31.2083 7.5H30.1667V13.1667ZM6.66667 35V32.5H33.0833V35H6.66667Z" fill="#337066"/>
</svg>
