<svg width="100" height="100" viewBox="0 0 100 100" fill="none" xmlns="http://www.w3.org/2000/svg">
<mask id="mask0_4_1315" style="mask-type:alpha" maskUnits="userSpaceOnUse" x="0" y="0" width="100" height="100">
<circle cx="50" cy="50" r="50" fill="#D9D9D9"/>
</mask>
<g mask="url(#mask0_4_1315)">
<circle cx="50" cy="50" r="50" fill="#D3EBD3"/>
<path d="M36.6614 39.1328L34.9863 37.2664C34.9863 37.2664 34.4491 36.1148 33.9211 35.8462C33.393 35.5776 29.7878 35.8462 29.7878 35.8462L30.243 38.6093L33.2246 38.7049L33.9211 38.3362L35.0454 40.0978L36.6614 39.1328Z" fill="#E4897B"/>
<path d="M49.1888 37.9948C48.2783 37.9174 42.3606 44.1583 41.8371 44.2767C41.3137 44.395 35.6327 37.535 35.6327 37.535L33.9211 39.3559C33.9211 39.3559 39.9708 48.1914 41.3273 48.1914C42.6838 48.1914 49.6212 43.4163 49.6212 43.4163L49.1888 37.9948Z" fill="#337066"/>
<path opacity="0.6" d="M49.6167 43.4118L48.8428 43.9353C47.9734 44.5179 46.4848 45.5012 45.0464 46.3706C43.4395 47.3448 41.8963 48.1914 41.3273 48.1914C39.9617 48.1914 33.9211 39.3559 33.9211 39.3559L35.6327 37.535C35.6327 37.535 41.3364 44.3996 41.8371 44.2767C42.3379 44.1537 48.2738 37.9037 49.1888 37.9948L49.6167 43.4118Z" fill="white"/>
<path opacity="0.2" d="M48.8429 43.9353C47.9734 44.5179 46.4849 45.5012 45.0464 46.3706C45.5253 44.425 46.5373 42.6515 47.9689 41.2495C48.9157 41.295 49.0887 42.5241 48.8429 43.9353Z" fill="black"/>
<path d="M54.1778 36.6747C55.0473 35.8371 60.0955 35.9054 61.6478 36.7794L60.5325 41.0583L53.2811 41.5136C53.2811 41.5136 52.7075 38.0858 54.1778 36.6747Z" fill="#337066"/>
<path d="M48.7518 61.2013L62.499 62.2665C62.499 62.2665 62.6902 54.0727 63.7827 49.7756C64.1424 48.4099 64.5885 46.8395 65.1484 45.0323C65.3896 44.2675 65.6536 43.4618 65.9404 42.5969C66.2272 41.732 66.4912 40.94 66.8053 40.0432C64.9254 39.4404 63.0038 38.9764 61.056 38.6548C58.9999 38.2891 56.9205 38.0686 54.8333 37.9948C52.1385 37.9948 49.0431 38.2816 49.0431 38.2816C49.0431 38.2816 48.8155 40.1024 48.5333 42.9338C48.2875 45.6195 48.1964 51.4462 48.7518 61.2013Z" fill="#263238"/>
<path d="M55.9805 41.0583C59.3991 40.6031 60.4233 39.1601 60.4233 39.1601C59.0258 37.8446 59.2808 35.9054 59.6358 34.6945C59.7448 34.3099 59.8864 33.9352 60.0592 33.5747L55.9623 34.344C56.0561 34.9161 56.1094 35.4942 56.1216 36.0738C56.1353 36.5019 56.0956 36.9301 56.0033 37.3484C55.7256 38.5774 55.0246 38.5957 55.0246 38.5957C54.2871 39.9431 55.9805 41.0583 55.9805 41.0583Z" fill="#E4897B"/>
<path opacity="0.2" d="M56.108 36.0875C56.1217 36.5156 56.082 36.9438 55.9896 37.3621C57.6238 37.1481 58.862 35.8417 59.6313 34.7082C59.7402 34.3235 59.8819 33.9489 60.0546 33.5884L55.9578 34.3577C56.0486 34.93 56.0988 35.5081 56.108 36.0875Z" fill="black"/>
<path d="M56.7953 23.4372C56.7953 23.4372 55.721 18.0658 50.1856 19.1401C44.6503 20.2144 47.2359 27.7617 48.3648 30.1379C49.4937 32.5141 49.6531 34.4442 48.3147 35.5185C48.3147 35.5185 50.1356 36.0419 51.1052 34.7856C51.1052 34.7856 51.0505 35.9463 50.4087 36.4334C50.4087 36.4334 55.9668 34.4442 54.5556 27.9483C53.1445 21.4525 56.7953 23.4372 56.7953 23.4372Z" fill="#263238"/>
<path d="M62.7039 23.0048C62.7039 23.0048 65.4943 23.114 66.2454 25.4766C66.9965 27.8391 66.4047 30.4839 62.2396 33.297C58.0744 36.1102 54.5921 33.3471 52.9807 31.4261C51.3692 29.5052 52.1749 22.9911 56.7953 22.2218C61.4157 21.4525 62.7039 23.0048 62.7039 23.0048Z" fill="#263238"/>
<path d="M60.0409 23.7695C63.5779 24.2839 64.4473 26.3415 64.1787 30.0286C63.8419 34.6353 62.3579 37.7308 58.0789 36.1148C52.2568 33.9252 54.1596 22.9228 60.0409 23.7695Z" fill="#E4897B"/>
<path d="M61.9164 29.5006C62.1242 30.07 62.3992 30.6125 62.7358 31.1166C62.6112 31.2486 62.4526 31.3435 62.2775 31.3909C62.1023 31.4383 61.9175 31.4363 61.7434 31.3852L61.9164 29.5006Z" fill="#DE5753"/>
<path d="M59.7905 28.8997C59.7587 29.1911 59.572 29.4096 59.3763 29.3823C59.1806 29.3549 59.0531 29.1046 59.0895 28.8132C59.1259 28.5219 59.308 28.3034 59.5038 28.3262C59.6995 28.3489 59.827 28.6038 59.7905 28.8997Z" fill="#263238"/>
<path d="M59.4219 28.3489L60.0865 28.1759C60.0865 28.1759 59.7041 28.6539 59.4219 28.3489Z" fill="#263238"/>
<path d="M63.4277 29.2593C63.3913 29.5552 63.2047 29.7692 63.0135 29.7464C62.8223 29.7237 62.6857 29.4687 62.7221 29.1774C62.7586 28.8861 62.9452 28.6676 63.1409 28.6903C63.3367 28.7131 63.4641 28.9817 63.4277 29.2593Z" fill="#263238"/>
<path d="M63.0544 28.7085L63.719 28.5356C63.719 28.5356 63.3412 29.0317 63.0544 28.7085Z" fill="#263238"/>
<path d="M58.4978 26.9241C58.4753 26.9242 58.4531 26.9193 58.4326 26.9099C58.4122 26.9004 58.394 26.8867 58.3795 26.8695C58.3637 26.855 58.3512 26.8374 58.3426 26.8178C58.334 26.7982 58.3296 26.7771 58.3296 26.7557C58.3296 26.7343 58.334 26.7132 58.3426 26.6936C58.3512 26.674 58.3637 26.6564 58.3795 26.6419C58.6271 26.4516 58.9153 26.3209 59.2216 26.2601C59.5279 26.1993 59.8441 26.21 60.1457 26.2914C60.1857 26.305 60.2191 26.3331 60.2394 26.3702C60.2596 26.4073 60.2652 26.4507 60.2549 26.4917C60.2433 26.532 60.2162 26.5661 60.1795 26.5865C60.1429 26.607 60.0996 26.6122 60.0592 26.6009C59.8103 26.5359 59.55 26.5271 59.2973 26.5752C59.0446 26.6232 58.8057 26.7268 58.598 26.8786C58.5713 26.9055 58.5357 26.9217 58.4978 26.9241V26.9241Z" fill="#263238"/>
<path d="M64.0741 27.3247C64.034 27.3241 63.9954 27.3096 63.9648 27.2837C63.8069 27.121 63.6145 26.9957 63.4019 26.9169C63.1892 26.8381 62.9616 26.8079 62.7358 26.8285C62.6961 26.8312 62.6568 26.8193 62.6252 26.7952C62.5937 26.771 62.572 26.7361 62.5642 26.6972C62.5564 26.6582 62.563 26.6177 62.5828 26.5832C62.6027 26.5488 62.6344 26.5227 62.672 26.5099C62.9479 26.4775 63.2275 26.5087 63.4894 26.601C63.7514 26.6933 63.9887 26.8443 64.1833 27.0425C64.2128 27.073 64.2293 27.1138 64.2293 27.1563C64.2293 27.1987 64.2128 27.2395 64.1833 27.2701C64.1698 27.2861 64.1531 27.2992 64.1343 27.3086C64.1155 27.318 64.0951 27.3235 64.0741 27.3247V27.3247Z" fill="#263238"/>
<path d="M55.3068 29.1819C55.3068 29.1819 57.3825 26.5281 57.4554 24.252C57.4554 24.252 64.8889 22.3948 64.2061 29.5689C64.2061 29.5689 65.8039 23.3462 59.7359 22.322C53.668 21.2977 52.4116 30.2153 55.1839 33.3198C55.1702 33.297 54.0185 30.8526 55.3068 29.1819Z" fill="#263238"/>
<path d="M55.7756 30.0104C55.7886 29.8051 55.761 29.5992 55.6943 29.4045C55.6276 29.2098 55.5232 29.0302 55.3871 28.8759C55.251 28.7216 55.0858 28.5956 54.9009 28.5052C54.7161 28.4148 54.5152 28.3617 54.3099 28.3489C53.1946 28.3125 52.3479 30.4884 54.9972 31.4261C55.3614 31.5581 55.6527 31.2076 55.7756 30.0104Z" fill="#E4897B"/>
<path d="M62.2396 21.5936C62.2396 21.5936 64.5157 20.6832 64.411 22.7362C64.3063 24.7892 55.7211 29.8193 51.3693 29.5006C51.3693 29.5006 52.5528 29.1911 52.9261 28.6767C52.3717 27.5897 52.2267 26.3396 52.5175 25.1546C52.8083 23.9696 53.5156 22.9287 54.5102 22.2218C59.035 18.6575 62.2396 21.5936 62.2396 21.5936Z" fill="#263238"/>
<path d="M57.4236 29.6099C57.4008 29.6096 57.3787 29.6025 57.3601 29.5895C57.3414 29.5765 57.3271 29.5582 57.3189 29.537C57.31 29.5092 57.3121 29.4791 57.3248 29.4528C57.3375 29.4266 57.3599 29.4062 57.3872 29.3959C63.1911 27.4021 63.6053 23.2233 63.6098 23.1823C63.6151 23.1566 63.629 23.1335 63.6494 23.1168C63.6697 23.1002 63.6951 23.0912 63.7214 23.0912C63.7476 23.0912 63.7731 23.1002 63.7934 23.1168C63.8137 23.1335 63.8277 23.1566 63.8329 23.1823C63.8329 23.2278 63.4096 27.5432 57.46 29.5871L57.4236 29.6099Z" fill="#263238"/>
<path d="M61.1608 32.6825C60.8368 32.9648 60.5327 33.269 60.2504 33.5929C60.1866 33.552 60.1184 33.5155 60.0546 33.47C59.1761 32.9192 58.9485 32.373 58.9667 31.9314C58.9781 31.7173 59.0422 31.5093 59.1533 31.326C59.2094 31.2186 59.2816 31.1203 59.3673 31.0347C59.7617 31.6169 60.2752 32.1088 60.874 32.4777C61.0424 32.6142 61.1608 32.6825 61.1608 32.6825Z" fill="#263238"/>
<path d="M60.8649 32.4913L60.5872 32.7553C59.7587 32.2319 59.2216 31.7539 59.1442 31.3396C59.2003 31.2322 59.2724 31.134 59.3581 31.0483C59.7525 31.6306 60.2661 32.1224 60.8649 32.4913V32.4913Z" fill="white"/>
<path d="M60.0454 33.4837C59.1669 32.9329 58.9393 32.3866 58.9575 31.9451C59.2886 32.1622 59.5784 32.4365 59.8133 32.7553C59.9653 32.9677 60.0465 33.2225 60.0454 33.4837V33.4837Z" fill="#DE5753"/>
<path d="M61.6479 36.7794L58.6344 38.3635L59.4811 40.4438C58.7661 46.3643 58.7661 52.3493 59.4811 58.2698L65.549 57.769C65.549 57.769 68.3212 43.6576 66.8099 40.0523L62.1896 38.4272L61.6479 36.7794Z" fill="#337066"/>
<path opacity="0.6" d="M67.0694 47.2992C66.9328 48.8424 66.7325 50.4311 66.5232 51.8923C66.0679 55.1516 65.549 57.7599 65.549 57.7599L59.4811 58.2606C58.7635 52.3403 58.7635 46.355 59.4811 40.4347L58.6344 38.3635L61.6479 36.7885L62.185 38.4363L66.8099 40.0523C67.3789 41.4088 67.3425 44.2812 67.0694 47.2992Z" fill="white"/>
<path opacity="0.2" d="M67.0694 47.2992C66.9328 48.8424 66.7325 50.4311 66.5231 51.8923C65.9814 50.3664 65.6745 48.7671 65.6127 47.149C66.1027 47.1362 66.5923 47.1866 67.0694 47.2992Z" fill="black"/>
<path d="M54.1779 36.6747L53.9093 38.2861L53.1628 39.4833C53.1628 39.4833 48.729 47.5178 49.3709 56.1075L46.5941 55.6068C46.5941 55.6068 46.6214 42.0735 49.1888 37.9948L53.1855 37.7991L54.1779 36.6747Z" fill="#337066"/>
<path opacity="0.6" d="M54.1779 36.6747L53.9093 38.2861L53.1628 39.4833C53.1628 39.4833 48.729 47.5178 49.3709 56.1075L46.5941 55.6068C46.5941 55.6068 46.6214 42.0735 49.1888 37.9948L53.1855 37.7991L54.1779 36.6747Z" fill="white"/>
<path d="M65.9541 130.602L63.8465 131.84C62.8637 130.51 61.7995 129.243 60.66 128.044C60.0501 127.398 59.4082 126.678 58.7391 125.914C57.4053 124.384 55.9623 122.632 54.4464 120.752C53.9912 120.196 53.536 119.632 53.0808 119.054C47.8049 112.417 42.0966 104.61 39.9663 99.3341C39.3017 97.6953 38.9785 96.3024 39.1196 95.2599C39.552 92.1054 40.7811 87.3621 42.1831 82.7827C44.3135 75.777 46.7079 69.1264 46.7079 69.1264L52.5846 79.1046C52.5846 79.1046 50.7638 83.4154 49.1342 87.9994C47.5136 92.5059 46.0524 97.2856 46.5941 98.5284C46.6442 98.6513 46.7125 98.7924 46.7853 98.9471C47.764 100.973 50.4679 105.557 53.5406 110.628L54.4783 112.166C56.1307 114.875 57.8468 117.652 59.4355 120.205C60.0546 121.211 60.6555 122.181 61.229 123.096C63.933 127.448 65.9541 130.602 65.9541 130.602Z" fill="#E4897B"/>
<path d="M63.4596 90.1935C62.7312 95.1644 61.6888 99.6664 61.0151 102.352C60.61 103.964 60.3323 104.915 60.3323 104.915C60.3202 110.025 60.0162 115.13 59.4219 120.205C59.1988 122.204 58.9667 124.125 58.7072 125.909C57.7968 132.519 56.8272 137.262 56.8272 137.262L54.319 136.934L54.451 120.756L54.5011 112.175L54.5739 100.499L54.6012 98.4646L54.7196 89.5881L54.9016 76.4963L63.628 72.5678C64.7751 77.5342 64.3381 84.2029 63.4596 90.1935Z" fill="#E4897B"/>
<path opacity="0.2" d="M46.7125 69.131L52.5846 79.1046C52.5846 79.1046 50.7638 83.4154 49.1342 87.9994C47.5136 92.5059 46.0524 97.2856 46.5941 98.5284C46.6442 98.6513 46.7125 98.7924 46.7853 98.9471C44.6049 99.6891 42.0329 99.6117 39.9572 99.3295C39.2926 97.6908 38.9694 96.2978 39.1105 95.2554C39.5429 92.1008 40.772 87.3575 42.174 82.7782C44.3044 75.7725 46.7125 69.131 46.7125 69.131Z" fill="black"/>
<path opacity="0.2" d="M63.4596 90.1935C62.7313 95.1644 61.6888 99.6664 61.0151 102.352C58.1473 101.442 56.2081 99.7301 54.5785 98.4555L54.6968 89.579L54.8789 76.4872L63.6053 72.5587C64.7751 77.5342 64.3382 84.203 63.4596 90.1935Z" fill="black"/>
<path d="M48.424 59.9449L46.8945 67.1372C46.8945 67.1372 39.8024 78.5174 36.8572 92.201C36.8572 92.201 36.7479 95.8017 40.3486 95.2554C43.9493 94.7092 45.5562 98.5284 49.1159 98.5284C52.6756 98.5284 56.2536 95.9109 59.3217 98.5284C62.3898 101.146 68.1709 98.5284 68.1709 98.5284C68.1709 98.5284 67.9524 71.5254 62.3898 61.0238L48.424 59.9449Z" fill="#337066"/>
<path opacity="0.6" d="M53.9321 61.7293C53.9321 61.8689 53.8907 62.0053 53.8132 62.1213C53.7356 62.2374 53.6254 62.3278 53.4965 62.3812C53.3676 62.4346 53.2257 62.4486 53.0888 62.4213C52.952 62.3941 52.8263 62.3269 52.7276 62.2282C52.6289 62.1296 52.5617 62.0038 52.5345 61.867C52.5073 61.7301 52.5212 61.5882 52.5746 61.4593C52.628 61.3304 52.7185 61.2202 52.8345 61.1427C52.9505 61.0651 53.087 61.0238 53.2265 61.0238C53.3193 61.0232 53.4113 61.041 53.4972 61.0762C53.5831 61.1115 53.6611 61.1634 53.7268 61.2291C53.7924 61.2947 53.8444 61.3727 53.8796 61.4586C53.9148 61.5445 53.9327 61.6365 53.9321 61.7293Z" fill="white"/>
<path d="M79.7606 54.71L84.5357 55.6614C84.5357 55.6614 85.4462 54.6782 85.9879 54.5689C86.9728 54.5422 87.9583 54.5833 88.9376 54.6918C88.9376 54.6918 89.3928 58.3562 88.9376 58.6612C88.4824 58.9662 85.3506 58.8388 84.8726 58.6612C84.3946 58.4837 84.1534 57.6234 84.1534 57.6234L79.7606 56.7129V54.71Z" fill="#9F5B53"/>
<path d="M66.8053 40.1115C68.2438 40.6395 71.849 51.4143 72.2678 51.8377C72.6866 52.261 82.8833 54.7829 82.8833 54.7829L82.2187 57.4504C82.2187 57.4504 71.6761 55.6796 70.7565 55.1743C69.837 54.669 65.1893 46.3661 65.1893 46.3661L66.8053 40.1115Z" fill="#337066"/>
<path opacity="0.6" d="M66.8053 40.1115C68.2438 40.6395 71.849 51.4143 72.2678 51.8377C72.6866 52.261 82.8833 54.7829 82.8833 54.7829L82.2187 57.4504C82.2187 57.4504 71.6761 55.6796 70.7565 55.1743C69.837 54.669 65.1893 46.3661 65.1893 46.3661L66.8053 40.1115Z" fill="white"/>
<path d="M74.9353 31.5809C75.2534 31.4857 75.5773 31.4112 75.9049 31.3578C76.2465 31.2696 76.5722 31.1283 76.87 30.9391C77.9898 29.9968 76.5104 29.0135 76.5741 27.5523C76.6378 26.0911 77.5892 26.1321 77.7758 25.2763C77.9625 24.4205 76.8654 23.7968 77.7758 22.0898C78.4495 20.8334 79.5466 20.8972 80.1839 20.5831C80.8212 20.269 79.9563 19.5543 81.8181 18.307C83.3248 17.3101 85.8785 18.1523 86.2746 19.2948C86.2746 19.2948 87.7403 18.1568 89.5293 19.5497C91.3183 20.9427 91.7006 22.3584 91.1954 23.6102C90.6901 24.862 93.221 25.8453 93.2848 27.0334C93.3485 28.2215 92.3243 28.399 92.7704 29.2047C94.6231 30.1151 95.447 31.4808 94.7187 32.5641C93.9903 33.6475 95.3332 34.2712 96.403 35.218C97.4727 36.1648 98.4514 36.7794 97.4135 37.4394C96.3756 38.0995 96.4348 38.8415 97.3088 40.2481C98.1828 41.6547 97.3088 44.1674 95.8522 44.8548C94.3955 45.5421 96.2618 47.6725 94.2817 48.9926C92.3015 50.3127 80.6254 53.044 77.6256 48.6421C74.6258 44.2402 73.9839 39.4014 74.4027 38.368C74.7988 37.4303 73.0781 36.306 72.9097 35.3591C72.7185 34.2302 73.8337 32.0133 74.9353 31.5809Z" fill="#263238"/>
<path d="M58.0926 46.9624C58.9711 47.1354 61.5704 46.1612 61.6979 45.5968C61.6979 45.5968 68.6671 48.8697 70.1738 48.2506C70.8339 47.9775 72.0675 46.6437 73.2556 45.2326C74.7623 43.4118 76.1826 41.4862 76.1826 41.4862L75.8457 39.5926L75.477 37.535C74.4482 37.8172 69.9872 44.568 69.227 45.2326C68.4668 45.8972 61.5249 43.2843 61.5249 43.2843C61.5249 43.2843 60.9331 42.3147 60.0728 42.2874C59.2124 42.2601 57.2505 42.9793 56.5449 43.298C55.8393 43.6166 57.1822 46.7894 58.0926 46.9624Z" fill="#EEC1BB"/>
<path opacity="0.2" d="M73.2465 45.2371C74.7532 43.4163 76.1734 41.4908 76.1734 41.4908L75.8457 39.5925L75.5179 39.7883C74.3708 40.553 73.4468 42.21 73.2465 45.2371Z" fill="black"/>
<path d="M93.6443 38.4409C93.6443 38.4409 90.4897 41.6546 90.1028 55.2836L75.9686 54.141C75.9686 54.141 73.7199 44.4041 75.4633 37.5214C81.5019 36.2594 87.7639 36.5761 93.6443 38.4409V38.4409Z" fill="#337066"/>
<path opacity="0.4" d="M93.6443 38.4409C93.6443 38.4409 92.9023 39.2011 92.0921 41.5317C91.7062 42.6758 91.3945 43.8436 91.1589 45.0277C90.5103 48.4139 90.1569 51.8499 90.1028 55.2972L75.9686 54.1547C75.9686 54.1547 73.7199 44.4178 75.4633 37.535C81.5007 36.2686 87.7627 36.5806 93.6443 38.4409Z" fill="#70C4BC"/>
<path d="M64.1378 126.81L68.7854 127.63C73.4741 115.949 76.8062 106.199 79.1642 98.105C80.4297 93.7396 81.4903 89.8566 82.2505 86.4107L82.1094 99.1292V127.775H86.6888C98.1646 73.105 89.9207 57.0999 89.9207 57.0999L75.9595 56.2122C75.4406 58.2606 75.3814 63.7641 75.1492 66.0766L74.5302 70.6286L69.1633 98.3508L64.1378 126.81Z" fill="#263238"/>
<path opacity="0.2" d="M79.1642 98.105C80.4297 93.7395 81.4403 89.8566 82.1823 86.4107C82.1217 82.3324 81.8299 78.2609 81.3083 74.2157C81.3083 74.2157 79.2826 89.9477 79.1642 98.105Z" fill="black"/>
<path d="M90.1028 55.2972L75.9686 54.1547V56.5536L90.3077 57.8191L90.1028 55.2972Z" fill="black"/>
<path d="M79.8743 55.2062V56.3169C79.8725 56.5345 79.9532 56.7447 80.1001 56.9052C80.2471 57.0657 80.4494 57.1645 80.6664 57.1818L82.4144 57.3366H82.4917C82.7223 57.3366 82.9435 57.245 83.1065 57.0819C83.2696 56.9189 83.3612 56.6977 83.3612 56.4671V55.3519C83.363 55.1343 83.2823 54.924 83.1354 54.7635C82.9884 54.6031 82.7861 54.5042 82.5691 54.487L80.8166 54.3322C80.6966 54.3228 80.5759 54.3383 80.4622 54.3777C80.3484 54.4171 80.2441 54.4796 80.1556 54.5612C80.0671 54.6428 79.9965 54.7418 79.9481 54.852C79.8997 54.9623 79.8746 55.0813 79.8743 55.2016V55.2062ZM80.3295 56.3169V55.9527H80.3523L80.8439 55.9892C80.9224 55.9952 81 55.9698 81.0598 55.9186C81.1195 55.8674 81.1565 55.7945 81.1625 55.716C81.1686 55.6376 81.1432 55.5599 81.092 55.5001C81.0407 55.4404 80.9679 55.4034 80.8894 55.3974L80.3978 55.361H80.3295V55.2062C80.3294 55.1473 80.3415 55.0889 80.365 55.0349C80.3885 54.9808 80.4229 54.9322 80.4661 54.8921C80.5461 54.8236 80.6475 54.785 80.7528 54.7829H80.7893L82.5373 54.9376C82.6427 54.9457 82.7412 54.9933 82.813 55.071C82.8848 55.1487 82.9245 55.2507 82.9242 55.3564V56.4717C82.9242 56.5299 82.9121 56.5876 82.8886 56.6409C82.865 56.6942 82.8307 56.742 82.7876 56.7812C82.7448 56.8216 82.6937 56.8522 82.6379 56.8711C82.5822 56.8899 82.523 56.8965 82.4644 56.8905L80.7164 56.7357C80.6109 56.73 80.5115 56.6846 80.438 56.6086C80.3646 56.5326 80.3225 56.4317 80.3204 56.326L80.3295 56.3169Z" fill="white"/>
<path d="M86.3428 37.0297C86.5989 37.1157 86.8123 37.2965 86.9391 37.535C85.5736 38.5406 83.9141 39.0671 82.2186 39.0326C81.7361 39.0326 80.7392 37.667 81.4857 37.2573C81.6236 37.1847 81.7666 37.1224 81.9136 37.0707C82.2323 36.8158 82.6237 36.1967 82.5964 34.7036C82.5812 34.1175 82.5234 33.5333 82.4235 32.9556L86.575 32.1544C86.575 32.1544 85.1502 34.9585 86.3428 37.0297Z" fill="#EEC1BB"/>
<path opacity="0.2" d="M82.4008 32.9556C82.5007 33.5333 82.5585 34.1175 82.5737 34.7036C85.3778 34.7036 86.5523 32.1544 86.5523 32.1544L82.4008 32.9556Z" fill="black"/>
<path d="M84.3217 21.2386C80.7165 20.9108 79.3827 22.7362 78.7818 26.4234C78.0353 31.0347 78.7818 34.4214 83.3567 33.8387C89.5976 33.0467 90.3031 21.7803 84.3217 21.2386Z" fill="#EEC1BB"/>
<path d="M81.1307 26.4325C80.7933 26.9438 80.396 27.4129 79.9472 27.83C80.0388 27.9882 80.1723 28.1182 80.3328 28.2057C80.4934 28.2933 80.675 28.3349 80.8576 28.3262L81.1307 26.4325Z" fill="#D4827D"/>
<path d="M83.3612 26.3369C83.3293 26.6328 83.4613 26.8923 83.6571 26.915C83.8528 26.9378 84.0394 26.7147 84.0759 26.4188C84.1123 26.123 83.9757 25.868 83.78 25.8453C83.5842 25.8225 83.3931 26.041 83.3612 26.3369Z" fill="#263238"/>
<path d="M83.8574 25.868L83.2474 25.5403C83.2474 25.5403 83.5023 26.1184 83.8574 25.868Z" fill="#263238"/>
<path d="M79.6968 25.8589C79.6649 26.1503 79.7969 26.4097 79.9926 26.4325C80.1884 26.4553 80.375 26.2322 80.4114 25.9363C80.4479 25.6404 80.3113 25.3855 80.1156 25.3628C79.9198 25.34 79.7332 25.5631 79.6968 25.8589Z" fill="#263238"/>
<path d="M80.1975 25.3855L79.583 25.0623C79.583 25.0623 79.8379 25.6404 80.1975 25.3855Z" fill="#263238"/>
<path d="M85.1366 24.7072C85.1107 24.7075 85.0851 24.7013 85.0621 24.6894C85.0391 24.6775 85.0193 24.6602 85.0045 24.639C84.8375 24.4408 84.628 24.2826 84.3917 24.1763C84.1553 24.0699 83.898 24.018 83.6389 24.0244C83.6182 24.0257 83.5975 24.0227 83.5779 24.0158C83.5584 24.0088 83.5405 23.998 83.5252 23.984C83.5099 23.97 83.4976 23.9531 83.489 23.9342C83.4804 23.9153 83.4756 23.8949 83.475 23.8742C83.4738 23.8327 83.4888 23.7924 83.5168 23.7617C83.5449 23.7311 83.5838 23.7127 83.6253 23.7103C83.9399 23.6989 84.2527 23.7613 84.5389 23.8926C84.825 24.0238 85.0765 24.2202 85.2731 24.466C85.2851 24.4829 85.2935 24.5021 85.298 24.5223C85.3024 24.5426 85.3027 24.5635 85.2989 24.5839C85.2951 24.6043 85.2872 24.6237 85.2757 24.641C85.2643 24.6583 85.2494 24.673 85.2321 24.6845C85.2039 24.7029 85.1701 24.711 85.1366 24.7072V24.7072Z" fill="#263238"/>
<path d="M79.5557 23.7969C79.5277 23.7964 79.5004 23.7886 79.4764 23.7742C79.4525 23.7598 79.4327 23.7394 79.4191 23.7149C79.3996 23.678 79.3953 23.6349 79.4073 23.5949C79.4192 23.5549 79.4463 23.5212 79.4829 23.501C79.7191 23.3518 79.9865 23.2591 80.2644 23.2299C80.5422 23.2007 80.8231 23.2358 81.0852 23.3325C81.1222 23.3512 81.1504 23.3834 81.164 23.4225C81.1776 23.4616 81.1755 23.5044 81.158 23.5419C81.1403 23.5786 81.1089 23.6067 81.0705 23.6204C81.0322 23.634 80.9901 23.632 80.9532 23.6148C80.7344 23.5399 80.5015 23.5157 80.272 23.5441C80.0425 23.5725 79.8225 23.6527 79.6285 23.7786C79.6057 23.7895 79.5809 23.7957 79.5557 23.7969V23.7969Z" fill="#263238"/>
<path d="M87.7084 27.6661C87.7084 27.6661 86.2927 24.5525 86.7525 22.2901C86.7525 22.2901 79.8789 18.7304 78.8683 25.9318C78.8683 25.9318 78.7545 19.4359 84.959 19.8547C91.1635 20.2735 90.3213 29.3276 86.8754 31.7357C86.8754 31.7448 88.5915 29.6099 87.7084 27.6661Z" fill="#263238"/>
<path d="M87.0483 28.3717C87.1207 27.9603 87.3526 27.5941 87.6936 27.3528C88.0346 27.1115 88.4571 27.0147 88.8692 27.0835C89.9753 27.3065 90.2985 29.6463 87.4717 29.9467C87.0802 29.9877 86.889 29.578 87.0483 28.3717Z" fill="#EEC1BB"/>
<path d="M81.0579 29.3549C81.3292 29.6949 81.5756 30.0539 81.7953 30.4292L82.0092 30.3473C82.9788 29.9604 83.2975 29.4642 83.3749 29.0272C83.4045 28.815 83.3795 28.5988 83.302 28.399C83.2638 28.2831 83.2102 28.1729 83.1427 28.0713C82.6504 28.574 82.0558 28.9652 81.3993 29.2184C81.1899 29.3094 81.0579 29.3549 81.0579 29.3549Z" fill="#263238"/>
<path d="M81.3856 29.2184L81.6132 29.5279C82.5236 29.1638 83.1153 28.7859 83.2883 28.399C83.2501 28.2831 83.1965 28.1729 83.129 28.0713C82.6366 28.574 82.0421 28.9652 81.3856 29.2184V29.2184Z" fill="white"/>
<path d="M82.0093 30.3473C82.9789 29.9603 83.2975 29.4642 83.3749 29.0272C83.0111 29.1826 82.6769 29.3997 82.3871 29.669C82.1917 29.8487 82.0592 30.0865 82.0093 30.3473V30.3473Z" fill="#DE5753"/>
<path opacity="0.2" d="M92.0921 41.55C91.7063 42.694 91.3946 43.8618 91.159 45.0459C90.934 43.7345 90.9587 42.3924 91.2318 41.0902L92.0921 41.55Z" fill="black"/>
<path d="M93.6444 38.4409C96.5851 39.3968 102.749 49.2839 102.293 50.5631C101.838 51.8422 92.2333 55.2972 92.2333 55.2972L95.1694 59.6172C95.1694 59.6172 92.9479 61.3697 91.8691 60.919C90.7903 60.4684 89.675 56.59 89.5657 55.2517C89.4565 53.9134 97.887 50.2672 98.2147 49.6526C98.5425 49.0381 94.1998 44.4951 91.555 42.4922C91.2341 41.7762 91.1792 40.9691 91.4002 40.2162C91.5452 39.7248 91.8387 39.2903 92.2406 38.9724C92.6424 38.6545 93.1328 38.4688 93.6444 38.4409V38.4409Z" fill="#EEC1BB"/>
<path d="M32.8969 37.0207C33.0941 37.5213 33.3395 38.0015 33.6298 38.4546C33.9302 38.8233 36.9619 40.1935 36.9619 40.1935C36.9619 40.1935 38.3275 37.7353 38.364 37.5806C38.4004 37.4258 35.7374 34.7992 33.9621 35.4456L32.8969 37.0207Z" fill="#EBB376"/>
<path d="M17.7749 39.0327C19.6823 38.7732 25.7593 37.7808 26.6606 37.535C27.5619 37.2892 34.2671 35.3273 34.2671 35.3273L34.6085 36.7794C34.6085 36.7794 27.1977 39.9203 25.7593 40.4211C24.3208 40.9218 15.1074 42.952 15.1074 42.952L17.7749 39.0327Z" fill="#EBB376"/>
<path d="M48.4468 53.0804L53.2674 53.7996C53.2674 53.7996 54.105 52.7754 54.6649 52.6343C55.6464 52.5582 56.6319 52.549 57.6147 52.607C57.6147 52.607 58.2565 56.2487 57.8195 56.5673C57.3825 56.8859 54.2507 56.936 53.7591 56.7767C53.2674 56.6174 52.9852 55.7843 52.9852 55.7843L48.5333 55.0788L48.4468 53.0804Z" fill="#9F5B53"/>
<path d="M34.3581 37.2209C36.4429 37.3484 39.8661 51.0046 39.8661 51.0046L52.2204 53.3171V56.2122C52.2204 56.2122 39.2106 54.8466 38.3366 54.792C37.4626 54.7373 33.2246 44.2812 33.2246 44.2812L33.9211 38.5547L34.3581 37.2209Z" fill="#263238"/>
<path opacity="0.4" d="M52.2204 53.3171V56.2122C52.2204 56.2122 39.206 54.8466 38.3366 54.792C38.2638 54.792 38.1636 54.71 38.0498 54.5735C37.1986 53.5629 35.3186 49.2931 34.1805 46.58C33.6161 45.2144 33.2246 44.2767 33.2246 44.2767L33.9211 38.5502L34.3763 37.2209C36.4611 37.3484 39.8843 51.0046 39.8843 51.0046L52.2204 53.3171Z" fill="white"/>
<path opacity="0.2" d="M38.0635 54.5735C37.2122 53.5629 35.3322 49.2931 34.1942 46.58L35.9468 43.257C35.9468 43.257 38.6735 49.7892 38.0635 54.5735Z" fill="black"/>
<path d="M20.8202 24.7482C20.8521 24.4979 20.8475 24.2293 20.8748 23.9334C20.8872 23.5824 20.9956 23.2414 21.1882 22.9477C21.3808 22.6539 21.6503 22.4186 21.9673 22.2674C22.2761 22.2027 22.5802 22.1175 22.8777 22.0124C23.3329 21.7757 23.5196 21.2477 23.8564 20.8653C24.0346 20.6665 24.2529 20.5077 24.4969 20.3995C24.741 20.2912 25.0052 20.2359 25.2721 20.2371C25.9322 20.2371 26.5831 20.5967 27.2204 20.4283C27.4485 20.3561 27.667 20.2568 27.8714 20.1324C28.2595 19.9036 28.6929 19.7622 29.1414 19.7182C29.3665 19.6976 29.5934 19.7279 29.8054 19.8066C30.0173 19.8854 30.2088 20.0108 30.3659 20.1734C30.5935 20.4192 30.7164 20.7697 30.9986 20.9473C31.5358 21.2932 32.3096 20.8426 32.865 21.1566C33.343 21.4252 33.4203 22.1308 33.8801 22.4267C34.085 22.5587 34.3353 22.5906 34.5493 22.718C34.6949 22.8243 34.8162 22.9606 34.9049 23.1176C34.9936 23.2746 35.0477 23.4488 35.0637 23.6284C35.1183 23.988 35.1001 24.3613 35.1729 24.7164C35.3413 25.5403 35.8421 25.7679 36.4429 26.2095C36.93 26.5691 37.6993 27.2473 37.2395 27.9074C36.5567 28.8952 35.6008 29.6554 36.493 30.3928C37.3852 31.1303 38.8464 31.6173 38.1955 32.505C37.5445 33.3926 36.5067 33.7523 37.2031 34.6035C37.8996 35.4547 38.0088 36.4016 37.235 36.8431C37.235 36.8431 37.7357 36.1922 36.7798 35.5867C35.8238 34.9813 35.7874 34.3577 35.7874 34.3577C35.6102 34.517 35.4791 34.7211 35.4078 34.9486C35.3365 35.176 35.3277 35.4185 35.3823 35.6505C35.4472 35.867 35.4621 36.0955 35.4258 36.3187C35.3895 36.5418 35.3031 36.7538 35.1729 36.9387C35.1729 36.9387 35.3322 36.9933 34.6266 36.2195C34.4264 36.0362 34.2821 35.8001 34.2104 35.5383C34.1387 35.2765 34.1426 34.9998 34.2215 34.7401C34.2215 34.7401 33.5751 36.4107 33.3657 37.0161C33.1563 37.6215 29.633 38.409 28.9183 38.0631C28.2037 37.7171 25.659 38.0176 25.6773 36.6974C25.528 36.8833 25.4467 37.1146 25.4467 37.3529C25.4467 37.5913 25.528 37.8226 25.6773 38.0085C25.4664 37.9645 25.2723 37.8616 25.1176 37.7117C24.9629 37.5619 24.8539 37.3711 24.8033 37.1618C24.603 36.4152 23.6425 35.5685 23.6425 35.5685C23.6425 35.5685 24.5848 36.7339 24.0021 37.4167C23.8367 37.5816 23.7311 37.797 23.7022 38.0288C23.6734 38.2606 23.7228 38.4954 23.8428 38.6958C23.8428 38.6958 22.8914 38.0039 22.8686 37.4668C22.8459 36.9296 23.556 36.3287 22.1631 35.6459C20.7701 34.9631 21.2526 34.4715 21.2526 34.4715C21.0797 34.7437 20.9879 35.0594 20.9879 35.3819C20.9879 35.7043 21.0797 36.0201 21.2526 36.2923C21.8581 37.1344 20.8475 38.1405 20.8475 38.1405C20.8475 38.1405 21.5258 37.0844 20.7792 36.611C20.0327 36.1375 19.5274 35.1725 20.0281 34.5443C19.795 34.6485 19.603 34.8269 19.4819 35.0517C19.3609 35.2765 19.3176 35.5351 19.359 35.787C19.3999 36.7976 18.8309 37.0343 18.8309 37.0343C18.8309 37.0343 19.1997 36.1239 18.7763 35.8143C18.353 35.5048 18.2619 34.3258 18.6898 33.8023C19.1177 33.2788 19.491 32.1727 18.8537 31.4535C18.2164 30.7342 18.048 30.147 18.7672 29.5325C19.4864 28.9179 19.5729 27.5933 19.3408 26.8012C19.1814 26.2595 20.0281 25.9318 20.3559 25.6723C20.4944 25.56 20.6075 25.4196 20.6875 25.2603C20.7676 25.1009 20.8128 24.9264 20.8202 24.7482V24.7482Z" fill="#263238"/>
<path d="M46.7125 136.911L49.075 136.27C48.2101 124.366 45.8886 110.004 43.8902 99.2339C43.5761 97.5497 43.2757 95.9519 42.9798 94.4633C42.8387 93.7578 42.7112 93.0977 42.5792 92.424C41.951 89.1966 41.4184 86.6474 41.0907 85.0724C40.8448 83.9207 40.7083 83.2925 40.7083 83.2925L32.2232 85.7507L32.9288 87.8901L35.264 94.9504L35.528 95.7561L37.0712 100.417L39.6932 108.352C40.0528 120.492 46.7125 136.911 46.7125 136.911Z" fill="#9F5B53"/>
<path d="M26.1188 136.338L28.5542 136.101C29.8287 123.196 29.8788 107.123 29.7058 95.9564C29.6785 94.2266 29.6467 92.6107 29.6102 91.1449C29.6102 91.072 29.6102 90.9992 29.6102 90.9309C29.5374 88.0222 29.4646 85.7097 29.41 84.2485C29.3599 83.1013 29.3371 82.4732 29.3371 82.4732L20.5562 83.4564L21.1024 87.0981L21.899 92.4695L22.0583 93.5211L22.6046 97.1627L24.0749 106.972C22.3633 119.022 26.1188 136.338 26.1188 136.338Z" fill="#9F5B53"/>
<path opacity="0.2" d="M21.8945 92.4786L29.633 91.1449C29.633 91.0721 29.633 90.9992 29.633 90.9309C29.5602 88.0222 29.4874 85.7097 29.4327 84.2485L21.1252 87.1072L21.8945 92.4786Z" fill="black"/>
<path opacity="0.2" d="M41.9373 89.2011L33.8164 90.5668L32.9287 87.881L41.0815 85.0633C41.2954 86.0784 41.5868 87.4759 41.9373 89.2011Z" fill="black"/>
<path d="M20.8976 60.2727C20.8976 60.2727 15.6309 72.5633 20.5517 90.4166L30.1429 89.3195V80.1198L32.2186 88.9827L41.8372 87.0708C38.8783 72.5952 36.2154 66.0265 36.2154 66.0265L35.5007 58.7432L20.8976 60.2727Z" fill="#337066"/>
<path opacity="0.7" d="M20.8976 60.2727C20.8976 60.2727 15.6309 72.5633 20.5517 90.4166L30.1429 89.3195V80.1198L32.2186 88.9827L41.8372 87.0708C38.8783 72.5952 36.2154 66.0265 36.2154 66.0265L35.5007 58.7432L20.8976 60.2727Z" fill="white"/>
<path d="M25.3541 62.9402L32.9287 62.271V59.8175L25.3541 60.4684V62.9402Z" fill="#263238"/>
<path d="M24.6894 60.5276L20.8884 60.8554L20.5516 63.3681L24.6894 62.9994V60.5276Z" fill="#263238"/>
<path d="M33.5068 59.7674V62.221L35.2048 62.0708V59.6172L33.5068 59.7674Z" fill="#263238"/>
<path d="M30.9259 60.0451C30.834 59.9633 30.7266 59.901 30.61 59.8618C30.4935 59.8227 30.3702 59.8076 30.2476 59.8175L28.4586 59.9722C28.2373 59.9905 28.0309 60.0916 27.8808 60.2553C27.7306 60.419 27.6476 60.6332 27.6484 60.8553V61.9979C27.6447 62.1165 27.665 62.2347 27.708 62.3453C27.751 62.4559 27.8159 62.5567 27.8988 62.6417C27.9816 62.7267 28.0807 62.7941 28.1902 62.8399C28.2997 62.8857 28.4173 62.909 28.536 62.9083H28.6134L30.4024 62.7535C30.6285 62.735 30.8389 62.63 30.9897 62.4605C31.1406 62.291 31.2204 62.0699 31.2127 61.8431V60.7051C31.2122 60.5814 31.1866 60.459 31.1372 60.3456C31.0879 60.2321 31.016 60.1298 30.9259 60.0451ZM30.3614 62.2665L28.577 62.4258C28.517 62.4323 28.4563 62.4259 28.399 62.4071C28.3417 62.3883 28.2891 62.3574 28.2447 62.3165C28.1589 62.2325 28.1098 62.118 28.1081 61.9979V60.8553C28.1077 60.7479 28.1478 60.6442 28.2203 60.5649C28.2928 60.4857 28.3926 60.4366 28.4996 60.4274L30.2886 60.2727H30.325C30.4372 60.2781 30.5434 60.3248 30.6232 60.4038C30.703 60.4828 30.7508 60.5885 30.7574 60.7006V60.8735H30.6846L30.1839 60.9145C30.1092 60.9275 30.042 60.9677 29.9954 61.0275C29.9488 61.0873 29.9262 61.1623 29.9318 61.2379C29.9375 61.3135 29.9711 61.3842 30.0262 61.4364C30.0812 61.4885 30.1536 61.5183 30.2294 61.5199L30.7301 61.4835H30.7574V61.8568C30.7533 61.9618 30.7106 62.0616 30.6375 62.1371C30.5645 62.2127 30.4662 62.2587 30.3614 62.2665V62.2665Z" fill="white"/>
<path opacity="0.2" d="M30.1429 80.1198C31.7816 76.733 32.9288 73.9471 32.9288 73.9471C32.9288 73.9471 33.2884 82.5233 32.2186 88.969L30.1429 80.1198Z" fill="black"/>
<path d="M27.5299 41.2495C24.3799 40.0478 23.738 38.4272 23.738 38.4272C26.269 36.9797 25.3677 33.1969 25.3677 33.1969L29.1049 34.8675C28.8839 35.3911 28.6998 35.9296 28.5541 36.4789C27.9533 38.846 29.0093 39.1282 29.0093 39.1282C29.4145 40.5758 27.5299 41.2495 27.5299 41.2495Z" fill="#9F5B53"/>
<path opacity="0.2" d="M29.105 34.8675C28.8839 35.3911 28.6999 35.9296 28.5542 36.4789C25.914 35.8416 25.3677 33.1969 25.3677 33.1969L29.105 34.8675Z" fill="black"/>
<path d="M24.4892 22.5632C24.4892 22.5632 22.4635 22.7408 21.7579 26.0046C21.0524 29.2685 23.2647 34.8038 26.0232 34.1984C28.7818 33.5929 24.4892 22.5632 24.4892 22.5632Z" fill="#263238"/>
<path d="M32.6784 32.8054C32.6419 32.9238 32.6055 33.0376 32.5691 33.1468C32.0638 34.5534 31.0442 35.4229 29.2825 35.391C29.0269 35.3932 28.7713 35.378 28.5178 35.3455L28.0079 35.2636C22.0265 34.1255 22.0174 23.2005 27.8304 23.0321C31.3309 22.9274 32.5099 24.7756 32.8695 28.3717C33.0739 29.849 33.0091 31.3512 32.6784 32.8054Z" fill="#9F5B53"/>
<path d="M30.6027 28.2397C30.8973 28.7557 31.2535 29.2342 31.6633 29.6645C31.5648 29.8113 31.4277 29.9281 31.267 30.002C31.1064 30.0759 30.9285 30.104 30.7529 30.0833L30.6027 28.2397Z" fill="#892B29"/>
<path d="M28.4541 28.0166C28.4541 28.3034 28.3221 28.5447 28.1309 28.5538C27.9397 28.5629 27.7713 28.3398 27.7576 28.053C27.744 27.7663 27.8851 27.525 28.0763 27.5159C28.2675 27.5068 28.4359 27.7298 28.4541 28.0166Z" fill="#263238"/>
<path d="M27.9988 27.5341L28.6088 27.2564C28.6088 27.2564 28.3266 27.7981 27.9988 27.5341Z" fill="#263238"/>
<path d="M32.0183 27.7708C32.0183 28.0576 31.8908 28.2989 31.6996 28.308C31.5084 28.3171 31.34 28.094 31.3264 27.8072C31.3127 27.5205 31.4538 27.2792 31.645 27.2701C31.8362 27.261 32.0046 27.484 32.0183 27.7708Z" fill="#263238"/>
<path d="M31.5677 27.2883L32.1777 27.0106C32.1777 27.0106 31.8954 27.5523 31.5677 27.2883Z" fill="#263238"/>
<path d="M26.8426 26.3369C26.8067 26.3369 26.7717 26.3258 26.7425 26.305C26.7253 26.2917 26.7109 26.2751 26.7002 26.2561C26.6895 26.2372 26.6827 26.2163 26.6801 26.1947C26.6776 26.1731 26.6794 26.1512 26.6854 26.1303C26.6914 26.1094 26.7015 26.0898 26.7152 26.0729C26.9213 25.8458 27.1776 25.6699 27.4637 25.5593C27.7498 25.4486 28.0577 25.4063 28.363 25.4356C28.4065 25.4413 28.4461 25.4632 28.474 25.497C28.5019 25.5308 28.5159 25.5739 28.5132 25.6177C28.5116 25.6395 28.5055 25.6607 28.4953 25.6801C28.4851 25.6994 28.471 25.7165 28.4539 25.7301C28.4368 25.7438 28.4171 25.7538 28.396 25.7595C28.3749 25.7652 28.3528 25.7665 28.3311 25.7633C28.0799 25.7406 27.8267 25.7746 27.5903 25.8629C27.3539 25.9511 27.1404 26.0913 26.9655 26.2732C26.9507 26.2919 26.9321 26.3073 26.9109 26.3183C26.8897 26.3292 26.8664 26.3356 26.8426 26.3369V26.3369Z" fill="#263238"/>
<path d="M32.2914 25.7906C32.2617 25.7995 32.2301 25.7995 32.2004 25.7906C32.0225 25.6604 31.8178 25.5716 31.6013 25.5306C31.3847 25.4897 31.1617 25.4976 30.9486 25.5539C30.9286 25.5627 30.9071 25.5674 30.8853 25.5675C30.8635 25.5676 30.8419 25.5633 30.8219 25.5548C30.8018 25.5462 30.7837 25.5337 30.7687 25.5179C30.7537 25.5021 30.7421 25.4834 30.7346 25.4629C30.7265 25.4429 30.7224 25.4214 30.7225 25.3998C30.7227 25.3782 30.7272 25.3569 30.7356 25.337C30.7441 25.3171 30.7564 25.2991 30.7718 25.284C30.7873 25.2689 30.8056 25.257 30.8257 25.249C31.0873 25.1733 31.3626 25.1574 31.6313 25.2023C31.8999 25.2472 32.1551 25.3518 32.3779 25.5084C32.3962 25.52 32.4121 25.5351 32.4245 25.5528C32.437 25.5706 32.4458 25.5906 32.4505 25.6118C32.4551 25.6329 32.4555 25.6548 32.4517 25.6761C32.4478 25.6975 32.4398 25.7178 32.428 25.736C32.4113 25.7554 32.3902 25.7705 32.3664 25.78C32.3426 25.7895 32.3169 25.7932 32.2914 25.7906Z" fill="#263238"/>
<path d="M24.1751 29.0408C24.1751 29.0408 25.7273 26.1184 25.4178 23.9061C25.4178 23.9061 32.2687 20.8699 32.8149 27.9028C32.8149 27.9028 33.3111 21.6301 27.2933 21.6665C21.2754 21.7029 21.5531 30.5021 24.735 33.0467C24.735 33.033 23.2146 30.8662 24.1751 29.0408Z" fill="#263238"/>
<path d="M24.7669 29.7646C24.7459 29.5636 24.6854 29.3686 24.5888 29.191C24.4922 29.0134 24.3615 28.8567 24.2041 28.7297C24.0467 28.6028 23.8658 28.5083 23.6718 28.4515C23.4778 28.3948 23.2744 28.3769 23.0735 28.399C21.9946 28.5492 21.5394 30.7888 24.2525 31.2486C24.644 31.3214 24.8624 30.9391 24.7669 29.7646Z" fill="#9F5B53"/>
<path d="M30.7392 31.3715C30.4425 31.6901 30.1687 32.0294 29.9198 32.3866L29.7104 32.2865C28.7772 31.8313 28.495 31.3078 28.4677 30.8662C28.4585 30.5285 28.568 30.1983 28.7772 29.933C29.2274 30.4719 29.7877 30.908 30.4205 31.2122C30.6117 31.3169 30.7392 31.3715 30.7392 31.3715Z" fill="#263238"/>
<path d="M30.4206 31.2122L30.1748 31.5035C29.2962 31.0483 28.7318 30.6477 28.5906 30.2426C28.6376 30.131 28.7005 30.0267 28.7773 29.933C29.2274 30.4719 29.7878 30.908 30.4206 31.2122V31.2122Z" fill="white"/>
<path d="M29.7104 32.2865C28.7773 31.8313 28.495 31.3078 28.4677 30.8662C28.8228 31.0471 29.1432 31.2891 29.4145 31.5809C29.5834 31.7801 29.6867 32.0265 29.7104 32.2865Z" fill="#DE5753"/>
<path d="M36.6433 55.8071L18.8538 58.4974L19.4 43.6348L34.9681 43.257C34.9681 43.257 36.8618 49.5434 36.6433 55.8071Z" fill="#263238"/>
<path d="M20.8976 60.2727L35.2048 59.0026C35.2048 59.0026 36.5978 43.7714 34.3581 37.2209L33.3248 37.2665C30.9759 37.3894 25.0173 37.8355 19.8643 39.3058C19.5184 39.4014 19.1861 39.5061 18.8538 39.6062C18.8538 39.6062 21.4257 49.5389 20.8976 60.2727Z" fill="#337066"/>
<path opacity="0.4" d="M20.8976 60.2727L35.2048 59.0026C35.2048 59.0026 36.5978 43.7714 34.3581 37.2209L33.3248 37.2665C30.9759 37.3894 25.0173 37.8355 19.8643 39.3058C19.5184 39.4014 19.1861 39.5061 18.8538 39.6062C18.8538 39.6062 21.4257 49.5389 20.8976 60.2727Z" fill="white"/>
<path d="M19.8552 39.3058C19.9917 39.4378 24.9535 44.2721 29.146 43.0658C33.1472 41.905 33.3111 37.7581 33.3157 37.2664C30.9759 37.3894 25.0172 37.8355 19.8552 39.3058Z" fill="#9F5B53"/>
<path d="M17.702 60.2727L18.2028 60.7279L18.4486 60.9373C22.7275 52.3657 20.5516 38.9962 20.5516 38.9962L18.8537 39.6244C18.963 41.7229 18.9675 43.8806 18.9129 45.97C18.7715 50.7562 18.3673 55.5309 17.702 60.2727V60.2727Z" fill="#263238"/>
<path d="M32.5191 37.2209C32.5191 37.2209 37.0712 47.1672 35.9923 57.464L36.8572 56.7676C36.8572 56.7676 36.7525 41.6774 34.3581 37.2209H32.5191Z" fill="#263238"/>
<path opacity="0.4" d="M18.4486 60.9191L18.2028 60.7097L17.702 60.2545C17.702 60.2545 18.3803 55.7661 18.7353 49.985C18.8082 48.8196 18.8628 47.5997 18.9038 46.3433C18.9038 46.2022 18.9038 46.0611 18.9038 45.92C18.9584 43.8306 18.9538 41.6729 18.8446 39.5744L20.5425 38.9462C20.5425 38.9462 22.723 52.3475 18.4486 60.9191Z" fill="white"/>
<path opacity="0.4" d="M32.5191 37.2209C32.5191 37.2209 37.0712 47.1672 35.9923 57.464L36.8572 56.7676C36.8572 56.7676 36.7525 41.6774 34.3581 37.2209H32.5191Z" fill="white"/>
<path d="M28.2947 29.7146C27.9756 29.7155 27.6634 29.6216 27.3977 29.4449C27.132 29.2682 26.9248 29.0165 26.8022 28.7219C26.6797 28.4273 26.6474 28.1029 26.7095 27.7899C26.7715 27.4769 26.9251 27.1893 27.1507 26.9637C27.3763 26.738 27.6639 26.5845 27.9769 26.5224C28.2899 26.4604 28.6143 26.4927 28.9089 26.6152C29.2036 26.7378 29.4552 26.945 29.6319 27.2107C29.8086 27.4764 29.9025 27.7886 29.9016 28.1077C29.9004 28.5335 29.7307 28.9415 29.4296 29.2426C29.1285 29.5437 28.7205 29.7134 28.2947 29.7146V29.7146ZM28.2947 26.7238C28.0246 26.7238 27.7606 26.8039 27.536 26.954C27.3114 27.1041 27.1364 27.3173 27.033 27.5669C26.9297 27.8164 26.9026 28.091 26.9553 28.3559C27.008 28.6208 27.1381 28.8641 27.3291 29.0551C27.52 29.2461 27.7634 29.3762 28.0283 29.4289C28.2932 29.4816 28.5678 29.4545 28.8173 29.3511C29.0668 29.2478 29.2801 29.0727 29.4302 28.8482C29.5802 28.6236 29.6603 28.3596 29.6603 28.0895C29.6627 27.9086 29.6292 27.7291 29.5616 27.5613C29.4941 27.3935 29.3939 27.2408 29.2668 27.112C29.1398 26.9833 28.9884 26.8811 28.8215 26.8113C28.6547 26.7415 28.4756 26.7056 28.2947 26.7056V26.7238Z" fill="#263238"/>
<path d="M32.2141 29.1C31.8954 29.1 31.5838 29.0055 31.3188 28.8285C31.0538 28.6514 30.8473 28.3997 30.7253 28.1053C30.6034 27.8108 30.5714 27.4868 30.6336 27.1742C30.6958 26.8616 30.8493 26.5745 31.0746 26.3491C31.3 26.1238 31.5871 25.9703 31.8997 25.9081C32.2123 25.8459 32.5363 25.8778 32.8308 25.9998C33.1252 26.1218 33.3769 26.3283 33.554 26.5933C33.731 26.8583 33.8255 27.1699 33.8255 27.4886C33.8255 27.916 33.6558 28.3258 33.3536 28.628C33.0513 28.9303 32.6415 29.1 32.2141 29.1V29.1ZM32.2141 26.1048C31.944 26.1048 31.68 26.1849 31.4554 26.3349C31.2308 26.485 31.0558 26.6982 30.9524 26.9478C30.8491 27.1973 30.822 27.4719 30.8747 27.7368C30.9274 28.0017 31.0575 28.245 31.2485 28.436C31.4394 28.627 31.6828 28.7571 31.9477 28.8098C32.2126 28.8625 32.4872 28.8354 32.7367 28.7321C32.9862 28.6287 33.1995 28.4537 33.3496 28.2291C33.4996 28.0045 33.5797 27.7405 33.5797 27.4704C33.5797 27.1082 33.4358 26.7608 33.1797 26.5047C32.9236 26.2486 32.5763 26.1048 32.2141 26.1048V26.1048Z" fill="#263238"/>
<path d="M29.756 27.8937C29.7278 27.8938 29.7005 27.8841 29.6786 27.8664C29.6574 27.8444 29.6456 27.815 29.6456 27.7845C29.6456 27.7539 29.6574 27.7246 29.6786 27.7025C29.8644 27.4963 30.1213 27.3679 30.3978 27.3429C30.4824 27.3474 30.5648 27.3711 30.639 27.4121C30.7131 27.4531 30.7769 27.5104 30.8257 27.5796C30.8415 27.6034 30.8478 27.6322 30.8433 27.6603C30.8389 27.6885 30.8241 27.714 30.8017 27.7317C30.7794 27.7495 30.7513 27.7582 30.7228 27.7561C30.6944 27.7541 30.6677 27.7415 30.6482 27.7207C30.619 27.6779 30.5805 27.6421 30.5356 27.6161C30.4906 27.5901 30.4405 27.5745 30.3887 27.5705C30.1804 27.6006 29.989 27.702 29.847 27.8573C29.8362 27.8707 29.8222 27.881 29.8062 27.8874C29.7903 27.8938 29.773 27.896 29.756 27.8937V27.8937Z" fill="#263238"/>
<path d="M23.4968 28.4309C23.4674 28.4309 23.4392 28.4195 23.4179 28.3992C23.3967 28.3788 23.3842 28.351 23.383 28.3216C23.3818 28.2922 23.392 28.2634 23.4115 28.2413C23.431 28.2192 23.4584 28.2056 23.4877 28.2033L26.7743 27.9757C26.7893 27.9744 26.8043 27.9761 26.8186 27.9807C26.8329 27.9853 26.8461 27.9927 26.8576 28.0024C26.869 28.0122 26.8784 28.0241 26.8852 28.0374C26.892 28.0508 26.8961 28.0654 26.8972 28.0804C26.8985 28.0953 26.8968 28.1104 26.8922 28.1246C26.8876 28.1389 26.8802 28.1522 26.8705 28.1636C26.8607 28.175 26.8488 28.1844 26.8355 28.1912C26.8221 28.198 26.8075 28.2021 26.7926 28.2033L23.5059 28.4309H23.4968Z" fill="#263238"/>
<path opacity="0.2" d="M18.7354 50.0032C18.8082 48.8378 18.8628 47.6179 18.9038 46.3615C19.0715 46.3445 19.241 46.3568 19.4045 46.3979C19.4256 47.6324 19.1981 48.8585 18.7354 50.0032V50.0032Z" fill="black"/>
<path d="M5.89854 54.2093L1.12341 55.1743C1.12341 55.1743 0.235752 54.1956 -0.328706 54.0864C-1.31361 54.0597 -2.29919 54.1007 -3.27846 54.2093C-3.27846 54.2093 -3.73367 57.8737 -3.27846 58.1787C-2.82325 58.4837 0.308584 58.3562 0.786552 58.1787C1.26452 58.0012 1.50578 57.1408 1.50578 57.1408L5.89854 56.2077V54.2093Z" fill="#9F5B53"/>
<path d="M18.8537 39.6062C17.4153 40.1388 13.81 50.9136 13.3912 51.3324C12.9724 51.7512 2.77576 54.2958 2.77576 54.2958L3.43126 56.9633C3.43126 56.9633 13.9739 55.188 14.8934 54.6873C15.8129 54.1865 19.4045 46.4025 19.4045 46.4025L18.8537 39.6062Z" fill="#263238"/>
<path opacity="0.4" d="M18.8537 39.6062C17.4153 40.1388 13.81 50.9136 13.3912 51.3324C12.9724 51.7512 2.77576 54.2958 2.77576 54.2958L3.43126 56.9633C3.43126 56.9633 13.9739 55.188 14.8934 54.6873C15.8129 54.1865 19.4045 46.4025 19.4045 46.4025L18.8537 39.6062Z" fill="white"/>
<path d="M34.0121 44.9048L33.7117 44.9686L33.6252 44.568C33.7717 44.4983 33.8999 44.3954 33.9999 44.2677C34.0998 44.1399 34.1687 43.9906 34.2011 43.8316C34.2334 43.6727 34.2284 43.5084 34.1865 43.3517C34.1445 43.195 34.0666 43.0502 33.9591 42.9287C33.8516 42.8072 33.7173 42.7124 33.5669 42.6517C33.4164 42.591 33.2539 42.5661 33.0922 42.579C32.9305 42.5918 32.774 42.6421 32.635 42.7258C32.496 42.8095 32.3784 42.9243 32.2914 43.0613C32.1917 43.2199 32.1361 43.4022 32.1304 43.5895C32.1248 43.7768 32.1693 43.9622 32.2593 44.1265C32.3494 44.2908 32.4817 44.4281 32.6426 44.5241C32.8035 44.6202 32.9872 44.6714 33.1745 44.6727L33.2656 45.0687L32.9651 45.137L33.0653 45.5922L33.3657 45.5239L33.4249 45.797L33.8801 45.6969L33.8164 45.4238L34.1168 45.3555L34.0121 44.9048ZM32.8604 44.1219C32.7938 44.0814 32.7361 44.0279 32.6908 43.9645C32.6454 43.9011 32.6133 43.8292 32.5964 43.7532C32.5776 43.676 32.5748 43.5958 32.5881 43.5176C32.6014 43.4393 32.6306 43.3646 32.6738 43.298C32.7158 43.2322 32.7705 43.1755 32.8345 43.1309C32.8986 43.0864 32.9708 43.055 33.0471 43.0385C33.0908 43.0315 33.1354 43.0315 33.1791 43.0385C33.2909 43.0385 33.4003 43.0718 33.4932 43.1341C33.5598 43.1746 33.6175 43.2281 33.6628 43.2915C33.7082 43.3548 33.7403 43.4267 33.7572 43.5028C33.7752 43.5794 33.7777 43.6588 33.7644 43.7364C33.7511 43.8139 33.7224 43.888 33.68 43.9543C33.6375 44.0205 33.5822 44.0775 33.5172 44.122C33.4523 44.1664 33.3791 44.1973 33.302 44.2129C33.2261 44.2286 33.1477 44.2287 33.0718 44.213C32.9959 44.1973 32.924 44.1663 32.8604 44.1219Z" fill="white"/>
<path d="M9.90888 25.9318C8.72819 26.3851 7.70051 27.1644 6.94542 28.179C6.19033 29.1936 5.73887 30.4017 5.64359 31.6629C5.28852 36.0875 1.747 39.456 3.06711 42.7517C4.38721 46.0474 16.0451 43.6166 18.5442 39.1328C21.0433 34.649 21.7306 30.3245 19.6822 27.7754C17.6338 25.2262 11.2062 23.1596 9.90888 25.9318Z" fill="#263238"/>
<path d="M17.7749 39.0327C17.7749 39.0327 12.2168 48.8834 10.9468 60.1042L-2.84604 60.8508C-2.84604 60.8508 -3.02358 52.8164 -1.23006 46.0929C-1.17999 45.9063 -1.12991 45.7197 -1.07528 45.533C-0.735061 44.3162 -0.293485 43.1301 0.244817 41.987C0.311918 41.8443 0.397636 41.7111 0.499732 41.5909C0.847275 41.1657 1.34705 40.893 1.89267 40.8307L14.9753 39.3513L17.7749 39.0327Z" fill="#337066"/>
<path d="M11.8844 68.257C11.8844 68.257 20.1965 87.9129 21.503 96.5345C22.8094 105.156 -6.71992 128.285 -6.71992 128.285L-9.7334 125.072C-9.7334 125.072 12.2395 102.484 12.2395 98.5966C12.2395 94.7092 3.66793 76.9606 3.66793 76.9606C3.66793 76.9606 2.83035 69.8047 11.8844 68.257Z" fill="#263238"/>
<path opacity="0.6" d="M5.86203 117.529C2.844 120.31 -0.0556775 122.818 -2.33172 124.712C-4.96737 126.915 -6.71992 128.285 -6.71992 128.285L-9.7334 125.072C-9.7334 125.072 -6.71537 121.972 -2.90528 117.87C0.0808874 114.643 3.55413 110.792 6.42194 107.35C9.7404 103.358 12.2532 99.9076 12.2532 98.5966C12.2532 96.5482 9.86786 90.6441 7.61913 85.5231C5.59801 80.93 3.68158 76.9606 3.68158 76.9606C3.62568 76.1443 3.70567 75.3244 3.91829 74.5343C4.50096 72.3084 6.32179 69.2175 11.9117 68.257C11.9117 68.257 20.2238 87.9129 21.5303 96.5345C22.2177 101.25 13.7189 110.286 5.86203 117.529Z" fill="white"/>
<path opacity="0.2" d="M7.59191 85.5231C5.57079 80.93 3.65436 76.9606 3.65436 76.9606C3.59846 76.1443 3.67844 75.3244 3.89107 74.5343C4.18115 74.3481 4.5016 74.2141 4.8379 74.1383C4.8379 74.1383 7.29603 77.9985 7.59191 85.5231Z" fill="black"/>
<path d="M11.0834 59.9176L-2.79592 60.7825C-2.79592 60.7825 -2.79592 60.8235 -2.79592 60.8417H-2.82324C-2.82324 60.8417 -10.5254 76.4599 0.731938 130.124H5.52528V101.815L4.98358 74.1383L12.3124 71.9989C12.3124 71.9989 11.798 63.4409 11.0834 59.9176Z" fill="#263238"/>
<path opacity="0.6" d="M11.0834 59.9176L-2.79592 60.7825C-2.79592 60.7825 -2.79592 60.8235 -2.79592 60.8417H-2.82324C-2.82324 60.8417 -10.5254 76.4599 0.731938 130.124H5.52528V101.815L4.98358 74.1383L12.3124 71.9989C12.3124 71.9989 11.798 63.4409 11.0834 59.9176Z" fill="white"/>
<path d="M1.80619 62.576L9.53562 62.2619L9.47189 60.1998L1.74701 60.696L1.80619 62.576Z" fill="#263238"/>
<path d="M1.06425 60.7415L-2.67756 60.9828L-3.27844 62.7854L1.12343 62.6033L1.06425 60.7415Z" fill="#263238"/>
<path d="M10.1547 60.1543L10.2184 62.2346L11.279 62.1891L10.9467 60.1042L10.1547 60.1543Z" fill="#263238"/>
<path d="M7.41318 60.2443L4.98711 60.3961C4.82653 60.4061 4.70449 60.5444 4.71454 60.705L4.81346 62.2861C4.8235 62.4466 4.96183 62.5687 5.12241 62.5586L7.54848 62.4068C7.70906 62.3968 7.8311 62.2585 7.82105 62.0979L7.72214 60.5169C7.71209 60.3563 7.57377 60.2342 7.41318 60.2443Z" fill="white"/>
<path d="M14.9708 39.3513C10.5871 46.4207 -1.08441 45.533 -1.08441 45.533C-0.744189 44.3162 -0.302613 43.13 0.235689 41.987C0.390764 41.6711 0.62312 41.3994 0.911194 41.1973C1.19927 40.9952 1.53373 40.8691 1.88355 40.8307L14.9708 39.3513Z" fill="#EBB376"/>
<path d="M12.7448 40.5303C12.094 41.5338 11.2039 42.3597 10.1547 42.9338C6.7907 42.2464 5.40686 40.8535 5.40686 40.8535C6.37422 40.6424 7.24901 40.1282 7.90396 39.3856C8.55892 38.6431 8.95988 37.7109 9.04852 36.7247C9.04852 36.7247 9.04852 36.702 9.04852 36.6929C9.06151 36.5993 9.06911 36.5051 9.07129 36.4107L9.34896 36.5745L12.5946 38.4955C12.2131 38.7064 11.9085 39.0332 11.7252 39.4287C11.6903 39.5391 11.6899 39.6575 11.724 39.7681C11.7582 39.8787 11.8253 39.9763 11.9163 40.0478C12.1603 40.2584 12.4412 40.422 12.7448 40.5303V40.5303Z" fill="#EBB376"/>
<path opacity="0.2" d="M11.7115 39.4287C11.6766 39.5391 11.6762 39.6575 11.7104 39.7681C11.7445 39.8787 11.8116 39.9763 11.9027 40.0478C9.62666 40.5576 9.17145 36.9842 9.03033 36.7248V36.6975C9.12593 36.6519 9.23063 36.6155 9.33077 36.5791L12.5764 38.5001C12.1973 38.7105 11.8945 39.0356 11.7115 39.4287V39.4287Z" fill="black"/>
<path d="M13.9967 38.6093C13.9967 38.6093 11.6114 40.7716 13.7463 43.4118C13.8406 42.6721 14.1279 41.9704 14.5793 41.377C15.2849 40.5576 16.4821 40.4666 17.0557 39.6745C16.6521 40.2587 16.1425 40.7621 15.5535 41.1585C15.5535 41.1585 18.089 40.0705 18.6899 38.8825C19.2907 37.6944 15.7583 37.2118 13.9967 38.6093Z" fill="#263238"/>
<path d="M17.1239 38.5046C17.0556 38.6139 16.9919 38.7231 16.9236 38.8233C16.0542 40.1161 14.8024 40.7124 13.027 40.2481C12.7673 40.1838 12.5119 40.1032 12.2623 40.0068L11.7707 39.7929C6.01229 37.1071 8.81182 26.0547 14.7341 27.3793C18.2984 28.1714 19.0176 30.3428 18.4577 34.0709C18.2828 35.6169 17.831 37.1188 17.1239 38.5046V38.5046Z" fill="#EBB376"/>
<path d="M16.1816 33.3562C16.3481 33.9527 16.585 34.5273 16.8872 35.0678C16.7507 35.1927 16.5822 35.2771 16.4006 35.3116C16.2189 35.3462 16.0312 35.3296 15.8584 35.2636L16.1816 33.3562Z" fill="#D58745"/>
<path d="M12.9133 30.4656C12.8889 30.4665 12.8646 30.4616 12.8425 30.4514C12.8203 30.4411 12.8009 30.4257 12.7858 30.4065C12.7722 30.3895 12.7621 30.37 12.7561 30.3491C12.7501 30.3282 12.7483 30.3063 12.7508 30.2847C12.7534 30.2631 12.7602 30.2422 12.7709 30.2232C12.7816 30.2043 12.7959 30.1876 12.8131 30.1743C13.0782 29.9976 13.3812 29.8857 13.6975 29.8478C14.0138 29.8098 14.3346 29.8468 14.634 29.9558C14.6742 29.9711 14.7068 30.0017 14.7247 30.0409C14.7426 30.0801 14.7444 30.1248 14.7296 30.1652C14.7224 30.1856 14.7113 30.2043 14.6969 30.2203C14.6825 30.2364 14.6651 30.2494 14.6457 30.2587C14.6262 30.2681 14.6051 30.2734 14.5836 30.2746C14.562 30.2757 14.5405 30.2726 14.5202 30.2654C14.2726 30.1779 14.0084 30.1475 13.7475 30.1767C13.4865 30.2059 13.2356 30.2938 13.0134 30.4338C12.984 30.4543 12.9491 30.4654 12.9133 30.4656V30.4656Z" fill="#263238"/>
<path d="M18.5578 31.3123C18.5134 31.3115 18.471 31.2935 18.4394 31.2623C18.2925 31.0829 18.1068 30.9393 17.8962 30.8424C17.6857 30.7454 17.4558 30.6975 17.224 30.7024C17.1808 30.7063 17.1376 30.6933 17.1037 30.6661C17.0698 30.639 17.0477 30.5998 17.042 30.5567C17.0368 30.5139 17.0487 30.4708 17.0751 30.4367C17.1015 30.4026 17.1403 30.3803 17.1831 30.3746C17.4665 30.3629 17.7489 30.4164 18.0085 30.5308C18.2681 30.6452 18.4981 30.8176 18.6807 31.0347C18.7034 31.0581 18.7185 31.0878 18.7242 31.1199C18.7299 31.152 18.7259 31.1851 18.7127 31.2149C18.6995 31.2447 18.6777 31.2699 18.6501 31.2873C18.6225 31.3046 18.5904 31.3134 18.5578 31.3123V31.3123Z" fill="#263238"/>
<path d="M9.47645 32.5141C9.47645 32.5141 11.798 29.9604 12.0529 27.6434C12.0529 27.6434 19.7596 26.3369 18.5078 33.5838C18.5078 33.5838 20.6199 27.3703 14.5247 25.8453C8.42947 24.3204 6.44932 33.3062 9.01669 36.6838C9.01669 36.6975 8.01978 34.1164 9.47645 32.5141Z" fill="#263238"/>
<path d="M9.89065 33.3972C9.92213 33.1877 9.91167 32.9741 9.85985 32.7688C9.80804 32.5634 9.71592 32.3704 9.58885 32.201C9.46177 32.0316 9.30229 31.8891 9.11966 31.7819C8.93703 31.6746 8.7349 31.6048 8.52503 31.5763C7.39156 31.4489 6.35824 33.5975 8.98024 34.7628C9.38537 34.9403 9.67215 34.608 9.89065 33.3972Z" fill="#EBB376"/>
<path d="M15.4078 36.0237C15.0815 36.3036 14.7772 36.6079 14.4974 36.9342L14.3016 36.8113C13.4185 36.2605 13.1909 35.7097 13.2091 35.2727C13.2213 35.0573 13.2853 34.848 13.3958 34.6627C13.454 34.5554 13.5276 34.4573 13.6143 34.3713C14.0058 34.9544 14.5181 35.4465 15.1164 35.8143C15.3031 35.9555 15.4078 36.0237 15.4078 36.0237Z" fill="#263238"/>
<path d="M15.1073 35.828L14.8479 36.0875C14.0194 35.564 13.4822 35.0815 13.4048 34.6672C13.4631 34.56 13.5367 34.4618 13.6233 34.3759C14.0087 34.9603 14.5147 35.4555 15.1073 35.828V35.828Z" fill="white"/>
<path d="M14.2926 36.8249C13.4095 36.2741 13.1819 35.7233 13.2001 35.2863C13.5301 35.503 13.8197 35.7757 14.0559 36.092C14.209 36.3058 14.2917 36.562 14.2926 36.8249V36.8249Z" fill="#DE5753"/>
<path d="M13.9875 32.2637C13.9375 32.5551 13.7417 32.769 13.5323 32.7189C13.3229 32.6689 13.2182 32.423 13.2637 32.1317C13.3093 31.8404 13.5096 31.6264 13.719 31.6765C13.9283 31.7266 14.033 31.9906 13.9875 32.2637Z" fill="#263238"/>
<path d="M13.637 31.6765L14.3153 31.5309C14.3153 31.5309 13.9101 32.0134 13.637 31.6765Z" fill="#263238"/>
<path d="M17.6429 32.7963C17.5973 33.0877 17.397 33.3016 17.1876 33.2515C16.9783 33.2015 16.8736 32.9556 16.9236 32.6598C16.9737 32.3639 17.1649 32.1545 17.3788 32.2046C17.5928 32.2546 17.6929 32.5004 17.6429 32.7963Z" fill="#263238"/>
<path d="M17.2924 32.2045L17.9706 32.0589C17.9706 32.0589 17.5791 32.5459 17.2924 32.2045Z" fill="#263238"/>
<path d="M14.9708 46.3706C15.0715 45.8396 15.224 45.3197 15.426 44.8184C15.6491 44.3996 18.3485 42.4604 18.3485 42.4604C18.3485 42.4604 20.1693 44.5999 20.2376 44.7364C20.3059 44.873 18.2074 47.9821 16.341 47.6953L14.9708 46.3706Z" fill="#EBB376"/>
<path opacity="0.2" d="M3.78634 50.1306C1.615 49.3932 -0.146656 47.5223 -1.22095 46.0929C-1.17087 45.9063 -1.1208 45.7197 -1.06618 45.533C-0.725956 44.3162 -0.284372 43.13 0.253929 41.987C0.32103 41.8443 0.406748 41.7111 0.508845 41.5909C2.39796 44.395 6.74519 51.1366 3.78634 50.1306Z" fill="black"/>
<path d="M8.12444 52.9302C8.02745 52.9369 7.9301 52.9369 7.83311 52.9302C7.26046 52.8543 6.74134 52.5542 6.38972 52.0959C6.03809 51.6376 5.8827 51.0585 5.95765 50.4857C5.99424 50.2016 6.08716 49.9276 6.23099 49.6798C6.37481 49.432 6.56664 49.2154 6.79523 49.0427C7.07007 48.8318 7.39121 48.6894 7.73204 48.6273C8.07288 48.5653 8.4236 48.5853 8.75515 48.6858C9.0867 48.7863 9.38953 48.9643 9.63855 49.2052C9.88758 49.446 10.0756 49.7427 10.1871 50.0707C10.2986 50.3987 10.3304 50.7486 10.2797 51.0913C10.2291 51.434 10.0975 51.7597 9.89584 52.0415C9.69422 52.3232 9.42838 52.5528 9.12033 52.7113C8.81227 52.8698 8.47088 52.9527 8.12444 52.9529V52.9302ZM8.12444 49.2521C7.76207 49.2534 7.41246 49.386 7.14042 49.6254C6.86839 49.8648 6.69237 50.1947 6.64501 50.554C6.60683 50.9408 6.72054 51.3273 6.96211 51.6319C7.20368 51.9364 7.55419 52.1351 7.93956 52.1859C8.32493 52.2367 8.71496 52.1357 9.02724 51.9043C9.33951 51.6728 9.54955 51.329 9.61297 50.9455V50.9455C9.66425 50.5521 9.55789 50.1545 9.31709 49.8393C9.17621 49.657 8.9955 49.5093 8.7888 49.4075C8.58209 49.3058 8.35484 49.2526 8.12444 49.2521V49.2521Z" fill="white"/>
<path d="M7.5419 52.5463L7.14752 55.5339L7.82446 55.6233L8.21884 52.6357L7.5419 52.5463Z" fill="white"/>
<path d="M6.53901 53.7861L6.44965 54.463L8.81442 54.7752L8.90378 54.0982L6.53901 53.7861Z" fill="white"/>
<path d="M0.381378 41.7093C-2.55927 43.6439 4.41907 53.0895 6.84988 53.9635C9.28069 54.8375 16.8645 47.1354 16.8645 47.1354L15.385 45.9427C15.385 45.9427 8.70258 50.4948 7.90142 50.422C7.10025 50.3491 4.71496 45.2417 3.40851 42.9201C2.32511 40.9582 1.06874 41.2586 0.381378 41.7093Z" fill="#EBB376"/>
</g>
</svg>
