<svg width="100" height="100" viewBox="0 0 100 100" fill="none" xmlns="http://www.w3.org/2000/svg">
<mask id="mask0_4_1316" style="mask-type:alpha" maskUnits="userSpaceOnUse" x="0" y="0" width="100" height="100">
<circle cx="50" cy="50" r="50" fill="#337066"/>
</mask>
<g mask="url(#mask0_4_1316)">
<circle cx="50" cy="50" r="50" fill="#337066"/>
<path d="M77.8205 12.3716H105.823L100.346 16.2654V19.5172C100.333 21.1239 99.6834 22.6599 98.5388 23.7875C97.3941 24.915 95.8485 25.5418 94.2418 25.53H76.6699C75.0632 25.5418 73.5176 24.915 72.373 23.7875C71.2283 22.6599 70.5784 21.1239 70.566 19.5172C70.573 18.5716 70.7662 17.6367 71.1346 16.7658C71.503 15.8949 72.0393 15.1051 72.713 14.4416C73.3866 13.778 74.1844 13.2537 75.0608 12.8985C75.9372 12.5433 76.8749 12.3643 77.8205 12.3716Z" fill="#F5F5F5"/>
<path d="M95.6211 16.7185C95.6211 16.7496 90.9566 16.7762 85.1815 16.7762C79.4064 16.7762 74.7418 16.7496 74.7418 16.7185C74.7418 16.6874 79.4064 16.6607 85.1815 16.6607C90.9566 16.6607 95.6211 16.6852 95.6211 16.7185Z" fill="#E0E0E0"/>
<path d="M95.6211 18.8819C95.6211 18.913 90.9566 18.9397 85.1815 18.9397C79.4064 18.9397 74.7418 18.913 74.7418 18.8819C74.7418 18.8508 79.4064 18.8242 85.1815 18.8242C90.9566 18.8242 95.6211 18.8486 95.6211 18.8819Z" fill="#E0E0E0"/>
<path d="M35.3355 79.0187H2.19965L7.59717 82.9236V90.5868C7.59717 90.797 7.63861 91.0051 7.71912 91.1993C7.79962 91.3935 7.91762 91.5699 8.06636 91.7184C8.2151 91.8669 8.39167 91.9847 8.58596 92.0649C8.78025 92.1452 8.98845 92.1863 9.19865 92.186H35.3355C35.5457 92.1863 35.7539 92.1452 35.9482 92.0649C36.1425 91.9847 36.3191 91.8669 36.4678 91.7184C36.6166 91.5699 36.7346 91.3935 36.8151 91.1993C36.8956 91.0051 36.937 90.797 36.937 90.5868V80.618C36.9364 80.1937 36.7674 79.7869 36.4672 79.487C36.1669 79.1872 35.7599 79.0187 35.3355 79.0187V79.0187Z" fill="#F5F5F5"/>
<path d="M33.9539 84.434C33.9539 84.4673 28.9562 84.4918 22.7924 84.4918C16.6286 84.4918 11.6309 84.4673 11.6309 84.434C11.6309 84.4007 16.6263 84.3763 22.7924 84.3763C28.9584 84.3763 33.9539 84.4029 33.9539 84.434Z" fill="#E0E0E0"/>
<path d="M33.9539 87.3771C33.9539 87.4082 28.9562 87.4349 22.7924 87.4349C16.6286 87.4349 11.6309 87.4082 11.6309 87.3771C11.6309 87.346 16.6263 87.3194 22.7924 87.3194C28.9584 87.3194 33.9539 87.346 33.9539 87.3771Z" fill="#E0E0E0"/>
<path d="M102.991 41.2539H64.2111C59.4526 41.2539 55.595 45.1114 55.595 49.8699V81.4332C55.595 86.1917 59.4526 90.0492 64.2111 90.0492H102.991C107.75 90.0492 111.607 86.1917 111.607 81.4332V49.8699C111.607 45.1114 107.75 41.2539 102.991 41.2539Z" fill="#C8E6C9"/>
<g opacity="0.4">
<path d="M102.991 41.2539H64.2111C59.4526 41.2539 55.595 45.1114 55.595 49.8699V81.4332C55.595 86.1917 59.4526 90.0492 64.2111 90.0492H102.991C107.75 90.0492 111.607 86.1917 111.607 81.4332V49.8699C111.607 45.1114 107.75 41.2539 102.991 41.2539Z" fill="black"/>
</g>
<path d="M54.2534 63.5392L50.7373 59.541C49.7866 58.5903 49.4601 58.1328 49.6511 57.9662C49.9043 57.7441 49.7955 57.8174 51.7701 59.2989C51.7701 59.2989 48.9714 57.1599 49.9421 57.1466C50.1131 57.1466 50.5885 57.422 51.0971 57.7552C50.4041 57.1665 50.2086 56.7689 50.3441 56.5801C50.5662 56.2514 52.281 57.4398 53.0695 58.0106C52.4254 57.5308 51.1971 56.6001 50.9816 56.3069C50.684 55.9071 51.2859 55.9404 51.7746 56.107C52.3232 56.2936 55.3552 57.8418 56.2525 58.2416C56.3245 58.2845 56.4049 58.3114 56.4882 58.3202C56.5715 58.3291 56.6557 58.3198 56.7351 58.293C56.8145 58.2662 56.8871 58.2225 56.948 58.1649C57.0088 58.1074 57.0565 58.0373 57.0877 57.9595C57.4186 56.569 58.4204 55.665 58.8025 55.5473C59.1845 55.4296 59.4799 55.9182 59.2067 56.2736C58.9497 56.6871 58.7509 57.1341 58.6159 57.6019C58.4921 57.9689 58.4313 58.3541 58.436 58.7414C58.436 59.1856 58.4671 59.5699 58.4959 59.892L61.71 64.301L56.3347 67.4107L54.2534 63.5392Z" fill="#B78876"/>
<path d="M52.9963 59.9208C52.9607 59.9697 52.3299 59.541 51.6014 58.9613C50.8728 58.3815 50.3042 57.8707 50.3464 57.824C50.3886 57.7774 51.0127 58.2083 51.7413 58.7836C52.4699 59.3589 53.0274 59.8698 52.9963 59.9208Z" fill="#AA6550"/>
<path d="M53.6759 59.2189C53.6404 59.27 52.9496 58.848 52.1322 58.2794C51.3148 57.7107 50.6795 57.2065 50.715 57.1577C50.7506 57.1088 51.4414 57.5264 52.2588 58.095C53.0762 58.6636 53.7114 59.1679 53.6759 59.2189Z" fill="#AA6550"/>
<path d="M54.1735 58.4726C54.138 58.5237 53.476 58.1372 52.6964 57.6086C51.9168 57.0799 51.3126 56.6112 51.3459 56.5579C51.3792 56.5046 52.0412 56.8933 52.823 57.422C53.6049 57.9506 54.2068 58.4215 54.1735 58.4726Z" fill="#AA6550"/>
<path d="M58.7958 60.4895L71.6077 76.7353L68.6735 83.5655C68.6735 83.5655 65.1595 82.7881 64.0933 81.3088C63.0272 79.8295 54.2534 63.5392 54.2534 63.5392L58.7958 60.4895Z" fill="#B78876"/>
<path d="M91.3186 37.7621C92.2404 38.5618 92.2382 39.97 92.1315 41.185C92.0249 42.4 91.9427 43.7838 92.7846 44.6679C93.4798 45.3964 94.7392 45.714 94.8992 46.7069C94.937 46.9402 94.9017 47.1795 94.7981 47.3919C94.6944 47.6043 94.5276 47.7794 94.3204 47.8931C94.1132 48.0068 93.8758 48.0535 93.641 48.0269C93.4062 48.0002 93.1854 47.9015 93.0089 47.7442C93.2799 48.5283 93.0933 49.5079 92.4136 49.9832C91.734 50.4585 90.5945 50.1653 90.3835 49.3635C90.418 49.4973 90.4246 49.6369 90.4028 49.7734C90.381 49.9099 90.3313 50.0405 90.2568 50.157C90.1823 50.2734 90.0846 50.3733 89.9698 50.4503C89.855 50.5274 89.7255 50.5799 89.5895 50.6047C89.4535 50.6295 89.3139 50.626 89.1793 50.5944C89.0447 50.5628 88.918 50.5038 88.8072 50.4211C88.6965 50.3384 88.6039 50.2338 88.5354 50.1137C88.4668 49.9937 88.4237 49.8608 88.4088 49.7233" fill="#263238"/>
<path d="M78.118 45.9628C77.994 46.2603 77.7569 46.4964 77.4588 46.619C77.1608 46.7417 76.8262 46.741 76.5287 46.617C76.2312 46.493 75.9952 46.2558 75.8725 45.9578C75.7498 45.6598 75.7506 45.3252 75.8746 45.0277C76.0856 44.5657 76.5854 44.2325 76.6342 43.7261C76.692 43.1152 76.0678 42.6777 75.5236 42.4111C74.9794 42.1446 74.322 41.7981 74.262 41.185C74.202 40.572 74.7329 40.1344 75.1749 39.739C75.6169 39.3436 76.0634 38.7306 75.7813 38.2042C75.6413 37.9332 75.3504 37.7799 75.1616 37.5378C74.7462 37.0092 74.9639 36.1673 75.4948 35.7608C76.0256 35.3544 76.7586 35.2899 77.4205 35.4077C78.0824 35.5254 78.7044 35.8008 79.3485 35.9941C80.4163 36.3046 81.5369 36.3903 82.6395 36.2457C83.7421 36.1012 84.8028 35.7296 85.7545 35.1545" fill="#263238"/>
<path d="M82.0517 60.2873C83.1993 60.5189 84.3919 60.29 85.3722 59.6501C86.3525 59.0101 87.0419 58.0104 87.2916 56.8667L90.4435 42.4156C90.6402 41.5811 90.6676 40.7157 90.524 39.8704C90.3805 39.0252 90.0689 38.2173 89.6077 37.4946C89.1466 36.7719 88.5451 36.1489 87.839 35.6627C87.1329 35.1764 86.3365 34.8367 85.4968 34.6636L85.1681 34.6147C83.5624 34.3786 81.9266 34.7562 80.5867 35.6721C79.2468 36.588 78.3012 37.975 77.9381 39.5569C77.2362 42.6066 76.501 45.985 76.2788 47.6443C75.8191 51.0805 79.1664 52.1155 79.1664 52.1155L78.5645 55.0031C78.4451 55.5784 78.4406 56.1717 78.5512 56.7487C78.6619 57.3258 78.8854 57.8753 79.209 58.3657C79.5327 58.8561 79.95 59.2778 80.4371 59.6064C80.9242 59.935 81.4714 60.1642 82.0473 60.2807L82.0517 60.2873Z" fill="#B78876"/>
<path d="M78.5556 41.8314C78.5361 41.9589 78.5669 42.089 78.6415 42.1943C78.7161 42.2995 78.8286 42.3717 78.9554 42.3956C79.0168 42.4096 79.0805 42.4111 79.1425 42.4002C79.2046 42.3893 79.2638 42.3661 79.3168 42.3319C79.3698 42.2978 79.4154 42.2534 79.451 42.2014C79.4866 42.1494 79.5114 42.0908 79.524 42.0291C79.5448 41.9017 79.5147 41.7713 79.4404 41.6658C79.3661 41.5603 79.2533 41.4882 79.1264 41.4649C79.0649 41.4509 79.0011 41.4493 78.9389 41.4602C78.8767 41.4711 78.8173 41.4942 78.7641 41.5284C78.711 41.5625 78.6652 41.6069 78.6294 41.6589C78.5935 41.7109 78.5685 41.7696 78.5556 41.8314V41.8314Z" fill="#263238"/>
<path d="M78.4289 41.3427C78.48 41.416 78.8909 41.1939 79.4196 41.2739C79.9482 41.3538 80.2925 41.6715 80.3591 41.6159C80.3925 41.5915 80.3458 41.4671 80.197 41.3205C79.9921 41.1291 79.7329 41.0057 79.4551 40.9673C79.1812 40.926 78.9012 40.9726 78.6555 41.1006C78.4756 41.2028 78.4045 41.3094 78.4289 41.3427Z" fill="#263238"/>
<path d="M83.7066 42.6754C83.6865 42.803 83.7171 42.9334 83.7918 43.0388C83.8664 43.1442 83.9793 43.2163 84.1064 43.2396C84.168 43.2536 84.2318 43.2551 84.294 43.244C84.3561 43.233 84.4155 43.2096 84.4685 43.1752C84.5215 43.1408 84.5671 43.0962 84.6025 43.0439C84.638 42.9917 84.6627 42.9328 84.675 42.8709C84.6951 42.7436 84.6644 42.6134 84.5897 42.5084C84.515 42.4034 84.4021 42.3318 84.2752 42.3089C84.2138 42.2946 84.15 42.2928 84.0879 42.3036C84.0257 42.3144 83.9663 42.3376 83.9133 42.3718C83.8602 42.4059 83.8146 42.4504 83.7791 42.5026C83.7436 42.5548 83.7189 42.6136 83.7066 42.6754V42.6754Z" fill="#263238"/>
<path d="M83.5955 42.2001C83.6466 42.2712 84.0575 42.0513 84.5839 42.1312C85.1103 42.2112 85.4591 42.5288 85.5257 42.4733C85.5568 42.4489 85.5124 42.3245 85.3613 42.1779C85.1564 41.9865 84.8973 41.8631 84.6195 41.8247C84.3455 41.7834 84.0655 41.83 83.8198 41.958C83.6488 42.0535 83.5688 42.1668 83.5955 42.2001Z" fill="#263238"/>
<path d="M81.1099 45.8295C81.1099 45.7984 80.7967 45.6941 80.2769 45.5497C80.1437 45.5164 80.0215 45.4697 80.0126 45.3742C80.0217 45.2343 80.0728 45.1004 80.1592 44.9899C80.3354 44.6834 80.5183 44.3613 80.7079 44.0237C81.4742 42.6443 82.0406 41.5049 81.9939 41.4738C81.9473 41.4427 81.272 42.5355 80.5057 43.9171L79.9726 44.89C79.865 45.041 79.8131 45.2247 79.826 45.4097C79.8397 45.4588 79.8641 45.5042 79.8975 45.5427C79.931 45.5811 79.9726 45.6116 80.0193 45.6319C80.0904 45.6623 80.165 45.684 80.2414 45.6963C80.5242 45.7766 80.816 45.8214 81.1099 45.8295Z" fill="#263238"/>
<path d="M83.7598 40.1144C83.7909 40.2654 84.3285 40.2743 84.9349 40.4387C85.5412 40.6031 86.0166 40.8452 86.1188 40.7297C86.1632 40.6741 86.0966 40.5253 85.9166 40.3587C85.6725 40.149 85.3838 39.9978 85.0724 39.9166C84.761 39.8354 84.4351 39.8263 84.1197 39.8901C83.8709 39.9478 83.7487 40.0544 83.7598 40.1144Z" fill="#263238"/>
<path d="M78.8466 39.8456C78.9221 39.9789 79.2908 39.9078 79.7351 39.9656C80.1793 40.0233 80.5302 40.1655 80.6235 40.0522C80.6702 39.9967 80.6235 39.8678 80.4858 39.7301C80.2886 39.5626 80.0461 39.4574 79.7889 39.4282C79.5318 39.3989 79.2718 39.4468 79.042 39.5658C78.8821 39.6657 78.8133 39.7812 78.8466 39.8456Z" fill="#263238"/>
<path d="M87.2716 38.1087L87.2872 38.1264C87.7711 38.6371 88.0385 39.3153 88.0335 40.0189V40.0877C88.0335 41.0873 87.8536 42.0868 87.8558 43.0753C87.858 44.0637 88.049 45.1165 88.6732 45.894C88.9286 46.216 89.4262 46.4826 89.7172 46.1938C89.8197 46.071 89.8851 45.9215 89.9059 45.7629C90.4346 43.4284 91.3853 41.4293 91.7429 38.9594C91.7925 38.6287 91.7625 38.291 91.6555 37.9743C91.5485 37.6575 91.3675 37.3708 91.1276 37.138C90.6656 36.6937 90.0903 36.214 89.475 36.4028C88.8598 36.5916 87.9602 37.5578 87.4471 37.9576" fill="#263238"/>
<path d="M89.0597 43.7971C89.1219 43.7794 91.5185 43.444 91.0987 45.7785C90.6789 48.1129 88.4333 47.2111 88.4333 47.1423C88.4333 47.0734 89.0597 43.7971 89.0597 43.7971Z" fill="#B78876"/>
<path d="M89.304 46.3871C89.304 46.3871 89.3395 46.4226 89.4017 46.4648C89.4913 46.5241 89.6004 46.5464 89.706 46.527C89.9681 46.4804 90.2458 46.1272 90.3324 45.7074C90.3771 45.5092 90.3771 45.3036 90.3324 45.1054C90.3232 45.0286 90.2956 44.9552 90.2519 44.8914C90.2082 44.8276 90.1497 44.7753 90.0814 44.7389C90.0369 44.718 89.9865 44.7134 89.9389 44.726C89.8914 44.7386 89.8498 44.7675 89.8215 44.8078C89.7793 44.8655 89.786 44.9166 89.7727 44.9166C89.7593 44.9166 89.7305 44.87 89.7727 44.7767C89.7957 44.7214 89.8374 44.6758 89.8904 44.6479C89.9633 44.6107 90.0478 44.6035 90.1258 44.6279C90.2189 44.6649 90.3008 44.7252 90.3638 44.803C90.4268 44.8808 90.4688 44.9734 90.4857 45.0721C90.5473 45.289 90.5557 45.5176 90.5101 45.7385C90.4102 46.2071 90.0903 46.6025 89.7371 46.6403C89.671 46.6473 89.6041 46.6393 89.5415 46.617C89.4788 46.5947 89.4219 46.5587 89.3751 46.5115C89.2973 46.4426 89.2951 46.3893 89.304 46.3871Z" fill="#AA6550"/>
<path d="M89.5017 36.7781C90.2169 35.923 88.8353 34.3459 87.7247 33.8106C86.6141 33.2753 85.0149 33.6174 83.8065 33.8306C83.0447 33.9661 82.2717 34.1971 81.512 34.0527C81.0079 33.9266 80.5256 33.7251 80.0816 33.4552C79.6363 33.1902 79.1423 33.0172 78.6289 32.9466C78.3707 32.9148 78.1087 32.9541 77.8711 33.0601C77.6335 33.1662 77.4294 33.3351 77.2806 33.5485C77.0163 33.9928 77.2007 34.688 77.6982 34.8324C77.5483 34.7185 77.3729 34.6428 77.1873 34.6116C77.0016 34.5804 76.8112 34.5947 76.6322 34.6533C76.4533 34.7119 76.2913 34.813 76.16 34.948C76.0288 35.083 75.9322 35.2478 75.8787 35.4283C75.8251 35.6087 75.8161 35.7995 75.8525 35.9842C75.8888 36.169 75.9695 36.3421 76.0874 36.4888C76.2054 36.6355 76.3572 36.7514 76.5298 36.8266C76.7025 36.9017 76.8907 36.9339 77.0785 36.9203C76.7831 36.6182 76.21 36.9625 76.19 37.3845C76.17 37.8066 76.5032 38.1642 76.8564 38.3885C77.7693 38.9616 78.9288 38.9905 79.9905 38.7994C81.0522 38.6084 82.0695 38.213 83.1268 37.9954C84.1841 37.7777 85.9589 37.3645 86.914 37.8688C87.6159 38.2375 88.0024 39.2015 88.4488 39.0704C88.6602 38.9925 88.8506 38.8665 89.0048 38.7022C89.159 38.538 89.2729 38.3401 89.3373 38.1242C89.4576 37.6907 89.5079 37.2408 89.4861 36.7915" fill="#263238"/>
<path d="M94.0707 47.6065C94.1144 47.5965 94.1558 47.5784 94.1928 47.5532C94.3027 47.4826 94.3904 47.3826 94.4461 47.2644C94.5322 47.0754 94.5585 46.8647 94.5216 46.6603C94.4639 46.3915 94.3167 46.1503 94.104 45.9761C93.8516 45.7684 93.5673 45.6026 93.2622 45.4853C92.9191 45.3601 92.5895 45.2008 92.2782 45.0099C91.952 44.7807 91.7033 44.4576 91.5652 44.0837C91.4134 43.681 91.3432 43.2521 91.3586 42.822C91.3808 41.9336 91.6273 41.1006 91.6873 40.3165C91.7473 39.5324 91.6473 38.7972 91.3142 38.2886C91.0637 37.8795 90.6664 37.5815 90.2036 37.4556C90.0795 37.4244 89.9515 37.4116 89.8237 37.4179C89.7793 37.4186 89.7353 37.4253 89.6927 37.4378C89.8613 37.4367 90.0293 37.4576 90.1925 37.5C90.6325 37.6392 91.0058 37.9357 91.2409 38.333C91.5496 38.8261 91.6562 39.5413 91.5785 40.3076C91.5007 41.074 91.2631 41.9069 91.2364 42.8198C91.2223 43.2657 91.2978 43.7098 91.4585 44.1259C91.6071 44.521 91.873 44.8612 92.2204 45.101C92.5392 45.2924 92.8763 45.4516 93.2266 45.5763C93.5237 45.6865 93.8017 45.8424 94.0507 46.0383C94.2536 46.1989 94.3974 46.4224 94.4594 46.6736C94.4999 46.8649 94.4813 47.064 94.4061 47.2444C94.3374 47.3989 94.2194 47.5262 94.0707 47.6065V47.6065Z" fill="#455A64"/>
<path d="M77.6227 34.7769C77.5915 34.7535 77.5571 34.7348 77.5205 34.7213C77.479 34.7009 77.4359 34.6838 77.3917 34.6702C77.3302 34.6492 77.2671 34.6336 77.2029 34.6236C76.9922 34.5904 76.7767 34.6055 76.5728 34.6678C76.3688 34.7302 76.1817 34.8381 76.0256 34.9834V34.9834C75.8675 35.176 75.7492 35.3981 75.6775 35.6368C75.6058 35.8755 75.5822 36.126 75.6081 36.3739C75.6379 36.6818 75.7291 36.9805 75.8764 37.2526C76.0237 37.5246 76.224 37.7643 76.4654 37.9576C77.0206 38.4048 77.6965 38.6763 78.4068 38.7373C79.178 38.8036 79.9548 38.7564 80.7124 38.5973C81.9136 38.362 83.064 37.9169 84.1108 37.2824C84.5595 37.0048 85.0288 36.762 85.5146 36.556C85.9384 36.3841 86.3901 36.2915 86.8473 36.2828C87.5127 36.2684 88.171 36.4212 88.762 36.7271C88.9757 36.8466 89.1825 36.9779 89.3817 37.1202C89.2038 36.9455 89.0028 36.796 88.7842 36.676C88.1916 36.3458 87.5235 36.1751 86.8451 36.1806C86.3767 36.1842 85.9129 36.2738 85.4768 36.445C84.986 36.6507 84.5115 36.8935 84.0575 37.1713C83.018 37.7927 81.8787 38.2293 80.6902 38.4618C79.9437 38.6199 79.1783 38.6685 78.4179 38.6062C77.7294 38.5491 77.0732 38.2894 76.5321 37.8599C76.2993 37.6759 76.1056 37.4474 75.9622 37.1876C75.8188 36.9279 75.7286 36.6422 75.6969 36.3472C75.6698 36.1109 75.6896 35.8715 75.7551 35.6428C75.8207 35.4141 75.9307 35.2006 76.079 35.0145V35.0145C76.227 34.8732 76.4047 34.7665 76.5991 34.7024C76.7935 34.6382 76.9998 34.6181 77.2029 34.6436C77.3466 34.675 77.4871 34.7197 77.6227 34.7769V34.7769Z" fill="#455A64"/>
<path d="M78.9221 32.8333C78.914 33.0118 78.942 33.19 79.0043 33.3575C79.1776 33.8204 79.5014 34.2115 79.9238 34.4681C80.2077 34.653 80.5232 34.784 80.8545 34.8546C81.2345 34.9312 81.6237 34.9514 82.0095 34.9146C82.8247 34.8546 83.6776 34.5747 84.5728 34.3437C85.4679 34.1127 86.3631 33.9905 87.1361 34.1971C87.8221 34.3789 88.4322 34.775 88.8775 35.3277C89.1837 35.6948 89.4106 36.1214 89.5438 36.5805C89.6327 36.907 89.6438 37.098 89.6593 37.0958C89.6623 37.0499 89.6623 37.0039 89.6593 36.9581C89.6472 36.8271 89.6256 36.6972 89.5949 36.5694C89.4764 36.0958 89.2558 35.6538 88.9486 35.2744C88.4989 34.699 87.8758 34.2838 87.1716 34.0905C86.372 33.8684 85.4524 33.995 84.5528 34.2282C83.6532 34.4614 82.8069 34.7413 82.0095 34.8057C81.6339 34.8446 81.2545 34.8289 80.8834 34.7591C80.5624 34.6938 80.2555 34.5719 79.9771 34.3992C79.5653 34.1564 79.2428 33.7872 79.0576 33.3464C78.9981 33.1795 78.9528 33.0078 78.9221 32.8333V32.8333Z" fill="#455A64"/>
<path d="M80.0571 47.5732C80.0863 47.8025 80.1469 48.0267 80.237 48.2395C80.2842 48.3447 80.3531 48.4387 80.4393 48.5153C80.5254 48.5918 80.6268 48.6493 80.7368 48.6838C80.8559 48.7084 80.9793 48.7028 81.0957 48.6675C81.2121 48.6322 81.3178 48.5683 81.4032 48.4817C81.5735 48.3022 81.683 48.0738 81.7163 47.8286C81.7519 47.6065 81.7163 47.3289 81.4942 47.2578C81.4045 47.2356 81.3107 47.2356 81.221 47.2578L79.9905 47.4799" fill="#AA6550"/>
<path d="M80.2726 48.5061C80.4682 48.5814 80.676 48.6205 80.8856 48.6216C81.1027 48.6088 81.3071 48.5153 81.4587 48.3595C81.5482 48.2642 81.6165 48.1509 81.659 48.0272C81.7015 47.9036 81.7173 47.7723 81.7052 47.642C81.6986 47.5753 81.6837 47.5096 81.6608 47.4466C81.6319 47.3866 81.6408 47.391 81.5897 47.3844C81.5386 47.3777 81.4587 47.3844 81.3921 47.3955L81.1855 47.411C80.9189 47.431 80.679 47.4466 80.4769 47.4577C80.2555 47.4885 80.0306 47.484 79.8105 47.4444C80.0183 47.3685 80.2361 47.3236 80.4569 47.3111C80.6568 47.2822 80.9012 47.2533 81.161 47.2222L81.3654 47.2C81.439 47.1892 81.5132 47.1826 81.5875 47.18C81.6463 47.1816 81.7031 47.2018 81.7497 47.2378C81.7911 47.2744 81.8224 47.3211 81.8407 47.3733C81.8709 47.4533 81.8903 47.5369 81.8985 47.6221C81.9131 47.782 81.8922 47.9431 81.8373 48.094C81.7824 48.2449 81.6948 48.3818 81.5809 48.495C81.3913 48.6753 81.1383 48.7734 80.8767 48.7682C80.7059 48.7689 80.5382 48.722 80.3925 48.6327C80.317 48.5705 80.2659 48.515 80.2726 48.5061Z" fill="#263238"/>
<path d="M79.1709 52.1155C79.1709 52.1155 81.4098 52.964 83.5888 52.3377C83.5888 52.3377 81.9452 53.717 78.9465 53.1884L79.1709 52.1155Z" fill="#AA6550"/>
<path d="M82.5871 83.9609C82.4792 83.8902 82.3767 83.8115 82.2806 83.7254C82.1851 83.6477 82.0584 83.5522 81.923 83.45C81.7875 83.3478 81.6231 83.2279 81.4343 83.1057C81.2455 82.9836 81.05 82.8503 80.8212 82.7237C80.5925 82.5971 80.3503 82.4638 80.0905 82.3305C78.9509 81.7698 77.7257 81.4034 76.4655 81.2466C76.1745 81.2155 75.8991 81.1799 75.6392 81.1733C75.3793 81.1666 75.1372 81.1555 74.9173 81.1577C74.6974 81.16 74.4953 81.1711 74.3198 81.1777C74.1443 81.1844 73.9933 81.1977 73.8755 81.211C73.7484 81.2305 73.6199 81.2394 73.4913 81.2377C73.6162 81.2057 73.7431 81.1819 73.8711 81.1666C74.0182 81.1414 74.1665 81.1236 74.3153 81.1133C74.4908 81.1 74.6907 81.0756 74.9151 81.0756C75.1394 81.0756 75.3815 81.0622 75.6436 81.0756C75.9057 81.0889 76.1856 81.1111 76.4788 81.1377C77.1144 81.2168 77.7427 81.3461 78.3579 81.5242C78.9685 81.7118 79.5628 81.9488 80.1349 82.2328C80.3948 82.3705 80.6458 82.4971 80.8657 82.6393C81.0856 82.7814 81.2943 82.908 81.4765 83.0369C81.6586 83.1657 81.8186 83.2901 81.9585 83.3967C82.0984 83.5033 82.2139 83.6055 82.305 83.6899C82.4064 83.7722 82.5008 83.8629 82.5871 83.9609Z" fill="#FAFAFA"/>
<path d="M69.5331 72.5528L71.3545 64.6609C72.0519 61.6934 72.8782 58.8413 74.2665 58.5037V59.4211L73.6712 81.9685C73.6712 81.9685 69.9596 86.1888 65.2306 83.8476C63.7513 83.1124 61.0526 77.9481 61.0526 77.9481C61.0526 77.9481 54.7732 66.7444 55.0353 66.2357C55.2974 65.7271 59.1334 60.7827 59.5244 60.5361L69.5331 72.5528Z" fill="#C8E6C9"/>
<path d="M88.2756 56.2692C91.8961 56.9622 95.972 59.0746 97.8489 64.4876C98.5331 66.4645 103.517 81.0378 103.517 81.0378L95.0169 80.8601L93.6442 77.8593L94.3106 82.7348L94.8859 89.6872L73.4202 90.0492L73.5712 79.574L73.7778 58.7392C73.7778 58.7392 74.0177 58.4238 77.7204 56.3825C80.0171 55.1142 88.2756 56.2692 88.2756 56.2692Z" fill="#C8E6C9"/>
<g opacity="0.2">
<path d="M90.4168 70.205C90.77 74.603 91.1743 75.9624 91.5274 80.3603C91.5358 80.7768 91.6108 81.1892 91.7496 81.582C91.8237 81.7773 91.9428 81.9525 92.0971 82.0933C92.2515 82.2341 92.4368 82.3367 92.638 82.3927C93.2644 82.5193 94.0774 82.9725 94.2529 82.3594L93.6598 78.1236C93.5323 77.5074 93.3356 76.9076 93.0734 76.3355C91.7562 73.4102 91.2698 73.2392 90.408 70.205" fill="black"/>
</g>
<path d="M77.7182 58.637L77.7893 58.1794L78.4756 53.7903C78.4954 53.6628 78.5628 53.5474 78.6641 53.4675C78.7655 53.3875 78.8934 53.3489 79.022 53.3594L87.4737 54.0658C87.729 54.0867 87.9657 54.2078 88.1321 54.4025C88.2985 54.5972 88.3812 54.8498 88.3622 55.1053L88.1734 57.6552L85.5346 61.0981L81.7341 61.6911" fill="#C8E6C9"/>
<path d="M73.4735 66.8887C73.5068 66.8887 73.5312 70.3272 73.5312 74.5674C73.5312 78.8077 73.5068 82.2461 73.4735 82.2461C73.4401 82.2461 73.4157 78.8077 73.4157 74.5674C73.4157 70.3272 73.4424 66.8887 73.4735 66.8887Z" fill="#263238"/>
<path d="M95.1991 81.5665C95.1991 81.5665 95.1991 81.5509 95.1724 81.5176C95.1458 81.4843 95.1302 81.4287 95.1014 81.3665L94.8437 80.7824L93.9174 78.6256L90.8988 71.4933C90.3124 70.0984 89.7549 68.7701 89.2485 67.5596C88.9925 66.9925 88.8089 66.3955 88.7021 65.7826C88.6083 65.2471 88.5593 64.7047 88.5555 64.1611C88.5272 63.3734 88.6416 62.587 88.8931 61.84L88.9619 61.6556L89.0397 61.5001C89.0762 61.4174 89.1208 61.3385 89.173 61.2647L89.2663 61.127C89.277 61.1113 89.2889 61.0965 89.3018 61.0825C89.1557 61.3282 89.033 61.5869 88.9353 61.8555C88.7028 62.6009 88.6021 63.3811 88.6377 64.1611C88.6414 65.3195 88.8826 66.4647 89.3462 67.5262L91.0055 71.4555L93.993 78.6011L94.8815 80.7713L95.1191 81.3643L95.1791 81.5198C95.1872 81.5347 95.1939 81.5503 95.1991 81.5665V81.5665Z" fill="#263238"/>
<path d="M90.9099 57.0444C90.8322 57.1233 90.7499 57.1974 90.6633 57.2665C90.4136 57.457 90.1413 57.6159 89.8526 57.7396C89.3953 57.9305 88.9164 58.0647 88.4266 58.1394C87.7791 58.24 87.1266 58.3045 86.4719 58.3327C85.7434 58.3638 84.9482 58.3505 84.0952 58.366C83.1892 58.3645 82.2865 58.4749 81.4076 58.6947C80.4338 58.9248 79.5526 59.4445 78.8799 60.1852C78.5447 60.5886 78.3048 61.0623 78.178 61.5712C78.0424 62.0932 78.0516 62.6422 78.2046 63.1594C78.2895 63.4146 78.4148 63.6545 78.5755 63.8701C78.7374 64.0794 78.9418 64.252 79.1753 64.3766C79.4018 64.5006 79.6599 64.5547 79.9172 64.5321C80.1687 64.5062 80.4016 64.3874 80.5702 64.1989C80.7203 64.0006 80.8272 63.773 80.8838 63.5308C80.9404 63.2886 80.9456 63.0372 80.8989 62.7929C80.862 62.5516 80.787 62.3176 80.6768 62.0998C80.5672 61.8874 80.4354 61.6871 80.2836 61.5023C79.69 60.8181 78.8903 60.345 78.0047 60.1541C77.2374 59.9731 76.4376 59.9822 75.6747 60.1807C75.0471 60.3431 74.4479 60.6 73.8977 60.9426C73.4787 61.2039 73.0833 61.5011 72.716 61.8311C72.4117 62.0976 72.1963 62.3286 72.0497 62.4797L71.8853 62.6574C71.8673 62.6786 71.8472 62.698 71.8253 62.7151C72.0868 62.3847 72.3767 62.0777 72.6916 61.7978C73.0552 61.4613 73.4493 61.1594 73.8688 60.8959C74.4244 60.5425 75.0313 60.2773 75.668 60.1096C76.4435 59.9016 77.2582 59.8879 78.0402 60.0697C78.9487 60.2613 79.7699 60.744 80.3792 61.4446C80.5344 61.6299 80.6698 61.8309 80.7834 62.0443C80.8955 62.2731 80.9705 62.5183 81.0055 62.7706C81.0444 63.028 81.0399 63.29 80.9922 63.5458C80.9443 63.8122 80.8271 64.0612 80.6524 64.2677C80.4657 64.4773 80.2074 64.6096 79.9283 64.6387C79.6482 64.6653 79.3665 64.6073 79.1197 64.4721C78.8718 64.3397 78.6546 64.1566 78.4823 63.9346C78.3127 63.7084 78.1807 63.4564 78.0913 63.1882C77.9317 62.6509 77.9225 62.0801 78.0647 61.5379C78.1943 61.0111 78.4427 60.5211 78.791 60.1052C79.4801 59.3494 80.3812 58.8191 81.3765 58.5837C82.2654 58.3664 83.1779 58.2604 84.093 58.2683C84.9482 58.2549 85.7434 58.2683 86.4675 58.2483C87.1195 58.2255 87.7699 58.167 88.4155 58.0728C88.9025 58.0029 89.3796 57.8762 89.837 57.6952C90.1241 57.5786 90.3969 57.4296 90.65 57.251C90.7389 57.191 90.7988 57.1355 90.8432 57.1044C90.8635 57.0823 90.8858 57.0622 90.9099 57.0444V57.0444Z" fill="#FAFAFA"/>
<path d="M98.2554 66.289C98.2242 66.2978 98.1922 66.303 98.1599 66.3046C98.0977 66.3046 98.0066 66.3201 97.8866 66.3246C97.5511 66.3356 97.2151 66.3275 96.8804 66.3001C96.4562 66.269 95.9542 66.2046 95.3989 66.1269C94.8436 66.0491 94.235 65.967 93.5909 65.9336C92.9885 65.9009 92.3845 65.9464 91.7939 66.0691C91.311 66.1673 90.8473 66.3436 90.4212 66.5911C90.0352 66.8271 89.6926 67.1276 89.4083 67.4796C89.4203 67.4499 89.4368 67.4222 89.4572 67.3974C89.5041 67.3189 89.5576 67.2446 89.6171 67.1753C89.8323 66.9124 90.0898 66.6872 90.379 66.5089C90.8079 66.2469 91.278 66.0591 91.7695 65.9536C92.3694 65.8226 92.9843 65.7733 93.5975 65.807C94.2483 65.8403 94.8591 65.9292 95.4144 66.0114C95.9697 66.0936 96.4673 66.1669 96.8871 66.2068C97.3069 66.2468 97.6512 66.2646 97.8866 66.2668C98.0099 66.2666 98.133 66.2741 98.2554 66.289V66.289Z" fill="#FAFAFA"/>
<path d="M92.9179 76.2467C92.5003 76.1495 92.0709 76.1129 91.6429 76.1378C91.1409 76.1718 90.6441 76.2604 90.1614 76.4022C89.595 76.5554 88.9619 76.7798 88.2511 76.9997C87.4793 77.2614 86.6715 77.4015 85.8567 77.415C84.9183 77.4148 83.9899 77.222 83.1291 76.8486C82.1724 76.4443 81.3213 75.8257 80.6413 75.0406C80.2735 74.6303 79.9735 74.1639 79.7528 73.659C79.518 73.1364 79.4297 72.5598 79.4974 71.9908C79.5747 71.4174 79.8544 70.8904 80.2859 70.5049C80.5002 70.3179 80.7573 70.1867 81.0345 70.1228C81.3056 70.0654 81.5865 70.0731 81.8541 70.1453C82.1217 70.2175 82.3683 70.3522 82.5738 70.5382C82.7745 70.7222 82.914 70.9633 82.9736 71.229C83.031 71.4891 83.0102 71.7604 82.9136 72.0086C82.8202 72.2473 82.6788 72.4642 82.4982 72.6461C82.1538 72.9911 81.7374 73.2558 81.2788 73.4213C81.0629 73.5033 80.8398 73.565 80.6124 73.6057C80.5014 73.6257 80.3903 73.6501 80.2815 73.6656L79.9505 73.7056C79.1389 73.786 78.3195 73.7282 77.5272 73.5346C76.8738 73.379 76.2441 73.137 75.6547 72.8149C75.209 72.5742 74.7912 72.2852 74.4086 71.9531L74.1865 71.7598L74.0044 71.5755C73.9061 71.4824 73.8141 71.383 73.7289 71.2778L73.569 71.0868C73.5508 71.0661 73.5344 71.0438 73.5201 71.0202C73.5416 71.0386 73.5617 71.0587 73.5801 71.0802L73.7467 71.2623C73.8348 71.3642 73.929 71.4606 74.0288 71.551L74.2132 71.731L74.4353 71.9198C74.8195 72.2427 75.2372 72.5234 75.6814 72.7572C76.2677 73.0705 76.8928 73.305 77.5405 73.4546C78.3249 73.6415 79.1352 73.694 79.9372 73.6101L80.2615 73.5701C80.3703 73.5524 80.4836 73.5279 80.5902 73.5079C80.8124 73.4678 81.0303 73.4068 81.241 73.3258C81.6846 73.1642 82.0872 72.9071 82.4205 72.5728C82.5904 72.4008 82.7234 72.196 82.8114 71.9709C82.8986 71.742 82.9178 71.4929 82.867 71.2534C82.8011 71.0088 82.6697 70.7868 82.4869 70.6114C82.3041 70.436 82.0768 70.314 81.8297 70.2583C81.5766 70.1853 81.309 70.1777 81.0522 70.2364C80.7954 70.2951 80.5577 70.418 80.3614 70.5937C79.9502 70.9602 79.6845 71.4624 79.6129 72.0086C79.5492 72.5561 79.6336 73.1107 79.8572 73.6145C80.0722 74.1076 80.363 74.5641 80.7191 74.9673C81.3875 75.738 82.2232 76.3458 83.1624 76.7442C84.0097 77.114 84.9234 77.3075 85.8478 77.3128C86.6545 77.3029 87.4547 77.168 88.2201 76.913C88.9286 76.6909 89.5528 76.4821 90.137 76.3333C90.6246 76.1962 91.126 76.1135 91.6318 76.0867C91.816 76.0752 92.0007 76.0752 92.1849 76.0867C92.3426 76.1112 92.4781 76.1223 92.5847 76.1467L92.8268 76.2067C92.8589 76.2157 92.8895 76.2292 92.9179 76.2467V76.2467Z" fill="#FAFAFA"/>
<path d="M73.4001 73.8767C73.3801 73.8767 73.278 73.6545 73.0625 73.2814C72.4986 72.3344 71.6765 71.5677 70.6925 71.0713C70.3149 70.8803 70.0661 70.7959 70.0728 70.7759C70.1352 70.7813 70.1965 70.7955 70.2549 70.8181C70.4166 70.8662 70.5746 70.9256 70.728 70.9958C71.2369 71.2278 71.705 71.5406 72.114 71.922C72.5239 72.303 72.8683 72.7487 73.1336 73.2414C73.2176 73.3889 73.2918 73.5417 73.3557 73.699C73.3783 73.756 73.3933 73.8157 73.4001 73.8767V73.8767Z" fill="#FAFAFA"/>
<path d="M64.7819 83.3834C64.7819 83.3834 64.7663 83.3656 64.7463 83.3279C64.7264 83.2901 64.693 83.2301 64.6553 83.1613C64.5753 83.0147 64.4598 82.7948 64.3177 82.5105C63.905 81.7078 63.5646 80.8701 63.3004 80.0072C63.1237 79.4077 63.0171 78.7898 62.9827 78.1658C62.965 77.8172 62.9792 77.4678 63.0249 77.1218C63.0801 76.7557 63.1678 76.3951 63.287 76.0445C63.5463 75.2866 63.9951 74.6076 64.5909 74.0721C64.909 73.7802 65.2831 73.5558 65.6905 73.4127C66.0979 73.2695 66.53 73.2105 66.9609 73.2392C67.4086 73.2727 67.8266 73.4761 68.1292 73.8078C68.2732 73.9718 68.3778 74.1665 68.4351 74.377C68.4925 74.5876 68.501 74.8084 68.4602 75.0228C68.4122 75.2331 68.3024 75.4242 68.1448 75.5714C67.9908 75.7124 67.8048 75.8138 67.6028 75.8668C67.2118 75.9686 66.7968 75.9186 66.4411 75.7269C66.1112 75.5488 65.8227 75.3028 65.5948 75.005C65.3764 74.7293 65.1963 74.4251 65.0595 74.101C64.8192 73.5194 64.7195 72.8892 64.7686 72.2618C64.8134 71.7441 64.9647 71.2413 65.2128 70.7847C65.3967 70.4402 65.6319 70.1257 65.9103 69.8518C66.0843 69.6781 66.2756 69.5226 66.4811 69.3876C66.55 69.341 66.6077 69.3121 66.6455 69.2899L66.7032 69.261C66.7032 69.261 66.6321 69.3121 66.4944 69.4076C66.2961 69.549 66.111 69.7081 65.9414 69.8829C65.6752 70.1592 65.4508 70.4727 65.275 70.8136C65.0389 71.2644 64.8976 71.7588 64.8596 72.2663C64.8167 72.8814 64.9202 73.498 65.1617 74.0654C65.2966 74.38 65.4729 74.675 65.6859 74.9428C65.9069 75.2279 66.1854 75.4633 66.5033 75.6336C66.8353 75.8123 67.2227 75.8583 67.5873 75.7624C67.7743 75.7187 67.9456 75.6242 68.0823 75.4894C68.2191 75.3546 68.316 75.1847 68.3625 74.9984C68.3977 74.8021 68.3885 74.6004 68.3354 74.4082C68.2824 74.216 68.1869 74.0381 68.0559 73.8878C67.7725 73.5785 67.3815 73.3894 66.9631 73.3591C66.5481 73.3317 66.1318 73.3886 65.7394 73.5264C65.3469 73.6642 64.9865 73.8801 64.6797 74.161C64.0983 74.6839 63.6589 75.3457 63.4025 76.0845C63.2827 76.4275 63.1943 76.7806 63.1382 77.1396C63.0921 77.4796 63.0765 77.823 63.0916 78.1658C63.1227 78.7831 63.224 79.395 63.3936 79.9894C63.6496 80.8501 63.9765 81.6882 64.371 82.4949L64.6886 83.1613C64.7219 83.2323 64.7486 83.2901 64.7708 83.3345C64.793 83.3789 64.7819 83.3834 64.7819 83.3834Z" fill="#FAFAFA"/>
<path d="M62.0387 63.7746C62.0387 63.7746 62.0498 63.8057 62.0587 63.8657C62.0744 63.9554 62.0855 64.0459 62.0921 64.1367C62.1213 64.4685 62.1213 64.8022 62.0921 65.134C62.0023 66.2388 61.6244 67.3007 60.9962 68.2139C60.3679 69.1271 59.5112 69.8596 58.5115 70.3383C58.2123 70.4844 57.9009 70.6041 57.5808 70.6959C57.4697 70.7314 57.3787 70.747 57.3187 70.7625C57.2587 70.7781 57.2254 70.7803 57.2254 70.7759C57.3367 70.7279 57.451 70.6871 57.5675 70.6537C57.8791 70.5457 58.1826 70.4158 58.4759 70.265C59.449 69.7734 60.2829 69.0451 60.9008 68.1469C61.5187 67.2488 61.9009 66.2096 62.0121 65.1251C62.0471 64.7976 62.0597 64.4681 62.0499 64.1389C62.0383 64.0178 62.0346 63.8962 62.0387 63.7746V63.7746Z" fill="#FAFAFA"/>
<path d="M100.199 73.4058C99.8686 73.6128 99.5781 73.8776 99.3416 74.1876C99.1195 74.4742 98.8974 74.854 98.6464 75.2538C98.3711 75.7015 98.0535 76.1217 97.6979 76.5088C97.0476 77.2113 96.2765 77.7914 95.4212 78.2213C95.1637 78.3517 94.8981 78.4652 94.626 78.5612C94.5267 78.6001 94.4241 78.6298 94.3195 78.65C94.4114 78.5974 94.5081 78.5536 94.6082 78.519C94.7948 78.4368 95.0658 78.3213 95.3834 78.148C96.2134 77.702 96.9639 77.1218 97.6046 76.431C97.9565 76.05 98.2725 75.6373 98.5486 75.1983C98.7695 74.8313 99.0105 74.4768 99.2705 74.1365C99.4512 73.9085 99.6663 73.7099 99.908 73.5479C99.9735 73.5044 100.043 73.4665 100.115 73.4346C100.172 73.4124 100.199 73.4013 100.199 73.4058Z" fill="#FAFAFA"/>
<path d="M88.1956 56.5357C88.1631 56.5497 88.1287 56.5587 88.0935 56.5624L87.798 56.6157C87.5404 56.6579 87.1672 56.7134 86.7074 56.7756C85.7834 56.9 84.504 57.0466 83.0846 57.151C82.4201 57.2117 81.7527 57.2355 81.0856 57.2221C80.5352 57.2087 79.9897 57.1151 79.4663 56.9444C79.113 56.8299 78.7796 56.6613 78.4779 56.4447C78.3956 56.3867 78.3169 56.3236 78.2424 56.2559C78.1936 56.207 78.1691 56.1826 78.1713 56.1781C78.1736 56.1737 78.2868 56.267 78.5023 56.4002C78.8092 56.5975 79.1418 56.7515 79.4907 56.8578C80.0095 57.0157 80.5479 57.0994 81.09 57.1066C81.7573 57.1137 82.4245 57.087 83.0891 57.0266C84.504 56.9222 85.7834 56.7912 86.7074 56.6868L87.8025 56.5624C87.9327 56.5443 88.0641 56.5354 88.1956 56.5357V56.5357Z" fill="#263238"/>
<path d="M103.418 82.6104C103.585 83.4697 103.561 84.3553 103.348 85.2043C103.134 86.0534 102.737 86.8451 102.183 87.5234C101.63 88.2016 100.934 88.7499 100.145 89.1292C99.3561 89.5085 98.4933 89.7096 97.618 89.7183L80.7924 89.5317L81.2366 84.0831L95.6433 81.9196" fill="#B78876"/>
<path d="M82.2672 84.3207C82.1895 84.3452 81.2188 83.9098 80.3481 83.5078C79.4245 83.0799 78.4106 82.8832 77.3939 82.9347L73.3824 83.139C73.3824 83.139 73.629 83.8054 74.0488 84.0275C74.4686 84.2496 76.9852 84.3207 76.9852 84.3207L76.8564 84.4518C76.3301 84.9938 75.6125 85.3079 74.8573 85.3269H74.473C74.1885 85.3044 73.9076 85.2492 73.6356 85.1626L72.6472 84.7627C72.3473 84.6295 72.0319 84.6495 71.9009 84.9515C71.7698 85.2536 71.8698 85.6001 72.6872 86.0111C73.1425 86.2332 74.8351 86.8262 74.8351 86.8262C74.8467 87.0672 74.8801 87.3066 74.935 87.5415C75.0083 87.788 75.6725 88.0346 75.6725 88.0346C75.845 88.4001 76.0425 88.7533 76.2633 89.0919C76.3411 89.1807 76.943 89.3695 77.5849 89.5494C78.6198 89.8391 79.7154 89.8306 80.7457 89.525L82.2739 89.0674V84.4029" fill="#B78876"/>
<path d="M76.7808 87.366C76.0741 87.348 75.3812 87.1655 74.7573 86.8329C74.7573 86.8063 75.2016 86.9751 75.7635 87.1194C76.3255 87.2638 76.7831 87.3327 76.7808 87.366Z" fill="#AA6550"/>
<path d="M76.6387 88.3011C76.4504 88.3402 76.2549 88.3256 76.0745 88.2589C75.886 88.2242 75.7108 88.1381 75.5681 88.0102C75.7497 88.0464 75.928 88.0977 76.1011 88.1634C76.2836 88.1955 76.4633 88.2415 76.6387 88.3011V88.3011Z" fill="#AA6550"/>
<path d="M77.3717 83.9587C77.284 84.0822 77.1801 84.1935 77.063 84.2896C76.797 84.5436 76.5034 84.7671 76.1878 84.956C75.8698 85.1416 75.5241 85.2751 75.1638 85.3514C75.0191 85.3901 74.8693 85.4066 74.7196 85.4002C75.216 85.2861 75.6954 85.1077 76.1456 84.8694C76.4542 84.6833 76.7476 84.4732 77.023 84.2408C77.1306 84.1366 77.2473 84.0422 77.3717 83.9587Z" fill="#AA6550"/>
<path d="M82.6759 83.59L82.2672 89.7516H98.1155C99.1915 89.7523 100.247 89.4597 101.17 88.9053V88.9053C102.213 88.2781 103.039 87.3446 103.533 86.2318C104.027 85.119 104.167 83.8809 103.933 82.6859C103.705 81.5158 103.363 80.3708 102.911 79.2675L94.9414 80.5802L95.1968 81.5709L82.6759 83.59Z" fill="#C8E6C9"/>
<path d="M98.8685 81.0533C98.816 81.0686 98.7625 81.0804 98.7085 81.0889L98.2443 81.1733L96.5318 81.4576L90.8988 82.3461L85.2592 83.2101L83.5488 83.4589L83.0824 83.5211C83.0279 83.5287 82.973 83.5331 82.918 83.5344C82.9706 83.5161 83.0249 83.5035 83.0802 83.4967L83.5422 83.4145L85.2481 83.1279L90.881 82.2395L96.5318 81.3688L98.2421 81.12L98.7085 81.0578C98.7615 81.0506 98.8152 81.0492 98.8685 81.0533V81.0533Z" fill="#263238"/>
<path d="M90.7566 89.756C90.7278 89.756 90.8521 89.3118 90.8677 88.5854C90.8711 88.3882 90.8629 88.1909 90.8433 87.9946C90.8242 87.7707 90.7916 87.5482 90.7455 87.3282C90.6355 86.8214 90.4624 86.3304 90.2302 85.8667C89.9925 85.4051 89.7017 84.9727 89.3639 84.5784L89.1418 84.3185C89.0663 84.2341 88.9841 84.1608 88.9086 84.0853C88.7598 83.932 88.6021 83.8099 88.4643 83.6921C87.8979 83.2479 87.4959 83.0258 87.5092 83.0058C87.6075 83.0451 87.702 83.0934 87.7913 83.1502C87.9019 83.2078 88.0087 83.2724 88.1112 83.3434C88.2289 83.4278 88.3755 83.51 88.5154 83.6299C88.6754 83.7497 88.8282 83.8788 88.973 84.0164C89.0507 84.092 89.1374 84.163 89.2151 84.2386L89.4572 84.5007C89.8051 84.8977 90.1035 85.3355 90.3457 85.8045C90.5809 86.2779 90.7541 86.7795 90.861 87.2972C90.9065 87.5236 90.9362 87.7529 90.9499 87.9835C90.9641 88.1832 90.9641 88.3836 90.9499 88.5832C90.9456 88.7491 90.9308 88.9146 90.9054 89.0786C90.8932 89.2022 90.8717 89.3247 90.841 89.445C90.8219 89.5509 90.7936 89.655 90.7566 89.756V89.756Z" fill="#FAFAFA"/>
<path d="M100.406 89.2918C100.158 89.2903 99.9114 89.2613 99.6703 89.2052C99.3861 89.14 99.1104 89.0424 98.8485 88.9142C98.5013 88.7415 98.1876 88.5084 97.9222 88.2256C97.6003 87.879 97.3664 87.46 97.2403 87.004C97.1701 86.7505 97.1306 86.4895 97.1226 86.2265C97.1065 85.9486 97.129 85.6698 97.1892 85.398C97.2486 85.1087 97.36 84.8325 97.518 84.5829C97.6828 84.3182 97.9121 84.0996 98.1843 83.9476C98.4659 83.7834 98.7897 83.7061 99.115 83.7255C99.2823 83.737 99.4454 83.7824 99.5947 83.8587C99.744 83.9351 99.8762 84.0409 99.9835 84.1697C100.095 84.2967 100.178 84.4455 100.228 84.6065C100.279 84.7674 100.295 84.9372 100.277 85.1048C100.249 85.2676 100.186 85.4222 100.092 85.5574C99.9972 85.6927 99.8737 85.8051 99.7303 85.8867C99.1927 86.1682 98.5735 86.2531 97.98 86.1266C97.1374 85.9953 96.3673 85.5735 95.8031 84.9342C95.2388 84.2948 94.9159 83.4783 94.8903 82.626C94.8761 82.3785 94.897 82.1302 94.9525 81.8885C94.932 82.133 94.926 82.3785 94.9347 82.6238C94.9761 83.2923 95.1946 83.9378 95.5678 84.494C95.8458 84.9023 96.2044 85.2495 96.6215 85.5142C97.0387 85.7789 97.5055 85.9555 97.9933 86.0333C98.5605 86.1552 99.1523 86.0767 99.6681 85.8112C99.797 85.7383 99.9081 85.6378 99.9933 85.5168C100.079 85.3958 100.136 85.2574 100.161 85.1115C100.174 84.9595 100.157 84.8064 100.111 84.6609C100.065 84.5155 99.9904 84.3807 99.892 84.2641C99.7935 84.1475 99.6731 84.0515 99.5374 83.9815C99.4018 83.9116 99.2538 83.8691 99.1017 83.8565C98.8005 83.836 98.4999 83.9048 98.2376 84.0542C97.9908 84.2017 97.7787 84.4006 97.6158 84.6375C97.4529 84.8744 97.343 85.1437 97.2936 85.4269C97.2335 85.6904 97.2103 85.9611 97.2248 86.231C97.2309 86.4854 97.2674 86.7382 97.3336 86.984C97.4507 87.4279 97.6732 87.8371 97.9822 88.1768C98.2362 88.4555 98.5369 88.6878 98.8707 88.8631C99.1267 88.9938 99.3964 89.0959 99.6748 89.1674C100.141 89.2718 100.408 89.2763 100.406 89.2918Z" fill="#FAFAFA"/>
<path d="M37.5389 22.1671H-2.15173C-4.4716 22.1671 -6.69646 23.0887 -8.33686 24.7291C-9.97725 26.3695 -10.8988 28.5943 -10.8988 30.9142V45.0588H-19.4615L-10.8988 53.6215V63.2371C-10.8988 65.557 -9.97725 67.7818 -8.33686 69.4222C-6.69646 71.0626 -4.4716 71.9842 -2.15173 71.9842H37.5389C39.8588 71.9842 42.0836 71.0626 43.724 69.4222C45.3644 67.7818 46.286 65.557 46.286 63.2371V30.9142C46.286 28.5943 45.3644 26.3695 43.724 24.7291C42.0836 23.0887 39.8588 22.1671 37.5389 22.1671V22.1671Z" fill="#C8E6C9"/>
<path d="M21.3241 23.662C21.0732 24.3128 21.5041 25.0213 21.9905 25.5233C22.477 26.0253 23.0589 26.5007 23.2122 27.1803C23.3388 27.7512 23.1278 28.3443 23.1789 28.9262C23.2299 29.5082 23.552 30.0568 23.7342 30.6254C24.0651 31.6561 23.9318 32.7822 23.6364 33.824C23.4234 34.6896 23.0162 35.4955 22.4459 36.1807C22.1586 36.52 21.8025 36.7945 21.4012 36.9859C20.9999 37.1774 20.5625 37.2814 20.118 37.2913C19.9923 37.2991 19.8664 37.2811 19.7479 37.2383C19.6295 37.1956 19.5211 37.1289 19.4295 37.0425C19.3049 36.8628 19.2361 36.6503 19.2318 36.4316C18.7231 31.9592 18.7231 27.4436 19.2318 22.9712" fill="#263238"/>
<path d="M20.8554 38.0753C22.7879 37.9909 24.5737 39.8412 24.4205 41.7692C26.3774 42.2468 27.7523 44.3991 27.3769 46.376C27.2503 47.029 26.9593 47.6509 26.9193 48.3129C26.8749 49.037 27.1414 49.7411 27.2725 50.4519C27.524 51.7473 27.3896 53.0881 26.886 54.3079C26.5817 55.0431 26.0131 55.8027 25.2179 55.825C24.9485 55.8136 24.686 55.7361 24.4536 55.5994C24.2212 55.4627 24.0259 55.2709 23.8852 55.0409C23.6083 54.5753 23.4257 54.0598 23.3476 53.5238C23.0033 51.7868 22.9034 50.0032 22.4236 48.2995C21.9438 46.5959 21.0109 44.9166 19.4716 44.0526C18.6209 43.5728 17.5992 43.3462 16.9217 42.6421C16.5809 42.2578 16.3537 41.7863 16.2654 41.2803C16.1772 40.7743 16.2314 40.2538 16.4219 39.7768C16.6216 39.3041 16.9186 38.8788 17.2937 38.5286C17.6688 38.1784 18.1134 37.9112 18.5987 37.7444" fill="#263238"/>
<path d="M7.47938 25.2546C7.45717 24.4283 8.21904 23.7908 8.98758 23.4776C9.75611 23.1644 10.6113 23.06 11.2954 22.5891C11.904 22.1804 12.3105 21.5429 12.8236 21.0343C13.4572 20.3918 14.2503 19.9295 15.1217 19.6948C15.993 19.4601 16.911 19.4616 17.7816 19.699C18.6522 19.9364 19.4439 20.4013 20.0754 21.0458C20.7069 21.6903 21.1556 22.4913 21.3752 23.3665C21.6706 24.5416 21.4685 25.932 20.5423 26.7139C19.4672 27.6201 17.8768 27.418 16.493 27.1359C15.1092 26.8538 13.5544 26.5762 12.4038 27.3869C11.7108 27.8734 11.311 28.6686 10.8867 29.4038C10.4625 30.139 9.93159 30.8875 9.12973 31.1652C8.32788 31.4428 7.23727 30.9631 7.20618 30.1168" fill="#263238"/>
<path d="M10.7357 25.4234C10.3917 25.4606 10.0743 25.6254 9.84603 25.8853C9.61777 26.1452 9.49533 26.4813 9.50289 26.8272V26.8272L10.327 45.4853C10.3625 47.6887 13.5832 48.9259 15.9422 48.8704C18.3255 48.8148 18.401 47.6465 18.4321 45.5497C18.481 42.0491 18.4765 40.7341 18.4788 40.7541C18.481 40.7741 21.4885 40.2477 22.1038 36.3117C22.4081 34.3593 22.3037 31.1563 22.1326 28.5375C21.9794 26.1808 20.4112 23.2932 18.0634 23.5465L10.7357 25.4234Z" fill="#FFBE9D"/>
<path d="M21.4552 31.0119C21.4565 31.143 21.4066 31.2694 21.3162 31.3644C21.2258 31.4594 21.102 31.5154 20.971 31.5206C20.9076 31.526 20.8437 31.5188 20.7832 31.4994C20.7226 31.4799 20.6665 31.4486 20.6181 31.4073C20.5697 31.3659 20.5301 31.3154 20.5014 31.2586C20.4728 31.2017 20.4557 31.1398 20.4512 31.0763C20.4494 30.9451 20.4991 30.8183 20.5896 30.7232C20.6801 30.6281 20.8043 30.5723 20.9354 30.5677C20.9988 30.5622 21.0627 30.5694 21.1233 30.5889C21.1839 30.6083 21.24 30.6396 21.2883 30.681C21.3367 30.7223 21.3764 30.7729 21.405 30.8297C21.4337 30.8865 21.4507 30.9484 21.4552 31.0119V31.0119Z" fill="#263238"/>
<path d="M21.4419 30.2123C21.3797 30.2789 20.9976 29.9902 20.4557 29.9902C19.9137 29.9902 19.5161 30.2656 19.4561 30.199C19.4272 30.1701 19.4916 30.0501 19.6649 29.9235C19.8987 29.7607 20.1774 29.6745 20.4623 29.677C20.7444 29.6753 21.0197 29.7632 21.2486 29.928C21.4152 30.059 21.473 30.1834 21.4419 30.2123Z" fill="#263238"/>
<path d="M16.2465 31.0119C16.2477 31.143 16.1979 31.2694 16.1075 31.3644C16.0171 31.4594 15.8932 31.5154 15.7622 31.5206C15.6988 31.526 15.635 31.5188 15.5744 31.4994C15.5138 31.4799 15.4577 31.4486 15.4093 31.4073C15.361 31.3659 15.3213 31.3154 15.2927 31.2586C15.264 31.2017 15.247 31.1398 15.2425 31.0763C15.2407 30.9451 15.2903 30.8183 15.3808 30.7232C15.4714 30.6281 15.5955 30.5723 15.7267 30.5677C15.7901 30.5622 15.8539 30.5694 15.9145 30.5889C15.9751 30.6083 16.0312 30.6396 16.0796 30.681C16.128 30.7223 16.1676 30.7729 16.1963 30.8297C16.2249 30.8865 16.242 30.9484 16.2465 31.0119V31.0119Z" fill="#263238"/>
<path d="M16.1243 30.3256C16.0621 30.3922 15.6801 30.1034 15.1381 30.1034C14.5961 30.1034 14.1985 30.3789 14.1408 30.3122C14.1119 30.2834 14.1741 30.1634 14.3473 30.0368C14.5811 29.8736 14.8596 29.7867 15.1447 29.788C15.427 29.787 15.7024 29.8757 15.931 30.0412C16.0865 30.1767 16.1443 30.2967 16.1243 30.3256Z" fill="#263238"/>
<path d="M18.0901 34.3415C18.0901 34.3104 18.4233 34.2527 18.9786 34.1816C19.1163 34.166 19.2473 34.1371 19.2718 34.0439C19.282 33.9007 19.2495 33.7577 19.1785 33.6329L18.7653 32.5801C18.1945 31.0808 17.7791 29.848 17.8413 29.8258C17.9035 29.8036 18.4144 31.0008 18.9852 32.4912L19.3806 33.5508C19.4667 33.7176 19.4926 33.909 19.4539 34.0927C19.4344 34.1412 19.4044 34.1846 19.3659 34.22C19.3275 34.2553 19.2817 34.2817 19.2318 34.2971C19.1594 34.317 19.0847 34.3275 19.0097 34.3282C18.4322 34.3682 18.0923 34.3726 18.0901 34.3415Z" fill="#263238"/>
<path d="M18.4787 40.7563C16.6289 40.7882 14.8065 40.3061 13.2145 39.3636C13.2145 39.3636 14.4961 42.0602 18.4276 41.6826L18.4787 40.7563Z" fill="#EB996E"/>
<path d="M17.8635 35.6476C17.7589 35.5162 17.6222 35.414 17.4665 35.3509C17.3109 35.2879 17.1416 35.2661 16.975 35.2877C16.8554 35.2985 16.7392 35.3333 16.6335 35.3902C16.5277 35.4471 16.4346 35.5248 16.3597 35.6187C16.2875 35.7093 16.2449 35.8199 16.2378 35.9356C16.2306 36.0512 16.2592 36.1663 16.3198 36.2651C16.4067 36.3626 16.521 36.4317 16.6478 36.4634C16.7745 36.4951 16.9079 36.4879 17.0305 36.4428C17.2863 36.3519 17.5211 36.2106 17.7213 36.0274C17.7828 35.9844 17.8356 35.9302 17.8768 35.8675C17.8971 35.8376 17.9079 35.8024 17.9079 35.7664C17.9079 35.7304 17.8971 35.6952 17.8768 35.6653" fill="#EB996E"/>
<path d="M16.4952 34.7235C16.5841 34.7235 16.5863 35.3077 17.0905 35.7231C17.5947 36.1384 18.2211 36.074 18.2255 36.1673C18.2255 36.2051 18.0856 36.2828 17.8213 36.2895C17.4765 36.2958 17.1406 36.1801 16.8728 35.963C16.6165 35.7533 16.4516 35.4523 16.413 35.1234C16.3886 34.8635 16.4552 34.7235 16.4952 34.7235Z" fill="#263238"/>
<path d="M16.3464 29.3749C16.2931 29.5237 15.7511 29.4549 15.1158 29.5326C14.4806 29.6103 13.9653 29.7858 13.8809 29.6525C13.8431 29.5903 13.9319 29.4504 14.1385 29.3083C14.4143 29.131 14.7269 29.0189 15.0524 28.9804C15.378 28.9419 15.7081 28.9781 16.0176 29.0861C16.2598 29.1905 16.3775 29.306 16.3464 29.3749Z" fill="#263238"/>
<path d="M21.233 28.6441C21.1375 28.7663 20.7643 28.6441 20.3134 28.6441C19.8625 28.6441 19.4849 28.7285 19.3983 28.5997C19.3583 28.5375 19.4183 28.4153 19.5849 28.2976C19.8078 28.1581 20.067 28.0877 20.3298 28.0952C20.5926 28.1028 20.8474 28.1878 21.062 28.3398C21.233 28.4575 21.2797 28.5841 21.233 28.6441Z" fill="#263238"/>
<path d="M7.99246 38.3463C8.53405 38.4558 9.09392 38.435 9.62587 38.2855C10.1578 38.136 10.6466 37.8622 11.0519 37.4866C11.4572 37.1111 11.7674 36.6445 11.9568 36.1255C12.1463 35.6064 12.2097 35.0498 12.1417 34.5014C12.0195 33.5352 11.4997 32.5556 11.8351 31.6405C12.2794 30.4344 13.9697 30.0635 14.4184 28.8573C14.6783 28.1577 14.4451 27.338 14.7405 26.6517C15.0181 26.0075 15.6978 25.6366 16.3597 25.3967C17.0216 25.1568 17.728 24.9925 18.2833 24.5615C18.8386 24.1306 19.1829 23.3177 18.8253 22.7113C15.8917 23.0633 13.0105 23.7634 10.2425 24.797C9.60061 25.0369 8.92759 25.3256 8.54776 25.8943C8.14795 26.4984 8.16794 27.2759 8.20126 28C8.36562 31.5272 7.82809 34.8302 7.99246 38.3574" fill="#263238"/>
<path d="M7.05734 37.2402C7.03498 37.2368 7.01326 37.2301 6.99293 37.2202C6.92953 37.1981 6.8691 37.1682 6.81301 37.1313C6.59663 36.9913 6.42658 36.7904 6.32435 36.5538C6.15625 36.1799 6.11114 35.7622 6.19552 35.361C6.32927 34.8398 6.57231 34.353 6.90852 33.9328C7.25281 33.453 7.69039 32.9666 7.98803 32.3469C8.14673 32.032 8.23539 31.6864 8.24791 31.334C8.23508 30.9599 8.16001 30.5906 8.02579 30.2412C7.87608 29.8634 7.79703 29.4614 7.79256 29.055C7.81407 28.6203 7.94171 28.1974 8.16435 27.8234C8.38699 27.4494 8.69785 27.1355 9.06975 26.9094C9.46863 26.6917 9.91102 26.5658 10.3647 26.5406C10.8037 26.5191 11.2386 26.4445 11.6597 26.3185C12.0551 26.1688 12.38 25.8764 12.5704 25.4989C12.7518 25.1275 12.8961 24.7392 13.0013 24.3394C13.1137 23.9559 13.2624 23.584 13.4455 23.2288C13.7795 22.5554 14.2881 21.9839 14.9182 21.574C15.4745 21.2242 16.1255 21.0551 16.7818 21.0898C17.3253 21.1179 17.8431 21.3302 18.25 21.6918C18.5533 21.9644 18.7793 22.3123 18.9052 22.7002C18.9871 22.943 19.0181 23.2001 18.9963 23.4554C18.9918 23.5442 18.9769 23.6322 18.9519 23.7175C18.9519 23.7175 18.9674 23.6264 18.9741 23.4532C18.9847 23.2018 18.947 22.9507 18.863 22.7135C18.7101 22.277 18.4294 21.8966 18.0575 21.6217C17.6855 21.3468 17.2395 21.1901 16.7773 21.172C16.1392 21.1439 15.5079 21.313 14.9693 21.6562C14.3561 22.0592 13.8621 22.6191 13.5388 23.2777C13.3594 23.633 13.2151 24.005 13.1079 24.3883C12.9994 24.7953 12.8506 25.1904 12.6637 25.5678C12.5607 25.7631 12.4264 25.9401 12.2661 26.092C12.1003 26.2454 11.9054 26.364 11.693 26.4407C11.2602 26.5741 10.8125 26.6532 10.3603 26.6761C9.92302 26.6992 9.49647 26.8198 9.11195 27.0293C8.75643 27.245 8.45905 27.5444 8.24573 27.9013C8.03241 28.2583 7.90962 28.662 7.88807 29.0773C7.89202 29.471 7.96728 29.8609 8.11019 30.2278C8.25155 30.588 8.33043 30.9696 8.34342 31.3562C8.32844 31.7229 8.23449 32.082 8.06799 32.4091C7.75702 33.0443 7.315 33.5197 6.9685 34.0017C6.63406 34.4099 6.39026 34.8847 6.25327 35.3944C6.16476 35.7822 6.20131 36.188 6.35767 36.5538C6.45374 36.7869 6.61394 36.9879 6.81968 37.1336C6.9685 37.2091 7.05956 37.2313 7.05734 37.2402Z" fill="#455A64"/>
<path d="M18.4721 20.1125C18.526 20.1165 18.5784 20.1324 18.6254 20.1591C18.7587 20.2157 18.8835 20.2904 18.9963 20.3812C19.3833 20.6815 19.6396 21.1194 19.712 21.6038C19.7844 22.0883 19.6673 22.582 19.385 22.9823C19.303 23.1016 19.2059 23.2098 19.0963 23.3043C19.0163 23.371 18.9674 23.3999 18.963 23.3932C19.0883 23.2513 19.2061 23.103 19.3162 22.949C19.5665 22.5586 19.6668 22.0908 19.5986 21.6322C19.5304 21.1735 19.2983 20.7551 18.9452 20.4545C18.7942 20.3315 18.6363 20.2173 18.4721 20.1125V20.1125Z" fill="#455A64"/>
<path d="M27.1747 47.0712C27.2216 46.9346 27.2594 46.7951 27.288 46.6536C27.3401 46.2659 27.2727 45.8715 27.0948 45.523C26.8207 45.0115 26.3849 44.6053 25.8553 44.368C25.5455 44.2214 25.2218 44.1061 24.8891 44.0237C24.5426 43.9349 24.1761 43.8616 23.8096 43.7416C23.4408 43.6411 23.1007 43.4555 22.8167 43.1996C22.5624 42.945 22.3978 42.6144 22.3481 42.2579C22.2881 41.9269 22.2681 41.6137 22.1948 41.3338C22.1291 41.0749 22.007 40.8337 21.8372 40.6275C21.5888 40.3254 21.2588 40.1011 20.8865 39.9811C20.6222 39.9012 20.4645 39.9012 20.4645 39.8878C20.5021 39.8841 20.5401 39.8841 20.5778 39.8878C20.6864 39.8953 20.7942 39.9124 20.8998 39.9389C21.2894 40.0464 21.6377 40.2685 21.8994 40.5764C22.0823 40.7893 22.2151 41.0406 22.2881 41.3116C22.368 41.6026 22.3925 41.9202 22.4547 42.2401C22.5003 42.5773 22.6566 42.8897 22.8989 43.1286C23.1713 43.3704 23.4959 43.546 23.8474 43.6417C24.205 43.7572 24.5715 43.8327 24.9202 43.9238C25.2574 44.0062 25.5849 44.1239 25.8975 44.2747C26.4446 44.5252 26.8908 44.9534 27.1636 45.4897C27.3414 45.8541 27.399 46.2655 27.328 46.6647C27.3068 46.7712 27.2733 46.8748 27.228 46.9735C27.2137 47.0078 27.1958 47.0406 27.1747 47.0712Z" fill="#455A64"/>
<path d="M10.0893 40.1144C8.09026 39.5813 6.37994 37.6333 5.68248 35.6942C4.98502 33.7551 4.98502 31.6383 5.16494 29.5859C5.29377 28.0999 5.55587 26.5273 6.54208 25.4078C8.03029 23.7197 9.65176 22.8579 11.8907 22.929" fill="#263238"/>
<path d="M21.7062 44.4457L19.8515 43.9793C20.0536 43.8403 20.2011 43.6352 20.2683 43.3992C20.3356 43.1633 20.3186 42.9113 20.2202 42.6865C20.1028 42.3985 19.9085 42.1482 19.6586 41.9629C19.4087 41.7777 19.1128 41.6645 18.803 41.6359L10.3492 40.6808C10.2014 40.6611 10.0512 40.6915 9.92276 40.7672C9.79431 40.8429 9.69495 40.9595 9.64059 41.0984C9.26595 42.052 9.25336 42.8368 9.60283 43.4529H9.56285L7.93249 43.7772L5.16931 68.1526L23.2677 67.3063L21.7062 44.4457Z" fill="#F5F5F5"/>
<path d="M19.0452 44.0726C18.9342 44.105 18.8204 44.1273 18.7054 44.1392C18.4832 44.1747 18.1656 44.2125 17.7702 44.2525C15.7011 44.4447 13.6151 44.3408 11.5753 43.9437C11.1844 43.866 10.8712 43.7949 10.6557 43.7372C10.5425 43.7152 10.4317 43.6825 10.3248 43.6394C10.4395 43.6479 10.5532 43.6664 10.6646 43.695C10.8867 43.7372 11.1999 43.7971 11.5909 43.8638C13.6285 44.2144 15.7012 44.3173 17.7636 44.1703C18.1589 44.1437 18.4788 44.1148 18.7009 44.0926C18.815 44.0769 18.9301 44.0702 19.0452 44.0726V44.0726Z" fill="#263238"/>
<path d="M10.8645 47.9464C11.0426 47.5766 11.2545 47.2242 11.4975 46.8935C11.7097 46.5419 11.9544 46.211 12.2283 45.9051C12.05 46.2751 11.8373 46.6276 11.5931 46.9579C11.3821 47.3097 11.1381 47.6407 10.8645 47.9464V47.9464Z" fill="#E0E0E0"/>
<path d="M16.6974 48.3595C16.1328 47.7798 15.6248 47.1476 15.1803 46.4715C15.4762 46.7484 15.7454 47.0526 15.9844 47.3799C16.2531 47.6826 16.4919 48.0107 16.6974 48.3595V48.3595Z" fill="#E0E0E0"/>
<path d="M13.9875 51.4581C13.8598 51.0629 13.7683 50.657 13.7143 50.2453C13.6218 49.8405 13.569 49.4276 13.5566 49.0125C13.6846 49.4076 13.7761 49.8135 13.8298 50.2253C13.9197 50.6306 13.9725 51.0432 13.9875 51.4581V51.4581Z" fill="#E0E0E0"/>
<path d="M18.441 51.6491C18.1274 52.0391 17.7843 52.4045 17.4148 52.7419C17.0716 53.1073 16.7003 53.4453 16.3042 53.7526C16.6177 53.3625 16.9608 52.9971 17.3304 52.6597C17.675 52.2958 18.0462 51.958 18.441 51.6491V51.6491Z" fill="#E0E0E0"/>
<path d="M12.4681 55.8028C11.6497 55.3137 10.983 54.607 10.5424 53.7615C10.5735 53.7415 10.9133 54.2746 11.4486 54.8365C11.9839 55.3985 12.4904 55.7739 12.4681 55.8028Z" fill="#E0E0E0"/>
<path d="M14.3873 59.0102C14.3873 59.0435 13.8809 59.2056 13.2945 59.5188C12.7081 59.832 12.2794 60.1607 12.2572 60.1319C12.5368 59.8325 12.8707 59.5891 13.2412 59.4144C13.5935 59.2068 13.9827 59.0696 14.3873 59.0102V59.0102Z" fill="#E0E0E0"/>
<path d="M17.5081 59.2167C17.3757 59.1046 17.2571 58.9771 17.1549 58.8369C16.9505 58.5926 16.6773 58.2438 16.393 57.8462C16.1087 57.4486 15.8688 57.0777 15.7022 56.8023C15.6031 56.6599 15.5211 56.5063 15.4579 56.3447C15.576 56.4714 15.681 56.6099 15.7711 56.7579L16.4885 57.7796L17.2193 58.788C17.3304 58.9203 17.4272 59.064 17.5081 59.2167V59.2167Z" fill="#E0E0E0"/>
<path d="M17.8213 61.9532C17.3896 62.1046 16.9427 62.2089 16.4886 62.2642C16.0394 62.3579 15.5814 62.4033 15.1226 62.3997C15.5662 62.2882 16.0166 62.2051 16.4708 62.1509C16.9167 62.0584 17.3676 61.9923 17.8213 61.9532Z" fill="#E0E0E0"/>
<path d="M12.7681 43.7283C12.7525 43.7283 12.8591 43.595 12.9502 43.3596C13.063 43.0515 13.0966 42.72 13.0479 42.3956C12.9928 42.0686 12.8965 41.7499 12.7614 41.4471C12.6959 41.3232 12.6452 41.192 12.6104 41.0562C12.7031 41.1627 12.7781 41.2834 12.8325 41.4138C12.994 41.7148 13.1044 42.0406 13.159 42.3778C13.2127 42.7222 13.1657 43.0747 13.0235 43.3929C12.9739 43.5278 12.8849 43.6446 12.7681 43.7283V43.7283Z" fill="#E0E0E0"/>
<path d="M16.1487 41.9025C16.3071 42.1205 16.4203 42.368 16.4817 42.6305C16.5431 42.8929 16.5515 43.1649 16.5063 43.4306C16.473 43.4306 16.4686 43.0775 16.3686 42.6577C16.2687 42.2379 16.1243 41.9202 16.1487 41.9025Z" fill="#E0E0E0"/>
<path d="M31.3973 59.27L39.8156 44.4835L40.8307 41.918C40.8307 41.918 43.4562 36.2762 43.6383 35.6986C43.8493 35.0323 44.2203 34.979 44.4601 35.0723C44.8333 35.2211 44.9532 35.7764 44.7889 36.3517C44.7311 36.5494 43.7116 39.6502 43.7116 39.6502C43.9857 39.4138 44.2768 39.1978 44.5823 39.0038C45.2287 38.5596 46.4126 38.5818 47.5098 38.9727C48.6071 39.3636 48.8781 39.5702 48.7471 40.0011C48.7181 40.082 48.6713 40.1553 48.6102 40.2157C48.5491 40.2761 48.4751 40.3219 48.3939 40.3498C48.1355 40.4577 47.846 40.4641 47.5832 40.3676C45.8195 39.7679 45.0377 40.5631 45.0377 40.5631L44.9066 40.8985C44.9066 40.8985 46.2393 40.4742 46.9856 41.074C47.0971 41.162 47.1906 41.2706 47.2611 41.3938C47.5026 41.4727 47.7193 41.6133 47.8898 41.8017C48.0604 41.99 48.1787 42.2197 48.2332 42.4678C48.2878 42.716 48.2766 42.9741 48.2007 43.2166C48.1249 43.4591 47.987 43.6776 47.8008 43.8505C47.7199 43.9427 47.6129 44.0083 47.4939 44.0384C47.3749 44.0685 47.2496 44.0619 47.1345 44.0193C47.0268 43.9459 46.9402 43.8456 46.8835 43.7283C46.8473 43.6696 46.8064 43.6139 46.7613 43.5617L46.2593 44.4502C46.2593 44.4502 45.0221 46.3826 44.5779 47.2867L38.7805 62.7307C38.5899 63.2391 38.2999 63.7044 37.9275 64.0995C37.5551 64.4946 37.1076 64.8115 36.6113 65.0317C36.115 65.252 35.5798 65.3711 35.037 65.3822C34.4941 65.3932 33.9545 65.296 33.4496 65.0962V65.0962C32.9049 64.8812 32.4126 64.5516 32.0063 64.1298C31.5999 63.708 31.2889 63.2038 31.0943 62.6514C30.8997 62.0989 30.826 61.5111 30.8783 60.9278C30.9306 60.3444 31.1076 59.7791 31.3973 59.27V59.27Z" fill="#FFBE9D"/>
<path d="M40.3954 44.4324C40.693 44.6279 41.104 44.4946 41.3705 44.2636C41.637 44.0326 41.8147 43.715 42.0724 43.464C42.8209 42.7154 44.0715 42.6443 44.7889 41.8603C44.8889 41.7514 44.9777 41.5848 44.8911 41.4649C44.8045 41.3449 44.6445 41.3672 44.5113 41.3938L41.0662 42.0757" fill="#FFBE9D"/>
<path d="M41.0662 42.0757C41.1823 42.0231 41.3047 41.9858 41.4304 41.9647C41.6681 41.9047 42.0146 41.8269 42.4411 41.7425L43.9426 41.4249L44.3869 41.3338C44.558 41.2712 44.7468 41.2776 44.9133 41.3516C44.9608 41.3869 44.9968 41.4355 45.0166 41.4913C45.0364 41.5471 45.0391 41.6075 45.0243 41.6648C45.0014 41.7589 44.9557 41.8459 44.8911 41.918C44.775 42.0465 44.6446 42.1613 44.5024 42.2601C43.9293 42.6577 43.3007 42.8198 42.7987 43.0841C42.5592 43.1973 42.3389 43.3472 42.1457 43.5284C41.968 43.6994 41.828 43.8949 41.6814 44.0615C41.5759 44.2084 41.4395 44.3305 41.2818 44.4192C41.1241 44.5078 40.9489 44.5609 40.7685 44.5746C40.5042 44.5746 40.3954 44.4435 40.4042 44.4413C40.52 44.481 40.6418 44.4998 40.7641 44.4968C40.9279 44.4697 41.0843 44.4089 41.2235 44.3183C41.3627 44.2277 41.4815 44.1093 41.5726 43.9704C41.7149 43.7763 41.8668 43.5895 42.0279 43.4107C42.2293 43.2111 42.4609 43.0447 42.7143 42.9176C43.2318 42.6377 43.8582 42.4733 44.3869 42.0957C44.5142 42.0052 44.6319 41.9018 44.7378 41.787C44.8355 41.6781 44.8689 41.5471 44.8 41.5093C44.7311 41.4716 44.5779 41.4893 44.4246 41.5204L43.9804 41.6026L42.47 41.8803C42.039 41.9558 41.6903 42.0135 41.4482 42.0491C41.323 42.0779 41.1941 42.0869 41.0662 42.0757Z" fill="#EB996E"/>
<path d="M44.86 40.9029C44.9482 40.6967 45.0836 40.5141 45.2553 40.3698C45.4476 40.2257 45.6814 40.1477 45.9217 40.1477C46.2237 40.1495 46.5236 40.199 46.8102 40.2943C47.103 40.3931 47.4052 40.4616 47.712 40.4987C47.9695 40.5282 48.2303 40.4884 48.4672 40.3832C48.5487 40.3456 48.6203 40.2894 48.6762 40.2192C48.7321 40.149 48.7708 40.0667 48.7893 39.9789C48.8061 39.9171 48.8061 39.8519 48.7893 39.7901C48.7759 39.7901 48.7759 39.8567 48.7426 39.9678C48.7182 40.0427 48.6777 40.1113 48.624 40.1688C48.5703 40.2264 48.5047 40.2715 48.4317 40.301C48.2055 40.385 47.9623 40.4125 47.7231 40.3809C47.4251 40.3341 47.1322 40.2597 46.8479 40.1588C46.5513 40.0612 46.2406 40.0132 45.9284 40.0167C45.6661 40.0228 45.4135 40.1166 45.2109 40.2832C45.0765 40.3951 44.9733 40.5396 44.911 40.703C44.8555 40.8341 44.8511 40.9007 44.86 40.9029Z" fill="#EB996E"/>
<path d="M44.8489 36.1296C44.7617 36.3283 44.6919 36.5341 44.6401 36.7448C44.509 37.1713 44.3535 37.6777 44.1803 38.2375C44.007 38.7972 43.836 39.2992 43.6983 39.7235C43.6179 39.9247 43.5562 40.1329 43.5139 40.3454C43.6243 40.1583 43.7151 39.9603 43.7849 39.7546C43.9315 39.3814 44.1181 38.8661 44.3047 38.2775C44.4912 37.6889 44.6356 37.1669 44.7289 36.7693C44.7913 36.5609 44.8315 36.3464 44.8489 36.1296V36.1296Z" fill="#EB996E"/>
<path d="M45.3353 41.8314C45.4031 41.8411 45.4719 41.8411 45.5397 41.8314C45.6249 41.8168 45.7123 41.8208 45.7958 41.843C45.8794 41.8653 45.9572 41.9052 46.0239 41.9602C46.0625 42.001 46.0899 42.051 46.1036 42.1055C46.1172 42.16 46.1165 42.217 46.1016 42.2712C46.0657 42.4076 46.0128 42.539 45.9439 42.6621C45.855 42.8166 45.8257 42.9984 45.8618 43.173C45.8921 43.2655 45.9436 43.3497 46.0123 43.4187C46.0809 43.4877 46.1648 43.5397 46.2571 43.5706C46.3482 43.5995 46.4443 43.6095 46.5394 43.5999C46.6345 43.5904 46.7267 43.5615 46.8102 43.5151C46.9657 43.4356 47.0935 43.3109 47.1767 43.1574C47.2969 42.9043 47.3792 42.6349 47.421 42.3578C47.4534 42.1719 47.4534 41.9818 47.421 41.7958C47.4141 41.726 47.3871 41.6597 47.3433 41.6048C47.3322 41.6048 47.3611 41.6759 47.3722 41.8025C47.3817 41.9837 47.366 42.1654 47.3255 42.3423C47.2728 42.6048 47.1862 42.8595 47.0679 43.0997C46.9955 43.2349 46.8805 43.3425 46.7407 43.4056C46.6009 43.4686 46.4441 43.4837 46.2949 43.4484C46.2217 43.4248 46.1551 43.3843 46.1003 43.3303C46.0455 43.2764 46.0042 43.2103 45.9795 43.1375C45.9505 42.9924 45.9749 42.8417 46.0483 42.7132C46.1174 42.5787 46.1696 42.4362 46.2038 42.289C46.2187 42.2184 46.2153 42.1453 46.1939 42.0765C46.1725 42.0077 46.1339 41.9455 46.0816 41.8958C46.0044 41.8347 45.9141 41.7924 45.8177 41.7724C45.7213 41.7523 45.6215 41.755 45.5263 41.7803C45.4603 41.7869 45.3958 41.8041 45.3353 41.8314V41.8314Z" fill="#EB996E"/>
<path d="M46.788 43.3862C46.788 43.3862 46.7458 43.444 46.7503 43.5684C46.7565 43.6556 46.7831 43.7402 46.8278 43.8154C46.8726 43.8906 46.9342 43.9543 47.0079 44.0015C47.1218 44.067 47.2508 44.1014 47.3822 44.1014C47.5136 44.1014 47.6426 44.067 47.7565 44.0015C48.0305 43.8435 48.2326 43.5856 48.3207 43.2818C48.4174 42.9845 48.4174 42.6641 48.3207 42.3667C48.2418 42.1263 48.0999 41.9115 47.9097 41.7448C47.7844 41.6326 47.6389 41.5452 47.481 41.4871C47.4249 41.4602 47.3634 41.4465 47.3011 41.4471C47.4991 41.543 47.6829 41.6655 47.8475 41.8114C48.0339 41.9932 48.1656 42.2236 48.2276 42.4764C48.2896 42.7293 48.2795 42.9944 48.1985 43.2418C48.1191 43.5148 47.9409 43.7484 47.6987 43.8971C47.6019 43.9539 47.4923 43.9853 47.38 43.9884C47.2678 43.9915 47.1566 43.9662 47.0568 43.9149C46.9906 43.8763 46.9334 43.824 46.889 43.7616C46.8446 43.6992 46.8139 43.628 46.7991 43.5528C46.7769 43.4551 46.7991 43.3862 46.788 43.3862Z" fill="#EB996E"/>
<path d="M43.9848 44.7811C43.8969 44.7217 43.7933 44.69 43.6872 44.6901C43.4162 44.6637 43.1441 44.7286 42.9142 44.8744L43.0097 44.9388C43.0397 44.7922 43.0605 44.6438 43.0719 44.4946C43.1497 43.6372 42.8764 42.9753 42.8498 42.9931C42.9352 43.485 42.9673 43.9847 42.9453 44.4835C42.9345 44.6258 42.916 44.7674 42.8898 44.9078L42.8631 45.0521L42.9853 44.9699C43.1934 44.8341 43.4364 44.7616 43.685 44.7612C43.8693 44.7656 43.9804 44.7967 43.9848 44.7811Z" fill="#EB996E"/>
<path d="M45.7373 39.5125C45.7017 39.5125 45.7506 39.779 45.9861 39.9833C46.2215 40.1877 46.4858 40.2055 46.4858 40.1677C46.4858 40.1299 46.2748 40.0655 46.0727 39.8856C45.8706 39.7057 45.7728 39.4991 45.7373 39.5125Z" fill="#EB996E"/>
<path d="M19.4561 71.5399L28.2631 71.6266L26.786 65.2362L27.2813 66.4423C27.7379 67.5559 28.5154 68.5085 29.5149 69.1789C30.5144 69.8493 31.6908 70.2073 32.8943 70.2072C35.6797 70.2072 37.6055 68.1348 38.7827 65.6116C41.537 59.7121 44.1913 50.212 44.1913 50.212L38.8227 45.4941C34.9356 52.8463 31.2839 59.23 31.2839 59.23C31.2839 59.23 30.2289 56.0249 29.4137 53.164C28.5985 50.303 28.6052 48.8015 27.3546 47.3755C25.4289 45.181 22.6901 44.6368 20.1402 43.9793L20.0447 55.8494L19.4561 71.5399Z" fill="#C8E6C9"/>
<path d="M9.37852 62.7107L25.4156 65.8204L26.1952 71.982H1.60654C0.933459 71.9902 0.266045 71.8581 -0.353097 71.594C-0.97224 71.3298 -1.52951 70.9395 -1.98933 70.4479C-2.44916 69.9563 -2.80144 69.3742 -3.02369 68.7389C-3.24593 68.1035 -3.33326 67.4287 -3.2801 66.7577C-2.92693 62.2664 -2.54266 56.7356 -2.24947 54.3967C-2.02735 52.5731 -1.29435 50.6873 -0.434745 49.0658C0.806906 46.7291 4.945 43.735 8.57223 43.5795L9.25858 58.8547" fill="#C8E6C9"/>
<g opacity="0.4">
<path d="M19.4561 71.5399L28.2632 71.6266L26.7861 65.2362L27.2814 66.4423C27.738 67.5559 28.5155 68.5085 29.515 69.1789C30.5145 69.8493 31.6908 70.2073 32.8944 70.2072C35.6798 70.2072 37.6056 68.1348 38.7828 65.6116C41.5371 59.7121 44.1914 50.212 44.1914 50.212L38.8228 45.4941C34.9357 52.8463 31.284 59.23 31.284 59.23C31.284 59.23 30.2289 56.0249 29.4138 53.164C28.5986 50.303 28.6052 48.8015 27.3547 47.3755C25.4289 45.181 22.6902 44.6368 20.1402 43.9793L20.0447 55.8494L19.4561 71.5399Z" fill="black"/>
<path d="M9.37852 62.7107L23.843 65.3628C24.1377 65.4174 24.4096 65.5581 24.6243 65.7673C24.839 65.9764 24.9869 66.2446 25.0491 66.5378L26.1952 71.9953H1.60654C0.933459 72.0036 0.266045 71.8714 -0.353097 71.6073C-0.97224 71.3432 -1.52951 70.9528 -1.98933 70.4612C-2.44916 69.9696 -2.80144 69.3876 -3.02369 68.7522C-3.24593 68.1168 -3.33326 67.4421 -3.2801 66.771C-2.92693 62.2798 -2.54266 56.749 -2.24947 54.4101C-2.02735 52.5864 -1.29435 50.7006 -0.434745 49.0792C0.806906 46.7425 4.945 43.7483 8.57223 43.5928L9.25858 58.868" fill="black"/>
</g>
<path d="M6.32434 62.2531C6.31861 62.2044 6.31861 62.1552 6.32434 62.1065C6.32434 61.9977 6.32434 61.8577 6.32434 61.6867C6.32434 61.3069 6.32434 60.7827 6.32434 60.1319C6.32434 58.828 6.29991 57.0222 6.19996 55.0386C6.14887 54.0435 6.08445 53.0973 6.0156 52.2399C5.98337 51.4789 5.87548 50.7229 5.69352 49.9832C5.56648 49.4895 5.32445 49.0328 4.98718 48.6505C4.85657 48.517 4.71864 48.391 4.57404 48.2729C4.74362 48.3601 4.8975 48.475 5.02938 48.6127C5.38898 48.9922 5.64785 49.4558 5.78237 49.961C5.97636 50.7066 6.09248 51.4703 6.12888 52.2399C6.2044 53.0995 6.27103 54.0458 6.32212 55.0409C6.4243 57.04 6.4354 58.8369 6.41319 60.1496C6.39986 60.8027 6.38209 61.3313 6.36655 61.7045L6.34211 62.1243C6.34126 62.1678 6.33529 62.211 6.32434 62.2531Z" fill="#263238"/>
<path d="M25.1046 66.2646C24.9354 66.0777 24.7384 65.9181 24.5204 65.7915C24.2612 65.6503 23.9861 65.5406 23.7008 65.465C23.3698 65.3695 22.9811 65.2962 22.5524 65.2095C20.8377 64.8586 18.4721 64.3721 15.8511 63.8768C13.2301 63.3815 10.8445 62.9883 9.11861 62.7129L7.07288 62.3864L6.51758 62.2931C6.45219 62.2851 6.38756 62.2717 6.32434 62.2531C6.38988 62.2534 6.45528 62.2594 6.5198 62.2709L7.07955 62.342C7.56377 62.4064 8.26567 62.5041 9.12972 62.6329C10.86 62.8906 13.2478 63.2726 15.8711 63.7635C18.4943 64.2544 20.8599 64.752 22.568 65.1207C22.9967 65.214 23.3854 65.2939 23.7186 65.3961C24.007 65.4777 24.2839 65.5956 24.5426 65.7471C24.7088 65.8409 24.8588 65.9609 24.9869 66.1024C25.021 66.1376 25.0522 66.1755 25.0802 66.2157C25.0957 66.2424 25.1068 66.2646 25.1046 66.2646Z" fill="#263238"/>
<path d="M6.37324 62.2531C6.37324 62.2731 6.07782 62.342 5.62025 62.5285C5.35312 62.6389 5.09343 62.7665 4.84283 62.9106C4.5398 63.0912 4.25095 63.2947 3.97878 63.5192C3.71411 63.7486 3.46756 63.9981 3.24134 64.2655C3.05521 64.486 2.88452 64.719 2.73047 64.963C2.46837 65.3828 2.34842 65.6671 2.32843 65.6582C2.34224 65.5866 2.36539 65.5172 2.39729 65.4516C2.47296 65.2691 2.56052 65.0918 2.65939 64.9208C2.80769 64.6673 2.97475 64.4252 3.15916 64.1967C3.61513 63.6373 4.17284 63.1693 4.80285 62.8173C5.05804 62.6733 5.32476 62.5507 5.60026 62.4508C5.78555 62.3817 5.97558 62.326 6.16889 62.2842C6.23521 62.2643 6.304 62.2539 6.37324 62.2531V62.2531Z" fill="#263238"/>
<path d="M27.0815 66.0914C27.0662 66.0413 27.0551 65.99 27.0482 65.9381C27.0304 65.827 27.006 65.6804 26.9771 65.4938C26.9149 65.1096 26.8327 64.5543 26.7395 63.8657C26.5529 62.4908 26.3263 60.585 26.1353 58.4749C25.9443 56.3647 25.831 54.45 25.7688 53.0618C25.7377 52.3688 25.7199 51.8068 25.711 51.4181C25.711 51.233 25.711 51.0849 25.711 50.9739C25.7062 50.9221 25.7062 50.8701 25.711 50.8184C25.723 50.8693 25.729 50.9215 25.7288 50.9739L25.7577 51.4181C25.7821 51.8179 25.8132 52.3754 25.8532 53.0573C25.9354 54.4434 26.0642 56.3558 26.253 58.4637C26.4418 60.5717 26.6573 62.4775 26.8239 63.8546C26.906 64.5343 26.9749 65.0874 27.0238 65.4872C27.0438 65.6715 27.0615 65.8181 27.0748 65.9314C27.0838 65.9842 27.0861 66.038 27.0815 66.0914V66.0914Z" fill="#263238"/>
<path d="M32.3991 63.7036C32.3991 63.7036 32.348 63.6547 32.2702 63.557C32.1626 63.4152 32.0639 63.2668 31.9748 63.1127C31.3788 62.0953 31.1039 60.9216 31.1863 59.7454C31.1975 59.5684 31.2212 59.3925 31.2574 59.2189C31.2653 59.1541 31.2817 59.0906 31.3062 59.0301C31.3262 59.0301 31.284 59.3056 31.2685 59.7498C31.2314 60.9093 31.4994 62.0583 32.0459 63.0816C32.2547 63.4659 32.4168 63.6902 32.3991 63.7036Z" fill="#263238"/>
<path d="M6.2599 53.9991C6.2599 53.9991 6.23102 54.0102 6.17771 54.0169C6.09756 54.0298 6.01672 54.0379 5.9356 54.0413C5.63766 54.0538 5.33929 54.03 5.04712 53.9702C4.61317 53.883 4.18956 53.7505 3.78326 53.5749C3.32347 53.3839 2.83481 53.1306 2.32393 52.8841C1.84569 52.6439 1.35052 52.439 0.842388 52.271C0.430048 52.1326 0.00148064 52.0482 -0.432579 52.02C-0.834648 52.0069 -1.23648 52.0526 -1.62537 52.1555C-1.6015 52.1396 -1.57525 52.1276 -1.54762 52.12C-1.47565 52.0885 -1.4014 52.0625 -1.3255 52.0422C-1.03598 51.9647 -0.736596 51.9303 -0.437022 51.9401C0.00645065 51.954 0.445916 52.0287 0.869045 52.1622C1.38374 52.3278 1.88436 52.5343 2.36613 52.7797C2.87923 53.0329 3.36345 53.2817 3.81658 53.4749C4.21548 53.6522 4.63054 53.7905 5.05601 53.8881C5.45203 53.969 5.85575 54.0063 6.2599 53.9991V53.9991Z" fill="#FAFAFA"/>
<path d="M9.01641 53.4594C8.58971 53.5893 8.1528 53.6829 7.71035 53.7392C7.27201 53.8347 6.82597 53.8905 6.37762 53.9058C6.80433 53.7759 7.24123 53.6823 7.68369 53.626C8.12201 53.5304 8.56806 53.4746 9.01641 53.4594V53.4594Z" fill="#FAFAFA"/>
<path d="M6.16 58.2261C6.05778 58.2837 5.94984 58.3306 5.83792 58.366C5.62691 58.4482 5.31816 58.5593 4.93389 58.6836C3.92904 59.0061 2.90345 59.2599 1.8642 59.4433C1.25559 59.5499 0.67141 59.6276 0.138322 59.681C-0.334491 59.742 -0.812305 59.7547 -1.28769 59.7187C-1.61016 59.6927 -1.92424 59.6028 -2.21171 59.4544C-2.28987 59.4138 -2.36421 59.3662 -2.43383 59.3122C-2.45947 59.2947 -2.48263 59.2738 -2.50269 59.2501C-2.50269 59.2501 -2.39607 59.3189 -2.19394 59.4144C-1.90604 59.5444 -1.59647 59.6197 -1.28103 59.6365C-0.811441 59.6609 -0.340607 59.64 0.124996 59.5743C0.655863 59.5144 1.2356 59.4344 1.84198 59.3278C2.87637 59.1444 3.89971 58.9034 4.90724 58.6059C5.29373 58.4904 5.6047 58.3838 5.82015 58.3238C5.93087 58.2829 6.04446 58.2502 6.16 58.2261Z" fill="#FAFAFA"/>
<path d="M8.94314 59.3966C8.54293 59.4602 8.13765 59.4862 7.73259 59.4744C7.32878 59.4999 6.92347 59.4872 6.52203 59.4366C6.92225 59.3731 7.32753 59.347 7.73259 59.3589C8.1364 59.3334 8.5417 59.3461 8.94314 59.3966V59.3966Z" fill="#FAFAFA"/>
<path d="M-2.48712 69.5164C-2.48455 69.4755 -2.47633 69.4351 -2.46269 69.3965C-2.44048 69.3076 -2.40938 69.1988 -2.37384 69.0633L-2.3072 68.8234C-2.27833 68.7368 -2.24057 68.6457 -2.20503 68.5458C-2.12516 68.3189 -2.03322 68.0965 -1.9296 67.8794L-1.74968 67.4996C-1.68527 67.3663 -1.60309 67.2375 -1.52756 67.0998C-1.36004 66.8085 -1.17766 66.526 -0.981148 66.2535C-0.0737116 64.9989 1.10944 63.9693 2.47726 63.2438C2.77473 63.0865 3.08019 62.9449 3.39239 62.8195C3.54121 62.764 3.67893 62.6996 3.81887 62.6551L4.2209 62.5285C4.45123 62.4551 4.68558 62.3951 4.9228 62.3486C5.0272 62.3264 5.12271 62.302 5.21156 62.2864L5.46034 62.2531L5.8024 62.2109C5.84216 62.205 5.88258 62.205 5.92235 62.2109C5.88446 62.2254 5.84491 62.2351 5.80462 62.2398L5.467 62.3042L5.22266 62.3464L4.93613 62.4175C4.73178 62.473 4.49189 62.5196 4.24534 62.6129L3.84996 62.7462C3.71225 62.7929 3.57454 62.8573 3.43016 62.915C3.12254 63.0427 2.82155 63.1857 2.52835 63.3437C1.86041 63.7132 1.23157 64.1493 0.651433 64.6453C0.0784156 65.151 -0.442469 65.7128 -0.903408 66.3223C-1.10332 66.6111 -1.301 66.8821 -1.45204 67.1553C-1.52979 67.2908 -1.61197 67.4174 -1.67416 67.5484L-1.86074 67.9216C-1.98735 68.1571 -2.0651 68.3836 -2.1495 68.588C-2.18726 68.6857 -2.22724 68.7768 -2.25834 68.8612L-2.33608 69.0966L-2.44492 69.4231C-2.45556 69.4557 -2.4697 69.487 -2.48712 69.5164Z" fill="#FAFAFA"/>
<path d="M8.65218 62.6929C8.28067 63.0156 7.97193 63.4042 7.74149 63.839C7.49922 64.3144 7.32714 64.8225 7.23062 65.3472C7.11574 65.9927 7.04155 66.6448 7.0085 67.2997C6.98083 67.9593 6.9066 68.6162 6.78638 69.2654C6.67757 69.7976 6.48965 70.3105 6.22885 70.787C6.05467 71.1063 5.8296 71.3952 5.56249 71.6421C5.48973 71.7096 5.41175 71.7713 5.32926 71.8265C5.27373 71.8642 5.24264 71.8842 5.24042 71.8798C5.61866 71.5642 5.9337 71.1798 6.16888 70.747C6.41498 70.2743 6.59154 69.7686 6.69308 69.2454C6.81133 68.6004 6.88554 67.9481 6.9152 67.293C6.94405 66.6327 7.01827 65.9751 7.13732 65.325C7.24075 64.7929 7.42345 64.2792 7.6793 63.8013C7.85387 63.4789 8.07883 63.1864 8.34566 62.935C8.41555 62.868 8.48975 62.8057 8.56778 62.7484C8.59344 62.7264 8.6218 62.7077 8.65218 62.6929Z" fill="#FAFAFA"/>
<path d="M12.4437 72.0197C12.4126 72.0197 12.4437 70.1051 12.5259 67.7461C12.6081 65.3872 12.6925 63.4748 12.7236 63.4748C12.7547 63.4748 12.7236 65.3894 12.6414 67.7506C12.5592 70.1117 12.4748 72.0219 12.4437 72.0197Z" fill="#FAFAFA"/>
<path d="M18.4721 71.691C18.4303 71.602 18.3975 71.5089 18.3744 71.4133C18.3383 71.3039 18.3079 71.1927 18.2833 71.0802C18.2544 70.9491 18.2144 70.8003 18.19 70.6359C18.1209 70.2441 18.0816 69.8476 18.0723 69.4498C18.0504 68.4723 18.2008 67.4987 18.5165 66.5733C18.6452 66.1964 18.8019 65.8297 18.9852 65.4761C19.0585 65.3228 19.1407 65.194 19.2073 65.0785C19.2637 64.9779 19.326 64.8808 19.3939 64.7875C19.4434 64.7027 19.5023 64.6238 19.5694 64.5521C19.5893 64.5632 19.3472 64.9074 19.0563 65.5138C18.8836 65.8676 18.7352 66.2328 18.612 66.6067C18.3078 67.5225 18.1576 68.4825 18.1678 69.4476C18.1728 69.8408 18.2032 70.2333 18.2588 70.6226C18.3699 71.2845 18.4943 71.6843 18.4721 71.691Z" fill="#FAFAFA"/>
<path d="M8.23461 47.1423C8.23461 47.1601 7.88366 47.0068 7.30615 46.8202C5.80193 46.3346 4.20778 46.1934 2.64163 46.4071C2.0419 46.4892 1.6754 46.5825 1.67096 46.5625C1.7506 46.5241 1.83501 46.4965 1.92196 46.4804C2.15435 46.4161 2.39017 46.3649 2.6283 46.3271C4.20634 46.0649 5.82512 46.2078 7.3328 46.7425C7.55934 46.8224 7.78174 46.9135 7.99916 47.0157C8.08256 47.048 8.16164 47.0905 8.23461 47.1423V47.1423Z" fill="#FAFAFA"/>
<path d="M25.7821 56.4913C25.5074 56.5056 25.2321 56.5012 24.958 56.478C24.4493 56.458 23.7474 56.4313 22.9722 56.4136C22.197 56.3958 21.4951 56.3847 20.9865 56.3803C20.7115 56.389 20.4362 56.3794 20.1624 56.3514C20.2352 56.3342 20.3097 56.3252 20.3845 56.3247C20.5267 56.3247 20.7333 56.3047 20.9887 56.2981C21.4974 56.2825 22.1993 56.2781 22.9767 56.2981C23.7541 56.3181 24.456 56.358 24.9758 56.4002C25.229 56.4202 25.4333 56.438 25.5755 56.4558C25.6454 56.4602 25.7147 56.4721 25.7821 56.4913V56.4913Z" fill="#FAFAFA"/>
<path d="M30.1667 55.6495C30.1667 55.6695 29.8891 55.765 29.4559 55.9782C28.3229 56.5356 27.363 57.391 26.6794 58.4526C26.4173 58.8591 26.2907 59.1301 26.2729 59.119C26.2853 59.0489 26.3093 58.9813 26.344 58.9191C26.4219 58.7425 26.5109 58.5712 26.6106 58.406C26.9364 57.8568 27.3455 57.3615 27.8233 56.9378C28.2999 56.5128 28.8384 56.163 29.4204 55.9005C29.596 55.8214 29.7762 55.7532 29.9601 55.6961C30.0267 55.6716 30.0961 55.656 30.1667 55.6495Z" fill="#FAFAFA"/>
<path d="M28.0033 48.5305C27.6209 48.5174 27.2391 48.5708 26.8749 48.6882C26.4818 48.8255 26.1007 48.9949 25.7354 49.1947C25.2845 49.4446 24.8134 49.6564 24.3272 49.8277C23.4284 50.1157 22.4724 50.1775 21.544 50.0076C21.265 49.957 20.9908 49.8827 20.7244 49.7855C20.6248 49.7543 20.5287 49.7126 20.4379 49.6611C20.4379 49.6389 20.8555 49.8144 21.5485 49.9277C22.4639 50.0706 23.4001 49.9984 24.2828 49.7166C24.7635 49.5466 25.2305 49.3401 25.6799 49.0992C26.0517 48.9018 26.4405 48.7383 26.8416 48.6105C27.1144 48.5239 27.3995 48.4826 27.6856 48.4883C27.7601 48.4905 27.8343 48.4979 27.9078 48.5105C27.9766 48.5194 28.0055 48.5261 28.0033 48.5305Z" fill="#FAFAFA"/>
<path d="M26.8949 63.417C26.8144 63.4682 26.7278 63.5092 26.6373 63.5392C26.5529 63.5747 26.4485 63.6169 26.3241 63.6569C26.1997 63.6969 26.0597 63.7502 25.902 63.7902C25.5301 63.8938 25.1517 63.9725 24.7692 64.0256C24.3009 64.0863 23.8286 64.1108 23.3565 64.0989C22.8846 64.0814 22.4146 64.0287 21.9505 63.9412C21.5739 63.8651 21.2028 63.7635 20.8399 63.6369C20.6822 63.5881 20.5467 63.5281 20.4268 63.4792C20.3068 63.4303 20.2047 63.3837 20.1203 63.3437C20.0319 63.307 19.9477 63.2608 19.8693 63.206C19.8693 63.186 20.2446 63.3637 20.8666 63.5592C21.2308 63.6738 21.6017 63.7657 21.9772 63.8346C22.8959 64.0047 23.8352 64.0332 24.7626 63.919C25.1411 63.8725 25.5165 63.8027 25.8865 63.7102C26.5129 63.5503 26.8883 63.397 26.8949 63.417Z" fill="#FAFAFA"/>
<path d="M31.9992 69.9918C31.9675 69.9717 31.9384 69.9479 31.9126 69.9207C31.8615 69.8696 31.7771 69.8007 31.6905 69.6986C31.4223 69.4117 31.1869 69.0958 30.9886 68.7568C30.3476 67.6209 30.0066 66.3405 29.9979 65.0363C29.9994 63.7412 30.1689 62.4517 30.5021 61.2003C30.6221 60.7205 30.7243 60.334 30.8064 60.0697C30.8442 59.9475 30.8753 59.8475 30.8997 59.7654C30.9242 59.6832 30.9353 59.6587 30.9397 59.661C30.9393 59.6979 30.9333 59.7346 30.9219 59.7698C30.9042 59.8542 30.8797 59.9564 30.8509 60.0808C30.7842 60.3673 30.6932 60.7471 30.5821 61.2203C30.2755 62.4676 30.1196 63.7473 30.1179 65.0318C30.125 66.3151 30.4461 67.5772 31.053 68.7079C31.2433 69.0467 31.4665 69.3658 31.7194 69.6608C31.8948 69.8741 32.0059 69.9829 31.9992 69.9918Z" fill="#FAFAFA"/>
<path d="M40.0821 62.4486C39.7273 62.1671 39.3309 61.9423 38.9071 61.7822C38.4436 61.6219 37.9683 61.4979 37.4856 61.4113C36.8859 61.3102 36.2926 61.1744 35.7086 61.0048C34.6541 60.6619 33.6916 60.083 32.8943 59.3122C32.6539 59.0797 32.4311 58.8295 32.228 58.5637C32.1547 58.4704 32.1058 58.3927 32.0703 58.3416C32.0347 58.2905 32.0192 58.2616 32.0236 58.2594C32.1095 58.3459 32.1896 58.4379 32.2635 58.5348C32.4767 58.7885 32.7059 59.0281 32.9499 59.2523C33.7506 59.9953 34.7033 60.5554 35.7419 60.8937C36.3199 61.0623 36.9064 61.2003 37.4989 61.3069C37.9857 61.4003 38.4641 61.5332 38.9293 61.7045C39.2436 61.8232 39.5385 61.9879 39.8045 62.1931C39.8772 62.2477 39.9455 62.3079 40.0088 62.3731C40.0644 62.4219 40.0866 62.4464 40.0821 62.4486Z" fill="#FAFAFA"/>
<path d="M42.6232 55.0364C42.5376 54.9753 42.458 54.9061 42.3855 54.8298C42.3122 54.761 42.2234 54.6766 42.1123 54.5833C42.0013 54.49 41.8902 54.379 41.7392 54.2723C41.4111 54.0077 41.0669 53.7636 40.7085 53.5416C39.8297 52.998 38.8743 52.5892 37.8743 52.3288C37.4656 52.2236 37.0509 52.1428 36.6326 52.0867C36.4549 52.0578 36.2928 52.0467 36.1506 52.0334C36.0085 52.02 35.8841 52.0089 35.7841 52.0045C35.6791 52.004 35.5743 51.9944 35.4709 51.9756C35.5745 51.9596 35.6795 51.9544 35.7841 51.9601C35.9077 51.9539 36.0315 51.9539 36.1551 51.9601C36.2972 51.9601 36.4638 51.9712 36.6437 51.9956C37.0665 52.0418 37.4858 52.116 37.8987 52.2177C38.4047 52.3474 38.9006 52.5137 39.3825 52.7153C39.8604 52.9236 40.3222 53.1671 40.7641 53.4438C41.1234 53.6731 41.467 53.9261 41.7925 54.2013C41.9346 54.3145 42.0501 54.4234 42.1568 54.53C42.2479 54.6128 42.3346 54.7003 42.4166 54.7921C42.4941 54.8659 42.5633 54.9478 42.6232 55.0364V55.0364Z" fill="#FAFAFA"/>
<path d="M23.1877 44.8411C23.0573 44.9281 22.9152 44.9962 22.7657 45.0432C22.4153 45.1807 22.0552 45.292 21.6884 45.3764C21.323 45.4625 20.9518 45.5219 20.5778 45.5541C20.4232 45.5776 20.2659 45.5776 20.1113 45.5541C20.1113 45.5186 20.8154 45.4608 21.6662 45.2587C22.5169 45.0566 23.1744 44.8078 23.1877 44.8411Z" fill="#FAFAFA"/>
<path d="M31.0664 76.1245C31.0952 76.2236 31.0988 76.3284 31.0768 76.4292C31.0547 76.53 31.0077 76.6237 30.9401 76.7017C30.8725 76.7797 30.7864 76.8395 30.6897 76.8756C30.5931 76.9118 30.4889 76.9231 30.3867 76.9086V76.9086C30.2682 76.8918 30.1572 76.8408 30.0673 76.7619C29.9773 76.683 29.9123 76.5796 29.8802 76.4644L29.6914 75.7669H29.7203C29.7396 75.8676 29.7346 75.9715 29.7058 76.0699C29.677 76.1683 29.6252 76.2584 29.5546 76.3329C29.4841 76.4073 29.3969 76.4639 29.3002 76.4979C29.2035 76.532 29.1 76.5426 28.9984 76.5288V76.5288C28.7074 76.5288 28.4565 76.1045 28.3721 75.8802C28.1524 75.9015 27.9311 75.8622 27.7322 75.7667C27.5333 75.6712 27.3643 75.523 27.2437 75.3382L25.9398 73.3036L23.5254 71.5377L24.9869 66.3201L30.1823 69.683C30.3867 69.843 30.4178 69.9051 30.7421 70.2095L34.0961 73.2947C33.7163 73.5168 33.3942 73.5057 32.8655 73.2947C32.3369 73.0837 30.0224 71.5177 30.0224 71.5177L31.0664 76.1045" fill="#FFBE9D"/>
<path d="M26.6217 71.8332C26.6217 71.8332 26.6817 71.8598 26.775 71.9242L26.9482 72.0442C27.0305 72.0958 27.1053 72.1586 27.1703 72.2307C27.2473 72.3191 27.3075 72.4207 27.348 72.5306C27.388 72.6483 27.4302 72.7683 27.4746 72.8949L27.759 73.7301C27.9566 74.3253 28.1299 74.8629 28.2498 75.256C28.3257 75.4645 28.3829 75.6793 28.4209 75.898C28.32 75.6998 28.2368 75.4932 28.1721 75.2805C28.0322 74.894 27.8456 74.3609 27.6479 73.7678C27.5524 73.4724 27.4591 73.1903 27.3725 72.9304C27.3325 72.8016 27.2947 72.6794 27.257 72.5639C27.2237 72.4621 27.1734 72.3667 27.1081 72.2818C27.0519 72.2125 26.9878 72.1498 26.9171 72.0953L26.7572 71.9598C26.6617 71.8842 26.6173 71.8398 26.6217 71.8332Z" fill="#EB996E"/>
<path d="M29.7469 75.8868C29.7138 75.8159 29.6892 75.7414 29.6736 75.6647L29.507 75.0694C29.3649 74.5674 29.1761 73.8722 28.9339 73.1148C28.6918 72.3574 28.4386 71.6821 28.1343 71.2645C28.0208 71.0977 27.8769 70.9538 27.7101 70.8403C27.5879 70.7648 27.5102 70.7425 27.5124 70.7292C27.5329 70.7287 27.5533 70.7325 27.5724 70.7403C27.6277 70.7545 27.6813 70.7746 27.7323 70.8003C27.9167 70.9032 28.0766 71.0449 28.2009 71.2157C28.5319 71.6377 28.7985 72.3263 29.0428 73.0792C29.2871 73.8322 29.4648 74.5408 29.5848 75.0494C29.6447 75.3027 29.6892 75.5092 29.718 75.6536C29.7394 75.7295 29.7491 75.8081 29.7469 75.8868V75.8868Z" fill="#EB996E"/>
<path d="M31.0885 76.2022C31.0484 76.1287 31.0178 76.0503 30.9975 75.969C30.9419 75.7913 30.8731 75.5759 30.7909 75.3204C30.6221 74.7718 30.3977 74.0121 30.1556 73.1725C29.9135 72.3329 29.7114 71.5955 29.5448 71.018C29.4874 70.8039 29.3628 70.6139 29.1894 70.476C29.1191 70.4307 29.0447 70.392 28.9673 70.3605C28.9892 70.3552 29.012 70.3552 29.0339 70.3605C29.0962 70.3745 29.1556 70.3993 29.2094 70.4338C29.4034 70.5671 29.5466 70.762 29.6159 70.9869C29.798 71.5355 30.0135 72.2952 30.26 73.1348C30.5066 73.9744 30.7154 74.7407 30.8642 75.2938C30.9308 75.5514 30.9886 75.7713 31.033 75.9601C31.0599 76.0387 31.0785 76.1198 31.0885 76.2022V76.2022Z" fill="#EB996E"/>
<path d="M62.6518 28.0355C62.6518 28.1893 62.6974 28.3396 62.7828 28.4674C62.8682 28.5953 62.9897 28.6949 63.1317 28.7538C63.2738 28.8126 63.4301 28.828 63.5809 28.798C63.7317 28.768 63.8702 28.6939 63.9789 28.5852C64.0877 28.4765 64.1617 28.338 64.1917 28.1872C64.2217 28.0364 64.2063 27.8801 64.1475 27.738C64.0886 27.5959 63.989 27.4745 63.8611 27.3891C63.7333 27.3037 63.583 27.2581 63.4292 27.2581C63.223 27.2581 63.0253 27.34 62.8795 27.4858C62.7337 27.6316 62.6518 27.8293 62.6518 28.0355V28.0355Z" fill="#F2F2F2"/>
<path d="M60.3173 28.8129C60.7466 28.8129 61.0947 28.4649 61.0947 28.0355C61.0947 27.6062 60.7466 27.2581 60.3173 27.2581C59.8879 27.2581 59.5399 27.6062 59.5399 28.0355C59.5399 28.4649 59.8879 28.8129 60.3173 28.8129Z" fill="#F2F2F2"/>
<path d="M56.4369 27.6468C56.36 27.7799 56.3242 27.9329 56.3342 28.0864C56.3442 28.2398 56.3995 28.3869 56.4931 28.5089C56.5867 28.6309 56.7143 28.7224 56.8599 28.7719C57.0055 28.8214 57.1626 28.8265 57.3111 28.7868C57.4596 28.747 57.593 28.664 57.6944 28.5484C57.7959 28.4328 57.8607 28.2897 57.8808 28.1373C57.9008 27.9848 57.8753 27.8298 57.8072 27.6919C57.7392 27.554 57.6318 27.4394 57.4986 27.3625C57.4103 27.3112 57.3127 27.2778 57.2115 27.2643C57.1102 27.2509 57.0073 27.2575 56.9087 27.2839C56.81 27.3104 56.7175 27.356 56.6366 27.4183C56.5556 27.4806 56.4877 27.5582 56.4369 27.6468V27.6468Z" fill="#F2F2F2"/>
<path d="M60.2684 18.953C60.2167 18.9491 60.1647 18.9491 60.1129 18.953L59.6509 18.9663C59.5487 18.9663 59.4288 18.9663 59.3089 18.9819L58.9024 19.0396L58.427 19.1085L57.8939 19.2395C56.9808 19.4663 56.1111 19.8414 55.3196 20.3501C54.1489 21.0955 53.1641 22.0986 52.4404 23.2828C51.7167 24.4669 51.2732 25.8008 51.1437 27.1826C51.1088 27.597 51.1006 28.0132 51.1193 28.4287C51.1348 28.6374 51.1304 28.8529 51.1615 29.0639C51.1926 29.2749 51.2259 29.4904 51.257 29.7058C51.4197 30.5886 51.7116 31.4426 52.1233 32.2402C52.5617 33.076 53.1191 33.8436 53.7781 34.5192C54.4802 35.2096 55.2849 35.7873 56.1636 36.2317C57.0729 36.697 58.0572 36.9978 59.0712 37.1202C59.3279 37.1585 59.5869 37.18 59.8464 37.1846C60.1073 37.2043 60.369 37.2095 60.6305 37.2002C61.1578 37.1784 61.6824 37.1123 62.1986 37.0025C63.313 36.761 64.3728 36.3144 65.3239 35.6853L65.2306 35.6964L68.4136 36.9736L68.6024 37.0491L68.549 36.8537L67.6117 33.4508L67.5962 33.533C68.4602 32.3888 69.0423 31.0571 69.2954 29.6459C69.4172 28.987 69.459 28.3157 69.4198 27.6468C69.4122 27.3259 69.3818 27.006 69.3287 26.6895C69.305 26.5325 69.2806 26.377 69.2554 26.223C69.2287 26.0697 69.1821 25.9209 69.1443 25.7788C68.6111 23.6861 67.3515 21.8511 65.5904 20.6011C64.9405 20.1359 64.2297 19.7622 63.478 19.4905L63.0005 19.3195L62.5562 19.204L62.1431 19.1018C62.0098 19.0774 61.881 19.0641 61.7611 19.0441C61.5212 19.0152 61.3168 18.973 61.1236 18.9641L60.6571 18.9486H60.3706C60.3381 18.9462 60.3054 18.9462 60.2729 18.9486C60.3044 18.9586 60.3375 18.9631 60.3706 18.9619L60.6549 18.9863L61.1191 19.0174C61.3035 19.0308 61.5123 19.0774 61.7522 19.1129C63.48 19.4131 65.0836 20.2085 66.3682 21.4024C67.6528 22.5963 68.5632 24.1374 68.9888 25.8387C69.0222 25.9853 69.0688 26.1319 69.0955 26.283C69.1221 26.434 69.1399 26.5851 69.1643 26.7405C69.2151 27.0513 69.2434 27.3653 69.2487 27.6801C69.2837 28.3337 69.2404 28.9892 69.1199 29.6325C68.862 31.0128 68.2846 32.3136 67.434 33.4308L67.4051 33.4686L67.4185 33.5152C67.7146 34.614 68.0241 35.749 68.3469 36.9203L68.4824 36.8004L65.2994 35.5187L65.2506 35.4987L65.2039 35.5276C63.8388 36.4321 62.2513 36.9438 60.6149 37.0069C60.3594 37.0159 60.1036 37.0114 59.8486 36.9936C59.595 36.989 59.3419 36.9675 59.0912 36.9292C58.0997 36.8092 57.1373 36.5152 56.248 36.0607C55.3883 35.6257 54.6003 35.0617 53.9113 34.3881C53.2652 33.7299 52.7176 32.9818 52.2854 32.1669C51.8843 31.384 51.6 30.5467 51.4414 29.6814C51.408 29.4593 51.3747 29.2616 51.3436 29.0528C51.3125 28.844 51.317 28.6352 51.3014 28.4287C51.2806 28.0215 51.2865 27.6134 51.3192 27.207C51.4402 25.8469 51.8693 24.5323 52.574 23.3627C53.2786 22.1931 54.2404 21.1994 55.3862 20.4568C56.164 19.9423 57.0199 19.5567 57.9206 19.3151L58.4448 19.1751L58.9157 19.0974L59.32 19.0308C59.4443 19.0174 59.5576 19.013 59.6576 19.0063L60.1174 18.973C60.1683 18.9717 60.2189 18.965 60.2684 18.953V18.953Z" fill="#F2F2F2"/>
</g>
</svg>
