<svg width="100" height="100" viewBox="0 0 100 100" fill="none" xmlns="http://www.w3.org/2000/svg">
<mask id="mask0_4_1317" style="mask-type:alpha" maskUnits="userSpaceOnUse" x="0" y="0" width="100" height="100">
<circle cx="50" cy="50" r="50" fill="#D9D9D9"/>
</mask>
<g mask="url(#mask0_4_1317)">
<circle cx="50" cy="50" r="50" fill="#D3EBD3"/>
<path d="M14.5861 72.523C14.441 74.7432 13.6407 76.8704 12.2866 78.6356C10.9324 80.4009 9.08511 81.7249 6.97838 82.4402C4.87165 83.1555 2.60011 83.23 0.451062 82.6542C-1.69799 82.0784 -3.62802 80.8782 -5.09491 79.2054C-6.5618 77.5327 -7.49966 75.4624 -7.78987 73.2566C-8.08009 71.0508 -7.70962 68.8084 -6.72531 66.8131C-5.74101 64.8178 -4.1871 63.1593 -2.26011 62.0472C-0.333119 60.9352 1.88038 60.4196 4.10044 60.5656C5.57413 60.6621 7.01437 61.0479 8.33893 61.7011C9.66348 62.3543 10.8464 63.262 11.8201 64.3724C12.7938 65.4827 13.5393 66.7741 14.0139 68.1726C14.4885 69.5711 14.6829 71.0494 14.5861 72.523V72.523Z" fill="#70C4BC"/>
<g opacity="0.1">
<path d="M4.10046 60.5656C1.12601 60.3731 -1.8032 61.3694 -4.04339 63.3356C-6.28359 65.3018 -7.65146 68.077 -7.84637 71.0513C-7.84637 71.0513 0.0170091 71.9195 2.12403 68.8702C4.23105 65.8208 4.10046 60.5656 4.10046 60.5656Z" fill="white"/>
</g>
<path d="M11.7274 72.1595C11.6163 73.8464 11.0074 75.4625 9.97784 76.8034C8.94827 78.1444 7.5442 79.1499 5.94318 79.6928C4.34216 80.2358 2.61609 80.2918 0.983227 79.8538C-0.649635 79.4159 -2.11596 78.5035 -3.23033 77.2322C-4.34471 75.9609 -5.05708 74.3877 -5.27739 72.7115C-5.49769 71.0354 -5.21602 69.3315 -4.468 67.8154C-3.71999 66.2993 -2.53921 65.0391 -1.07498 64.194C0.389253 63.349 2.07118 62.9571 3.75813 63.0679C4.87856 63.1411 5.97358 63.4343 6.98061 63.9309C7.98764 64.4275 8.88691 65.1177 9.62703 65.962C10.3672 66.8064 10.9336 67.7883 11.294 68.8517C11.6544 69.9151 11.8017 71.0392 11.7274 72.1595V72.1595Z" fill="#70C4BC"/>
<g opacity="0.2">
<path d="M11.7274 72.1595C11.6163 73.8464 11.0074 75.4625 9.97784 76.8034C8.94827 78.1444 7.5442 79.1499 5.94318 79.6928C4.34216 80.2358 2.61609 80.2918 0.983227 79.8538C-0.649635 79.4159 -2.11596 78.5035 -3.23033 77.2322C-4.34471 75.9609 -5.05708 74.3877 -5.27739 72.7115C-5.49769 71.0354 -5.21602 69.3315 -4.468 67.8154C-3.71999 66.2993 -2.53921 65.0391 -1.07498 64.194C0.389253 63.349 2.07118 62.9571 3.75813 63.0679C4.87856 63.1411 5.97358 63.4343 6.98061 63.9309C7.98764 64.4275 8.88691 65.1177 9.62703 65.962C10.3672 66.8064 10.9336 67.7883 11.294 68.8517C11.6544 69.9151 11.8017 71.0392 11.7274 72.1595V72.1595Z" fill="black"/>
</g>
<path d="M11.9462 72.5301C11.8365 74.1947 11.2357 75.7895 10.2196 77.1127C9.20363 78.4359 7.81808 79.4281 6.23818 79.9638C4.65828 80.4995 2.95499 80.5548 1.3437 80.1225C-0.267589 79.6903 -1.71452 78.7899 -2.81413 77.5353C-3.91374 76.2808 -4.61663 74.7283 -4.83395 73.0742C-5.05126 71.4202 -4.77322 69.7388 -4.03499 68.2428C-3.29677 66.7468 -2.1315 65.5032 -0.686549 64.6694C0.758404 63.8356 2.41815 63.449 4.08282 63.5585C5.18825 63.6312 6.26853 63.9209 7.26197 64.4111C8.25542 64.9014 9.14257 65.5825 9.87277 66.4156C10.603 67.2487 11.1619 68.2175 11.5177 69.2666C11.8734 70.3157 12.019 71.4247 11.9462 72.5301V72.5301Z" fill="#70C4BC"/>
<g opacity="0.2">
<path d="M11.9462 72.5301C11.8365 74.1947 11.2357 75.7895 10.2196 77.1127C9.20363 78.4359 7.81808 79.4281 6.23818 79.9638C4.65828 80.4995 2.95499 80.5548 1.3437 80.1225C-0.267589 79.6903 -1.71452 78.7899 -2.81413 77.5353C-3.91374 76.2808 -4.61663 74.7283 -4.83395 73.0742C-5.05126 71.4202 -4.77322 69.7388 -4.03499 68.2428C-3.29677 66.7468 -2.1315 65.5032 -0.686549 64.6694C0.758404 63.8356 2.41815 63.449 4.08282 63.5585C5.18825 63.6312 6.26853 63.9209 7.26197 64.4111C8.25542 64.9014 9.14257 65.5825 9.87277 66.4156C10.603 67.2487 11.1619 68.2175 11.5177 69.2666C11.8734 70.3157 12.019 71.4247 11.9462 72.5301V72.5301Z" fill="white"/>
</g>
<path d="M3.91339 71.2701L4.05456 69.1172C4.44433 69.1888 4.82212 69.3147 5.17689 69.4913C5.35979 69.5986 5.5323 69.7227 5.69218 69.8619L5.72394 69.7984L6.10864 69.0431L6.19687 68.8702L5.84393 68.4431L5.65335 68.5137C5.18557 68.2278 4.66435 68.0405 4.12162 67.9631L4.19926 66.7773L3.84633 66.4561V66.7526L3.3381 66.7208L3.26046 67.9243C1.58402 67.9773 0.733444 68.8737 0.662857 69.9607C0.564035 71.4466 1.8099 71.9125 2.97458 72.2795L2.8334 74.3971C2.06468 74.2835 1.34391 73.9543 0.75462 73.4477L0.204041 74.5065C0.929427 75.1092 1.82021 75.4784 2.75929 75.5653L2.69929 76.4583L2.28283 76.4371L2.68164 76.7477L3.55692 76.8077L3.63457 75.6112C5.32159 75.5512 6.18275 74.6654 6.25334 73.5748C6.3451 72.0925 5.07807 71.6337 3.91339 71.2701ZM3.05223 70.9878C2.44518 70.7654 1.99342 70.5007 2.03577 69.989C2.07812 69.4772 2.40988 69.1561 3.17575 69.089L3.05223 70.9878ZM3.70162 74.4501L3.82868 72.5583C4.4569 72.7842 4.90866 73.0595 4.88748 73.5819C4.85925 74.0407 4.50631 74.383 3.70162 74.4501V74.4501Z" fill="#70C4BC"/>
<g opacity="0.3">
<path d="M3.91339 71.2701L4.05456 69.1172C4.44433 69.1888 4.82212 69.3147 5.17689 69.4913C5.35979 69.5986 5.5323 69.7227 5.69218 69.8619L5.72394 69.7984L6.10864 69.0431L6.19687 68.8702L5.84393 68.4431L5.65335 68.5137C5.18557 68.2278 4.66435 68.0405 4.12162 67.9631L4.19926 66.7773L3.84633 66.4561V66.7526L3.3381 66.7208L3.26046 67.9243C1.58402 67.9773 0.733444 68.8737 0.662857 69.9607C0.564035 71.4466 1.8099 71.9125 2.97458 72.2795L2.8334 74.3971C2.06468 74.2835 1.34391 73.9543 0.75462 73.4477L0.204041 74.5065C0.929427 75.1092 1.82021 75.4784 2.75929 75.5653L2.69929 76.4583L2.28283 76.4371L2.68164 76.7477L3.55692 76.8077L3.63457 75.6112C5.32159 75.5512 6.18275 74.6654 6.25334 73.5748C6.3451 72.0925 5.07807 71.6337 3.91339 71.2701ZM3.05223 70.9878C2.44518 70.7654 1.99342 70.5007 2.03577 69.989C2.07812 69.4772 2.40988 69.1561 3.17575 69.089L3.05223 70.9878ZM3.70162 74.4501L3.82868 72.5583C4.4569 72.7842 4.90866 73.0595 4.88748 73.5819C4.85925 74.0407 4.50631 74.383 3.70162 74.4501V74.4501Z" fill="black"/>
</g>
<path d="M3.28513 75.2936L3.20395 76.49L2.3322 76.4336L2.40985 75.2477C1.46986 75.1601 0.57812 74.7911 -0.148926 74.1889L0.401654 73.1301C0.992457 73.637 1.71412 73.9673 2.48397 74.083L2.62514 71.9478C1.46046 71.5948 0.214599 71.1148 0.31342 69.6325C0.384007 68.5419 1.23458 67.6455 2.91102 67.5925L2.98866 66.389L3.86394 66.4455L3.7863 67.6314C4.54705 67.7142 5.27501 67.9859 5.90391 68.4219L5.39568 69.4807C4.88786 69.1296 4.31188 68.8891 3.70512 68.7749L3.56395 70.9313C4.72863 71.2842 5.99567 71.7536 5.89685 73.2395C5.83332 74.3477 4.97215 75.2371 3.28513 75.2936ZM2.70985 70.6701L2.83337 68.7713C2.0675 68.8384 1.72516 69.2019 1.69339 69.6713C1.66163 70.1407 2.1028 70.4478 2.70985 70.6701ZM4.53099 73.2642C4.56628 72.7419 4.11453 72.4666 3.47219 72.2442L3.34513 74.1324C4.15335 74.0654 4.50629 73.723 4.53099 73.2642Z" fill="#70C4BC"/>
<path d="M0.976977 70.5854C0.878018 70.52 0.797749 70.43 0.744039 70.3243C0.593093 70.0778 0.52723 69.7885 0.556558 69.501C0.585887 69.2134 0.708788 68.9435 0.906391 68.7325C0.980072 68.6396 1.07596 68.5668 1.18521 68.5208C1.18521 68.5208 1.08286 68.6055 0.948741 68.7713C0.775504 68.9813 0.668583 69.238 0.641561 69.5089C0.614539 69.7797 0.668636 70.0525 0.796979 70.2925C0.89933 70.4796 0.994623 70.5748 0.976977 70.5854Z" fill="white"/>
<path d="M3.09459 67.4443C3.06251 67.3294 3.05648 67.2089 3.07694 67.0914C3.07246 66.9705 3.09414 66.8501 3.14047 66.7384C3.16518 66.7384 3.17224 66.8973 3.16165 67.0914C3.16746 67.2127 3.14448 67.3336 3.09459 67.4443V67.4443Z" fill="white"/>
<path d="M4.54161 62.8844C4.54161 62.8844 4.44279 62.8844 4.26985 62.8562C4.18161 62.8562 4.07573 62.8279 3.94868 62.8173C3.82162 62.8068 3.68398 62.7891 3.52516 62.7856C3.36634 62.782 3.19692 62.7856 3.00987 62.7856C2.82281 62.7856 2.6287 62.7856 2.42047 62.8068C1.97065 62.8405 1.52371 62.9054 1.08285 63.0009C0.643207 63.1039 0.211519 63.2384 -0.208893 63.4032C-0.403007 63.4809 -0.586534 63.555 -0.752413 63.6362C-0.918292 63.7173 -1.07358 63.795 -1.21123 63.8726C-1.34887 63.9503 -1.4724 64.0208 -1.56416 64.0844C-1.65776 64.1359 -1.74848 64.1924 -1.83592 64.2538C-1.91062 64.3085 -1.98971 64.3568 -2.07239 64.3985C-2.00436 64.3374 -1.93244 64.2808 -1.8571 64.2291C-1.77239 64.1613 -1.68273 64.0999 -1.58887 64.0456C-1.47537 63.964 -1.35756 63.8886 -1.23593 63.8197C-1.09829 63.742 -0.946527 63.6538 -0.777118 63.5762C-0.60771 63.4985 -0.424183 63.4138 -0.233599 63.3291C0.189497 63.1598 0.624864 63.0229 1.06873 62.9197C1.5141 62.8235 1.96587 62.7598 2.42047 62.7291C2.6287 62.7291 2.82988 62.7079 3.0134 62.7291C3.19693 62.7503 3.36634 62.7291 3.53222 62.7538C3.6981 62.7785 3.83574 62.7856 3.95926 62.7997C4.08279 62.8138 4.1922 62.8315 4.27691 62.8491C4.36608 62.8522 4.45474 62.864 4.54161 62.8844Z" fill="white"/>
<path d="M4.02985 82.5182C3.96479 82.5405 3.89723 82.5547 3.82868 82.5605C3.69457 82.5817 3.50398 82.6029 3.26398 82.6205C2.64108 82.6576 2.01598 82.6245 1.40049 82.5217C0.784889 82.4165 0.183344 82.2413 -0.392416 81.9993C-0.611235 81.904 -0.787704 81.8193 -0.904173 81.7558C-0.96739 81.7263 -1.02766 81.6908 -1.08417 81.6499C-1.01672 81.6683 -0.95159 81.6944 -0.890055 81.7276C-0.770057 81.784 -0.59006 81.8582 -0.371241 81.9429C0.205891 82.1673 0.804209 82.3328 1.41461 82.437C2.02428 82.5392 2.6426 82.5806 3.26046 82.5605C3.49692 82.5605 3.69104 82.5393 3.82162 82.5287C3.89071 82.5205 3.96028 82.5169 4.02985 82.5182Z" fill="white"/>
<path d="M110.447 65.0373H106.374V55.7375H66.7252V65.0373H63.1464C61.0452 65.0373 58.9645 65.4512 57.0232 66.2555C55.082 67.0597 53.3181 68.2384 51.8325 69.7244C50.3469 71.2104 49.1685 72.9745 48.3647 74.9159C47.5609 76.8573 47.1474 78.9381 47.1479 81.0394V156.567C47.1479 160.81 48.8334 164.88 51.8338 167.88C54.8341 170.88 58.9033 172.566 63.1464 172.566H110.44C114.683 172.566 118.752 170.88 121.752 167.88C124.753 164.88 126.438 160.81 126.438 156.567V81.0394C126.439 76.7969 124.755 72.7278 121.756 69.7269C118.757 66.726 114.689 65.0392 110.447 65.0373V65.0373Z" fill="#FAFAFA"/>
<path d="M110.447 65.0373L111.385 65.0761C111.773 65.0811 112.16 65.1153 112.543 65.1785L113.281 65.2879L113.694 65.3514L114.121 65.4608L115.056 65.6973C115.388 65.7855 115.716 65.9302 116.069 66.0502L116.612 66.2479C116.796 66.3185 116.965 66.4173 117.16 66.502L117.724 66.7737C117.924 66.8609 118.118 66.9623 118.303 67.0773C120.099 68.0766 121.682 69.4183 122.962 71.0266C124.565 73.044 125.67 75.4118 126.184 77.9371C126.431 79.3845 126.535 80.8527 126.495 82.3205C126.495 83.8417 126.495 85.4263 126.495 87.0639C126.495 93.6215 126.495 101.086 126.495 109.338C126.495 117.589 126.495 126.631 126.495 136.33C126.495 141.179 126.495 146.192 126.495 151.369V155.272C126.495 155.929 126.495 156.585 126.463 157.249L126.41 158.244L126.262 159.232C125.821 161.917 124.699 164.444 123.004 166.573C122.795 166.845 122.571 167.106 122.334 167.353C122.097 167.6 121.885 167.875 121.628 168.101C121.132 168.584 120.604 169.032 120.047 169.442L119.63 169.757C119.494 169.863 119.35 169.96 119.199 170.046L118.307 170.589L118.081 170.727L117.844 170.84L117.371 171.069C117.061 171.231 116.741 171.375 116.415 171.5L115.423 171.853C115.26 171.919 115.091 171.971 114.918 172.008L114.407 172.142C113.722 172.322 113.027 172.454 112.324 172.538L112.06 172.576H111.791L111.258 172.605C110.906 172.605 110.553 172.651 110.2 172.647H63.2382C61.6681 172.638 60.1067 172.415 58.5971 171.984C57.0835 171.531 55.643 170.863 54.3195 170C54.0054 169.817 53.7301 169.577 53.4372 169.365C53.1399 169.158 52.858 168.931 52.5937 168.684L51.7995 167.978L51.069 167.18C50.9525 167.046 50.8254 166.915 50.716 166.778L50.3949 166.344C50.1831 166.051 49.9537 165.772 49.7561 165.472C49.3623 164.871 49.0086 164.245 48.6973 163.598L48.4643 163.114C48.3806 162.956 48.3098 162.79 48.2526 162.62L47.882 161.611L47.7902 161.36L47.7232 161.099L47.5926 160.58C47.4914 160.238 47.4112 159.891 47.3526 159.539L47.1902 158.48L47.1514 158.216V157.951L47.1267 157.418C47.0773 156.712 47.0808 156.006 47.0843 155.3V138.642C47.0843 127.701 47.0843 117.113 47.0843 106.973C47.0843 101.9 47.0843 96.9461 47.0843 92.1109C47.0843 89.6968 47.0843 87.3134 47.0843 84.9605V81.4558C47.0843 80.877 47.1302 80.2947 47.1514 79.7194C47.1647 79.4304 47.1977 79.1427 47.2502 78.8582L47.3808 78.0076C47.7984 75.7759 48.6956 73.6613 50.0102 71.8101C51.2773 70.0182 52.8945 68.5018 54.7642 67.3526C56.5691 66.2442 58.5761 65.5053 60.6688 65.1785L61.4347 65.062C61.6923 65.0338 61.9499 65.0338 62.2076 65.0161C62.7193 64.9914 63.2311 64.9561 63.7358 64.9667H66.7428L66.6757 65.0338C66.6757 61.7515 66.6757 58.6809 66.6757 55.7339V55.6669H66.7393L106.388 55.6986H106.423V55.7339C106.423 59.708 106.423 62.8244 106.423 65.0338H106.406H109.455C110.136 65.0338 110.478 65.0338 110.478 65.0338H109.455H106.406H106.384V65.0126C106.384 62.8032 106.384 59.6868 106.384 55.7128L106.42 55.7445L66.771 55.7763L66.8381 55.7128C66.8381 58.6668 66.8381 61.7303 66.8381 65.0126V65.0832H66.7675C64.7875 65.1149 62.7476 64.9808 60.7147 65.2949C58.6256 65.6209 56.6229 66.3612 54.8242 67.4725C52.9738 68.6128 51.3735 70.1159 50.1196 71.8913C48.8176 73.7242 47.93 75.8185 47.5185 78.0288L47.3879 78.8723C47.335 79.1531 47.3032 79.4374 47.2926 79.7229C47.2714 80.2982 47.2149 80.8664 47.2255 81.4488C47.2255 82.6099 47.2255 83.7746 47.2255 84.9534V92.1039C47.2255 96.9391 47.2255 101.893 47.2255 106.966C47.2255 117.106 47.2255 127.694 47.2255 138.635C47.2255 144.105 47.2255 149.658 47.2255 155.293C47.2255 155.999 47.2255 156.705 47.2679 157.411L47.2926 157.937V158.201L47.3314 158.463L47.4902 159.521C47.5481 159.868 47.6271 160.211 47.7267 160.548L47.8573 161.064L47.9243 161.318L48.0161 161.568L48.369 162.564C48.4253 162.731 48.495 162.894 48.5773 163.051L48.8102 163.531C49.1214 164.171 49.4751 164.79 49.869 165.384C50.0596 165.684 50.289 165.959 50.4972 166.245L50.8184 166.675C50.9313 166.813 51.0549 166.94 51.1713 167.074L51.8772 167.865L52.6713 168.571C52.9337 168.814 53.212 169.039 53.5042 169.245C53.7972 169.453 54.0689 169.689 54.376 169.873C55.6876 170.724 57.1136 171.383 58.6112 171.832C60.1037 172.258 61.6473 172.478 63.1993 172.488H110.221C110.574 172.488 110.927 172.46 111.28 172.446L111.805 172.421H112.07L112.331 172.382C113.027 172.3 113.715 172.169 114.392 171.991L114.901 171.86C115.071 171.823 115.237 171.773 115.398 171.708L116.38 171.355C116.703 171.234 117.019 171.092 117.325 170.932L117.795 170.706L118.028 170.593L118.25 170.459L119.132 169.922C119.282 169.837 119.425 169.741 119.559 169.633L119.972 169.322C120.523 168.916 121.047 168.474 121.539 167.999C121.797 167.777 122.005 167.501 122.245 167.258C122.481 167.013 122.702 166.754 122.909 166.485C124.586 164.379 125.696 161.878 126.131 159.221L126.283 158.244L126.332 157.259C126.382 156.606 126.364 155.946 126.368 155.29V151.369C126.368 146.192 126.368 141.179 126.368 136.33C126.368 126.628 126.368 117.589 126.368 109.338C126.368 101.086 126.368 93.6215 126.368 87.0639C126.368 85.4263 126.368 83.8417 126.368 82.3205C126.412 80.8589 126.311 79.3965 126.068 77.9547C125.567 75.4421 124.478 73.0838 122.891 71.0725C121.626 69.4666 120.059 68.1237 118.278 67.1196C118.093 67.0035 117.9 66.9009 117.699 66.8126L117.138 66.5408C116.951 66.4526 116.785 66.3573 116.595 66.2867L116.055 66.0855C115.702 65.9655 115.374 65.8173 115.045 65.7326L114.114 65.4891L113.687 65.3796L113.277 65.3126L112.54 65.1961C112.158 65.133 111.772 65.0965 111.385 65.0867C110.764 65.062 110.447 65.0373 110.447 65.0373Z" fill="#263238"/>
<path d="M111.188 168.68H63.6652C60.3541 168.68 57.1786 167.365 54.837 165.024C52.4953 162.683 51.1793 159.508 51.1784 156.197V82.2429C51.1793 78.6459 52.6086 75.1966 55.152 72.6532C57.6954 70.1098 61.1448 68.6805 64.7417 68.6796H110.884C114.057 68.6796 117.099 69.9397 119.342 72.1829C121.585 74.426 122.845 77.4683 122.845 80.6405V157.023C122.847 158.554 122.546 160.07 121.961 161.485C121.375 162.9 120.517 164.186 119.434 165.269C118.351 166.352 117.066 167.21 115.651 167.796C114.236 168.381 112.719 168.681 111.188 168.68V168.68Z" fill="#E0E0E0"/>
<path d="M78.3607 99.0471C81.5441 94.4067 79.611 87.5485 74.0431 83.7289C68.4752 79.9094 61.381 80.5749 58.1977 85.2153C55.0144 89.8557 56.9474 96.7139 62.5153 100.533C68.0832 104.353 75.1774 103.688 78.3607 99.0471Z" fill="#70C4BC"/>
<g opacity="0.2">
<path d="M78.3607 99.0471C81.5441 94.4067 79.611 87.5485 74.0431 83.7289C68.4752 79.9094 61.381 80.5749 58.1977 85.2153C55.0144 89.8557 56.9474 96.7139 62.5153 100.533C68.0832 104.353 75.1774 103.688 78.3607 99.0471Z" fill="black"/>
</g>
<path d="M79.5024 98.3666C82.71 93.7522 80.8219 86.8915 75.2852 83.0428C69.7486 79.1942 62.6599 79.815 59.4523 84.4294C56.2447 89.0438 58.1328 95.9045 63.6695 99.7532C69.2062 103.602 76.2948 102.981 79.5024 98.3666Z" fill="#70C4BC"/>
<g opacity="0.1">
<path d="M57.8206 87.8404C57.9435 86.3227 58.4592 84.8632 59.3171 83.6052C62.4935 78.9641 69.5945 78.3112 75.1638 82.1193C77.3127 83.5719 79.0111 85.598 80.0661 87.9675C77.7508 89.8668 75.0585 91.2526 72.1674 92.0333C69.298 92.8027 66.404 92.7603 63.697 91.4368C61.837 90.5156 59.3665 89.4815 57.8206 87.8404Z" fill="white"/>
</g>
<path d="M64.9605 96.5826C69.2381 99.519 74.6556 99.0531 77.0591 95.5591C79.4626 92.065 77.9379 86.8381 73.6604 83.9122C69.3828 80.9864 63.9652 81.4417 61.5618 84.9393C59.1583 88.4369 60.6794 93.6497 64.9605 96.5826Z" fill="#70C4BC"/>
<g opacity="0.2">
<path d="M64.9605 96.5826C69.2381 99.519 74.6556 99.0531 77.0591 95.5591C79.4626 92.065 77.9379 86.8381 73.6604 83.9122C69.3828 80.9864 63.9652 81.4417 61.5618 84.9393C59.1583 88.4369 60.6794 93.6497 64.9605 96.5826Z" fill="black"/>
</g>
<path d="M64.9358 97.0202C69.111 99.8861 74.3838 99.459 76.7097 96.0638C79.0355 92.6685 77.5391 87.5933 73.3638 84.7346C69.1886 81.8758 63.9158 82.2993 61.5864 85.691C59.257 89.0827 60.7605 94.1544 64.9358 97.0202Z" fill="#70C4BC"/>
<g opacity="0.2">
<path d="M64.9358 97.0202C69.111 99.8861 74.3838 99.459 76.7097 96.0638C79.0355 92.6685 77.5391 87.5933 73.3638 84.7346C69.1886 81.8758 63.9158 82.2993 61.5864 85.691C59.257 89.0827 60.7605 94.1544 64.9358 97.0202Z" fill="white"/>
</g>
<path d="M68.7757 93.7874C69.2726 94.1628 69.897 94.3284 70.5147 94.2485C71.1323 94.1687 71.6941 93.8498 72.0792 93.3603L73.1909 94.1226L73.6356 93.4732L73.5827 92.9862L73.3674 93.2897L72.5345 92.718C72.9931 91.971 73.1708 91.0852 73.0356 90.2192L71.7898 89.8839C71.9152 90.5998 71.7998 91.337 71.4615 91.9803L69.4745 90.618C69.8063 89.5592 70.0922 88.3733 68.7122 87.4239C68.2194 87.0458 67.5973 86.877 66.981 86.9543C66.3646 87.0316 65.8035 87.3487 65.4193 87.8369L64.297 87.0675L64.0393 87.4416L63.764 87.251L63.8523 87.7133L64.9534 88.4722C64.7202 88.9162 64.599 89.4106 64.6005 89.9121L64.4276 89.9968L64.6076 90.5404L64.8123 90.5968L65.7052 90.8439L65.7828 90.8651C65.7479 90.6635 65.7325 90.459 65.7369 90.2545C65.7826 89.8947 65.885 89.5445 66.0405 89.2168L68.0451 90.5898C67.7028 91.645 67.3922 92.838 68.7757 93.7874ZM66.5028 88.5816C66.6751 88.3709 66.9219 88.2346 67.1921 88.2011C67.4622 88.1676 67.7348 88.2394 67.9534 88.4016C68.4298 88.7298 68.4157 89.2204 68.271 89.7921L66.5028 88.5816ZM69.5557 92.838C69.0686 92.485 69.0757 91.998 69.2345 91.4086L70.9992 92.6156C70.5051 93.1168 69.9863 93.1309 69.5592 92.838H69.5557Z" fill="#70C4BC"/>
<g opacity="0.3">
<path d="M68.7757 93.7874C69.2726 94.1628 69.897 94.3284 70.5147 94.2485C71.1323 94.1687 71.6941 93.8498 72.0792 93.3603L73.1909 94.1226L73.6356 93.4732L73.5827 92.9862L73.3674 93.2897L72.5345 92.718C72.9931 91.971 73.1708 91.0852 73.0356 90.2192L71.7898 89.8839C71.9152 90.5998 71.7998 91.337 71.4615 91.9803L69.4745 90.618C69.8063 89.5592 70.0922 88.3733 68.7122 87.4239C68.2194 87.0458 67.5973 86.877 66.981 86.9543C66.3646 87.0316 65.8035 87.3487 65.4193 87.8369L64.297 87.0675L64.0393 87.4416L63.764 87.251L63.8523 87.7133L64.9534 88.4722C64.7202 88.9162 64.599 89.4106 64.6005 89.9121L64.4276 89.9968L64.6076 90.5404L64.8123 90.5968L65.7052 90.8439L65.7828 90.8651C65.7479 90.6635 65.7325 90.459 65.7369 90.2545C65.7826 89.8947 65.885 89.5445 66.0405 89.2168L68.0451 90.5898C67.7028 91.645 67.3922 92.838 68.7757 93.7874ZM66.5028 88.5816C66.6751 88.3709 66.9219 88.2346 67.1921 88.2011C67.4622 88.1676 67.7348 88.2394 67.9534 88.4016C68.4298 88.7298 68.4157 89.2204 68.271 89.7921L66.5028 88.5816ZM69.5557 92.838C69.0686 92.485 69.0757 91.998 69.2345 91.4086L70.9992 92.6156C70.5051 93.1168 69.9863 93.1309 69.5592 92.838H69.5557Z" fill="black"/>
</g>
<path d="M68.6875 93.3321C67.3075 92.3862 67.6287 91.1897 67.9463 90.1309L65.9381 88.751C65.6868 89.263 65.5656 89.8291 65.5852 90.3992L64.3605 90.0462C64.3178 89.3393 64.4887 88.6359 64.8511 88.0275L63.7499 87.2722L64.1946 86.6228L65.317 87.3922C65.7017 86.9048 66.2627 86.5883 66.8788 86.511C67.4949 86.4338 68.1167 86.6019 68.6099 86.9792C69.9898 87.9286 69.704 89.0968 69.3687 90.1557L71.3592 91.5215C71.6957 90.8764 71.811 90.1386 71.6874 89.4215L72.9333 89.7568C73.069 90.6233 72.89 91.5097 72.4286 92.2556L73.5333 93.0109L73.0886 93.6603L71.9769 92.8979C71.5931 93.3845 71.0347 93.7021 70.4203 93.7831C69.806 93.8642 69.1843 93.7024 68.6875 93.3321V93.3321ZM67.8652 87.9427C67.647 87.7802 67.3746 87.7078 67.1046 87.7406C66.8345 87.7735 66.5874 87.9091 66.4146 88.1192L68.1793 89.3333C68.3275 88.7651 68.3416 88.2745 67.8652 87.9427ZM70.9075 92.178L69.1428 90.9709C68.984 91.5603 68.9769 92.065 69.464 92.4003C69.8981 92.6756 70.4028 92.6615 70.9075 92.178Z" fill="#70C4BC"/>
<path d="M60.4006 89.4498C60.4182 89.4498 60.4465 89.7533 60.5488 90.2933C60.6966 91.0549 60.9335 91.7965 61.2547 92.5027C61.7322 93.5501 62.3732 94.5151 63.1535 95.3614C63.6143 95.8597 64.1199 96.3146 64.664 96.7202C65.2548 97.1508 65.8874 97.5209 66.5522 97.8249C67.8277 98.4263 69.2017 98.791 70.6074 98.9014C71.7552 98.9892 72.9062 98.7802 73.9497 98.2943C74.6463 97.9549 75.2828 97.5043 75.8344 96.9602C76.0285 96.7626 76.1662 96.6073 76.265 96.4944C76.3132 96.4369 76.3664 96.3838 76.4238 96.3355C76.385 96.3997 76.3401 96.46 76.2897 96.5155C76.1979 96.6249 76.0673 96.7979 75.8803 97.0026C75.2095 97.7213 74.3848 98.279 73.4681 98.6341C72.5513 98.9892 71.5662 99.1324 70.5863 99.0531C69.1609 98.9496 67.7669 98.5834 66.4746 97.9732C65.8027 97.6636 65.1641 97.2864 64.5687 96.8473C64.0196 96.432 63.5093 95.9678 63.0441 95.4603C62.2578 94.5981 61.6177 93.6134 61.1488 92.545C60.8308 91.8281 60.6043 91.0739 60.4747 90.3004C60.4381 90.0913 60.4134 89.8804 60.4006 89.6686C60.3915 89.5959 60.3915 89.5224 60.4006 89.4498V89.4498Z" fill="#263238"/>
<path d="M64.1699 99.2367C64.2176 99.2525 64.2628 99.2751 64.304 99.3037L64.657 99.5155C64.8442 99.6356 65.0387 99.744 65.2393 99.8402C65.4723 99.9531 65.7264 100.101 66.0334 100.221L66.5028 100.419C66.6687 100.49 66.8558 100.539 67.0287 100.603C67.4126 100.741 67.8038 100.859 68.2004 100.955C70.0258 101.389 71.9235 101.422 73.7627 101.051C74.1628 100.971 74.5586 100.871 74.9485 100.751C75.1321 100.691 75.3015 100.645 75.478 100.585L75.9544 100.401C76.2296 100.297 76.4994 100.18 76.7626 100.048C76.965 99.959 77.1618 99.8577 77.352 99.7449L77.7226 99.5472C77.7658 99.5206 77.812 99.4993 77.8603 99.4837C77.8603 99.4837 77.8214 99.519 77.7403 99.572L77.3873 99.8014C77.2023 99.9261 77.0076 100.036 76.805 100.13C76.545 100.271 76.2775 100.398 76.0038 100.511L75.5238 100.705C75.3544 100.772 75.1709 100.821 74.9909 100.881C74.5991 101.009 74.2009 101.116 73.798 101.203C71.9323 101.595 70.0024 101.562 68.151 101.107C67.731 100.991 67.3287 100.888 66.9687 100.754C66.7887 100.684 66.6158 100.631 66.4428 100.557L65.9699 100.345C65.7 100.225 65.4372 100.089 65.1829 99.939C64.984 99.8354 64.7929 99.7174 64.6111 99.5861L64.2582 99.3461C64.2249 99.3129 64.1953 99.2762 64.1699 99.2367V99.2367Z" fill="#263238"/>
<path d="M76.1908 83.0546C76.1696 83.0793 75.7708 82.744 75.0791 82.2817C73.264 81.0705 71.2005 80.2818 69.0404 79.9735C68.211 79.857 67.6922 79.8394 67.6957 79.8111C67.8129 79.7968 67.9314 79.7968 68.0486 79.8111C68.3813 79.8149 68.7135 79.8361 69.0439 79.8747C71.2372 80.1229 73.3318 80.9231 75.132 82.2005C75.485 82.4475 75.7426 82.6593 75.9155 82.8146C76.0146 82.8858 76.1068 82.9662 76.1908 83.0546V83.0546Z" fill="white"/>
<path d="M78.6226 86.1004C78.1359 85.5926 77.7322 85.0114 77.4261 84.3781C77.688 84.6127 77.9119 84.8866 78.0897 85.1899C78.313 85.4643 78.4927 85.7714 78.6226 86.1004Z" fill="white"/>
<path d="M61.0888 87.6427C61.1048 87.5366 61.1357 87.4332 61.1806 87.3357C61.2176 87.2143 61.2649 87.0962 61.3217 86.9828C61.3851 86.8294 61.4594 86.6808 61.5441 86.5381C61.7539 86.1605 62.0023 85.8056 62.2852 85.4793C62.6333 85.0771 63.0238 84.7139 63.4499 84.3957C63.8822 84.0846 64.3459 83.8196 64.8334 83.6052C65.2321 83.4348 65.6472 83.3059 66.0722 83.2205C66.2352 83.1839 66.4002 83.1568 66.5663 83.1393C66.6902 83.1208 66.8152 83.1113 66.9405 83.1111C67.0458 83.0966 67.1527 83.0966 67.2581 83.1111C67.2581 83.1428 66.8063 83.1534 66.0969 83.3264C65.6839 83.4265 65.281 83.5648 64.8934 83.7393C64.4198 83.9548 63.9682 84.2161 63.5452 84.5193C63.1298 84.8346 62.7457 85.1892 62.3982 85.5781C62.1155 85.8953 61.8627 86.2379 61.6429 86.6016C61.2688 87.2369 61.1206 87.6533 61.0888 87.6427Z" fill="white"/>
<path d="M68.264 87.3675C68.0673 87.1712 67.8233 87.0291 67.5555 86.9549C67.2878 86.8807 67.0054 86.8769 66.7358 86.9439C66.7358 86.9439 66.8028 86.8557 66.9617 86.8028C67.17 86.7401 67.3921 86.7401 67.6005 86.8028C67.8095 86.8593 67.9981 86.9744 68.144 87.1345C68.2499 87.2581 68.2816 87.3569 68.264 87.3675Z" fill="white"/>
<path d="M72.5697 90.2545C72.5274 90.2368 72.5133 90.1521 72.4462 90.078C72.3792 90.0039 72.298 89.9792 72.2874 89.9333C72.2768 89.8874 72.3121 89.8839 72.3686 89.8804C72.4063 89.8798 72.4437 89.8878 72.4779 89.9036C72.5121 89.9195 72.5423 89.9429 72.5662 89.9721C72.5921 89.999 72.6116 90.0313 72.6232 90.0668C72.6348 90.1022 72.6383 90.1399 72.6333 90.1768C72.6227 90.2368 72.5874 90.2615 72.5697 90.2545Z" fill="white"/>
<path d="M113.063 86.0673C114.687 80.4236 112.192 74.7508 107.488 73.3968C102.785 72.0427 97.6548 75.5203 96.0301 81.164C94.4053 86.8077 96.9011 92.4806 101.605 93.8346C106.308 95.1886 111.438 91.7111 113.063 86.0673Z" fill="#70C4BC"/>
<g opacity="0.2">
<path d="M113.063 86.0674C114.687 80.4236 112.192 74.7508 107.488 73.3968C102.785 72.0428 97.6548 75.5203 96.0301 81.164C94.4053 86.8078 96.9011 92.4806 101.605 93.8346C106.308 95.1886 111.438 91.7111 113.063 86.0674Z" fill="black"/>
</g>
<path d="M114.691 86.5193C116.315 80.8753 113.818 75.2029 109.114 73.8497C104.411 72.4965 99.2813 75.9749 97.6576 81.6189C96.0339 87.263 98.5307 92.9353 103.234 94.2885C107.938 95.6417 113.067 92.1633 114.691 86.5193Z" fill="#70C4BC"/>
<path d="M99.9575 82.084C98.7081 86.4216 100.575 90.7662 104.126 91.7862C107.676 92.8062 111.566 90.1203 112.815 85.7863C114.064 81.4523 112.197 77.1041 108.647 76.0806C105.096 75.0571 101.21 77.7429 99.9575 82.084Z" fill="#70C4BC"/>
<g opacity="0.2">
<path d="M99.9575 82.084C98.7081 86.4216 100.575 90.7662 104.126 91.7862C107.676 92.8062 111.566 90.1203 112.815 85.7863C114.064 81.4523 112.197 77.1041 108.647 76.0806C105.096 75.0571 101.21 77.7429 99.9575 82.084Z" fill="black"/>
</g>
<path d="M99.594 82.1829C98.3729 86.4181 100.173 90.6533 103.614 91.638C107.055 92.6227 110.824 90.0004 112.046 85.7651C113.267 81.5299 111.463 77.2947 108.026 76.31C104.588 75.3253 100.812 77.9476 99.594 82.1829Z" fill="#70C4BC"/>
<g opacity="0.2">
<path d="M99.594 82.1829C98.3729 86.4181 100.173 90.6533 103.614 91.638C107.055 92.6227 110.824 90.0004 112.046 85.7651C113.267 81.5299 111.463 77.2947 108.026 76.31C104.588 75.3253 100.812 77.9476 99.594 82.1829Z" fill="white"/>
</g>
<path d="M104.904 111.476C106.105 107.281 102.344 102.524 96.5031 100.851C90.6623 99.1783 84.9533 101.224 83.7518 105.419C82.5503 109.615 86.3113 114.372 92.1522 116.045C97.9931 117.717 103.702 115.672 104.904 111.476Z" fill="#70C4BC"/>
<g opacity="0.2">
<path d="M104.904 111.476C106.105 107.281 102.344 102.524 96.5031 100.851C90.6623 99.1783 84.9533 101.224 83.7518 105.419C82.5503 109.615 86.3113 114.372 92.1522 116.045C97.9931 117.717 103.702 115.672 104.904 111.476Z" fill="black"/>
</g>
<path d="M105.421 109.653C106.623 105.457 102.862 100.7 97.021 99.0277C91.1801 97.355 85.4711 99.4003 84.2696 103.596C83.0681 107.792 86.8291 112.549 92.67 114.221C98.5109 115.894 104.22 113.849 105.421 109.653Z" fill="#70C4BC"/>
<path d="M93.4458 112.295C88.9565 111.011 86.0518 107.4 86.9589 104.234C87.8659 101.068 92.2529 99.5402 96.7316 100.828C101.21 102.117 104.126 105.724 103.219 108.889C102.312 112.055 97.9316 113.576 93.4458 112.295Z" fill="#70C4BC"/>
<g opacity="0.2">
<path d="M93.4458 112.295C88.9565 111.011 86.0518 107.4 86.9589 104.234C87.8659 101.068 92.2529 99.5402 96.7316 100.828C101.21 102.117 104.126 105.724 103.219 108.889C102.312 112.055 97.9316 113.576 93.4458 112.295Z" fill="black"/>
</g>
<path d="M95.3658 98.8343C95.4921 98.8374 95.6177 98.8552 95.7399 98.8873C96.0806 98.9483 96.4176 99.0284 96.7493 99.1272C97.8475 99.4451 98.9051 99.8893 99.901 100.451C100.897 101.013 101.824 101.69 102.661 102.47C102.915 102.703 103.158 102.949 103.388 103.207C103.48 103.296 103.56 103.396 103.628 103.504C103.607 103.525 103.24 103.13 102.569 102.554C100.862 101.056 98.8641 99.9262 96.6999 99.2367C95.8881 98.972 95.3587 98.8625 95.3658 98.8343Z" fill="white"/>
<path d="M91.2894 98.8484C91.6701 98.7357 92.0642 98.6752 92.4612 98.6684C92.854 98.6113 93.2526 98.6053 93.647 98.6508C92.874 98.8246 92.0806 98.8911 91.2894 98.8484V98.8484Z" fill="white"/>
<path d="M103.819 56.168H69.4851V68.7855H103.819V56.168Z" fill="#E0E0E0"/>
<path d="M108.294 52.6528H64.2264C63.0335 52.6528 62.0664 53.6199 62.0664 54.8128V54.9504C62.0664 56.1433 63.0335 57.1104 64.2264 57.1104H108.294C109.487 57.1104 110.454 56.1433 110.454 54.9504V54.8128C110.454 53.6199 109.487 52.6528 108.294 52.6528Z" fill="#FAFAFA"/>
<path d="M108.294 57.1069C108.639 57.0944 108.976 57.0052 109.282 56.8457C109.651 56.651 109.955 56.3529 110.157 55.9881C110.418 55.4814 110.492 54.899 110.366 54.3434C110.286 53.9996 110.123 53.681 109.889 53.4165C109.655 53.1521 109.359 52.9503 109.028 52.8293C108.642 52.7075 108.235 52.6632 107.831 52.6987H106.504H100.279L64.2264 52.7269C63.8046 52.7277 63.393 52.8572 63.0468 53.0981C62.7005 53.339 62.4361 53.6799 62.2888 54.0752C62.1513 54.4706 62.1185 54.895 62.1935 55.3069C62.2686 55.7133 62.4638 56.0878 62.7538 56.3822C63.0438 56.6766 63.4153 56.8774 63.8205 56.9586C64.2354 57.0032 64.653 57.0173 65.0699 57.001H77.1544L93.3611 57.0222L104.302 57.0504L107.274 57.068H108.047H108.308H108.047H107.274L104.302 57.0857L93.3611 57.1139L77.1544 57.1316H67.5828H64.4346C64.2173 57.1401 63.9996 57.1259 63.7852 57.0892C63.3452 56.9995 62.9414 56.7822 62.6241 56.4645C62.3075 56.1427 62.0948 55.7333 62.0135 55.2892C61.9765 55.0689 61.9659 54.845 61.9817 54.6222C61.9892 54.3951 62.0345 54.1708 62.1158 53.9587C62.2776 53.5279 62.5671 53.1568 62.9455 52.8951C63.3239 52.6333 63.7733 52.4934 64.2334 52.494L100.286 52.5187H106.511H107.839C108.252 52.4855 108.669 52.5346 109.063 52.6634C109.407 52.7904 109.713 53.0018 109.953 53.2781C110.194 53.5544 110.361 53.8867 110.44 54.2446C110.567 54.8151 110.486 55.4125 110.21 55.9281C110 56.2996 109.686 56.6015 109.307 56.7963C109.075 56.9133 108.824 56.9874 108.566 57.0151C108.477 57.0526 108.387 57.0833 108.294 57.1069V57.1069Z" fill="#263238"/>
<path d="M51.2419 88.0169C51.2257 87.951 51.2174 87.8835 51.2172 87.8157C51.2172 87.6604 51.1961 87.4628 51.1784 87.2334C51.1537 86.7287 51.1219 85.9981 51.1149 85.0946C51.0504 82.7312 51.331 80.3711 51.9478 78.0888C52.3214 76.8346 52.8653 75.6376 53.5643 74.5312C54.1358 73.6305 54.8334 72.8164 55.636 72.1136C56.1718 71.6395 56.7646 71.2341 57.4006 70.9066C57.623 70.7831 57.8101 70.7195 57.9301 70.6631C57.9898 70.6305 58.054 70.6067 58.1206 70.5925C58.1206 70.5925 57.8736 70.7231 57.4324 70.9701C56.8157 71.32 56.2393 71.7366 55.7136 72.2125C54.9346 72.9189 54.2576 73.7302 53.7019 74.623C53.018 75.7156 52.4849 76.8957 52.1172 78.1312C51.5066 80.3975 51.2109 82.737 51.2384 85.084C51.2384 85.9875 51.2384 86.7181 51.2384 87.2228V87.8016C51.2497 87.8728 51.2509 87.9453 51.2419 88.0169V88.0169Z" fill="#263238"/>
<g opacity="0.3">
<path d="M123.138 79.1194C123.138 79.1194 51.5349 125.001 51.5349 125.537V145.824L123.138 98.2837V79.1194Z" fill="white"/>
</g>
<path d="M92.5847 27.3086C92.6716 29.8884 91.992 32.4362 90.6316 34.6299C89.2713 36.8237 87.2913 38.5652 84.9418 39.6342C82.5923 40.7033 79.9786 41.052 77.431 40.6364C74.8834 40.2208 72.516 39.0595 70.6281 37.2992C68.7401 35.5388 67.4163 33.2584 66.8237 30.7461C66.2311 28.2337 66.3964 25.6021 67.2987 23.1836C68.201 20.7651 69.7998 18.6683 71.8932 17.158C73.9866 15.6478 76.4806 14.7918 79.0602 14.6982C80.7768 14.636 82.4888 14.913 84.0982 15.5134C85.7075 16.1139 87.1826 17.0259 88.4389 18.1973C89.6952 19.3687 90.7081 20.7765 91.4195 22.3399C92.1309 23.9034 92.5268 25.5918 92.5847 27.3086V27.3086Z" fill="#70C4BC"/>
<g opacity="0.1">
<path d="M79.0602 14.6982C75.5946 14.8197 72.3191 16.3127 69.9543 18.849C67.5894 21.3853 66.3289 24.7571 66.4499 28.2227C66.4499 28.2227 75.6473 28.3109 77.7261 24.538C79.8049 20.7652 79.0602 14.6982 79.0602 14.6982Z" fill="white"/>
</g>
<path d="M89.2388 27.2168C89.3076 29.182 88.7918 31.1234 87.7568 32.7954C86.7218 34.4673 85.2141 35.7947 83.4245 36.6095C81.6348 37.4243 79.6437 37.6899 77.7031 37.3727C75.7625 37.0555 73.9595 36.1698 72.5224 34.8276C71.0854 33.4854 70.0787 31.7471 69.6299 29.8326C69.1811 27.9181 69.3103 25.9135 70.0012 24.0725C70.692 22.2315 71.9135 20.6367 73.511 19.4901C75.1085 18.3435 77.0102 17.6966 78.9755 17.6311C81.607 17.5435 84.1658 18.5037 86.0901 20.3009C88.0143 22.0981 89.1468 24.5854 89.2388 27.2168Z" fill="#70C4BC"/>
<g opacity="0.2">
<path d="M89.2388 27.2168C89.3076 29.182 88.7918 31.1234 87.7568 32.7954C86.7218 34.4673 85.2141 35.7947 83.4245 36.6095C81.6348 37.4243 79.6437 37.6899 77.7031 37.3727C75.7625 37.0555 73.9595 36.1698 72.5224 34.8276C71.0854 33.4854 70.0787 31.7471 69.6299 29.8326C69.1811 27.9181 69.3103 25.9135 70.0012 24.0725C70.692 22.2315 71.9135 20.6367 73.511 19.4901C75.1085 18.3435 77.0102 17.6966 78.9755 17.6311C81.607 17.5435 84.1658 18.5037 86.0901 20.3009C88.0143 22.0981 89.1468 24.5854 89.2388 27.2168Z" fill="black"/>
</g>
<path d="M89.5318 27.6227C89.599 29.5605 89.0902 31.4747 88.0696 33.1233C87.049 34.7719 85.5625 36.0809 83.798 36.8847C82.0336 37.6886 80.0704 37.9512 78.1567 37.6395C76.2429 37.3277 74.4646 36.4555 73.0466 35.1331C71.6285 33.8108 70.6344 32.0977 70.1898 30.2104C69.7453 28.3231 69.8703 26.3464 70.5491 24.5301C71.2279 22.7139 72.43 21.1397 74.0033 20.0065C75.5767 18.8734 77.4507 18.2322 79.3885 18.1641C81.9878 18.0735 84.5166 19.0192 86.4188 20.7929C88.321 22.5667 89.4407 25.0234 89.5318 27.6227V27.6227Z" fill="#70C4BC"/>
<g opacity="0.2">
<path d="M89.5318 27.6227C89.599 29.5605 89.0902 31.4747 88.0696 33.1233C87.049 34.7719 85.5625 36.0809 83.798 36.8847C82.0336 37.6886 80.0704 37.9512 78.1567 37.6395C76.2429 37.3277 74.4646 36.4555 73.0466 35.1331C71.6285 33.8108 70.6344 32.0977 70.1898 30.2104C69.7453 28.3231 69.8703 26.3464 70.5491 24.5301C71.2279 22.7139 72.43 21.1397 74.0033 20.0065C75.5767 18.8734 77.4507 18.2322 79.3885 18.1641C81.9878 18.0735 84.5166 19.0192 86.4188 20.7929C88.321 22.5667 89.4407 25.0234 89.5318 27.6227V27.6227Z" fill="white"/>
</g>
<path d="M80.0943 27.1004L80.0061 24.5945C80.4658 24.6333 80.9182 24.7342 81.3508 24.8945C81.5736 24.9933 81.7873 25.1114 81.9896 25.2474L82.0214 25.1698L82.3743 24.2522L82.4555 24.0439L81.9896 23.5887L81.7778 23.6945C81.205 23.4175 80.5818 23.2602 79.9461 23.2322L79.8967 21.8522L79.4555 21.524V21.8769L78.8661 21.8981L78.9155 23.3098C76.985 23.5639 76.092 24.7216 76.1485 25.971C76.2085 27.6968 77.7014 28.0886 79.092 28.378L79.1802 30.8485C78.2776 30.8073 77.4051 30.5111 76.6638 29.9944L76.1485 31.2685C76.812 31.805 78.0085 32.1614 79.2261 32.1932L79.2649 33.252L78.7779 33.2767L79.2755 33.5873L80.2955 33.552L80.2461 32.1614C82.1908 31.8932 83.0696 30.7497 83.0378 29.5003C83.0025 27.7709 81.4849 27.3898 80.0943 27.1004ZM79.0673 26.8851C78.3367 26.698 77.7932 26.4439 77.772 25.8474C77.7508 25.251 78.125 24.838 78.9896 24.6722L79.0673 26.8851ZM80.2214 30.8097L80.1473 28.6109C80.899 28.798 81.4567 29.0627 81.4778 29.6697C81.4955 30.1991 81.1249 30.6368 80.2214 30.8026V30.8097Z" fill="#70C4BC"/>
<g opacity="0.3">
<path d="M80.0943 27.1004L80.0061 24.5945C80.4658 24.6333 80.9182 24.7342 81.3508 24.8945C81.5736 24.9933 81.7873 25.1114 81.9896 25.2474L82.0214 25.1698L82.3743 24.2522L82.4555 24.0439L81.9896 23.5887L81.7778 23.6945C81.205 23.4175 80.5818 23.2602 79.9461 23.2322L79.8967 21.8522L79.4555 21.524V21.8769L78.8661 21.8981L78.9155 23.3098C76.985 23.5639 76.092 24.7216 76.1485 25.971C76.2085 27.6968 77.7014 28.0886 79.092 28.378L79.1802 30.8485C78.2776 30.8073 77.4051 30.5111 76.6638 29.9944L76.1485 31.2685C76.812 31.805 78.0085 32.1614 79.2261 32.1932L79.2649 33.252L78.7779 33.2767L79.2755 33.5873L80.2955 33.552L80.2461 32.1614C82.1908 31.8932 83.0696 30.7497 83.0378 29.5003C83.0025 27.7709 81.4849 27.3898 80.0943 27.1004ZM79.0673 26.8851C78.3367 26.698 77.7932 26.4439 77.772 25.8474C77.7508 25.251 78.125 24.838 78.9896 24.6722L79.0673 26.8851ZM80.2214 30.8097L80.1473 28.6109C80.899 28.798 81.4567 29.0627 81.4778 29.6697C81.4955 30.1991 81.1249 30.6368 80.2214 30.8026V30.8097Z" fill="black"/>
</g>
<path d="M79.8367 31.8261L79.8861 33.2167L78.8661 33.252L78.8203 31.872C77.5991 31.8403 76.4026 31.4838 75.7391 30.9473L76.2544 29.6732C76.9946 30.1926 77.8675 30.4901 78.7708 30.5309L78.6861 28.0603C77.2956 27.7745 75.7991 27.3792 75.7391 25.6498C75.6968 24.3828 76.5756 23.2463 78.5061 22.9922L78.4603 21.5805L79.4767 21.5452L79.5261 22.9251C80.4182 22.9292 81.2947 23.1587 82.0743 23.5922L81.6084 24.8663C80.9794 24.5252 80.2855 24.3208 79.572 24.2663L79.6602 26.7757C81.0508 27.0615 82.5684 27.4462 82.6319 29.1721C82.6743 30.4391 81.799 31.565 79.8367 31.8261ZM78.6332 26.5321L78.5556 24.3192C77.6767 24.4886 77.3203 24.9474 77.3415 25.4945C77.3626 26.0415 77.9167 26.3627 78.6226 26.5498L78.6332 26.5321ZM81.0437 29.3203C81.0226 28.7133 80.4649 28.445 79.7132 28.2615L79.7908 30.4603C80.6908 30.3085 81.0614 29.8744 81.0437 29.3556V29.3203Z" fill="#70C4BC"/>
<path d="M79.9002 37.8684C79.9002 37.8684 79.9249 37.8684 79.9779 37.8684L80.2144 37.8437L80.5991 37.8049C80.7735 37.7942 80.9469 37.7706 81.1179 37.7343L81.7637 37.6107C81.8833 37.5864 82.0011 37.5546 82.1167 37.5154L82.5049 37.399C82.639 37.3531 82.7802 37.3249 82.9178 37.2649L83.3484 37.0884C83.4931 37.0249 83.6484 36.9755 83.8002 36.8978L84.2554 36.6578C84.9312 36.291 85.5645 35.8507 86.1437 35.3449L86.5989 34.9037C86.6731 34.8261 86.7542 34.7555 86.8283 34.6743L87.0401 34.4237C87.1813 34.2543 87.333 34.0708 87.4707 33.9085C87.6083 33.7461 87.7319 33.5343 87.8624 33.3402L87.9648 33.1991C87.9966 33.1496 88.0213 33.0967 88.053 33.0438C88.0848 32.9908 88.166 32.8391 88.226 32.7367C88.286 32.6344 88.3424 32.5249 88.4024 32.4226C88.4595 32.3151 88.5102 32.2043 88.5542 32.0908C88.6495 31.8685 88.7589 31.6461 88.8471 31.4132C88.9354 31.1803 89.0024 30.9367 89.0836 30.7073C89.3646 29.6991 89.4954 28.655 89.4718 27.6086C89.4225 26.5621 89.2191 25.5287 88.8683 24.5416C88.7695 24.3086 88.6777 24.0757 88.5824 23.8357C88.4871 23.5957 88.3566 23.3981 88.2295 23.1792C88.1763 23.0704 88.1174 22.9643 88.053 22.8616L87.8554 22.5616L87.6613 22.2651C87.626 22.2157 87.5977 22.1663 87.5624 22.1169L87.453 21.9828C87.3048 21.7993 87.1601 21.6299 87.0189 21.4428C86.8778 21.2557 86.7084 21.1181 86.5566 20.9593L86.3272 20.7228L86.0801 20.5146C85.9178 20.3734 85.7554 20.2393 85.5966 20.1052C84.9829 19.6412 84.3201 19.2459 83.6202 18.9264L83.1472 18.7181C82.9919 18.6511 82.8331 18.6123 82.6849 18.5593L82.2684 18.4146C82.1304 18.3719 81.9902 18.3365 81.8484 18.3087L81.4461 18.2064C81.3303 18.1753 81.2123 18.1529 81.0932 18.1393L80.4296 18.0617C80.2565 18.0383 80.082 18.0277 79.9073 18.0299H79.5226H79.2861H79.205H79.9108C80.0865 18.0268 80.2621 18.0351 80.4367 18.0546L81.0932 18.1287C81.2182 18.1402 81.3421 18.1614 81.4637 18.1923L81.8626 18.277C82.0002 18.3123 82.1484 18.3299 82.2896 18.3793L82.7343 18.5205C82.8825 18.5734 83.0449 18.6123 83.2002 18.6793L83.6766 18.884C84.3857 19.1888 85.0581 19.5724 85.6813 20.0275L86.1719 20.4369C86.2531 20.5075 86.3378 20.5746 86.4189 20.6487L86.6519 20.8852C86.8036 21.044 86.9695 21.1993 87.1213 21.3722L87.5589 21.9122L87.6719 22.0498L87.7707 22.1981L87.9683 22.4981L88.1695 22.8016C88.2366 22.9004 88.286 23.0134 88.346 23.1228C88.4589 23.3416 88.5824 23.5569 88.6989 23.7828C88.8154 24.0086 88.8895 24.2522 88.9883 24.4886C89.3381 25.4878 89.5379 26.5332 89.5812 27.5909C89.6042 28.6482 89.471 29.7031 89.1859 30.7215C89.1048 30.965 89.0236 31.205 88.946 31.445C88.8683 31.685 88.7483 31.9003 88.6495 32.1261C88.604 32.2465 88.5522 32.3643 88.4942 32.4791C88.4342 32.5849 88.3742 32.6873 88.3177 32.7932C88.2613 32.8991 88.1977 33.0014 88.1413 33.1073L88.0495 33.2591L87.9507 33.4038L87.5519 33.9437C87.4142 34.1273 87.2589 34.2967 87.1142 34.4626L86.8989 34.7167C86.8248 34.7943 86.7436 34.8684 86.666 34.9426L86.2107 35.3872C85.6234 35.894 84.9818 36.3343 84.2978 36.7002L83.8355 36.9402C83.6872 37.0143 83.5284 37.0672 83.3837 37.1307C83.239 37.1943 83.0908 37.2472 82.9496 37.3037C82.8084 37.3602 82.6672 37.3884 82.5331 37.4343L82.1414 37.5472C82.026 37.5851 81.9081 37.6146 81.7884 37.6354L81.139 37.7554C80.9667 37.7887 80.7921 37.8088 80.6167 37.8154L80.232 37.8437H79.992L79.9002 37.8684Z" fill="#263238"/>
<path d="M68.6063 34.2967C68.581 34.2658 68.5585 34.2328 68.5392 34.1979L68.3733 33.9049C68.2822 33.7508 68.1997 33.5918 68.1263 33.4285C68.0381 33.2414 67.9251 33.0297 67.8333 32.7826L67.6816 32.3908C67.6286 32.2567 67.5828 32.112 67.5333 31.9673C67.4275 31.6779 67.3428 31.3567 67.251 31.0215C66.8784 29.556 66.7637 28.0369 66.9122 26.5321C66.9545 26.1792 66.9863 25.858 67.0498 25.5545C67.0781 25.4027 67.0992 25.2545 67.1345 25.1133C67.1698 24.9722 67.1981 24.8416 67.2298 24.711C67.2863 24.4569 67.3639 24.231 67.4239 24.0298C67.4728 23.8587 67.5305 23.6902 67.5969 23.5251C67.6498 23.3945 67.6886 23.2922 67.7204 23.2075C67.7324 23.1703 67.749 23.1347 67.7698 23.1016C67.7639 23.1404 67.7532 23.1783 67.7381 23.2145C67.7133 23.2992 67.678 23.4051 67.6322 23.5357C67.5863 23.6663 67.5298 23.8428 67.4769 24.0475C67.4239 24.2522 67.3498 24.471 67.2969 24.7286C67.2687 24.8557 67.2369 24.9898 67.2087 25.1274C67.1804 25.2651 67.1557 25.4169 67.131 25.5686C67.071 25.8686 67.0392 26.1968 67.0004 26.5392C66.9381 27.2859 66.931 28.0361 66.9792 28.7838C67.0388 29.5319 67.1568 30.2742 67.3322 31.0038C67.4204 31.3356 67.4981 31.6567 67.6039 31.9461C67.6533 32.0908 67.6922 32.232 67.7451 32.3661L67.8933 32.7508C67.9816 32.9944 68.0875 33.2061 68.1722 33.3967C68.2569 33.5873 68.3345 33.7496 68.4016 33.8802C68.4686 34.0108 68.5145 34.1026 68.5533 34.1802C68.574 34.2176 68.5917 34.2565 68.6063 34.2967V34.2967Z" fill="white"/>
<path d="M76.625 26.6521C76.625 26.6521 76.4803 26.578 76.325 26.3768C76.1256 26.1069 76.0169 25.7807 76.0144 25.4451C76.0157 25.1098 76.1259 24.784 76.3285 24.5169C76.4017 24.4008 76.5039 24.3059 76.625 24.2416C76.625 24.2416 76.5191 24.351 76.385 24.5557C76.2113 24.8203 76.1158 25.1286 76.1097 25.4451C76.116 25.7621 76.2101 26.0712 76.3815 26.338C76.505 26.5321 76.6356 26.6415 76.625 26.6521Z" fill="white"/>
<path d="M78.7108 22.7698C78.6826 22.7698 78.6543 22.5898 78.6473 22.364C78.6264 22.2266 78.6385 22.0863 78.6826 21.9546C78.7323 22.0838 78.7539 22.2222 78.7461 22.3604C78.767 22.4978 78.7549 22.6381 78.7108 22.7698Z" fill="white"/>
<path d="M79.8472 17.3558C79.7403 17.3635 79.633 17.3635 79.5261 17.3558C79.4237 17.3558 79.2967 17.3558 79.152 17.3558C79.0073 17.3558 78.8414 17.3558 78.6578 17.3558C78.4743 17.3558 78.2767 17.377 78.0614 17.4017C77.8461 17.4264 77.6202 17.4582 77.3802 17.4935C76.8634 17.5846 76.3538 17.7132 75.8555 17.8782C75.3594 18.0472 74.8758 18.2513 74.4085 18.4888C74.1932 18.6052 73.9885 18.7111 73.8085 18.8417C73.6285 18.9723 73.4556 19.0605 73.3038 19.1629C73.1521 19.2652 73.0215 19.3676 72.9015 19.4523C72.7815 19.537 72.6862 19.6146 72.6085 19.6817C72.5289 19.7527 72.4439 19.8176 72.3544 19.8758C72.4255 19.7963 72.5021 19.722 72.5838 19.6534C72.6745 19.5669 72.7699 19.4856 72.8697 19.4099C72.9862 19.3181 73.1132 19.2123 73.265 19.1064C73.4168 19.0005 73.5791 18.884 73.7662 18.7711C73.9532 18.6582 74.1509 18.5417 74.3662 18.4182C74.8353 18.1729 75.3226 17.9641 75.8238 17.7935C76.3272 17.6266 76.8429 17.4991 77.3661 17.4123C77.6061 17.377 77.8355 17.3417 78.0543 17.3276C78.2732 17.3135 78.4708 17.2994 78.6543 17.2958C78.8378 17.2923 79.0073 17.2958 79.152 17.2958C79.2967 17.2958 79.4272 17.2958 79.5296 17.3205C79.6363 17.3231 79.7426 17.3349 79.8472 17.3558Z" fill="white"/>
<path d="M81.5449 40.1025C81.4686 40.1303 81.3908 40.1538 81.3119 40.1731C81.1637 40.2119 80.9414 40.2613 80.6696 40.3072C79.2321 40.5425 77.7597 40.4422 76.3673 40.0142C76.1026 39.9331 75.8909 39.8554 75.7462 39.7954C75.6694 39.7702 75.5959 39.7359 75.5273 39.6931C75.6073 39.7064 75.6855 39.7289 75.7603 39.7601C75.905 39.8095 76.1132 39.8766 76.385 39.9472C77.0769 40.1368 77.7865 40.2551 78.5026 40.3001C79.2208 40.3475 79.9419 40.3238 80.6555 40.2295C80.9272 40.1907 81.1496 40.1554 81.3013 40.1237C81.3813 40.1065 81.4631 40.0994 81.5449 40.1025V40.1025Z" fill="white"/>
<path d="M68.2816 37.3037C68.4588 36.7714 68.7341 36.277 69.0933 35.8461C69.5804 35.3661 70.3004 34.7873 70.3709 34.6108C70.4415 34.4343 70.4909 33.8555 70.9109 33.9049C71.3309 33.9543 71.9697 34.6532 71.345 35.7402L70.8015 36.4919C71.1556 36.8062 71.554 37.0666 71.9839 37.2649C72.418 37.3919 77.7155 38.3237 77.7155 38.3237C77.8458 38.3213 77.9728 38.3649 78.0742 38.4469C78.1755 38.5289 78.2447 38.6439 78.2696 38.7719C78.3932 39.2201 77.712 39.4566 77.712 39.4566C77.7791 39.6501 77.7688 39.8621 77.6833 40.0482C77.5978 40.2343 77.4437 40.3802 77.2532 40.4554C77.2002 40.8401 76.7485 41.1613 75.8414 41.073C75.8414 41.073 75.8697 41.553 74.832 41.6483C73.7944 41.7436 69.0933 40.8895 69.0933 40.8895L67.3604 37.9743L68.2816 37.3037Z" fill="#FFBF9D"/>
<path d="M64.8193 38.4296L68.2816 37.3037L69.0934 40.8895L65.4687 43.36C65.4687 43.36 62.3876 40.7307 64.8193 38.4296Z" fill="#FFBF9D"/>
<path d="M72.6757 40.5401C73.2217 40.5915 73.764 40.6776 74.2992 40.7977C74.8436 40.8564 75.3835 40.9507 75.9156 41.0801C75.3642 41.1334 74.8079 41.0989 74.2674 40.9777C73.7173 40.9155 73.1803 40.7678 72.6757 40.5401Z" fill="#FF9A6C"/>
<path d="M72.7744 39.5907C73.5537 39.6185 74.3272 39.7369 75.0791 39.9436C76.3355 40.2295 77.352 40.4201 77.3485 40.466C76.5677 40.4415 75.7927 40.323 75.0403 40.1131C73.7874 39.8272 72.7709 39.6331 72.7744 39.5907Z" fill="#FF9A6C"/>
<path d="M77.7755 39.4354C77.5574 39.4822 77.3327 39.4894 77.112 39.4566C76.5824 39.4152 76.0564 39.3362 75.5379 39.2201C74.7964 39.0921 74.0702 38.8875 73.3709 38.6095C74.1128 38.7102 74.8481 38.8539 75.5732 39.0401C76.1803 39.1672 76.7273 39.2695 77.1261 39.3295C77.3455 39.3439 77.563 39.3793 77.7755 39.4354Z" fill="#FF9A6C"/>
<path d="M38.7798 18.9828C38.7521 18.7715 38.6826 18.5679 38.5753 18.3838C38.468 18.1997 38.325 18.0388 38.1548 17.9107C37.9845 17.7825 37.7904 17.6896 37.5838 17.6373C37.3772 17.5851 37.1623 17.5746 36.9516 17.6064C36.6922 17.1461 36.2655 16.8035 35.76 16.6497C35.2546 16.4959 34.7093 16.5427 34.2375 16.7805C33.7999 17.0241 33.4681 17.4264 33.0375 17.6876C32.605 17.8992 32.1621 18.0889 31.7105 18.2558C31.4835 18.3429 31.282 18.4855 31.1242 18.6704C30.9664 18.8553 30.8573 19.0768 30.807 19.3146C30.8037 19.5844 30.8869 19.8482 31.0444 20.0673C31.202 20.2864 31.4255 20.4493 31.6823 20.5322C32.1952 20.6935 32.7368 20.7429 33.2705 20.6769C33.1632 20.7555 33.0878 20.8701 33.058 20.9997C33.0282 21.1293 33.046 21.2652 33.1081 21.3828C33.2444 21.6187 33.4631 21.796 33.7222 21.8804C34.142 22.0411 34.598 22.0829 35.0401 22.0014C35.4822 21.9198 35.8932 21.718 36.2281 21.4181L37.2269 20.6487C37.4384 20.6419 37.6465 20.5933 37.8392 20.5058C38.0319 20.4182 38.2054 20.2935 38.3497 20.1387C38.494 19.9839 38.6063 19.802 38.6801 19.6037C38.7539 19.4053 38.7878 19.1943 38.7798 18.9828V18.9828Z" fill="#263238"/>
<path d="M36.2704 22.3322C36.173 22.4183 36.0475 22.4658 35.9175 22.4658C35.7875 22.4658 35.662 22.4183 35.5646 22.3322C35.4744 22.2413 35.4107 22.1276 35.3803 22.0032C35.3498 21.8789 35.3537 21.7486 35.3916 21.6263C35.477 21.3776 35.6468 21.1665 35.8716 21.0299C36.0914 20.896 36.3291 20.7938 36.5775 20.7264C36.9601 20.6052 37.3558 20.5306 37.7563 20.504C37.8982 20.4899 38.0415 20.5067 38.1763 20.5534C38.2437 20.5785 38.3032 20.6212 38.3485 20.6771C38.3938 20.7329 38.4233 20.7999 38.4339 20.8711C38.4339 21.0687 38.2751 21.224 38.1127 21.3475C37.5121 21.7896 36.8731 22.177 36.2034 22.5051" fill="#70C4BC"/>
<path d="M35.6916 22.2299C34.7422 21.171 32.3776 21.3122 31.8094 22.0004C31.3923 21.7996 30.914 21.7671 30.4736 21.9097C30.0333 22.0523 29.6648 22.3591 29.4447 22.7663L26.9283 23.2992C26.4922 23.3537 26.0769 23.5176 25.7212 23.7757C25.5482 23.9107 25.4302 24.1041 25.3893 24.3197C25.3483 24.5353 25.3873 24.7585 25.4989 24.9474C25.2883 25.0203 25.0988 25.1435 24.9467 25.3064C24.7947 25.4693 24.6849 25.6669 24.6268 25.882C24.5686 26.0971 24.564 26.3231 24.6133 26.5404C24.6626 26.7577 24.7643 26.9596 24.9095 27.1286C24.8244 27.2264 24.76 27.3405 24.7204 27.4639C24.6807 27.5873 24.6666 27.7175 24.6788 27.8466C24.691 27.9756 24.7293 28.1009 24.7914 28.2147C24.8535 28.3285 24.9381 28.4285 25.0401 28.5086C24.3393 29.3365 23.7854 30.2783 23.4025 31.2932C23.2036 31.7049 23.1561 32.1735 23.2683 32.6167C23.4236 33.0438 23.9742 33.3402 24.3483 33.0755C24.2237 33.2491 24.1518 33.455 24.1411 33.6685C24.1305 33.8819 24.1816 34.0939 24.2883 34.279C23.8613 34.279 23.7307 34.9426 24.0201 35.2531C24.184 35.3897 24.374 35.4913 24.5785 35.552C24.7829 35.6127 24.9977 35.6311 25.2095 35.6061C25.634 35.5472 26.0663 35.6238 26.4448 35.8249C26.4402 35.8767 26.4254 35.9272 26.4012 35.9732C26.3769 36.0193 26.3437 36.06 26.3036 36.0931C25.9459 36.3634 25.7046 36.7598 25.6286 37.2016C25.5525 37.6434 25.6475 38.0976 25.8942 38.4719L26.0354 38.666C26.3812 39.038 26.7991 39.3358 27.2636 39.5413C28.22 40.0495 28.7918 39.9613 29.8647 40.1236C29.5682 40.8295 31.2976 42.3577 33.3023 40.8648C36.8623 41.908 40.5547 42.4299 44.2644 42.4142C44.8503 42.4142 45.5597 42.3471 45.8244 41.8213C46.0667 41.8686 46.317 41.854 46.552 41.7787C46.7871 41.7034 46.9994 41.5699 47.1691 41.3907C47.5049 41.0272 47.7748 40.608 47.9667 40.1519C48.4756 40.0081 48.9275 39.7105 49.2605 39.2998C49.5935 38.889 49.7912 38.3854 49.8267 37.8578C50.1722 37.588 50.4581 37.2496 50.6664 36.8639C50.8748 36.4782 51.001 36.0535 51.0372 35.6167C51.2786 35.5315 51.4998 35.3974 51.6868 35.2227C51.8739 35.048 52.0228 34.8366 52.1242 34.6016C52.2256 34.3666 52.2773 34.1132 52.2761 33.8572C52.2749 33.6013 52.2208 33.3484 52.1172 33.1144C51.9116 31.8978 51.5074 30.7234 50.9208 29.638C51.5949 29.4968 51.8561 28.5791 51.5843 27.958C51.3125 27.3368 50.6984 26.8992 50.1196 26.5462C50.6243 26.6839 51.0655 26.0557 50.949 25.5474C50.7748 25.0505 50.4105 24.643 49.9361 24.4145C49.2821 24.0165 48.5831 23.6978 47.8538 23.4651C47.6208 22.5793 46.495 21.5593 45.6656 21.1605C42.3268 19.5511 39.9833 19.1346 35.6916 22.2193" fill="#263238"/>
<path d="M33.1116 27.5909C33.0658 26.8851 32.9493 26.1792 33.6446 26.0839L40.7668 23.9381C43.0609 23.5851 44.7232 26.3592 44.9738 28.6674C45.2526 31.2332 45.4926 34.3743 45.2738 36.3084C45.162 37.4124 44.7401 38.4623 44.0569 39.3366C43.3736 40.211 42.4569 40.8742 41.4127 41.2495C41.4127 41.2495 41.5009 43.6071 41.5009 43.6071C41.2044 45.4212 40.7456 47.4611 40.008 48.1953C37.4916 47.7223 34.3857 42.9012 34.3857 42.9012L33.1116 27.5909Z" fill="#FFBF9D"/>
<path d="M41.2468 34.5437C41.5237 34.4444 41.8117 34.3793 42.1044 34.3496C42.2421 34.3285 42.3691 34.2967 42.3868 34.2014C42.3904 34.0596 42.3497 33.9201 42.2703 33.8026C42.1291 33.4814 41.9774 33.1426 41.8221 32.7861C41.1974 31.3391 40.7386 30.1426 40.795 30.1179C40.8515 30.0932 41.4091 31.2473 42.0338 32.6979L42.468 33.7214C42.5591 33.8831 42.5915 34.0714 42.5597 34.2543C42.5417 34.3023 42.5134 34.3458 42.4768 34.3818C42.4402 34.4178 42.3963 34.4453 42.348 34.4626C42.2733 34.4851 42.1963 34.4993 42.1185 34.5049C41.8309 34.5558 41.5378 34.5688 41.2468 34.5437V34.5437Z" fill="#263238"/>
<path d="M41.4127 41.2495C39.7439 41.0464 38.1318 40.515 36.6693 39.686C36.6693 39.686 37.5657 42.1212 41.4445 42.4177L41.4127 41.2495Z" fill="#FF9A6C"/>
<path d="M38.9739 28.6109C38.9281 28.7591 38.3916 28.7133 37.7704 28.8156C37.1493 28.918 36.6516 29.1121 36.5634 28.9885C36.5246 28.9285 36.6057 28.7874 36.8034 28.6356C37.0645 28.453 37.3661 28.3367 37.6822 28.2968C37.9995 28.243 38.325 28.266 38.6316 28.3639C38.8716 28.4309 38.9916 28.5403 38.9739 28.6109Z" fill="#263238"/>
<path d="M44.095 28.5227C44.0068 28.6462 43.6362 28.5227 43.195 28.5544C42.7539 28.5862 42.3833 28.6709 42.2915 28.5544C42.2492 28.4944 42.2915 28.3709 42.4609 28.2509C42.6735 28.1027 42.9256 28.0215 43.1847 28.0177C43.4439 28.014 43.6982 28.0878 43.915 28.2297C44.0774 28.3392 44.1338 28.4627 44.095 28.5227Z" fill="#263238"/>
<path d="M46.7103 30.5344C46.6965 29.9224 46.4693 29.3344 46.0679 28.8721C45.842 28.6286 45.5526 28.445 45.3621 28.1662C44.9279 27.5945 45.0091 26.8039 44.8044 26.1121C44.677 25.6652 44.4447 25.2552 44.1266 24.9163C43.8086 24.5774 43.4142 24.3194 42.9762 24.1639C42.2527 23.9063 41.4304 23.9416 40.7527 23.5816C40.2516 23.3169 39.8669 22.8546 39.341 22.6181C38.3316 22.1593 37.1634 22.6746 36.214 23.2428C36.0269 23.9981 36.5034 24.6545 36.9657 25.2792C37.1987 25.5927 37.4971 25.8517 37.8402 26.0382C38.1834 26.2247 38.563 26.3343 38.9528 26.3592C39.5528 26.3945 40.2586 26.2568 40.6821 26.6874C41.1057 27.118 40.9574 27.9368 41.3245 28.4521C41.8468 29.1933 43.0397 28.9109 43.8233 29.3697C44.4268 29.7227 44.6844 30.4285 44.9879 31.0779C45.2915 31.7273 45.8209 32.3697 46.5197 32.3344C46.6514 31.7436 46.7153 31.1397 46.7103 30.5344V30.5344Z" fill="#263238"/>
<path d="M37.7387 24.6157C35.9723 24.593 34.218 24.9105 32.5717 25.551C32.064 25.7022 31.6177 26.0112 31.2976 26.4333C31.0828 26.8446 30.9897 27.3086 31.0294 27.7709C31.0294 29.218 31.6294 30.9862 32.1835 32.3238L33.9905 33.4038C35.3811 33.072 34.7387 30.672 34.6717 29.4685C35.155 29.2471 35.5667 28.8946 35.8599 28.451C36.1531 28.0075 36.3161 27.4907 36.3305 26.9592C36.7268 26.7001 37.0594 26.3547 37.3032 25.9489C37.5471 25.543 37.696 25.0872 37.7387 24.6157V24.6157Z" fill="#263238"/>
<path d="M33.9623 32.885C33.9093 32.0591 32.9034 31.9003 32.1976 32.3273C31.8058 32.5603 31.5129 33.0332 31.5658 33.9014C31.6999 36.2414 34.0364 35.6237 34.0364 35.5567C34.0364 35.4896 34.0293 33.852 33.9623 32.885Z" fill="#FFBF9D"/>
<path d="M33.2423 34.7061C33.2423 34.7061 33.2034 34.7379 33.1364 34.7731C33.0423 34.8208 32.9333 34.8297 32.8328 34.7979C32.6761 34.7103 32.5453 34.5829 32.4536 34.4286C32.3619 34.2743 32.3125 34.0985 32.3105 33.919C32.2945 33.719 32.3222 33.5179 32.3917 33.3296C32.4094 33.255 32.445 33.1858 32.4954 33.128C32.5458 33.0702 32.6096 33.0256 32.6811 32.9979C32.7273 32.9822 32.7776 32.9836 32.8229 33.0017C32.8682 33.0198 32.9055 33.0535 32.9281 33.0967C32.9634 33.1602 32.9493 33.2061 32.9634 33.2096C32.9776 33.2132 33.0128 33.1673 32.9881 33.072C32.9709 33.0147 32.9349 32.965 32.8858 32.9308C32.8184 32.8859 32.7359 32.8694 32.6564 32.8849C32.5612 32.9088 32.474 32.9573 32.4034 33.0254C32.3328 33.0935 32.2813 33.1789 32.254 33.2732C32.1638 33.4808 32.1273 33.7078 32.1482 33.9332C32.1489 34.1418 32.2113 34.3456 32.3274 34.5189C32.4436 34.6922 32.6084 34.8273 32.8011 34.9073C32.8649 34.9229 32.9316 34.9238 32.9958 34.9097C33.06 34.8956 33.1202 34.867 33.1717 34.8261C33.2423 34.7626 33.2493 34.7096 33.2423 34.7061Z" fill="#FF9A6C"/>
<path d="M32.9811 35.7084C32.9811 35.7084 32.9811 35.7084 32.9811 35.7402C32.9724 35.7703 32.9618 35.7997 32.9493 35.8284C32.889 35.9381 32.7932 36.024 32.6775 36.0719C32.4947 36.1507 32.2978 36.1915 32.0987 36.1919C31.9723 36.1973 31.8457 36.189 31.7211 36.1672C31.5789 36.1481 31.4407 36.1064 31.3117 36.0437H31.3399C31.3093 36.2234 31.2376 36.3937 31.1305 36.5412C31.0234 36.6887 30.8837 36.8095 30.7223 36.8943C30.5268 36.9934 30.3073 37.0357 30.089 37.0164C29.8706 36.9971 29.6621 36.9168 29.487 36.7849H29.5258C29.455 36.8921 29.3446 36.9669 29.2188 36.9931C29.0925 37.0197 28.9612 37.0086 28.8411 36.9613C28.7153 36.9134 28.6078 36.8269 28.5341 36.7143C28.4638 36.5965 28.4237 36.4631 28.4176 36.3261C28.4068 36.0441 28.4969 35.7676 28.6717 35.5461C28.8513 35.3218 29.0575 35.1203 29.2858 34.9461V34.999C29.1895 34.9368 29.107 34.8556 29.0432 34.7603C28.9795 34.665 28.9359 34.5577 28.9153 34.4449C28.8658 34.2083 28.8892 33.9622 28.9823 33.7391C29.0799 33.5203 29.2189 33.3225 29.3917 33.1567C29.5649 32.9872 29.7501 32.8303 29.9458 32.6873V32.7402C29.8607 32.6498 29.7959 32.5423 29.7558 32.4248C29.7156 32.3074 29.701 32.1827 29.7129 32.0591C29.7277 31.8024 29.82 31.5563 29.9776 31.3532C30.2929 31.0051 30.6825 30.7325 31.1176 30.5556V30.5944C31.0525 30.3508 31.0478 30.0951 31.1037 29.8493C31.1596 29.6035 31.2746 29.375 31.4386 29.1835C31.6026 28.9921 31.8107 28.8434 32.045 28.7504C32.2793 28.6574 32.5328 28.6229 32.7834 28.6497L32.7481 28.6921C32.7178 28.4984 32.7282 28.3005 32.7785 28.111C32.8289 27.9215 32.9182 27.7446 33.0407 27.5916C33.1632 27.4385 33.3163 27.3126 33.4901 27.222C33.664 27.1313 33.8548 27.0779 34.0505 27.0651L34.0222 27.0933C34.0279 26.8944 34.0784 26.6993 34.1701 26.5227C34.2618 26.346 34.3922 26.1924 34.5516 26.0733C34.6895 25.9683 34.8472 25.8923 35.0152 25.8499C35.1832 25.8074 35.3581 25.7994 35.5292 25.8263L35.5045 25.851C35.5172 25.6371 35.5827 25.4298 35.6951 25.2474C35.7866 25.0853 35.9061 24.9408 36.0481 24.8204C36.2686 24.6171 36.5504 24.493 36.8492 24.4675H37.0186C37.0716 24.4675 37.1245 24.4675 37.1669 24.4851C37.2437 24.5004 37.3192 24.5217 37.3927 24.5486L37.5233 24.6051L37.5657 24.6263H37.5198L37.3857 24.5769C37.3136 24.5509 37.2391 24.532 37.1633 24.5204C37.1152 24.5164 37.0668 24.5164 37.0186 24.5204H36.9375H36.8492C36.558 24.547 36.2843 24.6714 36.0728 24.8733C35.9312 24.9928 35.8118 25.1361 35.7198 25.2969C35.629 25.4595 35.576 25.6404 35.5645 25.8263V25.8545H35.5363C35.3698 25.8331 35.2007 25.8458 35.0393 25.8919C34.8779 25.938 34.7275 26.0166 34.5975 26.1227C34.4452 26.2369 34.3209 26.3843 34.2341 26.5537C34.1472 26.7231 34.1001 26.91 34.0963 27.1004V27.1286H34.0646C33.8773 27.1399 33.6945 27.1904 33.5281 27.2769C33.3616 27.3634 33.2152 27.484 33.0984 27.6308C32.9816 27.7776 32.8969 27.9473 32.8499 28.1289C32.803 28.3105 32.7947 28.5 32.8258 28.685V28.7274H32.7799C32.5409 28.6995 32.2987 28.7301 32.0742 28.8165C31.8497 28.9029 31.6495 29.0426 31.4908 29.2234C31.3321 29.4043 31.2198 29.621 31.1634 29.8549C31.107 30.0888 31.1082 30.3329 31.167 30.5662V30.5909H31.1423C30.718 30.7646 30.3372 31.0297 30.027 31.3673C29.8798 31.5562 29.7926 31.7849 29.7764 32.0238C29.7656 32.137 29.7788 32.2512 29.8153 32.3588C29.8518 32.4665 29.9107 32.5652 29.9882 32.6485L30.0164 32.6802L29.9846 32.7014C29.5876 32.9573 29.2631 33.3109 29.0423 33.7285C28.9583 33.9341 28.9362 34.1598 28.9788 34.3779C28.9988 34.483 29.0405 34.5829 29.1013 34.671C29.162 34.7591 29.2405 34.8336 29.3317 34.8896L29.3741 34.9143L29.3352 34.9426C29.1094 35.1133 28.9055 35.3112 28.7282 35.532C28.5621 35.7412 28.4758 36.0026 28.4847 36.2696C28.4798 36.3951 28.513 36.5191 28.5797 36.6255C28.6464 36.7319 28.7437 36.8158 28.8588 36.8661C28.9634 36.9145 29.0813 36.9263 29.1934 36.8994C29.3055 36.8724 29.4052 36.8085 29.4764 36.7178L29.4941 36.6931H29.5152C29.6685 36.8059 29.848 36.8777 30.0367 36.9018C30.2254 36.9258 30.4172 36.9014 30.5938 36.8307C30.7704 36.7601 30.9262 36.6455 31.0462 36.4979C31.1663 36.3504 31.2467 36.1746 31.2799 35.9872V35.959H31.3011C31.4267 36.0209 31.5613 36.0625 31.6999 36.0825C31.8165 36.1026 31.9346 36.1121 32.0528 36.1108C32.2478 36.1139 32.4412 36.0767 32.6211 36.0014C32.7344 35.9568 32.8299 35.8762 32.8928 35.772C32.9238 35.7531 32.9533 35.7318 32.9811 35.7084V35.7084Z" fill="#455A64"/>
<path d="M24.0624 33.1885C24.0283 33.1445 23.9987 33.0972 23.9742 33.0473C23.9022 32.9019 23.8602 32.7434 23.8506 32.5814C23.8318 32.3224 23.8988 32.0645 24.0412 31.8473C24.1372 31.7035 24.2621 31.5811 24.4079 31.4882C24.5537 31.3952 24.7173 31.3336 24.8883 31.3073L24.8706 31.3356C24.7909 30.9379 24.8667 30.5249 25.0824 30.1815C25.1982 29.9928 25.3535 29.8314 25.5377 29.7085C25.7415 29.5869 25.9566 29.4853 26.18 29.405C26.2903 29.3597 26.3936 29.2991 26.4871 29.225C26.5789 29.146 26.6513 29.047 26.6988 28.9356C26.8047 28.7097 26.8365 28.445 26.967 28.205C27.1053 27.9602 27.3135 27.7621 27.565 27.6364C27.8166 27.5106 28.0999 27.4628 28.3788 27.4992L28.34 27.538C28.3001 27.2543 28.3259 26.9652 28.4154 26.6931C28.505 26.4209 28.6558 26.173 28.8563 25.9684C29.0569 25.7637 29.3017 25.6079 29.572 25.5129C29.8423 25.4179 30.1308 25.3862 30.4152 25.4204L30.3764 25.4592C30.3426 25.1467 30.3989 24.831 30.5386 24.5493C30.6783 24.2677 30.8957 24.032 31.165 23.8698C31.4344 23.7077 31.7445 23.626 32.0587 23.6343C32.373 23.6427 32.6783 23.7407 32.9387 23.9169H32.8999C33.1336 23.6937 33.413 23.524 33.7187 23.4192C33.9894 23.3195 34.2716 23.2543 34.5587 23.2251C35.0228 23.172 35.4926 23.2031 35.9457 23.3169C36.2376 23.3911 36.5162 23.5101 36.7716 23.6698C36.8375 23.7135 36.9012 23.7606 36.9622 23.811L37.0222 23.8604C37.0222 23.8604 36.9339 23.7934 36.761 23.6875C36.5052 23.5376 36.2278 23.428 35.9386 23.3628C35.4881 23.255 35.022 23.2287 34.5622 23.2851C34.2798 23.3147 34.0023 23.3799 33.7363 23.4792C33.4399 23.5846 33.1692 23.7519 32.9422 23.9698L32.9246 23.9875H32.9034C32.6528 23.8157 32.3582 23.7196 32.0545 23.7106C31.7509 23.7015 31.451 23.78 31.1907 23.9365C30.9304 24.0931 30.7205 24.3212 30.5862 24.5937C30.4518 24.8661 30.3986 25.1715 30.4329 25.4733H30.3905C30.11 25.4417 29.826 25.4757 29.5608 25.5724C29.2956 25.6692 29.0565 25.8261 28.8623 26.031C28.6795 26.2297 28.5425 26.4659 28.4608 26.7232C28.3791 26.9805 28.3547 27.2526 28.3894 27.5203V27.5662H28.3435C28.0765 27.5302 27.8048 27.5748 27.5633 27.6943C27.3218 27.8138 27.1216 28.0027 26.9882 28.2368C26.8612 28.4627 26.8294 28.7274 26.72 28.9638C26.6664 29.0824 26.5868 29.1874 26.4871 29.2709C26.3897 29.3495 26.2815 29.4137 26.1659 29.4615C25.9462 29.5396 25.7346 29.6389 25.5341 29.758C25.3533 29.8785 25.2015 30.0376 25.0894 30.2238C24.8804 30.5568 24.8048 30.9563 24.8777 31.3426V31.3638H24.853C24.6878 31.3885 24.5296 31.447 24.3881 31.5357C24.2466 31.6244 24.1249 31.7413 24.0306 31.8791C23.8888 32.0862 23.8194 32.3343 23.833 32.585C23.8411 32.7433 23.8782 32.8988 23.9424 33.0438C24.0306 33.1391 24.0659 33.1849 24.0624 33.1885Z" fill="#455A64"/>
<path d="M46.4561 33.8202C46.4422 33.7904 46.435 33.7579 46.435 33.7249C46.435 33.692 46.4422 33.6595 46.4561 33.6296C46.4838 33.5538 46.5313 33.4868 46.5937 33.4355C46.6785 33.3661 46.7772 33.3155 46.8831 33.2873C47.0073 33.2535 47.1261 33.2024 47.2361 33.1355C47.3635 33.0437 47.4566 32.9121 47.5008 32.7614C47.5536 32.5878 47.5739 32.4059 47.5608 32.225C47.5608 32.0308 47.522 31.8261 47.522 31.6073C47.5674 31.1363 47.6668 30.6721 47.8184 30.2238C47.8803 29.972 47.8911 29.7104 47.8502 29.4544C47.8311 29.3205 47.7834 29.1922 47.7103 29.0783C47.6373 28.9644 47.5405 28.8676 47.4267 28.7944C47.1647 28.669 46.8886 28.5754 46.6043 28.5156C46.4546 28.4744 46.3127 28.4089 46.1843 28.3215C46.0581 28.2299 45.9563 28.1087 45.8879 27.9686C45.7735 27.671 45.6907 27.3623 45.6408 27.0474C45.6101 26.8916 45.5553 26.7416 45.4785 26.6027C45.3979 26.4659 45.2736 26.3602 45.1255 26.3027C44.9138 26.2448 44.6956 26.214 44.4761 26.211C44.3629 26.2028 44.2519 26.1754 44.1479 26.1298C44.0441 26.081 43.9552 26.0055 43.8903 25.911C43.7799 25.7249 43.6968 25.5241 43.6432 25.3145C43.5856 25.1187 43.4856 24.9379 43.3503 24.7851C43.223 24.638 43.0667 24.5189 42.8911 24.435C42.7156 24.3512 42.5247 24.3046 42.3303 24.298C41.967 24.2863 41.6127 24.4124 41.3385 24.651L41.3068 24.6792L41.2891 24.6404C41.1554 24.3534 40.9624 24.098 40.7226 23.8911C40.4829 23.6843 40.2021 23.5307 39.8986 23.4404C39.644 23.3686 39.3781 23.3458 39.115 23.3734C38.8917 23.3935 38.674 23.4545 38.4727 23.5534C38.1889 23.6928 37.9513 23.9108 37.788 24.1816C37.7456 24.2525 37.7067 24.3256 37.6715 24.4004L37.6433 24.4604C37.644 24.4534 37.644 24.4463 37.6433 24.4392L37.668 24.3792C37.6954 24.2999 37.7321 24.224 37.7774 24.1533C37.9359 23.8748 38.1728 23.6489 38.4586 23.5039C38.6637 23.4003 38.8863 23.3357 39.115 23.3134C39.3835 23.2821 39.6554 23.3024 39.9162 23.3734C40.2282 23.4644 40.5172 23.6206 40.7643 23.8317C41.0113 24.0429 41.2106 24.3041 41.3491 24.598H41.2997C41.585 24.3444 41.9557 24.2083 42.3373 24.2169C42.539 24.2258 42.7367 24.2754 42.9187 24.3628C43.1006 24.4501 43.2631 24.5734 43.3961 24.7251C43.5354 24.8855 43.6399 25.0729 43.7032 25.2757C43.7533 25.4802 43.833 25.6764 43.9397 25.858C44.0029 25.9405 44.084 26.0075 44.177 26.054C44.2699 26.1005 44.3722 26.1252 44.4761 26.1262C44.7017 26.129 44.9259 26.161 45.1432 26.2215C45.303 26.2877 45.4368 26.4042 45.5243 26.5533C45.604 26.6979 45.6611 26.8538 45.6937 27.0156C45.7423 27.3266 45.8227 27.6317 45.9337 27.9262C45.9945 28.0651 46.0891 28.1865 46.209 28.2791C46.3299 28.3646 46.4649 28.4279 46.6078 28.4662C46.8961 28.5274 47.1758 28.6234 47.4408 28.7521C47.5671 28.8273 47.6727 28.9328 47.7478 29.0591C47.8192 29.1812 47.8682 29.3151 47.8925 29.4544C47.9362 29.7187 47.9242 29.9892 47.8572 30.2485C47.7061 30.6937 47.6043 31.1541 47.5537 31.6214C47.5537 31.8367 47.5819 32.0414 47.5855 32.2355C47.5994 32.4214 47.5779 32.6083 47.522 32.7861C47.4716 32.9433 47.3728 33.0805 47.2396 33.1779C47.1213 33.2456 46.9942 33.2967 46.862 33.3296C46.7598 33.3548 46.6637 33.4005 46.5796 33.4638C46.5186 33.512 46.4712 33.5752 46.442 33.6473C46.4282 33.705 46.4331 33.7655 46.4561 33.8202V33.8202Z" fill="#455A64"/>
<path d="M50.9984 30.1921L50.9737 30.1497C50.9737 30.1179 50.9384 30.0721 50.9102 30.0191L50.6702 29.5109C50.5643 29.2921 50.4443 29.0168 50.2749 28.7168C50.0987 28.3681 49.827 28.0767 49.4913 27.8768C49.3008 27.7709 49.0819 27.7039 48.8631 27.6086C48.749 27.5593 48.6411 27.4965 48.542 27.4215C48.4403 27.3381 48.3584 27.2332 48.302 27.1145C48.1926 26.8709 48.189 26.5957 48.1008 26.3451C48.0574 26.2188 47.9791 26.1074 47.8749 26.0239C47.7593 25.946 47.6317 25.8876 47.4973 25.851C47.3552 25.8105 47.217 25.7573 47.0843 25.6921C46.945 25.6182 46.8326 25.5021 46.7632 25.3604C46.6555 25.0685 46.5878 24.7634 46.562 24.4533C46.5413 24.3004 46.4883 24.1537 46.4067 24.0228C46.3641 23.9597 46.3094 23.9057 46.2458 23.8639C46.1822 23.8221 46.1109 23.7933 46.0361 23.7792C45.7291 23.7157 45.3973 23.8216 45.055 23.7792C44.8829 23.7486 44.7249 23.6646 44.6032 23.5392C44.4916 23.4167 44.3945 23.2817 44.3138 23.1369C44.235 22.9984 44.149 22.8641 44.0562 22.7345C43.9653 22.6076 43.8439 22.5057 43.7032 22.4381C43.4167 22.3438 43.1074 22.3438 42.8209 22.4381C42.534 22.5303 42.23 22.5568 41.9315 22.5157C41.6545 22.4462 41.3925 22.3266 41.1586 22.1628C40.9365 22.0117 40.7 21.8829 40.4527 21.7781C40.0046 21.6275 39.5221 21.6128 39.0657 21.7357C38.6865 21.832 38.3342 22.013 38.0351 22.2651C37.8137 22.4595 37.6222 22.6854 37.4669 22.9357C37.3734 23.0977 37.292 23.2664 37.2233 23.4404C37.2022 23.4969 37.1845 23.5428 37.1704 23.5745L37.1492 23.6204V23.5745C37.1492 23.5392 37.1775 23.4934 37.1986 23.4369C37.2592 23.2579 37.3372 23.0853 37.4316 22.9216C37.5807 22.6575 37.7714 22.4192 37.9963 22.2157C38.2971 21.9565 38.6533 21.7694 39.0374 21.6687C39.5014 21.5428 39.992 21.5551 40.4492 21.704C40.696 21.8098 40.9324 21.9386 41.155 22.0887C41.3814 22.2522 41.6364 22.3719 41.9068 22.4416C42.1961 22.4786 42.4899 22.4521 42.7679 22.364C42.9183 22.3241 43.0718 22.2969 43.2268 22.2828C43.3899 22.2635 43.5551 22.2899 43.7041 22.3591C43.853 22.4283 43.9798 22.5375 44.0703 22.6745C44.1647 22.8062 44.2519 22.9429 44.3314 23.084C44.4101 23.2239 44.5049 23.3542 44.6138 23.4722C44.7242 23.5859 44.8673 23.6624 45.0232 23.691C45.3444 23.7439 45.6761 23.6345 46.0079 23.691C46.1777 23.724 46.3275 23.823 46.4244 23.9663C46.5114 24.1045 46.568 24.2597 46.5902 24.4216C46.6129 24.7253 46.6771 25.0246 46.7808 25.311C46.8437 25.4407 46.9463 25.5471 47.0738 25.6145C47.2027 25.6787 47.3374 25.7307 47.4761 25.7698C47.6177 25.8088 47.7514 25.8721 47.8714 25.9568C47.9872 26.0464 48.0723 26.1697 48.1149 26.3098C48.2067 26.5745 48.2102 26.8462 48.3161 27.0756C48.4251 27.2927 48.6134 27.4595 48.842 27.5415C49.0572 27.6403 49.2761 27.7109 49.4702 27.8168C49.8124 28.0239 50.0889 28.3237 50.2678 28.6815C50.4337 28.9885 50.5502 29.2638 50.6525 29.4862C50.7549 29.7085 50.8254 29.8779 50.8819 29.9979L50.9384 30.1321C50.9609 30.1494 50.9811 30.1695 50.9984 30.1921V30.1921Z" fill="#455A64"/>
<path d="M48.5067 27.7427H48.549C48.592 27.7405 48.6348 27.7503 48.6726 27.7709C48.7431 27.8145 48.8015 27.8752 48.8422 27.9474C48.883 28.0196 48.9047 28.101 48.9055 28.1839C48.907 28.3033 48.8904 28.4223 48.8561 28.5368C48.8171 28.6686 48.7969 28.8052 48.7961 28.9427C48.82 29.0934 48.8819 29.2355 48.9761 29.3556C49.0678 29.4968 49.1808 29.6344 49.2761 29.8038C49.3317 29.8945 49.3655 29.9969 49.3747 30.1029C49.3839 30.2089 49.3682 30.3155 49.329 30.4144C49.2514 30.6121 49.1067 30.7673 49.0361 30.9826C48.9765 31.1984 48.9992 31.4285 49.0996 31.6285C49.1914 31.8403 49.322 32.0485 49.4137 32.285C49.46 32.4069 49.4851 32.5358 49.4878 32.6661C49.4851 32.8002 49.4551 32.9323 49.3996 33.0544C49.2708 33.2891 49.122 33.5122 48.9549 33.7214C48.7811 33.9279 48.6927 34.1931 48.7079 34.4626C48.7687 34.7368 48.8636 35.0024 48.9902 35.2531C49.0441 35.3905 49.074 35.5362 49.0784 35.6837C49.0735 35.8305 49.0349 35.9743 48.9655 36.1037C48.823 36.3452 48.6511 36.5681 48.4537 36.7672C48.2745 36.9583 48.1364 37.1842 48.0479 37.4308C47.9832 37.6783 47.9018 37.9212 47.8043 38.1578C47.7476 38.2734 47.6656 38.3747 47.5643 38.4543C47.4644 38.5257 47.3536 38.5805 47.2361 38.6166C47.1256 38.6473 47.0171 38.685 46.9114 38.7296C46.8121 38.7782 46.7206 38.8412 46.6397 38.9166C46.4897 39.0658 46.3603 39.2343 46.255 39.4178C46.1491 39.5907 46.0503 39.7707 45.9373 39.9154C45.737 40.1977 45.4511 40.4081 45.122 40.5154C44.8756 40.5975 44.6138 40.6229 44.3562 40.5895C44.1943 40.5697 44.0369 40.5232 43.8903 40.4519C43.839 40.4272 43.7894 40.3988 43.7421 40.3672C43.9335 40.4711 44.1432 40.5371 44.3597 40.5613C44.6123 40.5891 44.8679 40.5601 45.1079 40.4766C45.4271 40.3703 45.7032 40.1635 45.895 39.8872C46.0044 39.7354 46.1032 39.5625 46.2091 39.386C46.3167 39.1979 46.4484 39.0247 46.6008 38.8707C46.6847 38.7922 46.7799 38.7268 46.8832 38.6766C46.9887 38.62 47.0985 38.5717 47.2114 38.5319C47.3226 38.4987 47.4275 38.4474 47.522 38.3801C47.6153 38.3066 47.6902 38.2124 47.7408 38.1049C47.8343 37.8747 47.9133 37.639 47.9773 37.399C48.0657 37.1366 48.2089 36.896 48.3973 36.6931C48.5877 36.5022 48.7558 36.2902 48.8984 36.0614C48.9608 35.9413 48.9946 35.8084 48.9973 35.6731C48.9963 35.5339 48.9687 35.3962 48.9161 35.2673C48.7869 35.0111 48.6909 34.7395 48.6302 34.459C48.6152 34.3154 48.6345 34.1702 48.6867 34.0355C48.739 33.91 48.8065 33.7915 48.8879 33.6826C49.0558 33.4748 49.2036 33.2514 49.329 33.0155C49.3818 32.9052 49.4107 32.7849 49.4137 32.6626C49.4114 32.5417 49.3875 32.4222 49.3431 32.3097C49.2584 32.0803 49.1279 31.872 49.0361 31.6532C48.9235 31.4353 48.9007 31.1819 48.9726 30.9473C49.0537 30.7285 49.1984 30.5626 49.269 30.3756C49.3027 30.287 49.3155 30.1919 49.3063 30.0976C49.2971 30.0033 49.2662 29.9124 49.2161 29.8321C49.1278 29.6697 49.0149 29.5285 48.9231 29.3838C48.8282 29.2496 48.7709 29.0924 48.7573 28.9286C48.758 28.7871 48.7807 28.6466 48.8243 28.5121C48.8599 28.3977 48.8789 28.2789 48.8808 28.1592C48.8802 28.0797 48.8603 28.0015 48.8228 27.9314C48.7853 27.8613 48.7313 27.8014 48.6655 27.7568C48.6149 27.7373 48.5599 27.7324 48.5067 27.7427V27.7427Z" fill="#455A64"/>
<path d="M39.5668 35.3308C39.5982 35.2553 39.6578 35.1949 39.7329 35.1626C39.808 35.1303 39.8928 35.1286 39.9692 35.1579L41.4374 35.7084L41.5998 35.7684C41.5281 36.0668 41.419 36.355 41.2751 36.6261C41.2084 36.7427 41.117 36.8433 41.0072 36.9208C40.8975 36.9982 40.772 37.0506 40.6398 37.0743C40.423 37.0903 40.2068 37.0372 40.0221 36.9225C39.8678 36.8516 39.7303 36.7489 39.6184 36.6212C39.5065 36.4935 39.4228 36.3436 39.3727 36.1814C39.3638 35.8859 39.4307 35.5931 39.5668 35.3308V35.3308Z" fill="#FF9A6C"/>
<path d="M31.5976 35.3096C31.4688 35.3549 31.3492 35.4231 31.2446 35.5108C30.9502 35.7452 30.7487 36.0767 30.6764 36.4461C30.6227 36.7004 30.6287 36.9638 30.6941 37.2155C30.7735 37.5029 30.9212 37.7669 31.1246 37.9849C31.3446 38.2305 31.6242 38.4153 31.9364 38.5213C32.279 38.6355 32.6483 38.6429 32.9952 38.5425C33.3377 38.4483 33.6471 38.26 33.8881 37.999C34.1076 37.7516 34.2521 37.4467 34.3046 37.1202C34.3503 36.8454 34.3324 36.5638 34.2523 36.297C34.1721 36.0303 34.0318 35.7854 33.8422 35.5814C33.6905 35.4287 33.5091 35.3086 33.3093 35.2284C33.1626 35.1639 33.0065 35.1234 32.847 35.1084C32.7477 35.091 32.6462 35.091 32.547 35.1084C32.4799 35.1084 32.4446 35.1367 32.4481 35.1402C32.5791 35.1198 32.7125 35.1198 32.8434 35.1402C32.9979 35.1656 33.1486 35.2107 33.2917 35.2743C33.4817 35.3573 33.6532 35.4772 33.7964 35.6273C33.9767 35.8271 34.1089 36.0655 34.1829 36.3242C34.2569 36.583 34.2708 36.8552 34.2234 37.1202C34.1624 37.4276 34.0156 37.7115 33.7999 37.939C33.5692 38.1875 33.2732 38.366 32.9458 38.4543C32.6226 38.5532 32.2772 38.5532 31.954 38.4543C31.6546 38.3549 31.3859 38.1798 31.174 37.946C30.9794 37.7375 30.8368 37.486 30.7576 37.2119C30.6906 36.9716 30.681 36.719 30.7293 36.4743C30.7938 36.117 30.9796 35.7929 31.2552 35.5567C31.3637 35.4668 31.4781 35.3843 31.5976 35.3096V35.3096Z" fill="#E0E0E0"/>
<path d="M39.2809 32.292C39.2869 32.4243 39.2413 32.5538 39.1537 32.6532C39.0662 32.7525 38.9435 32.8141 38.8115 32.8249C38.747 32.8323 38.6817 32.8268 38.6194 32.8087C38.5571 32.7906 38.4989 32.7603 38.4484 32.7196C38.3978 32.6789 38.3559 32.6286 38.3249 32.5715C38.2939 32.5145 38.2746 32.4519 38.268 32.3873C38.2621 32.2544 38.3082 32.1245 38.3965 32.025C38.4848 31.9255 38.6083 31.8643 38.7409 31.8544C38.8052 31.847 38.8704 31.8526 38.9325 31.8707C38.9946 31.8888 39.0525 31.9192 39.1028 31.9599C39.153 32.0007 39.1947 32.051 39.2253 32.108C39.2559 32.165 39.2748 32.2276 39.2809 32.292V32.292Z" fill="#263238"/>
<path d="M43.8832 32.292C43.89 32.4246 43.8448 32.5545 43.757 32.6541C43.6693 32.7537 43.5461 32.815 43.4138 32.825C43.3493 32.8323 43.284 32.8268 43.2217 32.8087C43.1593 32.7906 43.1012 32.7603 43.0507 32.7196C43.0001 32.6789 42.9581 32.6286 42.9272 32.5715C42.8962 32.5145 42.8769 32.4519 42.8703 32.3873C42.8633 32.2565 42.9072 32.128 42.9926 32.0287C43.0781 31.9294 43.1987 31.8669 43.3291 31.8544C43.3945 31.845 43.4611 31.849 43.5249 31.8662C43.5886 31.8834 43.6482 31.9134 43.7001 31.9543C43.7519 31.9952 43.7949 32.0463 43.8264 32.1043C43.8578 32.1624 43.8772 32.2263 43.8832 32.292V32.292Z" fill="#263238"/>
<path d="M44.035 30.2944C43.9856 30.3685 43.5973 30.1074 43.0997 30.1603C42.6021 30.2132 42.2703 30.5485 42.2068 30.4815C42.1433 30.4144 42.2068 30.3191 42.3621 30.1674C42.5481 29.9741 42.7964 29.8529 43.0631 29.8251C43.3299 29.7974 43.5979 29.8648 43.8197 30.0156C43.9997 30.1391 44.0667 30.2591 44.035 30.2944Z" fill="#263238"/>
<path d="M39.2739 30.7038C39.2033 30.7815 38.7762 30.4497 38.1762 30.4568C37.5763 30.4638 37.1421 30.785 37.0751 30.7073C37.008 30.6297 37.1104 30.5309 37.301 30.3791C37.555 30.187 37.8648 30.0829 38.1833 30.0826C38.4989 30.0813 38.8058 30.1856 39.0551 30.3791C39.2421 30.5273 39.3056 30.6685 39.2739 30.7038Z" fill="#263238"/>
<path d="M40.9715 36.8802C40.9715 36.8802 40.9327 36.9437 40.8127 36.9966C40.6408 37.0682 40.4507 37.0843 40.2692 37.0425C40.002 36.9864 39.7568 36.854 39.5633 36.6613C39.4421 36.5445 39.3575 36.3949 39.3198 36.2308C39.2793 36.0566 39.2793 35.8755 39.3198 35.7014C39.3612 35.534 39.4241 35.3726 39.5069 35.2214C39.5258 35.1747 39.5544 35.1326 39.591 35.0979C39.6275 35.0632 39.671 35.0367 39.7186 35.0202C39.8091 35.006 39.9018 35.0209 39.9833 35.0626L40.7104 35.359C40.9406 35.435 41.161 35.5381 41.3668 35.6661C41.1247 35.6241 40.888 35.5554 40.661 35.4614L39.9198 35.2002C39.7716 35.1367 39.701 35.1473 39.6339 35.292C39.5623 35.434 39.5056 35.583 39.4645 35.7367C39.4192 35.878 39.412 36.0288 39.4436 36.1738C39.4752 36.3188 39.5445 36.4529 39.6445 36.5625C39.8228 36.7341 40.0431 36.8558 40.2833 36.9155C40.4463 36.9597 40.618 36.9597 40.781 36.9155C40.908 36.9084 40.9645 36.8661 40.9715 36.8802Z" fill="#263238"/>
<path d="M50.7408 20.5322C50.5436 20.3833 50.3291 20.2589 50.102 20.1617C49.8326 20.0599 49.5464 20.0096 49.2585 20.0134C48.8843 20.0188 48.5186 20.1249 48.1996 20.3205L48.1467 20.3522L48.1149 20.3028C47.8525 19.8724 47.4319 19.562 46.9432 19.4381C46.6661 19.3584 46.3749 19.3404 46.0901 19.3855C45.8053 19.4307 45.5339 19.5378 45.295 19.6993L45.235 19.7452L45.1891 19.6852C44.7031 19.0381 43.9864 18.6032 43.188 18.4711C42.5659 18.3686 41.9274 18.465 41.3633 18.7464C40.8462 18.9991 40.408 19.3884 40.0963 19.8723L40.0751 19.904H40.0398C39.3836 19.9286 38.7396 20.0884 38.1481 20.3734C37.6879 20.5946 37.2652 20.8864 36.8952 21.2381C36.573 21.561 36.2844 21.9157 36.034 22.2969C36.034 22.2969 36.034 22.2652 36.0728 22.2122C36.1116 22.1593 36.1399 22.0781 36.2034 21.9793C36.3838 21.6951 36.5957 21.4323 36.8352 21.1958C37.2053 20.8274 37.6333 20.5222 38.1022 20.2922C38.703 19.9866 39.3627 19.8144 40.0363 19.7875L39.9798 19.8193C40.3021 19.309 40.7588 18.8975 41.2998 18.6299C41.8924 18.3348 42.5629 18.2335 43.2162 18.3405C44.0549 18.4794 44.8073 18.9372 45.3162 19.6181H45.2103C45.4672 19.4477 45.7582 19.3353 46.063 19.289C46.3678 19.2427 46.679 19.2635 46.975 19.3499C47.4948 19.4866 47.9399 19.8226 48.2138 20.2852L48.1326 20.264C48.4745 20.0594 48.8672 19.9554 49.2655 19.964C49.5641 19.965 49.8594 20.0262 50.1337 20.144C50.3051 20.2196 50.4654 20.3181 50.6102 20.4369C50.6569 20.4641 50.7007 20.496 50.7408 20.5322V20.5322Z" fill="#263238"/>
<path d="M34.8869 19.7134C34.7038 19.8009 34.504 19.8478 34.301 19.8511C34.0209 19.8658 33.7406 19.8247 33.4764 19.7302C33.2122 19.6357 32.9695 19.4896 32.7623 19.3005C32.4746 19.0291 32.2754 18.6773 32.1905 18.2911C32.0926 17.8426 32.1383 17.3746 32.3211 16.9535C32.5317 16.4827 32.918 16.1128 33.3975 15.9229C33.9131 15.7111 34.4914 15.7111 35.0069 15.9229L34.9152 15.9441C35.1436 15.6808 35.4547 15.5028 35.7975 15.4394C36.0836 15.3859 36.3789 15.4115 36.6516 15.5135C36.9162 15.6193 37.1426 15.8026 37.301 16.0394C37.4513 16.2605 37.5422 16.5165 37.5651 16.7829C37.588 17.0493 37.542 17.317 37.4316 17.5605L37.3292 17.4652C37.5127 17.3634 37.7182 17.308 37.9279 17.3037C38.1377 17.2994 38.3453 17.3463 38.5327 17.4405C38.7035 17.5221 38.8548 17.6393 38.9765 17.7842C39.0983 17.929 39.1876 18.0983 39.2386 18.2805C39.3196 18.5771 39.3191 18.89 39.2371 19.1863C39.1551 19.4826 38.9947 19.7513 38.7727 19.964C38.4845 20.2347 38.1263 20.4193 37.7386 20.4969C37.6375 20.5191 37.5349 20.5332 37.4316 20.5393H37.3292C37.3292 20.5393 37.4775 20.5393 37.7351 20.4546C38.1053 20.3596 38.4438 20.1685 38.7163 19.9005C38.92 19.6979 39.0655 19.4442 39.1375 19.166C39.2096 18.8878 39.2055 18.5954 39.1257 18.3193C39.078 18.1551 38.9952 18.0031 38.8831 17.8739C38.771 17.7448 38.6322 17.6414 38.4763 17.5711C38.311 17.489 38.1283 17.4483 37.9438 17.4526C37.7593 17.4569 37.5787 17.5061 37.4175 17.5958L37.2022 17.7264L37.3116 17.5005C37.4084 17.2801 37.4472 17.0385 37.4244 16.7989C37.4015 16.5592 37.3177 16.3293 37.181 16.1311C37.0413 15.9193 36.8389 15.7565 36.6022 15.6653C36.3581 15.5716 36.0924 15.5496 35.8363 15.6017C35.5303 15.6541 35.2521 15.8114 35.0493 16.0464L35.0104 16.0923L34.9575 16.0711C34.4792 15.8752 33.9429 15.8752 33.4646 16.0711C33.0185 16.2394 32.6545 16.5731 32.4481 17.0029C32.273 17.3961 32.2261 17.8344 32.314 18.2558C32.3857 18.6217 32.5681 18.9568 32.8364 19.2158C33.2311 19.5905 33.7569 19.7957 34.301 19.7875C34.4982 19.7804 34.6942 19.7556 34.8869 19.7134V19.7134Z" fill="#263238"/>
<path d="M23.7553 25.798C23.7553 25.798 23.7342 25.7698 23.7095 25.7098C23.6711 25.6223 23.6415 25.5313 23.6212 25.438C23.5342 25.0914 23.5246 24.73 23.593 24.3792C23.6994 23.83 23.9879 23.3326 24.4118 22.9675C24.6833 22.7384 24.9984 22.5669 25.3381 22.4631C25.6779 22.3594 26.0351 22.3257 26.3882 22.364L26.3106 22.4063C26.633 21.7249 27.1926 21.1841 27.8847 20.8852C28.4045 20.6697 28.9741 20.6037 29.5293 20.6946C30.0347 20.7772 30.5114 20.9847 30.9164 21.2981H30.8387C31.3515 21.0269 31.9246 20.8897 32.5046 20.8993C32.9531 20.9039 33.3965 20.995 33.8104 21.1675C34.0777 21.2744 34.3294 21.4169 34.5587 21.591C34.6397 21.6526 34.7142 21.7224 34.781 21.7993C34.4716 21.5712 34.1348 21.3827 33.7787 21.2381C33.3713 21.0857 32.9395 21.0092 32.5046 21.0122C31.9477 21.0121 31.3995 21.1503 30.9093 21.4146L30.867 21.4393L30.8317 21.411C30.4426 21.1165 29.9867 20.9225 29.5046 20.8463C28.9788 20.7634 28.4403 20.8269 27.9482 21.0299C27.2958 21.3077 26.763 21.808 26.4447 22.4416L26.4235 22.491H26.367C26.0342 22.4511 25.6967 22.4793 25.3752 22.574C25.0536 22.6686 24.7546 22.8277 24.4965 23.0416C24.0848 23.3828 23.8001 23.8528 23.6883 24.3757C23.6147 24.7248 23.6147 25.0854 23.6883 25.4345C23.7165 25.6674 23.7659 25.7945 23.7553 25.798Z" fill="#263238"/>
<path d="M42.4256 71.1007C42.4256 71.1007 40.1174 107.605 38.4974 112.263C37.0645 116.403 31.4705 136.482 31.4705 136.482L20.5295 134.032C20.5295 134.032 26.0777 109.214 26.9212 106.151C26.9212 106.151 24.7401 86.6087 24.0977 84.4205C23.4554 82.2323 21.4084 77.2171 22.2872 73.7583C22.8484 71.6115 23.7249 69.5598 24.8883 67.6702L42.4256 71.1007Z" fill="#263238"/>
<path d="M23.8365 79.6135L21.4472 102.06L2.77692 113.107L7.82388 122.495C7.82388 122.495 25.0259 115.189 28.0647 113.107C31.1034 111.025 32.134 102.06 32.134 102.06L23.8365 79.6135Z" fill="#263238"/>
<path d="M20.519 134.032C20.5213 133.987 20.5284 133.942 20.5402 133.898C20.5613 133.803 20.586 133.672 20.6213 133.51C20.699 133.157 20.8119 132.656 20.9743 132.017C21.2743 130.711 21.7048 128.841 22.2342 126.529C23.3178 121.895 24.8107 115.503 26.4695 108.448C26.7447 107.287 27.013 106.14 27.2742 105.032V105.067C25.7848 95.5944 24.5707 87.7486 24.073 84.4134L23.6601 83.0899L23.5613 82.737C23.5481 82.6991 23.5387 82.6601 23.533 82.6205C23.5519 82.6554 23.5672 82.692 23.5789 82.7299L23.6954 83.0828L24.1366 84.3958C24.6907 87.7169 25.9506 95.5556 27.4506 105.028V105.046V105.064C27.1894 106.172 26.9212 107.315 26.6495 108.48C24.9766 115.539 23.473 121.916 22.3684 126.55C21.8143 128.851 21.3625 130.718 21.0484 132.021C20.8931 132.66 20.7696 133.157 20.6954 133.507C20.6531 133.669 20.6213 133.796 20.5966 133.895C20.5719 133.994 20.519 134.036 20.519 134.032Z" fill="#455A64"/>
<path d="M22.9295 70.5607C23.4942 68.9231 29.2823 62.4079 29.2823 62.4079C29.2823 62.4079 29.6529 58.6562 29.8329 57.0221C29.9564 55.9139 30.1011 51.3752 30.2493 47.8988C30.3799 44.8565 34.5128 42.1777 34.5128 42.1777H40.0362L38.0739 42.693L42.5456 45.7459C42.5456 45.7459 48.5984 51.7987 47.6773 56.5175C46.5196 62.4573 42.115 77.7429 42.115 77.7429L35.6245 76.063C33.9728 75.6359 32.6175 76.0065 29.8188 75.0853L22.2766 73.2148C22.3963 72.3088 22.6152 71.4188 22.9295 70.5607V70.5607Z" fill="#455A64"/>
<path d="M31.9611 44.6024L37.0222 42.4142L51.7431 40.9283L66.4181 37.2049L68.4228 42.0612L55.7983 47.8882C54.0336 49.2999 52.9007 49.1835 52.0607 49.4235L36.6799 51.9434L31.9611 44.6024Z" fill="#455A64"/>
<g opacity="0.3">
<path d="M43.7879 50.7434C41.1056 53.6834 38.7974 53.0305 34.8975 52.2258C38.5504 51.167 43.7879 50.7434 43.7879 50.7434Z" fill="black"/>
</g>
<path d="M47.5643 57.0716C47.5504 57.2879 47.5185 57.5028 47.469 57.7139C47.3985 58.1233 47.282 58.7162 47.1161 59.4468C46.8091 60.9044 46.3467 62.9126 45.775 65.1149C45.2032 67.3173 44.6385 69.2972 44.2115 70.7266C43.9997 71.4325 43.8232 72.0183 43.6962 72.4136C43.6414 72.6232 43.5682 72.8275 43.4774 73.0242C43.5105 72.8104 43.5588 72.5993 43.6221 72.3925C43.7385 71.9583 43.8938 71.3866 44.0809 70.6878C44.4726 69.2513 45.0126 67.2678 45.5844 65.0655C46.1561 62.8632 46.6432 60.8656 46.9961 59.4186C47.162 58.7127 47.2961 58.141 47.3985 57.7033C47.4408 57.4895 47.4962 57.2786 47.5643 57.0716V57.0716Z" fill="#263238"/>
<path d="M33.6128 50.3023C33.6128 50.3023 33.5175 50.2317 33.3834 50.0658C33.1917 49.8321 33.0249 49.5789 32.8858 49.3105C32.4105 48.4172 32.2133 47.4021 32.3196 46.3957C32.4259 45.3894 32.8308 44.4379 33.4822 43.6636C33.6739 43.4303 33.8892 43.2174 34.1246 43.0283C34.294 42.8942 34.3963 42.8342 34.4034 42.8448C34.1155 43.1308 33.8422 43.4312 33.5846 43.7447C32.9838 44.5148 32.6108 45.4378 32.5079 46.4091C32.4049 47.3804 32.5762 48.361 33.0022 49.2399C33.3234 49.9282 33.6411 50.2811 33.6128 50.3023Z" fill="#263238"/>
<path d="M53.5643 49.1905C53.5108 49.2161 53.4536 49.2327 53.3948 49.2399L52.9078 49.3423C52.4808 49.4305 51.8666 49.5435 51.1043 49.6952C49.5761 49.967 47.4655 50.3058 45.1256 50.6517C42.7856 50.9975 40.668 51.2905 39.1257 51.4987L37.3046 51.7352L36.8105 51.7917C36.7531 51.8002 36.6948 51.8002 36.6375 51.7917C36.6902 51.7681 36.7461 51.7526 36.8034 51.7458L37.2975 51.6575L39.1081 51.3611L45.1079 50.4646L51.1078 49.5576L52.9184 49.2788L53.4125 49.2082C53.4623 49.197 53.5132 49.1911 53.5643 49.1905Z" fill="#263238"/>
</g>
</svg>
