<svg width="40" height="40" viewBox="0 0 40 40" fill="none" xmlns="http://www.w3.org/2000/svg">
<path d="M13.1665 34.1666H26.8332V28.875C26.8332 26.9305 26.1734 25.2569 24.854 23.8541C23.5346 22.4514 21.9165 21.75 19.9998 21.75C18.0832 21.75 16.4651 22.4514 15.1457 23.8541C13.8262 25.2569 13.1665 26.9305 13.1665 28.875V34.1666ZM6.6665 36.6666V34.1666H10.6665V28.875C10.6665 26.9305 11.1734 25.1458 12.1873 23.5208C13.2012 21.8958 14.6109 20.7222 16.4165 20C14.6109 19.2778 13.2012 18.0972 12.1873 16.4583C11.1734 14.8194 10.6665 13.0278 10.6665 11.0833V5.83331H6.6665V3.33331H33.3332V5.83331H29.3332V11.0833C29.3332 13.0278 28.8193 14.8194 27.7915 16.4583C26.7637 18.0972 25.3609 19.2778 23.5832 20C25.3887 20.7222 26.7984 21.8958 27.8123 23.5208C28.8262 25.1458 29.3332 26.9305 29.3332 28.875V34.1666H33.3332V36.6666H6.6665Z" fill="#337066"/>
</svg>
