<svg width="40" height="40" viewBox="0 0 40 40" fill="none" xmlns="http://www.w3.org/2000/svg">
<path d="M26.0833 17.7917C26.7222 17.7917 27.2569 17.5764 27.6875 17.1458C28.1181 16.7153 28.3333 16.1805 28.3333 15.5417C28.3333 14.9028 28.1181 14.3681 27.6875 13.9375C27.2569 13.5069 26.7222 13.2917 26.0833 13.2917C25.4444 13.2917 24.9097 13.5069 24.4792 13.9375C24.0486 14.3681 23.8333 14.9028 23.8333 15.5417C23.8333 16.1805 24.0486 16.7153 24.4792 17.1458C24.9097 17.5764 25.4444 17.7917 26.0833 17.7917V17.7917ZM13.9167 17.7917C14.5556 17.7917 15.0903 17.5764 15.5208 17.1458C15.9514 16.7153 16.1667 16.1805 16.1667 15.5417C16.1667 14.9028 15.9514 14.3681 15.5208 13.9375C15.0903 13.5069 14.5556 13.2917 13.9167 13.2917C13.2778 13.2917 12.7431 13.5069 12.3125 13.9375C11.8819 14.3681 11.6667 14.9028 11.6667 15.5417C11.6667 16.1805 11.8819 16.7153 12.3125 17.1458C12.7431 17.5764 13.2778 17.7917 13.9167 17.7917V17.7917ZM20 22.625C18.1389 22.625 16.4514 23.1458 14.9375 24.1875C13.4236 25.2292 12.3056 26.6111 11.5833 28.3333H13.7917C14.4028 27.1667 15.2708 26.2639 16.3958 25.625C17.5208 24.9861 18.7361 24.6667 20.0417 24.6667C21.3472 24.6667 22.5486 24.9861 23.6458 25.625C24.7431 26.2639 25.6111 27.1667 26.25 28.3333H28.4167C27.7222 26.6111 26.6111 25.2292 25.0833 24.1875C23.5556 23.1458 21.8611 22.625 20 22.625V22.625ZM20 36.6667C17.7222 36.6667 15.5694 36.2292 13.5417 35.3542C11.5139 34.4792 9.74306 33.2847 8.22917 31.7708C6.71528 30.2569 5.52084 28.4861 4.64584 26.4583C3.77084 24.4305 3.33334 22.2639 3.33334 19.9583C3.33334 17.6806 3.77084 15.5278 4.64584 13.5C5.52084 11.4722 6.71528 9.70833 8.22917 8.20833C9.74306 6.70833 11.5139 5.52083 13.5417 4.64583C15.5694 3.77083 17.7361 3.33333 20.0417 3.33333C22.3194 3.33333 24.4722 3.77083 26.5 4.64583C28.5278 5.52083 30.2917 6.70833 31.7917 8.20833C33.2917 9.70833 34.4792 11.4722 35.3542 13.5C36.2292 15.5278 36.6667 17.6944 36.6667 20C36.6667 22.2778 36.2292 24.4305 35.3542 26.4583C34.4792 28.4861 33.2917 30.2569 31.7917 31.7708C30.2917 33.2847 28.5278 34.4792 26.5 35.3542C24.4722 36.2292 22.3056 36.6667 20 36.6667ZM20 34.1667C23.9444 34.1667 27.2917 32.7847 30.0417 30.0208C32.7917 27.2569 34.1667 23.9167 34.1667 20C34.1667 16.0556 32.7917 12.7083 30.0417 9.95833C27.2917 7.20833 23.9444 5.83333 20 5.83333C16.0833 5.83333 12.7431 7.20833 9.97917 9.95833C7.21528 12.7083 5.83334 16.0556 5.83334 20C5.83334 23.9167 7.21528 27.2569 9.97917 30.0208C12.7431 32.7847 16.0833 34.1667 20 34.1667Z" fill="#337066"/>
</svg>
