<svg width="40" height="40" viewBox="0 0 40 40" fill="none" xmlns="http://www.w3.org/2000/svg">
<path d="M20.8333 40C17.0278 40 13.7847 38.6597 11.1042 35.9792C8.42361 33.2986 7.08333 30.0556 7.08333 26.25V11.25C7.08333 10.1944 7.45139 9.30556 8.1875 8.58333C8.92361 7.86111 9.80555 7.5 10.8333 7.5C11.0278 7.5 11.2361 7.52083 11.4583 7.5625C11.6806 7.60417 11.8889 7.65278 12.0833 7.70833V6.25C12.0833 5.19444 12.4514 4.30556 13.1875 3.58333C13.9236 2.86111 14.8056 2.5 15.8333 2.5C16.0556 2.5 16.2847 2.52083 16.5208 2.5625C16.7569 2.60417 16.9861 2.66667 17.2083 2.75C17.5139 1.94444 17.9931 1.28472 18.6458 0.770833C19.2986 0.256944 20.0278 0 20.8333 0C21.8056 0 22.6736 0.354167 23.4375 1.0625C24.2014 1.77083 24.5833 2.61111 24.5833 3.58333C24.7222 3.52778 24.9028 3.47222 25.125 3.41667C25.3472 3.36111 25.5833 3.33333 25.8333 3.33333C26.8889 3.33333 27.7778 3.69444 28.5 4.41667C29.2222 5.13889 29.5833 6.02778 29.5833 7.08333V13.9167C29.8056 13.8611 30.0347 13.8194 30.2708 13.7917C30.5069 13.7639 30.6944 13.75 30.8333 13.75C31.8889 13.75 32.7778 14.1111 33.5 14.8333C34.2222 15.5556 34.5833 16.4444 34.5833 17.5V26.25C34.5833 30.0556 33.2431 33.2986 30.5625 35.9792C27.8819 38.6597 24.6389 40 20.8333 40ZM20.8333 37.5C22.3889 37.5 23.8542 37.2083 25.2292 36.625C26.6042 36.0417 27.7986 35.2431 28.8125 34.2292C29.8264 33.2153 30.625 32.0208 31.2083 30.6458C31.7917 29.2708 32.0833 27.8056 32.0833 26.25V17.5C32.0833 17.1389 31.9653 16.8403 31.7292 16.6042C31.4931 16.3681 31.1944 16.25 30.8333 16.25C30.5 16.25 30.2083 16.3681 29.9583 16.6042C29.7083 16.8403 29.5833 17.1389 29.5833 17.5V24.5833L29.0417 24.6667C27.7917 24.8611 26.7569 25.4167 25.9375 26.3333C25.1181 27.25 24.6667 28.3333 24.5833 29.5833H22.0833C22.1667 28.0278 22.6597 26.6389 23.5625 25.4167C24.4653 24.1944 25.6389 23.2778 27.0833 22.6667V7.08333C27.0833 6.72222 26.9653 6.42361 26.7292 6.1875C26.4931 5.95139 26.1944 5.83333 25.8333 5.83333C25.5 5.83333 25.2083 5.95139 24.9583 6.1875C24.7083 6.42361 24.5833 6.72222 24.5833 7.08333V17.9167H22.0833V3.75C22.0833 3.38889 21.9653 3.09028 21.7292 2.85417C21.4931 2.61806 21.1944 2.5 20.8333 2.5C20.5 2.5 20.2083 2.61806 19.9583 2.85417C19.7083 3.09028 19.5833 3.38889 19.5833 3.75V17.9167H17.0833V6.25C17.0833 5.88889 16.9653 5.59028 16.7292 5.35417C16.4931 5.11806 16.1944 5 15.8333 5C15.5 5 15.2083 5.11806 14.9583 5.35417C14.7083 5.59028 14.5833 5.88889 14.5833 6.25V19.5833H12.0833V11.25C12.0833 10.8889 11.9653 10.5903 11.7292 10.3542C11.4931 10.1181 11.1944 10 10.8333 10C10.5 10 10.2083 10.1181 9.95833 10.3542C9.70833 10.5903 9.58333 10.8889 9.58333 11.25V26.25C9.58333 27.8056 9.875 29.2708 10.4583 30.6458C11.0417 32.0208 11.8403 33.2153 12.8542 34.2292C13.8681 35.2431 15.0625 36.0417 16.4375 36.625C17.8125 37.2083 19.2778 37.5 20.8333 37.5Z" fill="#337066"/>
</svg>
